<svg width="61" height="68" viewBox="0 0 61 68" fill="none" xmlns="http://www.w3.org/2000/svg"><path fill-rule="evenodd" clip-rule="evenodd" d="M10.13 63.797c.11.003.217.006.325.006 1.615 0 2.747-.887 2.75-2.588 0-.39-.08-.77-.263-1.127-.539-1.093-1.581-1.266-2.68-1.266-.507 0-1.043.058-1.513.149v7.799h1.053v-2.978c.11 0 .219.002.328.005zm-.328-4.068c.218-.022.446-.033.675-.033 1.076 0 1.65.517 1.65 1.61 0 1.069-.607 1.62-1.66 1.62-.22 0-.447-.01-.665-.021v-3.176zm7.143 2.349a2.189 2.189 0 00-.514-.047c-.504 0-.939.31-1.215.725v4.014h-.963v-5.464h.769l.104.563a1.733 1.733 0 011.386-.712c.173 0 .332.022.515.08l-.082.84zm.334 1.931c0 1.643.905 2.91 2.634 2.91 1.694 0 2.657-1.3 2.659-2.91 0-1.588-.94-2.876-2.623-2.876-1.674 0-2.67 1.277-2.67 2.876zm1.04 0c0-1.011.481-2.116 1.627-2.116s1.57 1.116 1.568 2.116c0 1.013-.457 2.15-1.603 2.15s-1.592-1.139-1.592-2.15zm7.048 2.909c-.698 0-1.146-.275-1.387-.816-.114-.263-.16-.69-.16-1.379v-2.75h-.791v-.656h.79v-1.035l.974-.38v1.415h1.524v.643h-1.524v2.819c0 .414.033.725.104.909.104.275.32.437.676.437.287 0 .607-.127.985-.404l.147.7c-.432.338-.867.497-1.338.497zm5.35-2.676c.305.003.617.005.94-.002.032-.242.044-.473.048-.688 0-.84-.276-1.612-.974-2.07a2.17 2.17 0 00-1.18-.347c-1.66 0-2.554 1.313-2.554 2.865 0 1.621.87 2.92 2.6 2.92.719 0 1.395-.183 1.99-.631l-.114-.794c-.537.426-1.11.643-1.74.643-1.075 0-1.636-.898-1.672-1.898h2.21c.148 0 .296 0 .446.002zm-2.647-.763c.08-.816.515-1.563 1.41-1.563.8 0 1.203.714 1.2 1.459a.32.32 0 01-.005.052.323.323 0 00-.006.052H28.07zm7.033 3.439c-1.603 0-2.691-1.23-2.691-2.807 0-1.714 1.11-2.978 2.828-2.978.596 0 1.157.148 1.66.517l-.194.747c-.459-.31-.927-.484-1.43-.484-1.146 0-1.822.978-1.822 2.072 0 1.104.583 2.162 1.786 2.162.54 0 1.054-.162 1.546-.484l.183.725a3.628 3.628 0 01-1.866.53zm4.593 0c-.698 0-1.146-.275-1.387-.816-.114-.263-.159-.69-.159-1.379v-2.75h-.79v-.656h.79v-1.035l.974-.38v1.415h1.524v.643h-1.524v2.819c0 .414.033.725.104.909.104.275.32.437.676.437.287 0 .607-.127.984-.404l.148.7c-.434.338-.87.497-1.34.497zm5.339-2.676c.305.003.617.005.94-.002.032-.242.046-.473.043-.688 0-.84-.276-1.612-.973-2.07a2.17 2.17 0 00-1.18-.347c-1.66 0-2.555 1.313-2.555 2.865 0 1.621.87 2.92 2.6 2.92.722 0 1.397-.183 1.994-.631l-.115-.794c-.537.426-1.111.643-1.74.643-1.076 0-1.639-.898-1.672-1.898h2.21l.448.002zm-2.647-.763c.08-.816.515-1.563 1.409-1.563.802 0 1.203.714 1.203 1.459a.32.32 0 01-.005.052.323.323 0 00-.006.052h-2.6zm8.259 2.807l.114.484h.742v-8.132h-.962v2.923c-.32-.23-.846-.404-1.316-.404-1.305 0-2.52 1.196-2.52 2.92 0 1.633.905 2.841 2.372 2.841.516 0 1.146-.217 1.57-.632zm-1.319-4.313c.493 0 .963.195 1.215.39h-.002v3.178c-.274.31-.789.575-1.316.575-.882 0-1.478-.748-1.478-2.083 0-1.428.848-2.06 1.581-2.06zM.022 35.058c.587.277 1.347.416 2.255.416 4.522 0 8.1-2.898 10.632-8.612l2.895-7.052h4.58l1.013-1.987h-4.884l.185-.445c1.656-3.996 3.794-6.023 6.349-6.023.545 0 1.243.175 2.073.519l1.513-2.309a6.922 6.922 0 00-2.623-.552c-4.525 0-8.102 2.898-10.637 8.617l-.084.191H4.93l-1.018 1.991 8.56-.004-1.114 2.639H1.453L.437 24.42h10.21L9.54 27.11c-1.658 3.998-3.778 6.025-6.3 6.025-.54 0-1.21-.166-2.038-.508l-1.179 2.43zm51.142-14.465c-.729-.707-1.535-1.06-2.416-1.06-.587 0-1.102.15-1.544.455-.444.301-.68.7-.706 1.195-.022.361.084.672.311.929.23.262.632.55 1.206.872l1.596.893c.493.275.853.63 1.08 1.06.228.43.325.903.296 1.413-.075 1.35-.623 2.417-1.64 3.202-1.016.787-2.282 1.18-3.783 1.18-1.323 0-2.491-.333-3.502-.992l1.282-2.122c.288.306.71.588 1.268.843.559.257 1.04.386 1.448.386.698 0 1.286-.191 1.758-.568.475-.377.731-.885.769-1.53a1.2 1.2 0 00-.31-.883c-.225-.26-.62-.556-1.187-.893l-1.606-.918c-.492-.29-.854-.659-1.084-1.102a2.692 2.692 0 01-.303-1.42c.067-1.17.57-2.11 1.52-2.818.945-.712 2.082-1.069 3.4-1.069.914 0 2 .293 3.26.874l-1.113 2.073zm-9.84-.403c-.541-.437-1.285-.655-2.235-.655-1.444 0-2.64.572-3.595 1.714-.956 1.145-1.48 2.548-1.572 4.214-.06 1.022.183 1.836.727 2.445.543.61 1.183.912 1.918.912 1.138 0 2.248-.353 3.328-1.056l-.38 2.289c-1.048.454-2.184.68-3.405.68-1.55 0-2.716-.445-3.495-1.337-.78-.891-1.129-2.075-1.045-3.55.135-2.404.901-4.368 2.303-5.9 1.403-1.53 3.118-2.296 5.154-2.296 1.204 0 2.14.213 2.805.63l-.508 1.91zm-11.966.403c-.727-.707-1.533-1.06-2.416-1.06-.588 0-1.102.15-1.546.455-.444.301-.678.7-.707 1.195-.02.361.084.672.314.929.227.262.631.55 1.208.872l1.594.893c.493.275.855.63 1.08 1.06.227.43.327.903.296 1.413-.075 1.35-.623 2.417-1.64 3.202-1.019.787-2.28 1.18-3.783 1.18-1.323 0-2.491-.333-3.503-.992l1.283-2.122c.287.306.711.588 1.268.843.558.257 1.042.386 1.45.386.696 0 1.284-.191 1.76-.568.478-.377.731-.885.769-1.53a1.21 1.21 0 00-.31-.883c-.222-.26-.62-.556-1.187-.893l-1.605-.918c-.495-.29-.855-.659-1.085-1.102a2.692 2.692 0 01-.302-1.42c.066-1.17.572-2.11 1.519-2.818.947-.712 2.082-1.069 3.403-1.069.914 0 1.998.293 3.26.874l-1.12 2.073z" fill="#6C1C73"/><path fill-rule="evenodd" clip-rule="evenodd" d="M33.262.675c-.844 0-1.687.018-2.533.058-2.447.117-4.895.36-7.322.83-2.425.465-4.838 1.108-7.164 2.101-1.161.497-2.303 1.076-3.38 1.808-.54.366-1.063.767-1.553 1.222a9.17 9.17 0 00-1.349 1.532 6.612 6.612 0 00-.923 1.918 5.482 5.482 0 00-.183 2.155 6.44 6.44 0 00.572 2.005c.03.066.066.13.099.195a.29.29 0 00.23.113.287.287 0 00.291-.281.311.311 0 00-.022-.111l.002.002c-.026-.064-.057-.129-.081-.195a6.005 6.005 0 01-.409-1.814 4.819 4.819 0 01.245-1.803 5.608 5.608 0 01.864-1.59c.737-.964 1.702-1.734 2.727-2.37a20.284 20.284 0 013.252-1.595 31.394 31.394 0 013.443-1.102 40.919 40.919 0 013.526-.76 55.515 55.515 0 017.16-.737 92.774 92.774 0 017.198.04c1.2.051 2.394.147 3.584.266 1.19.12 2.378.282 3.555.495 2.354.421 4.684 1.051 6.87 2.069A17.035 17.035 0 0155.068 7c.481.374.943.782 1.373 1.226.43.446.828.925 1.188 1.437a11.326 11.326 0 011.628 3.435c.353 1.24.499 2.559.492 3.865-.029 2.627-.698 5.226-1.742 7.588a25.411 25.411 0 01-1.826 3.386 27.725 27.725 0 01-2.266 3.027 26.85 26.85 0 01-2.601 2.637c-.457.405-.923.796-1.403 1.164a22.92 22.92 0 01-1.46 1.055c-1.98 1.33-4.1 2.358-6.295 2.976l-.406.111a13.001 13.001 0 01-1.234.264c-.546.095-1.098.16-1.65.186-.554.025-1.108.03-1.665-.004-.556-.036-1.113-.1-1.667-.187-2.221-.363-4.416-1.172-6.532-2.252-2.098-1.08-4.127-2.402-6.09-3.93l-.02-.02-.002.002a.278.278 0 00-.03-.022c.001.002.001.005.003.007a.219.219 0 00-.139-.051.217.217 0 00-.22.213c0 .05.02.095.05.133l-.006.006c1.605 2.092 3.835 4.176 6.543 6.032l-.014-.013c1.804 1.217 3.798 2.166 5.938 2.683a14.3 14.3 0 001.923.34c.65.07 1.305.108 1.963.086a15.522 15.522 0 001.972-.178c.327-.055.654-.12.977-.195.185-.044.293-.069.472-.117l.48-.131c2.52-.734 4.888-2.014 6.988-3.655 2.105-1.64 3.933-3.654 5.476-5.872a29.471 29.471 0 002.08-3.49 28.248 28.248 0 001.595-3.756c.82-2.402 1.336-4.939 1.342-7.48v-.095c0-.153-.002-.306-.006-.46a15.46 15.46 0 00-.605-4.004 12.55 12.55 0 00-1.707-3.57 13.74 13.74 0 00-2.613-2.81 17.973 17.973 0 00-3.133-2.064c-2.2-1.165-4.549-1.952-6.93-2.53a44.546 44.546 0 00-3.603-.701A55.969 55.969 0 0033.403.68h-.141V.675z" fill="url(#paint0_linear_12382_6361)"/><defs><linearGradient id="paint0_linear_12382_6361" x1="24.556" y1="46.402" x2="65.774" y2="23.466" gradientUnits="userSpaceOnUse"><stop offset=".106" stop-color="#6C1C73"/><stop offset=".432" stop-color="#1F3B72"/><stop offset=".72" stop-color="#AAC811"/><stop offset=".965" stop-color="#6C1C73"/></linearGradient></defs></svg>