<svg width="96" height="16" viewBox="0 0 96 16" fill="none" xmlns="http://www.w3.org/2000/svg"><path d="M15.937 6.146a1.285 1.285 0 00-.908-.838l-3.822-.961L9.09 1.075c-.493-.765-1.687-.768-2.184 0L4.795 4.348.972 5.31a1.285 1.285 0 00-.91.836c-.135.414-.047.867.235 1.202l2.517 2.985-.251 3.867c-.197 3.03 4.437-.187 5.435-.169 1.009.02 5.63 3.163 5.436.168l-.248-3.866 2.517-2.985c.282-.333.37-.788.234-1.202zm20 0a1.285 1.285 0 00-.908-.838l-3.823-.961-2.114-3.272c-.494-.765-1.688-.768-2.185 0l-2.112 3.273-3.823.962a1.285 1.285 0 00-.91.836c-.135.414-.047.867.235 1.202l2.517 2.985-.251 3.867c-.197 3.03 4.437-.187 5.435-.169 1.009.02 5.63 3.163 5.436.168l-.248-3.866 2.517-2.985c.282-.333.37-.788.234-1.202zm20 0a1.285 1.285 0 00-.908-.838l-3.823-.961-2.114-3.272c-.495-.765-1.688-.768-2.185 0l-2.112 3.273-3.823.962a1.285 1.285 0 00-.91.836c-.135.414-.047.867.235 1.202l2.517 2.985-.251 3.867c-.197 3.03 4.437-.187 5.435-.169 1.009.02 5.63 3.163 5.436.168l-.248-3.866 2.517-2.985c.282-.333.37-.788.234-1.202zm20 0a1.285 1.285 0 00-.908-.838l-3.822-.961-2.115-3.272c-.495-.765-1.688-.768-2.185 0l-2.112 3.273-3.823.962a1.285 1.285 0 00-.91.836c-.135.414-.047.867.235 1.202l2.517 2.985-.251 3.867c-.197 3.03 4.437-.187 5.435-.169 1.009.02 5.63 3.163 5.436.168l-.248-3.866 2.517-2.985c.282-.333.37-.788.234-1.202z" fill="#F9C000"/><path d="M95.937 6.046a1.285 1.285 0 00-.908-.838l-3.822-.962L89.092.975c-.495-.765-1.688-.769-2.185 0l-2.112 3.273-3.823.961a1.286 1.286 0 00-.91.837c-.135.413-.047.867.235 1.202l2.517 2.985-.251 3.866c-.197 3.03 4.437-.187 5.435-.168 1.009.02 5.63 3.163 5.436.168l-.248-3.866 2.517-2.985c.282-.334.37-.789.234-1.202z" fill="#E2E8EC"/><path d="M86.907.975c.497-.769 1.69-.765 2.184 0L91 3.927c.002.261.001 2.78 0 5.369v5.79c-.672-.219-2.578-1.147-3.002-1.155-.998-.018-5.632 3.198-5.435.168l.251-3.866-2.517-2.985a1.256 1.256 0 01-.234-1.202c.137-.413.48-.73.91-.837l3.822-.961L86.907.975z" fill="#F9C000"/></svg>