<svg xmlns="http://www.w3.org/2000/svg" fill="none" viewBox="0 0 104 26" height="26" width="104">
<path fill="white" d="M0 24.8462H4.88453V16.8305H6.42088C9.6768 16.8305 11.8892 16.4593 13.6094 15.4379C15.4822 14.3234 16.8044 12.3431 16.8044 9.58871C16.8342 8.35167 16.5114 7.13175 15.8739 6.07215C15.238 5.01486 14.3131 4.16239 13.2088 3.61568C11.4589 2.68774 9.24683 2.43944 6.60506 2.43944H0V24.8462ZM4.88453 12.8378V6.74123H6.54377C8.26367 6.74123 9.46197 6.80202 10.3526 7.20519C11.3664 7.6698 11.9199 8.56702 11.9199 9.83605C11.9426 10.3333 11.8248 10.8269 11.5799 11.26C11.3358 11.6922 10.9743 12.0462 10.5374 12.2807C9.70745 12.7453 8.60171 12.8378 6.66635 12.8378H4.88453ZM31.9122 18.4707C31.9767 17.9366 32.007 17.3994 32.0029 16.8612C32.0029 11.755 28.5012 9.27929 24.7837 9.27929C20.6059 9.27929 16.8593 12.4359 16.8593 17.2947C16.8593 22.0605 20.4546 25.1864 25.4301 25.1864C27.427 25.1864 29.7004 24.7224 31.1748 23.7938V19.8632C29.665 20.9124 27.8809 21.4936 26.0442 21.5344C23.894 21.5344 22.1735 20.5752 21.6513 18.4707H31.9122ZM21.6209 15.4997C22.02 13.7667 23.2795 12.8694 24.7236 12.8694C26.2287 12.8694 27.4273 13.8595 27.7035 15.4997H21.6209ZM34.809 24.8462H39.4784V14.6021C40.3074 13.9522 41.4444 13.3331 42.6424 13.3331C42.9402 13.3147 43.2384 13.3636 43.5148 13.4761C43.7913 13.5886 44.039 13.762 44.2397 13.9833C44.6084 14.4162 44.7623 14.9733 44.7623 16.1185V24.8462H49.4316V15.3448C49.4316 13.1475 49.0323 11.8167 48.1108 10.8267C47.5875 10.3146 46.9666 9.91343 46.2852 9.64727C45.6048 9.38143 44.8777 9.25627 44.1478 9.27929C42.434 9.3061 40.783 9.93027 39.4784 11.0446L39.4181 11.0142V9.61911H34.809V24.8462ZM53.6586 24.8462H58.3283V13.519H61.8303V9.61943H58.3283V7.05064C58.3283 5.75089 58.6351 4.82232 60.0804 4.82232C60.7642 4.84312 61.4441 4.93655 62.1084 5.10134V1.29456C61.28 0.998089 60.4058 0.851395 59.5263 0.861311C58.0209 0.861311 56.331 1.23249 55.2559 2.28489C54.0886 3.39906 53.6586 5.22485 53.6586 7.36038V9.61943H51.5081V13.519H53.6596V24.8462H53.6586ZM67.5132 17.233C67.4969 16.727 67.5818 16.2228 67.7628 15.7502C67.9436 15.2782 68.2171 14.8473 68.5669 14.4831C68.9162 14.1196 69.3349 13.8303 69.7981 13.6326C70.2607 13.4351 70.7583 13.3333 71.261 13.3333C71.7638 13.3333 72.2614 13.4351 72.724 13.6326C73.1872 13.8303 73.6059 14.1196 73.9551 14.4831C74.305 14.8473 74.5784 15.2782 74.7592 15.7502C74.9403 16.2228 75.0251 16.727 75.0089 17.233C75.0251 17.739 74.9403 18.2431 74.7592 18.7158C74.5784 19.1878 74.305 19.6187 73.9551 19.9829C73.6059 20.3465 73.1872 20.6359 72.724 20.8337C72.2614 21.0312 71.7638 21.133 71.261 21.133C70.7583 21.133 70.2607 21.0312 69.7981 20.8337C69.3349 20.6359 68.9161 20.3465 68.5669 19.9829C68.217 19.6187 67.9436 19.1878 67.7628 18.7158C67.5818 18.2431 67.4969 17.739 67.5132 17.233ZM62.8438 17.233C62.8438 21.7204 66.4394 25.1867 71.261 25.1867C76.083 25.1867 79.6786 21.7204 79.6786 17.233C79.6786 12.7456 76.083 9.27929 71.261 9.27929C66.4394 9.27929 62.8445 12.7453 62.8445 17.2327L62.8438 17.233ZM81.6602 24.8462H86.3293V1.20145H81.6602V24.8462ZM99.4226 24.0418V24.8462H104V1.20145H99.3303V9.80565L99.27 9.83573C98.3658 9.45544 97.3932 9.26592 96.4127 9.27897C91.8972 9.27897 88.4258 12.745 88.4258 17.5418C88.4258 22.215 91.7127 25.186 95.5221 25.186C96.8916 25.194 98.231 24.7839 99.3622 24.0101L99.4229 24.0405L99.4226 24.0418ZM99.3303 20.5755C98.5497 21.0743 97.6446 21.3424 96.7189 21.3492C94.4148 21.3492 93.1236 19.5839 93.1236 17.3258C93.1236 15.0357 94.4445 13.1789 96.9021 13.1789C97.7454 13.1827 98.5763 13.384 99.329 13.767V20.5752H99.3303V20.5755Z"></path>
</svg>
