<svg xmlns="http://www.w3.org/2000/svg" width="370" height="353" fill="none"><style>.B{fill:#4e68ff}.C{fill:#a9d2ff}.D{fill:#fff}.F{shape-rendering:crispEdges}.G{fill:#00d09c}.H{fill:#a1a3ad}.I{fill-rule:evenodd}.J{color-interpolation-filters:sRGB}</style><g filter="url(#A)"><rect x="121.5" y="8.805" width="232" height="173.851" rx="15.63" class="D F"/><path d="M137.129 24.435H337.87v43.722H137.129z" class="D"/><path d="m196.472 35.884 1.812-3.487h1.04l-2.394 4.355v2.59h-.916v-2.59l-2.395-4.355h1.05l1.803 3.487zm3.474.83c0-.506.099-.96.296-1.364s.477-.715.83-.935.762-.329 1.216-.329c.703 0 1.271.243 1.703.73s.654 1.134.654 1.941v.062c0 .502-.097.954-.291 1.355s-.466.708-.826.93-.766.334-1.23.334c-.7 0-1.267-.243-1.703-.73s-.649-1.13-.649-1.932v-.062zm.888.105c0 .572.131 1.032.395 1.379a1.28 1.28 0 0 0 1.069.52c.448 0 .804-.175 1.068-.525s.396-.846.396-1.479c0-.566-.135-1.024-.405-1.374s-.624-.529-1.069-.529c-.435 0-.787.173-1.054.52s-.4.843-.4 1.488zm8.201 2.013c-.343.404-.847.606-1.512.606-.55 0-.97-.159-1.259-.477s-.431-.795-.434-1.421v-3.358h.882v3.334c0 .782.318 1.173.954 1.173.674 0 1.123-.251 1.345-.754v-3.754h.883v5.161h-.84l-.019-.51zm4.796-3.859a2.676 2.676 0 0 0-.434-.033c-.579 0-.972.247-1.178.739v3.663h-.883v-5.161h.859l.014.596c.289-.461.7-.692 1.231-.692.171 0 .302.022.391.067v.82zm5.504 3.744a1.27 1.27 0 0 0 .825-.286c.235-.191.366-.429.391-.715h.835a1.604 1.604 0 0 1-.305.844 2.01 2.01 0 0 1-.754.639 2.154 2.154 0 0 1-.992.239c-.703 0-1.262-.234-1.679-.701s-.62-1.113-.62-1.927v-.148c0-.502.092-.949.277-1.34a2.11 2.11 0 0 1 .791-.911c.347-.216.756-.324 1.226-.324.579 0 1.059.173 1.441.52s.589.796.615 1.35h-.835a1.2 1.2 0 0 0-.381-.82 1.169 1.169 0 0 0-.84-.324c-.448 0-.796.162-1.044.487s-.368.787-.368 1.397v.167c0 .595.123 1.053.368 1.374s.594.482 1.049.482zm5.635-3.744a2.668 2.668 0 0 0-.434-.033c-.578 0-.971.247-1.178.739v3.663h-.882v-5.161h.858l.015.596a1.37 1.37 0 0 1 1.23-.692.9.9 0 0 1 .391.067v.82zm2.96 4.465c-.7 0-1.269-.229-1.708-.687s-.658-1.076-.658-1.846v-.162c0-.512.097-.968.291-1.369s.471-.719.82-.944.735-.343 1.145-.343c.671 0 1.193.221 1.565.663s.558 1.075.558 1.898v.367h-3.497c.013.509.161.921.444 1.235s.649.468 1.088.468c.311 0 .575-.064.791-.191a1.98 1.98 0 0 0 .568-.506l.539.42c-.433.665-1.081.997-1.946.997zm-.11-4.627c-.356 0-.655.13-.897.391s-.391.62-.448 1.087h2.585v-.067c-.025-.448-.146-.795-.362-1.04s-.509-.372-.878-.372zm3.031 1.908c0-.792.188-1.428.563-1.908s.867-.725 1.474-.725 1.083.207 1.436.62v-2.69h.882v7.326h-.811l-.043-.553c-.353.432-.844.649-1.474.649-.597 0-1.086-.245-1.464-.734s-.563-1.129-.563-1.918v-.067zm.883.1c0 .585.12 1.043.362 1.374s.576.496 1.002.496c.559 0 .968-.251 1.226-.754v-2.37c-.264-.486-.67-.73-1.217-.73-.432 0-.769.167-1.011.501s-.362.828-.362 1.483zm5.902 2.523h-.882v-5.161h.882v5.161zm-.954-6.53a.53.53 0 0 1 .129-.362c.089-.099.219-.148.391-.148s.302.049.391.148a.52.52 0 0 1 .134.362c0 .143-.045.262-.134.358s-.219.143-.391.143-.302-.048-.391-.143-.129-.215-.129-.358zm3.666.119v1.25h.963v.682h-.963v3.2c0 .207.042.362.128.467s.232.153.439.153c.102 0 .242-.019.42-.057v.715a2.54 2.54 0 0 1-.677.095c-.395 0-.692-.119-.892-.358s-.301-.577-.301-1.016v-3.2h-.94v-.682h.94v-1.25h.883zm7.621 5.042a.64.64 0 0 0-.271-.553c-.179-.134-.492-.248-.94-.343s-.8-.21-1.064-.343-.454-.293-.582-.477-.186-.404-.186-.658c0-.423.178-.781.535-1.073s.817-.439 1.373-.439c.585 0 1.059.151 1.422.453s.548.688.548 1.159h-.887c0-.242-.103-.45-.31-.625s-.461-.262-.773-.262c-.321 0-.572.07-.753.21a.66.66 0 0 0-.272.549c0 .213.084.374.252.482s.473.211.912.31.799.216 1.073.353.475.302.605.496.201.425.201.701c0 .461-.185.831-.554 1.111s-.847.415-1.435.415c-.414 0-.779-.073-1.097-.219s-.568-.35-.749-.611-.267-.549-.267-.854h.882c.016.296.134.531.353.706s.515.258.878.258c.334 0 .601-.067.801-.2s.305-.318.305-.544zm4.2.744a1.27 1.27 0 0 0 .825-.286c.236-.191.366-.429.391-.715h.835a1.604 1.604 0 0 1-.305.844 2.01 2.01 0 0 1-.754.639 2.15 2.15 0 0 1-.992.239c-.703 0-1.262-.234-1.679-.701s-.62-1.113-.62-1.927v-.148c0-.502.092-.949.277-1.34a2.11 2.11 0 0 1 .791-.911c.347-.216.756-.324 1.226-.324.579 0 1.059.173 1.441.52s.59.796.615 1.35h-.835a1.2 1.2 0 0 0-.381-.82 1.169 1.169 0 0 0-.84-.324c-.448 0-.796.162-1.044.487s-.368.787-.368 1.397v.167c0 .595.123 1.053.368 1.374s.594.482 1.049.482zm2.907-2.003c0-.506.099-.96.296-1.364s.477-.715.83-.935a2.27 2.27 0 0 1 1.216-.329c.703 0 1.27.243 1.703.73s.653 1.134.653 1.941v.062c0 .502-.097.954-.291 1.355a2.17 2.17 0 0 1-.825.93 2.268 2.268 0 0 1-1.23.334c-.7 0-1.268-.243-1.703-.73s-.649-1.13-.649-1.932v-.062zm.887.105c0 .572.132 1.032.396 1.379a1.28 1.28 0 0 0 1.069.52c.448 0 .804-.175 1.068-.525s.396-.846.396-1.479c0-.566-.135-1.024-.406-1.374a1.27 1.27 0 0 0-1.068-.529c-.436 0-.787.173-1.054.52s-.401.843-.401 1.488zm7.51-1.846a2.668 2.668 0 0 0-.434-.033c-.579 0-.971.247-1.178.739v3.663h-.882v-5.161h.858l.014.596c.29-.461.7-.692 1.231-.692a.9.9 0 0 1 .391.067v.82zm2.96 4.465c-.7 0-1.269-.229-1.708-.687s-.658-1.076-.658-1.846v-.162c0-.512.097-.968.291-1.369s.47-.719.82-.944.735-.343 1.145-.343c.671 0 1.192.221 1.564.663s.558 1.075.558 1.898v.367h-3.496c.013.509.161.921.444 1.235a1.41 1.41 0 0 0 1.087.468c.312 0 .576-.064.792-.191a1.99 1.99 0 0 0 .568-.506l.539.42c-.433.665-1.081.997-1.946.997zm-.11-4.627c-.356 0-.655.13-.897.391s-.391.62-.448 1.087h2.585v-.067c-.025-.448-.146-.795-.362-1.04s-.509-.372-.878-.372zm6.725 4.531h-.882v-5.161h.882v5.161zm-.954-6.53a.53.53 0 0 1 .129-.362c.089-.099.219-.148.391-.148s.302.049.391.148a.52.52 0 0 1 .134.362c0 .143-.045.262-.134.358s-.219.143-.391.143-.302-.048-.391-.143-.129-.215-.129-.358zm5.473 5.161a.64.64 0 0 0-.272-.553c-.178-.134-.491-.248-.939-.343s-.8-.21-1.064-.343-.455-.293-.582-.477-.186-.404-.186-.658c0-.423.178-.781.534-1.073s.818-.439 1.374-.439c.585 0 1.059.151 1.422.453s.548.688.548 1.159h-.887c0-.242-.103-.45-.31-.625s-.461-.262-.773-.262c-.321 0-.572.07-.753.21a.66.66 0 0 0-.272.549c0 .213.084.374.252.482s.473.211.911.31.8.216 1.074.353.475.302.605.496.201.425.201.701c0 .461-.185.831-.554 1.111s-.847.415-1.435.415c-.414 0-.779-.073-1.097-.219s-.568-.35-.749-.611-.267-.549-.267-.854h.882c.016.296.134.531.353.706s.515.258.878.258c.334 0 .601-.067.801-.2s.305-.318.305-.544z" fill="#44475b"/><path d="M220.695 52.242h-2.852v2.137h3.334v.964h-4.541v-6.945h4.508v.973h-3.301v1.917h2.852v.954zm3.303-.362.983-1.698h1.288l-1.579 2.542 1.631 2.619h-1.278l-1.03-1.765-1.026 1.765h-1.288l1.632-2.619-1.574-2.542h1.278l.963 1.698zm5.183 2.633c.289 0 .529-.084.72-.253s.292-.377.305-.625h1.092a1.701 1.701 0 0 1-.3.901 1.98 1.98 0 0 1-.763.658 2.277 2.277 0 0 1-1.04.243c-.722 0-1.294-.234-1.717-.701s-.635-1.113-.635-1.937v-.119c0-.785.21-1.413.63-1.884s.992-.711 1.717-.711c.614 0 1.113.18 1.498.539s.591.825.61 1.407h-1.092c-.013-.296-.114-.539-.305-.73s-.428-.286-.72-.286c-.376 0-.665.137-.868.41s-.307.682-.311 1.235v.186c0 .56.101.978.301 1.255s.496.41.878.41zm5.363.925c-.734 0-1.331-.23-1.789-.692s-.682-1.081-.682-1.851v-.143c0-.515.099-.975.296-1.378s.48-.723.84-.949a2.21 2.21 0 0 1 1.202-.339c.702 0 1.244.224 1.626.672s.577 1.083.577 1.903v.467h-3.372c.035.426.176.763.424 1.011a1.29 1.29 0 0 0 .945.372c.531 0 .963-.215 1.297-.644l.625.596a2.1 2.1 0 0 1-.83.72 2.59 2.59 0 0 1-1.159.253zm-.138-4.422c-.318 0-.576.111-.773.334s-.318.533-.372.93h2.208v-.086c-.025-.388-.128-.681-.31-.878s-.432-.3-.753-.3zm4.443 4.326h-1.159v-7.326h1.159v7.326zm2.597 0h-1.159v-7.326h1.159v7.326zm3.637.095c-.735 0-1.331-.23-1.789-.692s-.682-1.081-.682-1.851v-.143c0-.515.098-.975.296-1.378a2.28 2.28 0 0 1 .839-.949 2.21 2.21 0 0 1 1.202-.339c.703 0 1.245.224 1.626.672s.578 1.083.578 1.903v.467h-3.373c.035.426.177.763.425 1.011s.566.372.944.372a1.57 1.57 0 0 0 1.298-.644l.625.596c-.207.308-.484.548-.83.72s-.73.253-1.159.253zm-.139-4.422a.98.98 0 0 0-.772.334c-.194.223-.318.533-.373.93h2.209v-.086c-.026-.388-.129-.681-.31-.878s-.433-.3-.754-.3zm4.286-.835.033.596c.382-.461.883-.692 1.503-.692 1.074 0 1.621.615 1.64 1.846v3.41h-1.159v-3.344c0-.328-.071-.569-.214-.725s-.371-.239-.692-.239c-.467 0-.816.212-1.044.634v3.673h-1.16v-5.161h1.093zm5.912-1.254v1.254h.911v.859h-.911v2.881c0 .197.038.34.114.429s.22.129.42.129c.134 0 .269-.016.405-.048v.897a2.86 2.86 0 0 1-.763.11c-.89 0-1.335-.491-1.335-1.474V51.04h-.849v-.859h.849v-1.254h1.159zm3.126 4.369h-.997l-.109-4.899h1.221l-.115 4.899zm-1.14 1.498c0-.181.059-.331.177-.448s.278-.181.481-.181a.64.64 0 0 1 .482.181.607.607 0 0 1 .177.448c0 .175-.058.321-.172.439s-.277.177-.487.177-.372-.059-.486-.177-.172-.264-.172-.439z" class="G"/><path d="M284.533 95.183c11.696 11.609 18.556 27.121 19.291 43.452.073 1.616-1.246 2.93-2.865 2.93h-3.727c-1.618 0-2.922-1.314-3.007-2.93-.728-13.805-6.574-26.899-16.472-36.723-10.596-10.516-24.967-16.424-39.952-16.424s-29.357 5.908-39.953 16.424c-9.898 9.824-15.744 22.918-16.471 36.723-.085 1.616-1.389 2.93-3.008 2.93h-3.727c-1.618 0-2.937-1.314-2.864-2.93.735-16.331 7.594-31.843 19.291-43.452 12.394-12.301 29.204-19.212 46.732-19.212s34.338 6.911 46.732 19.212z" fill="#ebfbf7" class="I"/><path d="M184.208 103.01a65.319 65.319 0 0 0-12.544 35.625c-.072 1.617 1.247 2.93 2.865 2.93h3.83c1.619 0 2.923-1.314 3.008-2.93a55.85 55.85 0 0 1 10.703-30.032c7.006-9.58 16.885-16.711 28.221-20.371s23.548-3.659 34.884 0a56.452 56.452 0 0 1 26.402 18.017c1.018 1.248 2.834 1.541 4.139.598l2.926-2.111c1.318-.952 1.614-2.799.597-4.066a66.03 66.03 0 0 0-31.217-21.488c-13.26-4.28-27.544-4.28-40.804 0s-24.815 12.622-33.01 23.828z" class="G I"/><path d="M210.437 160.859v2.834c-.002.393-.126.714-.372.964s-.576.39-.996.421l-.146.006c-.456 0-.819-.124-1.09-.37s-.408-.584-.412-1.016v-2.839h.543v2.822c0 .302.083.536.249.704s.403.249.71.249.549-.083.713-.249.249-.399.249-.701v-2.825h.552zm3.459 2.653c0 .472-.108.851-.324 1.139s-.507.433-.876.433c-.375 0-.671-.12-.887-.358v1.491h-.529v-4.287h.483l.026.343c.216-.267.515-.4.899-.4a1.05 1.05 0 0 1 .881.42c.218.281.327.671.327 1.171v.048zm-.53-.06c0-.349-.074-.625-.223-.827a.72.72 0 0 0-.613-.303.78.78 0 0 0-.721.426v1.48a.78.78 0 0 0 .727.423c.254 0 .455-.1.604-.3s.226-.502.226-.899zm1.135 0c0-.475.112-.856.337-1.144s.52-.435.885-.435.649.124.861.372v-1.614h.53v4.395h-.487l-.026-.332c-.211.26-.506.39-.884.39-.359 0-.651-.147-.879-.441s-.337-.677-.337-1.151v-.04zm.529.06c0 .351.073.626.218.825s.345.297.601.297a.77.77 0 0 0 .735-.452v-1.422a.777.777 0 0 0-.73-.438c-.259 0-.461.1-.606.3s-.218.497-.218.89zm4.878 1.514a1.123 1.123 0 0 1-.074-.326 1.18 1.18 0 0 1-.882.384c-.305 0-.556-.086-.752-.258s-.292-.393-.292-.658c0-.323.122-.573.366-.75s.592-.269 1.036-.269h.515v-.243c0-.185-.055-.332-.166-.441s-.274-.166-.489-.166c-.189 0-.347.048-.475.143s-.192.211-.192.346h-.532c0-.154.054-.303.163-.446s.259-.26.446-.344.396-.125.621-.125c.357 0 .637.089.839.269s.307.422.315.735v1.425c0 .285.036.511.108.679v.045h-.555zm-.878-.403a.93.93 0 0 0 .472-.129.776.776 0 0 0 .323-.335v-.635h-.415c-.648 0-.973.19-.973.569 0 .166.056.296.166.39s.253.14.427.14zm2.931-3.443v.75h.579v.409h-.579v1.92c0 .124.026.218.078.281s.139.091.263.091a1.27 1.27 0 0 0 .252-.034v.429a1.543 1.543 0 0 1-.406.058c-.237 0-.415-.072-.536-.215s-.18-.346-.18-.61v-1.92h-.564v-.409h.564v-.75h.529zm2.543 3.904c-.42 0-.761-.138-1.024-.413s-.395-.645-.395-1.107v-.097a1.87 1.87 0 0 1 .174-.822c.119-.242.283-.431.493-.566a1.23 1.23 0 0 1 .686-.206c.403 0 .716.132.939.397s.335.645.335 1.139v.221h-2.098c.008.305.096.552.266.741a.85.85 0 0 0 .653.28.926.926 0 0 0 .475-.114 1.19 1.19 0 0 0 .34-.303l.324.251c-.26.399-.649.599-1.168.599zm-.066-2.776c-.213 0-.393.078-.538.234s-.234.372-.269.653h1.551v-.04c-.015-.269-.087-.477-.217-.624s-.305-.223-.527-.223zm1.819 1.144c0-.475.113-.856.338-1.144s.52-.435.884-.435.65.124.861.372v-1.614h.53v4.395h-.487l-.025-.332c-.212.26-.507.39-.885.39a1.06 1.06 0 0 1-.878-.441c-.225-.294-.338-.677-.338-1.151v-.04zm.529.06c0 .351.073.626.218.825s.345.297.601.297a.77.77 0 0 0 .735-.452v-1.422a.777.777 0 0 0-.729-.438c-.26 0-.462.1-.607.3s-.218.497-.218.89zm4.339-.063c0-.303.059-.576.177-.818s.286-.429.498-.561a1.36 1.36 0 0 1 .73-.197c.422 0 .762.146 1.022.437s.392.681.392 1.165v.037a1.83 1.83 0 0 1-.175.813 1.29 1.29 0 0 1-.495.558 1.36 1.36 0 0 1-.738.201c-.42 0-.761-.146-1.022-.438s-.389-.679-.389-1.159v-.038zm.532.063c0 .344.079.62.238.827s.374.312.641.312.482-.105.641-.314.237-.508.237-.888c0-.339-.081-.614-.243-.824a.76.76 0 0 0-.641-.317.76.76 0 0 0-.632.311c-.161.208-.241.506-.241.893zm3.51-1.582.017.389c.237-.298.546-.446.928-.446.654 0 .984.369.99 1.107v2.046h-.53v-2.049c-.002-.223-.053-.388-.154-.495s-.255-.16-.467-.16a.77.77 0 0 0-.452.137.93.93 0 0 0-.303.361v2.206h-.53v-3.096h.501zm2.775 2.819c0-.092.026-.168.08-.229s.137-.092.246-.092.191.031.246.092.086.137.086.229-.029.161-.086.22-.137.089-.246.089-.191-.03-.246-.089-.08-.133-.08-.22zm.003-2.527c0-.092.026-.168.08-.229s.137-.092.246-.092.191.031.246.092.086.137.086.229c0 .087-.029.161-.086.22s-.137.089-.246.089-.191-.03-.246-.089-.08-.133-.08-.22zm4.69 2.804h-.532v-3.528l-1.068.392v-.481l1.517-.57h.083v4.187zm4.34 0h-2.73v-.38l1.442-1.603c.214-.242.361-.439.441-.589a.99.99 0 0 0 .123-.473.746.746 0 0 0-.198-.535.69.69 0 0 0-.526-.209c-.263 0-.469.076-.615.226s-.218.357-.218.624h-.529c0-.383.123-.693.369-.93s.579-.355.993-.355c.387 0 .693.102.918.306s.338.473.338.81c0 .411-.261.899-.784 1.466l-1.116 1.21h2.092v.432zm5.472 0h-.553l-2.097-3.211v3.211h-.553v-4.167h.553l2.103 3.226v-3.226h.547v4.167zm.811-1.577c0-.303.059-.576.177-.818s.287-.429.498-.561a1.36 1.36 0 0 1 .73-.197c.422 0 .762.146 1.022.437s.392.681.392 1.165v.037a1.83 1.83 0 0 1-.175.813 1.29 1.29 0 0 1-.495.558 1.36 1.36 0 0 1-.738.201c-.42 0-.761-.146-1.022-.438s-.389-.679-.389-1.159v-.038zm.532.063c0 .344.079.62.238.827s.374.312.641.312.482-.105.641-.314.237-.508.237-.888c0-.339-.081-.614-.243-.824a.76.76 0 0 0-.641-.317.76.76 0 0 0-.632.311c-.161.208-.241.506-.241.893zm3.985.796.767-2.378h.541l-1.11 3.096h-.404l-1.122-3.096h.541l.787 2.378zm3.426-2.275-.301-.206c.178-.248.269-.51.275-.784v-.412h.524v.372a1.33 1.33 0 0 1-.143.572c-.092.189-.21.341-.355.458zm3.87 2.993h-2.73v-.38l1.443-1.603c.213-.242.36-.439.44-.589a.99.99 0 0 0 .123-.473.75.75 0 0 0-.197-.535.692.692 0 0 0-.527-.209c-.263 0-.468.076-.615.226s-.218.357-.218.624h-.529c0-.383.123-.693.369-.93s.579-.355.993-.355c.388 0 .694.102.919.306s.338.473.338.81c0 .411-.262.899-.785 1.466l-1.116 1.21h2.092v.432zm3.35 0h-2.73v-.38l1.442-1.603c.214-.242.361-.439.441-.589a.99.99 0 0 0 .123-.473.75.75 0 0 0-.197-.535.694.694 0 0 0-.527-.209c-.263 0-.468.076-.615.226s-.218.357-.218.624h-.529c0-.383.123-.693.369-.93s.579-.355.993-.355c.387 0 .694.102.919.306s.337.473.337.81c0 .411-.261.899-.784 1.466l-1.116 1.21h2.092v.432z" class="H"/><path d="m229.824 116.406-7.218 16.382h-3.162l7.205-15.638h-9.338v-2.418h12.513v1.674zm3.224 7.429.98-9.103h9.698v2.604h-7.193l-.496 4.316c.835-.479 1.777-.719 2.827-.719 1.72 0 3.055.55 4.006 1.649.959 1.1 1.439 2.58 1.439 4.44 0 1.835-.53 3.299-1.588 4.39-1.058 1.083-2.509 1.624-4.353 1.624-1.653 0-3.026-.467-4.117-1.401-1.083-.942-1.67-2.183-1.761-3.72h2.914c.116.876.43 1.55.943 2.021.513.463 1.182.695 2.009.695.926 0 1.645-.331 2.158-.993.521-.661.781-1.562.781-2.703 0-1.1-.285-1.968-.856-2.604-.57-.645-1.356-.968-2.356-.968-.546 0-1.009.075-1.389.224-.38.14-.794.421-1.24.843l-2.406-.595zm23.005-9.19v2.493h-.372c-1.687.025-3.035.488-4.043 1.389s-1.608 2.178-1.798 3.832c.967-1.017 2.203-1.525 3.708-1.525 1.595 0 2.852.562 3.77 1.686.926 1.125 1.388 2.575 1.388 4.353 0 1.835-.541 3.324-1.624 4.464-1.075 1.133-2.489 1.699-4.241 1.699-1.803 0-3.266-.665-4.39-1.996-1.117-1.331-1.675-3.076-1.675-5.234v-1.029c0-3.166.769-5.647 2.307-7.441 1.546-1.794 3.766-2.691 6.66-2.691h.31zm-3.237 8.619a3.2 3.2 0 0 0-1.823.558 3.27 3.27 0 0 0-1.203 1.488v.918c0 1.339.281 2.406.843 3.2.562.785 1.29 1.178 2.183 1.178s1.6-.335 2.12-1.005.782-1.55.782-2.641-.265-1.98-.794-2.666-1.232-1.03-2.108-1.03z" class="G"/><path d="M172.294 147.544h.398c.25-.004.446-.069.589-.197a.66.66 0 0 0 .215-.518c0-.489-.243-.733-.73-.733-.229 0-.412.066-.549.198a.68.68 0 0 0-.203.518h-.53a1.06 1.06 0 0 1 .361-.822c.242-.219.549-.329.921-.329.393 0 .701.104.925.312s.334.497.334.867a.91.91 0 0 1-.177.527c-.116.17-.276.297-.478.38.229.073.405.193.529.361s.189.373.189.615c0 .374-.122.671-.366.89s-.562.329-.953.329-.71-.105-.956-.317-.366-.491-.366-.839h.532c0 .22.072.395.215.527s.335.197.575.197c.256 0 .451-.066.587-.2s.203-.325.203-.575c0-.243-.074-.429-.223-.558s-.364-.197-.644-.201h-.398v-.432zm5.193.564c0 .62-.106 1.081-.318 1.382s-.543.452-.993.452c-.445 0-.774-.146-.987-.44s-.325-.737-.332-1.322v-.707c0-.613.106-1.068.317-1.365s.544-.447.996-.447.779.144.99.432.321.729.327 1.328v.687zm-.53-.724c0-.448-.063-.775-.189-.979s-.325-.309-.598-.309-.468.102-.592.306-.188.518-.192.942v.847c0 .45.065.783.195.999a.65.65 0 0 0 .595.32c.261 0 .455-.101.581-.303s.195-.521.2-.956v-.867zm3.879.724c0 .62-.105 1.081-.317 1.382s-.543.452-.993.452-.774-.146-.988-.44-.324-.737-.332-1.322v-.707c0-.613.106-1.068.318-1.365s.544-.447.996-.447.778.144.99.432.321.729.326 1.328v.687zm-.529-.724c0-.448-.063-.775-.189-.979s-.325-.309-.598-.309-.468.102-.592.306-.188.518-.192.942v.847c0 .45.065.783.194.999s.331.32.596.32.455-.101.581-.303.194-.521.2-.956v-.867zM296.147 148.054a1.295 1.295 0 0 1-.398.317 1.07 1.07 0 0 1-.504.121c-.24 0-.45-.06-.629-.178a1.15 1.15 0 0 1-.412-.498 1.698 1.698 0 0 1-.146-.712c0-.279.052-.53.157-.753a1.18 1.18 0 0 1 .452-.512 1.28 1.28 0 0 1 .681-.178c.413 0 .737.155.973.464s.358.727.358 1.259v.155c0 .81-.16 1.403-.481 1.777s-.804.563-1.451.572h-.103v-.446h.112c.437-.008.773-.121 1.007-.341s.363-.57.384-1.047zm-.816 0a.817.817 0 0 0 .49-.163.97.97 0 0 0 .329-.404v-.212c0-.347-.076-.629-.226-.847s-.342-.326-.573-.326a.68.68 0 0 0-.561.269c-.141.177-.211.412-.211.704 0 .284.067.519.203.704a.65.65 0 0 0 .549.275zm4.749.054c0 .62-.105 1.081-.317 1.382s-.543.452-.993.452c-.445 0-.774-.146-.988-.44s-.324-.737-.332-1.322v-.707c0-.613.106-1.068.318-1.365s.544-.447.996-.447.778.144.99.432.321.729.326 1.328v.687zm-.529-.724c0-.448-.063-.775-.189-.979s-.325-.309-.598-.309-.468.102-.592.306-.188.518-.192.942v.847c0 .45.065.783.194.999s.331.32.596.32.455-.101.581-.303.194-.521.2-.956v-.867zm3.879.724c0 .62-.106 1.081-.318 1.382s-.542.452-.993.452c-.444 0-.773-.146-.987-.44s-.324-.737-.332-1.322v-.707c0-.613.106-1.068.318-1.365s.544-.447.996-.447.778.144.99.432.32.729.326 1.328v.687zm-.529-.724c0-.448-.063-.775-.189-.979s-.325-.309-.598-.309-.469.102-.593.306-.188.518-.191.942v.847c0 .45.064.783.194.999a.65.65 0 0 0 .595.32c.262 0 .455-.101.581-.303s.195-.521.201-.956v-.867z" class="H"/><g clip-path="url(#C)" style="fill:#a39a9c"><path d="m253 144.616-.448.396-.448.396-.482.428-.33.291-.24.211c-.041.038-.04.04-.009.087l.659 1.019.608.935.045.075c.011.018.004.029-.017.031l-.046.001h-1.853c-.014 0-.027-.002-.041 0-.04.004-.065-.016-.083-.05l-.137-.249-.466-.838c-.031-.049-.039-.051-.071-.019l-.15.154-.136.143-.548.576-.221.231a.158.158 0 0 1-.127.053l-2.214-.001-.081-.001c-.048-.001-.059-.009-.063-.057l-.015-.173-.061-.536c-.013-.102-.005-.093-.105-.093-.506-.001-1.011 0-1.516-.002-.051 0-.082.016-.11.058l-.5.741c-.031.046-.065.064-.119.063l-.97-.001c-.025 0-.057.011-.071-.013s.016-.048.031-.069l.472-.676.59-.841.535-.767.42-.599.416-.596.227-.329a.129.129 0 0 1 .12-.063l1.818.002h.029c.053.001.056.003.063.054l.068.535.078.657.062.531.089.743.063.553.012.081c.003.022.015.025.032.013l.05-.041.407-.38.496-.455.303-.279c.021-.018.019-.037.007-.057l-.083-.133-.502-.775-.526-.808-.122-.191c-.021-.033-.015-.045.023-.048h.046l1.906-.002c.055 0 .087.02.116.067l.558.91c.029.042.036.043.06.023l.025-.025.411-.41.238-.23c.087-.076.158-.169.242-.25l.051-.047a.138.138 0 0 1 .101-.037l1.434.001v.082zm-7.61 2.152.435-.002.052-.001c.02-.002.032-.013.033-.034a.267.267 0 0 0 0-.04l-.04-.34-.064-.552-.035-.305c-.002-.01-.001-.021-.011-.026s-.021.008-.027.016l-.095.139-.53.804-.202.304c-.019.029-.013.038.02.038h.464v-.001zM232.016 149.926l-.526-.643-.622-.758c-.026-.033-.051-.039-.089-.031a4.83 4.83 0 0 1-.655.094c-.289.024-.58.04-.87.023a3.205 3.205 0 0 1-1.041-.218 1.057 1.057 0 0 1-.322-.194.818.818 0 0 1-.244-.44 1.81 1.81 0 0 1-.028-.514c.018-.242.066-.479.102-.718l.077-.464c.059-.276.142-.543.271-.795a1.55 1.55 0 0 1 .818-.747 2.38 2.38 0 0 1 .59-.167l.468-.041.558.003.701.034a3.01 3.01 0 0 1 .588.106c.181.054.355.124.505.242a.88.88 0 0 1 .348.698c.007.212-.029.421-.062.629l-.088.509c-.009.05-.014.055-.063.056l-.157.001H231.2c-.03.002-.055-.009-.063.013s.013.03.024.043l.536.649.586.706.401.49.261.311.758.918c.055.067.114.131.161.205h-1.848zm-2.234-2.057a.97.97 0 0 0 .196-.013.867.867 0 0 0 .612-.392 1.75 1.75 0 0 0 .218-.492l.199-.854a1.55 1.55 0 0 0 .033-.547c-.029-.21-.133-.361-.341-.427a1.054 1.054 0 0 0-.523-.02.798.798 0 0 0-.415.218 1.295 1.295 0 0 0-.287.439 2.678 2.678 0 0 0-.164.575l-.12.774c-.012.124-.011.247.017.369a.435.435 0 0 0 .361.356c.067.015.134.015.214.015v-.001zM228.043 144l-.119.568-.072.347c-.016.072-.019.074-.093.074h-1.969c-.063 0-.101.03-.113.091l-.107.505a.03.03 0 0 0 .041.052H227.376c.086 0 .087.002.068.083l-.154.668-.047.198c-.012.044-.019.049-.064.052h-1.801c-.032-.002-.05.013-.056.045l-.038.176-.117.539c-.019.087-.018.087.069.087l2.05.001c.115 0 .114 0 .09.112l-.194.884c-.009.049-.02.057-.07.059h-3.991c-.04 0-.081.001-.121-.01v-.012c.018-.013.021-.031.024-.051l.015-.08.259-1.149.232-1.055.342-1.601.127-.584h4.044V144z"/><path d="M234.132 144.534h.761c.062.001.066.007.053.069l-.191.85-.3 1.366-.116.522c-.036.19.036.331.194.429a.72.72 0 0 0 .895-.113.785.785 0 0 0 .184-.37l.2-.853.306-1.318.12-.514c.013-.065.018-.068.086-.068h1.486c.078 0 .083.007.064.086l-.331 1.502-.27 1.231c-.053.257-.176.474-.339.671s-.38.344-.622.446-.49.153-.747.179a4.315 4.315 0 0 1-.633.008 5.486 5.486 0 0 1-.611-.067.133.133 0 0 1-.082-.05l-.458-.556-.545-.656-.383-.459c-.029-.033-.034-.064-.025-.106l.194-.908.247-1.153.027-.125c.005-.029.022-.043.052-.043h.784zM242.519 144.534h1.673c.101 0 .103.003.078.101l-.152.62c-.017.069-.016.07-.089.07h-1.707c-.092 0-.092 0-.111.087l-.121.568c-.015.069-.012.074.057.074h1.417l.047.001c.041.003.046.009.037.051l-.139.635c-.009.043-.016.047-.059.05h-1.464c-.086 0-.088 0-.106.085l-.206.965-.131.596c-.009.041-.016.046-.059.048l-.041.001h-1.446c-.099 0-.1 0-.079-.098l.293-1.356.335-1.538.196-.902c.011-.053.017-.058.075-.058h1.702zM239.32 144.534h.732c.09 0 .09.001.071.086l-.174.789-.215.963-.399 1.815-.054.244c-.011.048-.016.052-.067.054H237.739c-.093 0-.092 0-.072-.091l.141-.652.301-1.391.265-1.214.113-.534c.014-.066.017-.069.083-.069h.75z"/></g><rect x="122" y="9.305" width="231" height="172.851" rx="15.13" stroke="#e9e9eb" class="F"/></g><g filter="url(#B)"><rect x="16.001" y="156.734" width="287.095" height="171.967" rx="21.515" class="D F"/><rect x="32.137" y="172.871" width="254.822" height="139.694" rx="5.379" class="D"/><path d="m66.528 190.331 3.396 17.081-16.075 9.637-3.396-17.205 16.075-9.513z" class="C"/><path d="m53.97 215.199-3.015-15.12 15.678-9.227 3.028 15.234-15.691 9.113z" class="D"/><path d="m65.563 198.927-2.664 1.585-.69-2.979 2.716-1.611.638 3.005zM61.381 201.442l-2.664 1.585-.686-2.982 2.713-1.608.637 3.005zM57.198 203.956l-2.664 1.582-.686-2.979 2.713-1.611.637 3.008zM66.999 204.457l-2.664 1.585-.686-2.979 2.713-1.611.638 3.005zM62.814 206.971l-2.664 1.585-.686-2.981 2.713-1.609.638 3.005zM58.633 209.483l-2.664 1.585-.686-2.979 2.713-1.611.638 3.005z" class="B"/><path d="m50.453 199.845 3.396 17.205-3.399-3.035-3.393-1.014 3.396-13.156z" class="C"/><path d="m47.106 213.018-.049-.017 3.396-13.156 1.978 10.023-5.325 3.15zM50.394 213.998l2.553-1.511.901 4.563-3.399-3.035-.055-.017z" class="B"/><path d="m50.453 199.845 3.396 17.205-3.399-3.035-3.393-1.011 3.396-13.155v-.004zm.042 14.082 3.21 2.868-3.263-16.533-3.272 12.675 3.324.99zM51.798 200.377l.868-.514.12.605-.868.513-.12-.604zM53.967 199.095l.869-.513.117.604-.865.514-.12-.605zM56.135 197.813l.868-.514.12.601-.869.514-.12-.601zM58.299 196.526l.869-.513.12.604-.868.514-.12-.605zM60.47 195.244l.868-.514.12.605-.868.513-.12-.604zM62.637 193.962l.869-.514.12.601-.868.514-.12-.601zM64.807 192.675l.865-.514.12.605-.869.513-.117-.604z" class="B"/><path d="M50.667 197.977c.237-.141.54-.118.852.067.579.346 1.034 1.155 1.034 1.84 0 .302-.088.547-.257.705a.627.627 0 0 1-.41.171l-.075-.379a.29.29 0 0 0 .237-.074c.088-.081.137-.232.137-.423 0-.544-.39-1.239-.849-1.511-.192-.114-.368-.138-.485-.071s-.182.235-.182.46c0 .252.081.541.228.82l-.322.184a2.172 2.172 0 0 1-.276-1c0-.366.13-.648.364-.789h.003zM52.836 196.695c.237-.141.54-.117.852.071.579.346 1.034 1.155 1.034 1.84 0 .302-.088.547-.257.705a.627.627 0 0 1-.41.171l-.075-.379a.29.29 0 0 0 .237-.074c.088-.081.137-.232.137-.423 0-.544-.39-1.239-.849-1.511-.192-.114-.367-.138-.485-.071s-.182.235-.182.46c0 .252.081.541.228.82l-.322.184a2.172 2.172 0 0 1-.276-1c0-.366.13-.648.364-.789l.003-.004zM55.004 195.409c.237-.141.54-.118.852.067.579.346 1.034 1.155 1.034 1.84 0 .302-.088.547-.257.705a.617.617 0 0 1-.41.171l-.075-.379a.29.29 0 0 0 .238-.074c.088-.08.137-.232.137-.423 0-.544-.39-1.239-.849-1.511-.192-.114-.368-.138-.485-.07s-.182.235-.182.46c0 .251.081.54.228.819l-.322.185a2.18 2.18 0 0 1-.276-1.001c0-.366.13-.648.364-.789h.003zM57.172 194.126c.237-.141.54-.117.852.067.579.346 1.034 1.155 1.034 1.84 0 .303-.088.548-.257.706a.627.627 0 0 1-.41.171l-.075-.38a.284.284 0 0 0 .237-.074c.088-.08.137-.231.137-.423 0-.544-.39-1.239-.849-1.511-.192-.114-.368-.137-.485-.07s-.182.235-.182.46c0 .252.081.541.228.819l-.322.185a2.175 2.175 0 0 1-.276-1.001c0-.366.13-.648.364-.789h.003zM59.34 192.844c.237-.141.54-.118.852.067.579.346 1.034 1.155 1.034 1.84 0 .302-.088.547-.257.705a.627.627 0 0 1-.41.171l-.075-.379a.29.29 0 0 0 .237-.074c.088-.081.137-.232.137-.423 0-.544-.39-1.239-.849-1.511-.192-.114-.368-.138-.485-.071s-.182.235-.182.46c0 .252.081.541.228.82l-.322.184a2.173 2.173 0 0 1-.277-1c0-.366.13-.648.364-.789h.003zM61.504 191.557c.237-.141.54-.117.852.068.579.345 1.034 1.155 1.034 1.84 0 .302-.088.547-.257.705a.627.627 0 0 1-.41.171l-.075-.379a.29.29 0 0 0 .237-.074c.088-.081.137-.232.137-.423 0-.544-.39-1.239-.849-1.511-.192-.115-.367-.138-.485-.071s-.182.235-.182.46c0 .252.081.541.228.819l-.322.185a2.172 2.172 0 0 1-.276-1.001c0-.366.13-.648.364-.789h.003zM63.674 190.275c.237-.141.54-.118.852.067.579.346 1.034 1.155 1.034 1.84 0 .302-.088.547-.257.705a.617.617 0 0 1-.41.171l-.075-.379a.29.29 0 0 0 .237-.074c.088-.081.137-.232.137-.423 0-.544-.39-1.239-.849-1.511-.192-.114-.368-.138-.485-.071s-.182.236-.182.46c0 .252.081.541.228.82l-.322.184a2.172 2.172 0 0 1-.276-1c0-.366.13-.648.364-.789h.003z" class="C"/><path d="M45.265 237.462v3.197H43.77v-8.604h3.291c.961 0 1.724.25 2.287.75s.851 1.162.851 1.986c0 .843-.278 1.499-.833 1.968s-1.326.703-2.322.703h-1.779zm0-1.2h1.796c.532 0 .938-.124 1.217-.372s.419-.615.419-1.087c0-.465-.142-.836-.425-1.111s-.674-.424-1.17-.432h-1.838v3.002zm8.961 4.515c-.91 0-1.649-.286-2.216-.857s-.845-1.339-.845-2.293v-.177c0-.638.122-1.208.366-1.708a2.83 2.83 0 0 1 1.04-1.176 2.74 2.74 0 0 1 1.489-.419c.871 0 1.542.277 2.015.833s.715 1.341.715 2.358v.579h-4.178c.043.528.219.945.526 1.253s.701.46 1.17.46a1.94 1.94 0 0 0 1.607-.797l.774.738a2.6 2.6 0 0 1-1.028.893 3.212 3.212 0 0 1-1.436.313zm-.171-5.478c-.394 0-.713.138-.957.414s-.394.659-.461 1.152h2.736v-.106c-.032-.481-.16-.844-.384-1.088s-.536-.372-.934-.372zm7.325.278a3.5 3.5 0 0 0-.585-.048c-.658 0-1.101.253-1.33.757v4.373h-1.436v-6.394H59.4l.035.715c.347-.556.827-.833 1.442-.833.205 0 .374.027.508.082l-.006 1.348zm4.612 3.344a.65.65 0 0 0-.319-.585c-.209-.134-.557-.252-1.046-.354s-.896-.233-1.223-.39c-.717-.347-1.076-.849-1.076-1.507 0-.552.233-1.013.697-1.383s1.056-.555 1.773-.555c.764 0 1.381.189 1.85.567s.709.869.709 1.471H65.92c0-.275-.102-.504-.307-.685s-.477-.278-.815-.278c-.315 0-.573.073-.774.219a.69.69 0 0 0-.295.585.58.58 0 0 0 .278.514c.185.122.559.246 1.123.372s1.005.27 1.324.443.561.375.715.615.236.532.236.875a1.67 1.67 0 0 1-.715 1.4c-.477.355-1.101.532-1.873.532-.524 0-.991-.095-1.4-.284s-.729-.449-.957-.78-.343-.687-.343-1.069h1.395c.02.338.148.6.384.786.236.181.55.271.94.271.378 0 .666-.071.863-.212a.675.675 0 0 0 .295-.568zm2.52-1.518c0-.627.124-1.19.372-1.69s.597-.891 1.046-1.159.965-.407 1.548-.407c.863 0 1.562.277 2.098.833s.831 1.292.875 2.21l.006.337c0 .63-.122 1.193-.366 1.69s-.587.88-1.04 1.152-.969.408-1.56.408c-.902 0-1.625-.299-2.169-.898s-.81-1.405-.81-2.405v-.071zm1.436.124c0 .658.136 1.174.408 1.548s.65.555 1.135.555.861-.189 1.129-.567.408-.932.408-1.66c0-.646-.14-1.159-.42-1.537a1.32 1.32 0 0 0-1.129-.567c-.469 0-.841.187-1.117.561s-.414.926-.414 1.667zm7.177-3.262.041.738c.473-.571 1.093-.856 1.862-.856 1.332 0 2.009.762 2.033 2.287v4.225h-1.436v-4.143c0-.405-.089-.705-.266-.898s-.459-.295-.857-.295a1.38 1.38 0 0 0-1.294.786v4.55h-1.436v-6.394h1.353zm9.346 6.394c-.063-.122-.118-.321-.166-.597a2.233 2.233 0 0 1-1.678.715c-.642 0-1.166-.183-1.572-.55s-.609-.819-.609-1.359c0-.681.252-1.203.756-1.566s1.233-.549 2.175-.549h.88v-.42c0-.331-.093-.595-.278-.792s-.467-.301-.845-.301c-.327 0-.595.083-.804.248a.75.75 0 0 0-.313.621h-1.436a1.58 1.58 0 0 1 .349-.981c.232-.308.548-.548.945-.721s.849-.26 1.341-.26c.749 0 1.345.189 1.791.567s.674.902.685 1.584v2.883c0 .576.081 1.035.242 1.377v.101H86.47zm-1.578-1.034c.284 0 .55-.069.798-.207s.441-.323.567-.556v-1.205h-.774c-.532 0-.932.092-1.2.278s-.402.447-.402.785c0 .276.091.497.272.662s.431.243.739.243zm5.953 1.034H89.41v-9.077h1.436v9.077zm6.459-1.194h3.906v1.194H95.81v-8.604h1.495v7.41zm4.766-2.062c0-.627.124-1.19.372-1.69s.597-.891 1.046-1.159.965-.407 1.548-.407c.863 0 1.562.277 2.098.833s.831 1.292.875 2.21l.006.337c0 .63-.122 1.193-.367 1.69-.24.496-.587.88-1.04 1.152s-.969.408-1.56.408c-.902 0-1.625-.299-2.169-.898s-.809-1.405-.809-2.405v-.071zm1.436.124c0 .658.136 1.174.408 1.548s.65.555 1.134.555.861-.189 1.129-.567.408-.932.408-1.66c0-.646-.14-1.159-.42-1.537a1.32 1.32 0 0 0-1.129-.567c-.468 0-.841.187-1.117.561s-.413.926-.413 1.667zm9.664 3.132c-.063-.122-.118-.321-.165-.597a2.23 2.23 0 0 1-1.678.715c-.642 0-1.166-.183-1.572-.55s-.609-.819-.609-1.359c0-.681.252-1.203.757-1.566s1.233-.549 2.174-.549h.881v-.42c0-.331-.093-.595-.278-.792s-.467-.301-.845-.301c-.327 0-.595.083-.804.248a.75.75 0 0 0-.313.621h-1.436c0-.351.116-.678.349-.981a2.3 2.3 0 0 1 .945-.721c.402-.174.849-.26 1.342-.26.748 0 1.345.189 1.79.567s.674.902.686 1.584v2.883c0 .576.08 1.035.242 1.377v.101h-1.466zm-1.577-1.034c.283 0 .549-.069.797-.207s.442-.323.568-.556v-1.205h-.774c-.532 0-.932.092-1.2.278s-.402.447-.402.785c0 .276.091.497.272.662s.431.243.739.243zm5.758-5.36.042.738c.472-.571 1.093-.856 1.861-.856 1.332 0 2.009.762 2.033 2.287v4.225h-1.436v-4.143c0-.405-.089-.705-.266-.898s-.459-.295-.857-.295a1.38 1.38 0 0 0-1.294.786v4.55h-1.436v-6.394h1.353z" fill="#44475b"/><path d="M46.803 254.697h-2.486v2.033h2.888v.618h-3.644v-5.736h3.605v.623h-2.848v1.843h2.486v.619zm3.941 2.651c-.042-.084-.076-.234-.102-.449a1.626 1.626 0 0 1-1.213.528c-.42 0-.766-.118-1.036-.355a1.16 1.16 0 0 1-.402-.906c0-.444.168-.788.504-1.032s.814-.37 1.426-.37h.709v-.335c0-.255-.076-.457-.229-.607s-.377-.228-.674-.228c-.26 0-.478.065-.654.197s-.264.29-.264.476h-.733c0-.212.075-.417.225-.614s.357-.357.615-.473a2.09 2.09 0 0 1 .855-.173c.491 0 .876.123 1.154.37s.423.582.433 1.013v1.961c0 .392.05.703.15.934v.063h-.764zm-1.209-.555c.229 0 .445-.059.65-.178s.353-.271.445-.461v-.874h-.571c-.893 0-1.34.261-1.34.784 0 .228.076.407.229.536s.348.193.587.193zm5.529-.576a.53.53 0 0 0-.225-.457c-.147-.11-.406-.204-.776-.283s-.66-.174-.879-.284-.376-.241-.481-.394-.154-.333-.154-.543c0-.35.147-.645.441-.887s.675-.362 1.135-.362c.483 0 .875.124 1.174.374s.453.569.453.957h-.733c0-.199-.085-.371-.256-.516s-.381-.216-.638-.216c-.265 0-.473.057-.623.173s-.224.266-.224.453a.44.44 0 0 0 .209.398c.139.089.39.174.752.256s.661.178.886.291.393.25.5.41.166.351.166.579c0 .381-.152.687-.457.918s-.7.343-1.186.343a2.16 2.16 0 0 1-.906-.181c-.263-.121-.469-.289-.618-.505s-.221-.453-.221-.705h.729c.013.244.11.439.291.583s.426.213.725.213c.276 0 .496-.055.662-.165s.252-.263.252-.45zm3.153.063.993-3.194h.78l-1.714 4.92c-.265.709-.687 1.064-1.265 1.064l-.138-.012-.272-.051v-.591l.197.015c.247 0 .439-.049.575-.149s.253-.283.343-.548l.161-.433-1.521-4.215h.796l1.064 3.194zm7.946-1.583h-2.486v2.033h2.888v.618h-3.644v-5.736h3.605v.623h-2.848v1.843h2.486v.619zm2.401-3.085 1.875 4.68 1.875-4.68h.981v5.736h-.756v-2.234l.071-2.411-1.883 4.645h-.579l-1.879-4.633.075 2.399v2.234h-.756v-5.736h.977zm6.959 5.736h-.756v-5.736h.756v5.736zm3.835-1.131a.53.53 0 0 0-.225-.457c-.147-.11-.406-.204-.776-.283s-.66-.174-.879-.284a1.26 1.26 0 0 1-.481-.394.952.952 0 0 1-.154-.543c0-.35.147-.645.441-.887s.675-.362 1.135-.362c.483 0 .875.124 1.174.374s.453.569.453.957h-.733c0-.199-.085-.371-.256-.516s-.381-.216-.638-.216c-.265 0-.473.057-.622.173s-.225.266-.225.453a.44.44 0 0 0 .209.398c.139.089.39.174.752.256s.66.178.886.291.393.25.5.41.165.351.165.579c0 .381-.152.687-.457.918s-.7.343-1.186.343c-.341 0-.644-.061-.906-.181a1.49 1.49 0 0 1-.618-.505 1.238 1.238 0 0 1-.221-.705h.729c.013.244.11.439.291.583s.425.213.725.213c.276 0 .496-.055.662-.165s.252-.263.252-.45zm1.735 2.274-.414-.284c.247-.344.376-.699.386-1.064v-.658h.713v.572c0 .265-.066.53-.197.795s-.292.478-.489.639zm6.402-1.564c-.284.333-.7.5-1.249.5-.454 0-.801-.131-1.04-.394s-.356-.657-.359-1.174v-2.773h.729v2.753c0 .646.263.969.788.969.557 0 .927-.207 1.111-.622v-3.1h.729v4.262h-.693l-.016-.421zm5.501-1.663c0 .649-.148 1.171-.445 1.568s-.699.595-1.206.595c-.517 0-.924-.164-1.221-.493v2.053h-.729v-5.901h.666l.036.472c.297-.367.709-.551 1.237-.551.512 0 .917.193 1.213.579s.449.923.449 1.611v.067zm-.729-.083c0-.48-.103-.86-.307-1.138s-.486-.418-.843-.418a1.07 1.07 0 0 0-.993.587v2.037a1.07 1.07 0 0 0 1.001.583.98.98 0 0 0 .831-.414c.207-.278.311-.69.311-1.237zm2.728-3.128v1.033h.796v.563h-.796v2.643c0 .171.035.3.106.386s.192.126.362.126c.084 0 .2-.015.347-.047v.591a2.094 2.094 0 0 1-.559.079c-.326 0-.571-.099-.737-.296s-.248-.476-.248-.839v-2.643h-.776v-.563h.776v-1.033h.729zm1.46 3.124c0-.417.081-.793.244-1.126a1.85 1.85 0 0 1 .686-.772 1.87 1.87 0 0 1 1.005-.272c.58 0 1.049.201 1.406.602s.54.937.54 1.604v.051c0 .415-.081.788-.241 1.119s-.385.584-.681.768-.633.276-1.016.276c-.578 0-1.047-.201-1.407-.603s-.536-.934-.536-1.595v-.052zm.733.087c0 .473.109.852.327 1.139s.515.429.883.429.664-.144.882-.433.327-.699.327-1.222c0-.467-.112-.845-.335-1.134a1.05 1.05 0 0 0-.882-.437c-.36 0-.65.143-.871.429s-.331.696-.331 1.229zm6.484-.792.292-2.86h2.939v.674h-2.321l-.173 1.564c.281-.166.6-.248.957-.248.523 0 .938.173 1.245.52s.461.81.461 1.398-.16 1.057-.481 1.399-.763.508-1.335.508c-.507 0-.921-.141-1.241-.422s-.503-.669-.548-1.166h.69c.044.329.161.577.35.745s.439.248.749.248c.339 0 .604-.116.796-.347s.291-.55.291-.957c0-.383-.105-.691-.315-.922s-.485-.35-.831-.35c-.318 0-.568.069-.749.208l-.193.158-.583-.15zm7.828 1.808.993-3.194h.78l-1.714 4.92c-.265.709-.687 1.064-1.265 1.064l-.137-.012-.272-.051v-.591l.197.015c.247 0 .438-.049.575-.149s.253-.283.343-.548l.161-.433-1.521-4.215h.796l1.064 3.194zm4.221 1.147c-.578 0-1.048-.189-1.41-.567s-.544-.889-.544-1.525v-.134c0-.423.08-.8.24-1.131a1.9 1.9 0 0 1 .678-.78c.291-.189.607-.283.945-.283.555 0 .985.182 1.293.547s.461.888.461 1.568v.304h-2.888c.01.42.132.76.366 1.02s.536.386.898.386c.258 0 .476-.052.654-.158a1.64 1.64 0 0 0 .469-.417l.445.347c-.357.548-.893.823-1.607.823zm-.091-3.821c-.294 0-.541.107-.74.323s-.323.512-.371.898h2.136v-.055c-.021-.371-.121-.657-.3-.859a.91.91 0 0 0-.725-.307zm5.313 3.742c-.042-.084-.076-.234-.103-.449a1.624 1.624 0 0 1-1.213.528c-.42 0-.766-.118-1.036-.355a1.16 1.16 0 0 1-.402-.906c0-.444.168-.788.504-1.032s.815-.37 1.426-.37h.71v-.335c0-.255-.077-.457-.229-.607s-.377-.228-.674-.228c-.26 0-.478.065-.654.197s-.263.29-.263.476h-.733c0-.212.075-.417.224-.614s.358-.357.615-.473a2.09 2.09 0 0 1 .855-.173c.491 0 .876.123 1.154.37s.423.582.433 1.013v1.961c0 .392.05.703.15.934v.063h-.764zm-1.21-.555a1.27 1.27 0 0 0 .65-.178c.205-.118.354-.271.446-.461v-.874h-.572c-.893 0-1.339.261-1.339.784 0 .228.076.407.228.536s.348.193.587.193zm5.108-3.054a2.23 2.23 0 0 0-.359-.027c-.478 0-.802.203-.973.611v3.025h-.728v-4.262h.709l.012.492a1.13 1.13 0 0 1 1.016-.571c.142 0 .249.018.323.055v.677zm3.236 2.478a.53.53 0 0 0-.224-.457c-.147-.11-.406-.204-.776-.283s-.661-.174-.879-.284-.375-.241-.481-.394a.95.95 0 0 1-.153-.543c0-.35.147-.645.441-.887s.675-.362 1.135-.362c.483 0 .874.124 1.174.374s.453.569.453.957h-.733c0-.199-.085-.371-.256-.516s-.381-.216-.638-.216c-.266 0-.473.057-.623.173a.54.54 0 0 0-.224.453.44.44 0 0 0 .208.398c.14.089.39.174.753.256s.66.178.886.291.393.25.501.41.165.351.165.579c0 .381-.152.687-.457.918s-.7.343-1.186.343a2.16 2.16 0 0 1-.906-.181 1.49 1.49 0 0 1-.618-.505 1.238 1.238 0 0 1-.221-.705h.729a.76.76 0 0 0 .291.583c.184.142.426.213.725.213.276 0 .497-.055.662-.165s.252-.263.252-.45z" fill="#7c7e8c"/><rect x="42.895" y="271.433" width="82.758" height="26.894" rx="2.689" fill="#ebfbf7"/><path d="M56.035 280.85h-1.718c.268.394.441.856.52 1.387h1.592l-.394 1.434h-1.19c-.116.867-.462 1.531-1.04 1.993s-1.395.731-2.45.82l3.672 4.294v.102h-2.261l-4.01-4.672-.008-1.205h1.993c.588 0 1.053-.121 1.395-.363.347-.247.578-.57.693-.969H48.59l.402-1.434h3.806c-.257-.814-.953-1.221-2.088-1.221h-2.119l.425-1.608h7.422l-.402 1.442zm2.249 4.342.622-5.784h6.161v1.655h-4.57l-.315 2.742c.531-.305 1.129-.457 1.796-.457 1.093 0 1.941.349 2.545 1.048.609.699.914 1.639.914 2.821 0 1.166-.336 2.095-1.008 2.789-.672.688-1.594 1.032-2.766 1.032-1.05 0-1.922-.297-2.616-.89-.688-.599-1.061-1.387-1.119-2.364h1.852c.074.557.273.985.599 1.284s.751.441 1.276.441c.588 0 1.045-.21 1.371-.63.331-.42.496-.993.496-1.718 0-.698-.181-1.25-.544-1.654-.362-.41-.861-.615-1.497-.615-.347 0-.641.048-.882.142s-.504.268-.788.536l-1.529-.378zm9.215 8.273-1.032-.615c.305-.478.512-.895.622-1.253a3.6 3.6 0 0 0 .181-1.079v-1.489h1.726l-.008 1.379a3.791 3.791 0 0 1-.425 1.67 4.112 4.112 0 0 1-1.064 1.387zm10.79-7.414c0 1.649-.31 2.894-.93 3.734-.615.835-1.552 1.253-2.813 1.253-1.24 0-2.175-.407-2.805-1.221-.625-.82-.946-2.03-.961-3.633v-1.985c0-1.649.307-2.886.922-3.711.62-.825 1.563-1.237 2.829-1.237 1.255 0 2.19.402 2.805 1.205.62.804.938 2.007.953 3.609v1.986zm-1.915-2.144c0-1.076-.147-1.864-.441-2.363-.294-.505-.762-.757-1.403-.757-.625 0-1.085.239-1.379.717-.294.473-.449 1.214-.465 2.222v2.6c0 1.072.15 1.87.449 2.396s.769.787 1.41.787c.615 0 1.069-.241 1.363-.724.294-.489.449-1.251.465-2.285v-2.593zm11.247 2.144c0 1.649-.31 2.894-.93 3.734-.615.835-1.552 1.253-2.813 1.253-1.24 0-2.175-.407-2.805-1.221-.625-.82-.945-2.03-.961-3.633v-1.985c0-1.649.307-2.886.922-3.711.62-.825 1.563-1.237 2.829-1.237 1.255 0 2.19.402 2.805 1.205.62.804.938 2.007.953 3.609v1.986zm-1.915-2.144c0-1.076-.147-1.864-.441-2.363-.294-.505-.762-.757-1.402-.757-.625 0-1.085.239-1.379.717-.294.473-.449 1.214-.465 2.222v2.6c0 1.072.15 1.87.449 2.396s.769.787 1.41.787c.615 0 1.069-.241 1.363-.724.294-.489.449-1.251.465-2.285v-2.593zm4.164 9.558-1.032-.615c.305-.478.512-.895.622-1.253a3.6 3.6 0 0 0 .181-1.079v-1.489h1.726l-.008 1.379a3.791 3.791 0 0 1-.425 1.67 4.112 4.112 0 0 1-1.064 1.387zm10.79-7.414c0 1.649-.31 2.894-.93 3.734-.615.835-1.552 1.253-2.813 1.253-1.24 0-2.175-.407-2.805-1.221-.625-.82-.945-2.03-.961-3.633v-1.985c0-1.649.307-2.886.922-3.711.62-.825 1.563-1.237 2.829-1.237 1.255 0 2.19.402 2.805 1.205s.937 2.007.953 3.609v1.986zm-1.915-2.144c0-1.076-.147-1.864-.441-2.363-.294-.505-.762-.757-1.403-.757-.625 0-1.085.239-1.379.717-.294.473-.449 1.214-.465 2.222v2.6c0 1.072.15 1.87.449 2.396s.77.787 1.41.787c.615 0 1.069-.241 1.363-.724.294-.489.449-1.251.465-2.285v-2.593zm11.248 2.144c0 1.649-.31 2.894-.93 3.734-.615.835-1.552 1.253-2.813 1.253-1.24 0-2.175-.407-2.805-1.221-.625-.82-.945-2.03-.961-3.633v-1.985c0-1.649.307-2.886.922-3.711.62-.825 1.562-1.237 2.828-1.237 1.256 0 2.191.402 2.805 1.205.62.804.938 2.007.954 3.609v1.986zm-1.915-2.144c0-1.076-.147-1.864-.441-2.363-.294-.505-.762-.757-1.403-.757-.625 0-1.084.239-1.379.717-.294.473-.449 1.214-.464 2.222v2.6c0 1.072.149 1.87.449 2.396s.769.787 1.41.787c.615 0 1.069-.241 1.363-.724.294-.489.449-1.251.465-2.285v-2.593zm11.247 2.144c0 1.649-.31 2.894-.929 3.734-.615.835-1.553 1.253-2.813 1.253-1.24 0-2.175-.407-2.805-1.221-.625-.82-.946-2.03-.961-3.633v-1.985c0-1.649.307-2.886.921-3.711.62-.825 1.563-1.237 2.829-1.237 1.255 0 2.19.402 2.805 1.205s.938 2.007.953 3.609v1.986zm-1.914-2.144c0-1.076-.147-1.864-.442-2.363-.294-.505-.761-.757-1.402-.757-.625 0-1.085.239-1.379.717-.294.473-.449 1.214-.465 2.222v2.6c0 1.072.15 1.87.449 2.396s.77.787 1.411.787c.614 0 1.069-.241 1.363-.724.294-.489.449-1.251.465-2.285v-2.593z" class="G"/><rect x="16.501" y="157.234" width="286.095" height="170.967" rx="21.015" stroke="#e9e9eb" class="F"/></g><defs><filter id="A" x="105.5" y=".805" width="264" height="205.851" filterUnits="userSpaceOnUse" class="J"><feFlood flood-opacity="0" result="A"/><feColorMatrix in="SourceAlpha" values="0 0 0 0 0 0 0 0 0 0 0 0 0 0 0 0 0 0 127 0" result="B"/><feOffset dy="8"/><feGaussianBlur stdDeviation="8"/><feComposite in2="B" operator="out"/><feColorMatrix values="0 0 0 0 0 0 0 0 0 0 0 0 0 0 0 0 0 0 0.04 0"/><feBlend in2="A"/><feBlend in="SourceGraphic"/></filter><filter id="B" x=".001" y="148.734" width="319.095" height="203.967" filterUnits="userSpaceOnUse" class="J"><feFlood flood-opacity="0" result="A"/><feColorMatrix in="SourceAlpha" values="0 0 0 0 0 0 0 0 0 0 0 0 0 0 0 0 0 0 127 0" result="B"/><feOffset dy="8"/><feGaussianBlur stdDeviation="8"/><feComposite in2="B" operator="out"/><feColorMatrix values="0 0 0 0 0 0 0 0 0 0 0 0 0 0 0 0 0 0 0.04 0"/><feBlend in2="A"/><feBlend in="SourceGraphic"/></filter><clipPath id="C"><path transform="translate(223 144)" d="M0 0h30v5.926H0z" class="D"/></clipPath></defs></svg>