<svg width="273" height="560" fill="none" xmlns="http://www.w3.org/2000/svg"><g clip-path="url(#a)"><rect width="272.788" height="560" rx="35.745" fill="#9AACA5"/><rect x="5.017" y="5.017" width="262.755" height="549.966" rx="30.101" fill="#080808"/><g clip-path="url(#b)"><rect x="13.169" y="13.169" width="246.45" height="533.662" rx="21.948" fill="#fff"/><mask id="c" style="mask-type:alpha" maskUnits="userSpaceOnUse" x="13" y="13" width="247" height="534"><rect x="13.169" y="13.169" width="246.45" height="533.662" rx="21.948" fill="#141414"/></mask><g clip-path="url(#d)"><path fill="#fff" d="M13.17 25.084h246.45v521.683H13.17z"/><path fill="#fff" d="M13.169 47.476h246.45v47.971H13.169z"/><circle cx="238.032" cy="71.46" r="11.993" fill="#E5FAF5"/><g clip-path="url(#e)"><path d="M232.635 74.459v1.199h3.598v-1.2h-3.598Zm0-7.196v1.2h5.997v-1.2h-5.997Zm5.997 9.594v-1.2h4.797V74.46h-4.797v-1.2h-1.2v3.598h1.2Zm-3.598-7.195v1.199h-2.399v1.199h2.399v1.2h1.199V69.66h-1.199Zm8.395 2.398v-1.2h-5.997v1.2h5.997Zm-3.598-2.398h1.199v-1.2h2.399v-1.2h-2.399v-1.198h-1.199v3.598Z" fill="#00D09C"/></g><g clip-path="url(#f)"><path d="M34.757 66.064H27.46l3.349-3.35-.849-.848-4.797 4.797 4.797 4.797.849-.848-3.35-3.35h7.298v-1.198Z" fill="#44475B"/></g><path d="M47.529 69.67v-7.674h2.63c.868 0 1.528.174 1.982.521.453.348.68.866.68 1.555 0 .352-.096.668-.285.949-.19.28-.468.499-.833.653.415.113.734.325.96.638.228.31.342.682.342 1.117 0 .72-.232 1.274-.696 1.66-.46.387-1.12.58-1.981.58h-2.799Zm1.333-3.463v2.398h1.481c.418 0 .745-.104.98-.311.236-.208.354-.496.354-.865 0-.797-.408-1.205-1.223-1.222h-1.592Zm0-.98h1.307c.415 0 .738-.094.97-.28.235-.19.353-.457.353-.801 0-.38-.109-.654-.326-.822-.215-.169-.55-.253-1.007-.253h-1.297v2.155Zm8.915 3.883c-.376.443-.91.665-1.602.665-.619 0-1.088-.181-1.407-.543-.317-.362-.475-.886-.475-1.57v-3.695h1.28v3.678c0 .724.301 1.086.902 1.086.622 0 1.042-.223 1.26-.67v-4.094h1.28v5.702H57.81l-.032-.558Zm4.645-1.275 1.16-3.868h1.365l-2.266 6.566c-.348.96-.938 1.44-1.771 1.44-.186 0-.392-.032-.617-.096v-.99l.243.015c.323 0 .565-.06.727-.179.165-.116.295-.313.39-.59l.184-.49-2.002-5.676h1.38l1.207 3.868Zm7.7 1.834h-1.328v-7.673h1.328v7.673Zm2.812-5.702.037.659c.421-.51.974-.765 1.66-.765 1.187 0 1.791.68 1.813 2.04v3.768h-1.281v-3.694c0-.362-.08-.63-.237-.801-.155-.176-.41-.264-.764-.264-.517 0-.902.234-1.155.701v4.058h-1.28v-5.702h1.207Zm5.378 5.702v-4.754h-.87v-.948h.87v-.522c0-.632.175-1.12.527-1.465.351-.344.843-.517 1.475-.517.225 0 .464.032.717.095L81 62.56a2.522 2.522 0 0 0-.49-.043c-.612 0-.918.315-.918.944v.506h1.16v.948h-1.16v4.754h-1.28Zm3.243-2.904c0-.558.111-1.06.333-1.507.22-.45.532-.794.932-1.033.4-.242.861-.364 1.381-.364.77 0 1.393.248 1.871.743.481.496.742 1.153.78 1.972l.005.3c0 .562-.108 1.064-.326 1.507a2.374 2.374 0 0 1-.928 1.028c-.4.242-.864.364-1.391.364-.805 0-1.45-.268-1.934-.802-.482-.537-.723-1.252-.723-2.144v-.064Zm1.281.11c0 .588.121 1.048.364 1.382.242.33.58.495 1.012.495.432 0 .767-.168 1.006-.506.243-.337.364-.83.364-1.48 0-.577-.125-1.034-.374-1.371a1.18 1.18 0 0 0-1.007-.506c-.418 0-.75.167-.996.5-.246.331-.369.826-.369 1.487Zm8.409 1.245a.58.58 0 0 0-.285-.522c-.186-.12-.497-.225-.933-.316a4.809 4.809 0 0 1-1.09-.348c-.64-.31-.96-.757-.96-1.344 0-.492.207-.903.622-1.233.415-.33.942-.496 1.581-.496.682 0 1.232.169 1.65.506.421.338.632.775.632 1.313h-1.28a.781.781 0 0 0-.275-.612c-.182-.165-.425-.248-.727-.248-.28 0-.511.066-.69.196a.617.617 0 0 0-.264.521c0 .197.083.35.248.459.165.109.499.22 1.001.332.503.109.896.24 1.18.395.289.151.501.334.638.548.141.215.211.475.211.78 0 .513-.212.93-.637 1.25-.425.315-.982.474-1.671.474a2.95 2.95 0 0 1-1.25-.253c-.364-.17-.65-.401-.853-.696a1.646 1.646 0 0 1-.306-.954h1.244c.018.302.132.536.343.7.21.162.49.243.838.243.337 0 .594-.063.77-.19a.602.602 0 0 0 .263-.505Zm4.482-.285 1.16-3.868h1.364l-2.266 6.566c-.348.96-.938 1.44-1.77 1.44-.187 0-.392-.032-.617-.096v-.99l.242.015c.323 0 .566-.06.727-.179.166-.116.296-.313.39-.59l.185-.49-2.003-5.676h1.381l1.207 3.868Zm6.569.285a.58.58 0 0 0-.284-.522c-.187-.12-.498-.225-.933-.316a4.796 4.796 0 0 1-1.091-.348c-.64-.31-.96-.757-.96-1.344 0-.492.208-.903.623-1.233.414-.33.941-.496 1.581-.496.681 0 1.231.169 1.649.506.422.338.633.775.633 1.313h-1.281a.78.78 0 0 0-.274-.612c-.183-.165-.425-.248-.727-.248-.281 0-.512.066-.691.196a.618.618 0 0 0-.263.521c0 .197.082.35.247.459.166.109.499.22 1.002.332.502.109.896.24 1.18.395.288.151.501.334.638.548.141.215.211.475.211.78 0 .513-.213.93-.638 1.25-.425.315-.982.474-1.671.474-.467 0-.883-.085-1.249-.253-.365-.17-.65-.401-.853-.696a1.646 1.646 0 0 1-.306-.954h1.244c.017.302.131.536.342.7.211.162.49.243.838.243.338 0 .594-.063.77-.19a.603.603 0 0 0 .263-.505Z" fill="#44475B"/><path d="M50.725 80.537h-.967c.175.221.285.492.332.811h.824l-.189.648h-.623c-.05.487-.242.853-.578 1.099-.336.246-.803.369-1.402.369l2.021 2.344v.05h-.93l-2.173-2.53-.004-.512h1.02c.342-.003.62-.077.833-.221a.966.966 0 0 0 .405-.599h-2.373l.189-.647h2.176c-.13-.52-.532-.79-1.205-.812H46.93l.193-.648h3.792l-.189.648Zm4.851 5.32h-3.91v-.545l2.066-2.295c.306-.347.516-.629.631-.845.117-.218.176-.444.176-.676 0-.311-.094-.567-.283-.766-.188-.2-.44-.3-.754-.3-.377 0-.67.108-.881.324-.208.213-.312.511-.312.894h-.758c0-.55.176-.994.529-1.332.355-.34.83-.509 1.422-.509.555 0 .993.146 1.316.439.322.29.484.676.484 1.16 0 .587-.375 1.287-1.123 2.099l-1.6 1.734h2.997v.618Zm.94 1.19-.43-.296c.257-.358.391-.727.402-1.107v-.684h.742v.594c0 .276-.068.552-.205.828a1.917 1.917 0 0 1-.508.664Zm2.782-4.543h.57c.358-.005.64-.1.844-.282.205-.183.308-.43.308-.742 0-.7-.349-1.05-1.046-1.05-.327 0-.59.095-.787.283-.194.186-.29.433-.29.742h-.759c0-.473.172-.865.517-1.176.347-.315.786-.472 1.32-.472.562 0 1.004.15 1.323.447.32.298.48.712.48 1.242 0 .26-.085.511-.254.754a1.509 1.509 0 0 1-.685.545c.328.104.581.276.759.517.18.24.27.534.27.881 0 .536-.175.96-.525 1.275-.35.314-.804.471-1.365.471-.56 0-1.016-.151-1.369-.455-.35-.303-.524-.703-.524-1.2h.762c0 .314.103.565.308.754.205.188.48.282.823.282.367 0 .647-.095.84-.286.195-.192.292-.466.292-.824 0-.347-.107-.614-.32-.8-.213-.185-.52-.281-.922-.287h-.57v-.619Zm7.438.808c0 .888-.152 1.548-.455 1.98-.304.431-.778.647-1.423.647-.636 0-1.108-.21-1.414-.63-.306-.424-.464-1.056-.475-1.895v-1.012c0-.877.151-1.529.455-1.955.303-.427.779-.64 1.426-.64.642 0 1.115.206 1.419.62.303.41.459 1.043.467 1.901v.984Zm-.759-1.037c0-.642-.09-1.11-.27-1.402-.18-.295-.466-.443-.857-.443-.388 0-.67.146-.848.439-.178.292-.27.742-.275 1.349v1.213c0 .645.093 1.122.279 1.43.188.306.472.46.852.46.375 0 .652-.145.832-.435.184-.29.28-.746.287-1.37v-1.241Zm5.557 1.037c0 .888-.152 1.548-.455 1.98-.304.431-.778.647-1.423.647-.637 0-1.108-.21-1.414-.63-.306-.424-.465-1.056-.475-1.895v-1.012c0-.877.151-1.529.455-1.955.303-.427.778-.64 1.426-.64.642 0 1.115.206 1.418.62.304.41.46 1.043.468 1.901v.984Zm-.759-1.037c0-.642-.09-1.11-.27-1.402-.18-.295-.466-.443-.857-.443-.388 0-.67.146-.848.439-.178.292-.27.742-.275 1.349v1.213c0 .645.093 1.122.279 1.43.188.306.472.46.852.46.375 0 .652-.145.832-.435.183-.29.28-.746.287-1.37v-1.241Zm1.908 3.185a.48.48 0 0 1 .115-.328c.08-.088.197-.131.353-.131.155 0 .273.043.352.13a.461.461 0 0 1 .123.329.436.436 0 0 1-.123.316c-.08.084-.197.127-.352.127-.156 0-.274-.043-.353-.128a.454.454 0 0 1-.115-.315Zm5.946-2.148c0 .888-.152 1.548-.455 1.98-.303.431-.778.647-1.422.647-.637 0-1.108-.21-1.415-.63-.306-.424-.464-1.056-.475-1.895v-1.012c0-.877.152-1.529.455-1.955.303-.427.779-.64 1.426-.64.643 0 1.115.206 1.419.62.303.41.459 1.043.467 1.901v.984Zm-.758-1.037c0-.642-.09-1.11-.27-1.402-.181-.295-.467-.443-.858-.443-.388 0-.67.146-.848.439-.178.292-.27.742-.275 1.349v1.213c0 .645.093 1.122.279 1.43.189.306.473.46.853.46.374 0 .651-.145.832-.435.183-.29.278-.746.287-1.37v-1.241Zm5.556 1.037c0 .888-.152 1.548-.455 1.98-.303.431-.778.647-1.422.647-.637 0-1.109-.21-1.415-.63-.306-.424-.464-1.056-.475-1.895v-1.012c0-.877.151-1.529.455-1.955.303-.427.779-.64 1.426-.64.642 0 1.115.206 1.419.62.303.41.459 1.043.467 1.901v.984Zm-.759-1.037c0-.642-.09-1.11-.27-1.402-.18-.295-.466-.443-.857-.443-.388 0-.67.146-.848.439-.178.292-.27.742-.275 1.349v1.213c0 .645.093 1.122.279 1.43.188.306.473.46.852.46.375 0 .652-.145.833-.435.183-.29.278-.746.286-1.37v-1.241Zm4.03 1.16c0-.618.082-1.21.246-1.78a5.205 5.205 0 0 1 .742-1.549c.327-.464.668-.792 1.02-.983l.156.5c-.399.306-.727.773-.984 1.402-.254.628-.393 1.332-.418 2.11l-.004.35c0 1.054.193 1.97.578 2.746.232.464.508.828.828 1.09l-.156.463c-.363-.202-.71-.541-1.04-1.017-.646-.929-.968-2.04-.968-3.332Zm5.154-.779h1.664v.717h-1.664v1.886h-.762v-1.886h-1.664v-.717h1.664v-1.742h.762v1.742Zm6.507 3.201h-3.91v-.545l2.066-2.295c.306-.347.516-.629.631-.845.118-.218.176-.444.176-.676 0-.311-.094-.567-.282-.766-.189-.2-.44-.3-.755-.3-.377 0-.67.108-.881.324-.208.213-.311.511-.311.894h-.759c0-.55.176-.994.529-1.332.355-.34.83-.509 1.422-.509.555 0 .994.146 1.316.439.323.29.484.676.484 1.16 0 .587-.375 1.287-1.123 2.099l-1.599 1.734h2.996v.618Zm.982-.397a.48.48 0 0 1 .115-.328c.08-.088.197-.131.352-.131.156 0 .274.043.353.13a.46.46 0 0 1 .123.329.436.436 0 0 1-.123.316c-.079.084-.197.127-.353.127-.155 0-.273-.043-.352-.128a.454.454 0 0 1-.115-.315Zm5.179-5.575v.644h-.139c-.59.01-1.06.186-1.41.524-.35.34-.552.816-.607 1.43.314-.36.743-.54 1.287-.54.519 0 .933.183 1.242.55.312.365.467.838.467 1.417 0 .615-.168 1.107-.504 1.476-.333.369-.781.553-1.344.553a1.706 1.706 0 0 1-1.39-.655c-.355-.44-.533-1.006-.533-1.697v-.291c0-1.099.234-1.938.701-2.517.47-.582 1.169-.88 2.095-.894h.135Zm-.996 2.69c-.26 0-.499.077-.717.233a1.211 1.211 0 0 0-.455.586v.279c0 .492.11.888.332 1.188.221.301.497.451.828.451.341 0 .609-.125.803-.377.197-.251.295-.58.295-.988 0-.41-.099-.74-.299-.992a.945.945 0 0 0-.787-.38Zm3.167.29.303-2.976h3.058v.701h-2.415l-.18 1.627c.292-.172.624-.258.996-.258.544 0 .976.18 1.295.541.32.358.48.843.48 1.456 0 .614-.167 1.1-.5 1.455-.331.352-.794.528-1.39.528-.527 0-.957-.146-1.291-.438-.333-.293-.523-.697-.57-1.214h.718c.046.342.168.6.365.775.196.172.456.258.778.258.353 0 .629-.12.828-.36.203-.24.304-.573.304-.996 0-.4-.11-.719-.328-.96-.216-.243-.504-.364-.865-.364-.331 0-.59.072-.779.217l-.201.164-.606-.156Zm4.383-1.828c0-.358.114-.653.341-.886.229-.232.523-.348.881-.348.363 0 .657.118.881.353.227.232.34.534.34.905v.292c0 .36-.114.655-.344.885-.227.227-.516.34-.869.34-.355 0-.649-.113-.881-.34-.232-.23-.349-.534-.349-.914v-.287Zm.566.316c0 .213.06.389.18.528a.614.614 0 0 0 .484.205.59.59 0 0 0 .467-.2c.121-.134.181-.317.181-.55v-.3a.794.794 0 0 0-.176-.528.596.596 0 0 0-.48-.209.596.596 0 0 0-.48.21.82.82 0 0 0-.176.544v.3Zm2.341 3.041c0-.358.113-.652.34-.881.229-.233.523-.349.881-.349s.652.115.881.345c.23.23.345.534.345.914v.29c0 .359-.115.654-.345.886-.226.23-.517.344-.873.344-.355 0-.649-.113-.881-.34-.232-.23-.348-.534-.348-.914v-.295Zm.565.32c0 .216.06.393.181.533a.61.61 0 0 0 .483.205.597.597 0 0 0 .472-.201c.117-.137.176-.321.176-.554v-.303a.772.772 0 0 0-.18-.529.596.596 0 0 0-.476-.205.61.61 0 0 0-.475.205c-.121.134-.181.316-.181.546v.303Zm-2.07.693-.43-.271 2.914-4.665.431.27-2.915 4.666Zm6.725-1.931a6.32 6.32 0 0 1-.242 1.754 5.124 5.124 0 0 1-.734 1.546c-.328.472-.672.809-1.033 1.008l-.16-.463c.421-.323.759-.823 1.013-1.5.257-.68.388-1.435.393-2.263v-.131c0-.574-.06-1.107-.18-1.599a5.329 5.329 0 0 0-.504-1.328c-.213-.39-.454-.695-.722-.914l.16-.463c.361.2.704.533 1.029 1 .328.467.573.982.734 1.545.164.563.246 1.166.246 1.808Z" fill="#7C7E8C"/><path d="M125.308 85.858v-5.969h1.763c.527 0 .995.118 1.402.353.41.235.727.568.951 1 .224.432.336.926.336 1.484v.299c0 .566-.113 1.063-.34 1.492-.224.43-.545.76-.964.992-.415.232-.892.349-1.43.349h-1.718Zm1.037-5.133v4.304h.677c.544 0 .96-.169 1.25-.508.292-.341.441-.83.447-1.467v-.332c0-.648-.141-1.143-.422-1.484-.282-.342-.69-.513-1.226-.513h-.726Zm6.389 5.214c-.632 0-1.144-.198-1.537-.594-.391-.399-.587-.93-.587-1.59v-.123c0-.443.085-.838.255-1.185.172-.35.412-.622.721-.816a1.902 1.902 0 0 1 1.033-.29c.604 0 1.07.192 1.398.577.33.386.496.93.496 1.636v.401h-2.898c.03.367.151.656.364.87.216.213.487.32.812.32a1.35 1.35 0 0 0 1.115-.554l.537.512a1.806 1.806 0 0 1-.713.62 2.23 2.23 0 0 1-.996.216Zm-.119-3.8a.845.845 0 0 0-.664.288c-.167.19-.273.457-.32.799h1.898v-.074c-.022-.333-.111-.585-.267-.754-.155-.172-.371-.258-.647-.258Zm6.642 1.546c0 .686-.155 1.234-.467 1.644-.312.407-.73.61-1.254.61-.487 0-.876-.16-1.169-.48v2.104h-.996v-6.14h.919l.041.45c.292-.355.69-.533 1.192-.533.541 0 .965.203 1.271.607.309.402.463.96.463 1.677v.06Zm-.992-.086c0-.443-.088-.794-.266-1.054-.175-.26-.426-.389-.754-.389-.408 0-.7.168-.878.504v1.968c.181.344.476.516.886.516a.855.855 0 0 0 .742-.381c.18-.257.27-.645.27-1.164Zm3.171-3.255v1.078h.783v.738h-.783v2.476c0 .17.033.292.098.369.069.074.189.11.361.11.115 0 .231-.013.348-.04v.77a2.447 2.447 0 0 1-.655.094c-.766 0-1.148-.422-1.148-1.266V82.16h-.73v-.738h.73v-1.078h.996Zm2.613 1.562a1.558 1.558 0 0 1 1.234-.566c.945 0 1.425.54 1.439 1.62v2.898h-.997v-2.862c0-.306-.066-.522-.2-.647-.132-.129-.326-.193-.582-.193-.399 0-.697.178-.894.533v3.169h-.996V79.56h.996v2.345Z" fill="#00D09C"/><path fill="#fff" d="M13.169 166.204h246.45v33.58H13.169z"/><rect x="173.272" y="171.001" width="76.753" height="23.985" rx="2.399" fill="#E5FAF5"/><rect x="247.027" y="173.399" width=".6" height="19.188" rx=".3" fill="#00D09C"/><path d="M224.991 187.399h-5.733v-.978l2.84-3.097c.41-.457.701-.838.873-1.142.175-.309.263-.617.263-.925 0-.406-.115-.734-.345-.984-.227-.25-.533-.375-.92-.375-.46 0-.817.141-1.071.422s-.381.665-.381 1.153h-1.423c0-.519.117-.986.352-1.399a2.448 2.448 0 0 1 1.013-.972c.441-.231.948-.346 1.522-.346.828 0 1.48.209 1.956.627.48.413.72.987.72 1.721 0 .426-.121.873-.363 1.341-.238.465-.63.994-1.177 1.587l-2.084 2.231h3.958v1.136Zm6.936 0h-5.733v-.978l2.84-3.097c.41-.457.701-.838.873-1.142.176-.309.263-.617.263-.925 0-.406-.115-.734-.345-.984-.227-.25-.533-.375-.919-.375-.461 0-.818.141-1.072.422-.254.281-.381.665-.381 1.153h-1.423c0-.519.117-.986.352-1.399a2.454 2.454 0 0 1 1.013-.972c.441-.231.948-.346 1.522-.346.828 0 1.48.209 1.956.627.48.413.72.987.72 1.721 0 .426-.121.873-.363 1.341-.238.465-.63.994-1.177 1.587l-2.084 2.231h3.958v1.136Zm6.761-3.589c0 1.225-.231 2.151-.691 2.775-.457.621-1.154.931-2.091.931-.921 0-1.616-.302-2.085-.907-.464-.609-.702-1.509-.714-2.7v-1.475c0-1.226.228-2.146.685-2.759.461-.612 1.162-.919 2.102-.919.933 0 1.628.299 2.085.896.461.597.697 1.491.709 2.682v1.476Zm-1.423-1.593c0-.8-.11-1.386-.328-1.757-.219-.375-.566-.562-1.043-.562-.464 0-.806.178-1.024.533-.219.351-.334.902-.346 1.651v1.933c0 .796.111 1.389.334 1.78.222.39.572.585 1.048.585.457 0 .795-.179 1.013-.538.219-.363.334-.93.346-1.699v-1.926Zm8.359 1.593c0 1.225-.231 2.151-.691 2.775-.457.621-1.154.931-2.091.931-.921 0-1.616-.302-2.085-.907-.464-.609-.702-1.509-.714-2.7v-1.475c0-1.226.228-2.146.685-2.759.461-.612 1.162-.919 2.102-.919.933 0 1.628.299 2.085.896.461.597.697 1.491.709 2.682v1.476Zm-1.423-1.593c0-.8-.11-1.386-.328-1.757-.219-.375-.566-.562-1.043-.562-.464 0-.806.178-1.024.533-.219.351-.334.902-.346 1.651v1.933c0 .796.111 1.389.334 1.78.222.39.572.585 1.048.585.457 0 .795-.179 1.013-.538.219-.363.334-.93.346-1.699v-1.926Z" fill="#00D09C"/><path d="M24.454 183.528v2.67h-.899v-6.821h2.516c.746 0 1.33.191 1.752.572.424.381.637.885.637 1.513 0 .662-.208 1.173-.623 1.532-.413.356-1.004.534-1.776.534h-1.607Zm0-.736h1.617c.48 0 .85-.112 1.105-.337.256-.228.384-.556.384-.984 0-.406-.128-.73-.384-.974s-.607-.37-1.054-.38h-1.668v2.675Zm7.564-.885a2.582 2.582 0 0 0-.427-.033c-.568 0-.954.242-1.157.726v3.598h-.866v-5.069h.843l.014.586c.284-.453.687-.679 1.209-.679.168 0 .296.022.384.065v.806Zm1.838 4.291h-.866v-5.069h.866v5.069Zm-.937-6.413c0-.141.043-.259.127-.356.087-.097.215-.145.384-.145s.297.048.384.145a.511.511 0 0 1 .131.356c0 .14-.043.258-.13.351-.088.094-.216.141-.385.141s-.297-.047-.384-.141a.504.504 0 0 1-.127-.351Zm4.458 5.799c.309 0 .58-.093.81-.281a.987.987 0 0 0 .384-.702h.82a1.57 1.57 0 0 1-.3.829 1.981 1.981 0 0 1-.74.628c-.306.156-.63.234-.974.234-.69 0-1.24-.23-1.65-.689-.405-.462-.608-1.093-.608-1.892v-.146c0-.493.09-.932.271-1.316a2.08 2.08 0 0 1 .778-.895c.34-.212.742-.318 1.204-.318.569 0 1.04.17 1.415.51.378.341.58.783.604 1.326h-.82a1.183 1.183 0 0 0-.374-.806 1.147 1.147 0 0 0-.825-.318c-.44 0-.782.159-1.026.478-.24.315-.36.773-.36 1.372v.164c0 .584.12 1.034.36 1.349.24.316.584.473 1.03.473Zm5.188.708c-.687 0-1.246-.225-1.677-.675-.431-.453-.647-1.057-.647-1.813v-.159c0-.503.096-.951.286-1.344a2.25 2.25 0 0 1 .806-.928 2.026 2.026 0 0 1 1.124-.337c.66 0 1.171.217 1.537.651.365.434.548 1.055.548 1.864v.361h-3.434c.013.5.158.904.436 1.213.28.306.637.459 1.068.459.306 0 .565-.062.777-.187.213-.125.399-.29.558-.496l.53.412c-.425.652-1.063.979-1.912.979Zm-.108-4.544c-.35 0-.643.128-.88.384-.238.253-.385.609-.44 1.068h2.538v-.066c-.025-.44-.143-.78-.356-1.021-.212-.243-.5-.365-.862-.365Zm6.886 3.504h3.097v.946h-4.282v-6.821h1.185v5.875Zm5.203.946h-1.139v-5.069h1.139v5.069Zm-1.209-6.385a.61.61 0 0 1 .164-.436c.112-.115.272-.173.478-.173.206 0 .365.058.478.173a.6.6 0 0 1 .168.436.594.594 0 0 1-.168.431c-.113.112-.272.169-.478.169-.206 0-.366-.057-.478-.169a.603.603 0 0 1-.164-.431Zm3.619 1.316.033.53c.356-.416.843-.623 1.461-.623.678 0 1.142.259 1.392.777.368-.518.886-.777 1.555-.777.559 0 .974.154 1.246.463.275.31.415.766.422 1.368v3.331h-1.139V182.9c0-.322-.07-.557-.21-.707-.141-.15-.374-.225-.699-.225-.259 0-.471.07-.637.211a1.089 1.089 0 0 0-.342.543l.005 3.476h-1.138v-3.335c-.016-.597-.32-.895-.914-.895-.456 0-.78.186-.97.557v3.673h-1.138v-5.069h1.073Zm8.584 5.069h-1.138v-5.069h1.138v5.069Zm-1.208-6.385a.61.61 0 0 1 .164-.436c.112-.115.271-.173.478-.173.206 0 .365.058.477.173a.6.6 0 0 1 .169.436.594.594 0 0 1-.169.431c-.112.112-.271.169-.477.169-.207 0-.366-.057-.478-.169a.603.603 0 0 1-.164-.431Zm3.975.084v1.232h.894v.844h-.894v2.829c0 .194.037.334.112.422.078.084.215.126.412.126.131 0 .264-.015.398-.047v.881c-.259.072-.509.108-.75.108-.874 0-1.31-.483-1.31-1.448v-2.871h-.835v-.844h.834v-1.232h1.138Z" fill="#44475B"/><path d="m76.837 181.289 2.293 2.288 2.294-2.288.705.704-2.999 2.999-2.998-2.999.705-.704Z" fill="#00D09C"/><path d="M23.36 227.571v-5.115h1.672c.556 0 .973.114 1.251.344.281.229.422.569.422 1.019 0 .239-.068.451-.204.636-.136.182-.32.324-.555.425.276.077.494.225.653.443.162.215.243.473.243.773 0 .459-.149.819-.446 1.082-.298.262-.718.393-1.262.393H23.36Zm.675-2.392v1.841h1.113c.314 0 .561-.081.742-.243.182-.164.274-.389.274-.674 0-.616-.335-.924-1.005-.924h-1.124Zm0-.542h1.018c.296 0 .531-.073.707-.221a.739.739 0 0 0 .267-.601c0-.281-.082-.485-.246-.611-.164-.129-.414-.193-.749-.193h-.997v1.626Zm6.125 2.934a1.36 1.36 0 0 1-.091-.4 1.45 1.45 0 0 1-1.082.47c-.375 0-.683-.105-.924-.316a1.035 1.035 0 0 1-.359-.808c0-.396.15-.703.45-.92.302-.221.726-.331 1.272-.331h.632v-.298c0-.228-.067-.408-.203-.541-.136-.136-.337-.204-.601-.204a.942.942 0 0 0-.583.176c-.157.117-.236.258-.236.425h-.653c0-.19.066-.373.2-.548a1.39 1.39 0 0 1 .548-.422c.232-.103.486-.155.762-.155.438 0 .782.11 1.03.331.248.217.377.518.386.903v1.749c0 .349.045.627.134.833v.056h-.682Zm-1.078-.495c.203 0 .397-.053.58-.158a.963.963 0 0 0 .396-.411v-.78h-.509c-.796 0-1.195.233-1.195.699 0 .204.068.363.204.478.136.114.31.172.524.172Zm3.423.495h-.65v-5.397h.65v5.397Zm2.952-.341c0-.112.032-.206.098-.281.068-.075.169-.112.302-.112.134 0 .234.037.302.112.07.075.106.169.106.281a.375.375 0 0 1-.106.271c-.068.073-.168.109-.302.109-.133 0-.234-.036-.302-.109a.39.39 0 0 1-.098-.271Zm.003-3.102c0-.112.033-.206.099-.281.068-.075.168-.113.302-.113.133 0 .234.038.302.113.07.075.105.169.105.281a.375.375 0 0 1-.105.271c-.068.072-.169.108-.302.108-.134 0-.234-.036-.302-.108a.39.39 0 0 1-.099-.271Zm8.462-1.117h-.829c.15.189.245.421.285.695h.706l-.162.555h-.534c-.042.417-.207.731-.495.942-.288.211-.689.316-1.202.316l1.732 2.01v.042h-.797l-1.862-2.168-.004-.439h.875c.293-.002.53-.065.713-.19a.825.825 0 0 0 .348-.513h-2.034l.161-.555h1.866c-.112-.445-.457-.677-1.033-.695h-.987l.165-.555h3.25l-.162.555Zm2.943 4.56h-.654v-4.332l-1.31.481v-.59l1.862-.699h.102v5.14Zm2.022 1.019-.37-.253c.22-.307.336-.623.345-.949v-.586h.636v.509c0 .237-.059.473-.176.71a1.65 1.65 0 0 1-.435.569Zm4.646-3.201c0 .762-.13 1.327-.39 1.697-.26.37-.666.555-1.219.555-.546 0-.95-.18-1.212-.541-.263-.363-.398-.904-.408-1.623v-.868c0-.752.13-1.31.39-1.676.26-.365.668-.548 1.223-.548.55 0 .956.177 1.216.531.26.351.393.895.4 1.63v.843Zm-.65-.889c0-.55-.077-.951-.232-1.201-.154-.253-.4-.38-.734-.38-.333 0-.575.126-.727.376-.153.251-.231.636-.236 1.156v1.04c0 .553.08.962.24 1.226.16.263.404.394.73.394.32 0 .559-.124.713-.372.157-.249.24-.64.246-1.174V224.5Zm4.763.889c0 .762-.13 1.327-.39 1.697-.26.37-.667.555-1.22.555-.545 0-.95-.18-1.212-.541-.262-.363-.398-.904-.407-1.623v-.868c0-.752.13-1.31.39-1.676.26-.365.667-.548 1.222-.548.55 0 .956.177 1.216.531.26.351.394.895.4 1.63v.843Zm-.65-.889c0-.55-.078-.951-.232-1.201-.155-.253-.4-.38-.735-.38-.332 0-.575.126-.727.376-.152.251-.23.636-.235 1.156v1.04c0 .553.08.962.239 1.226.161.263.405.394.73.394.321 0 .56-.124.714-.372.157-.249.239-.64.246-1.174V224.5Zm1.6 4.09-.369-.253c.22-.307.335-.623.344-.949v-.586h.636v.509c0 .237-.058.473-.175.71a1.65 1.65 0 0 1-.436.569Zm4.647-3.201c0 .762-.13 1.327-.39 1.697-.26.37-.667.555-1.22.555-.546 0-.95-.18-1.212-.541-.262-.363-.398-.904-.407-1.623v-.868c0-.752.13-1.31.39-1.676.26-.365.667-.548 1.222-.548.55 0 .956.177 1.216.531.26.351.393.895.4 1.63v.843Zm-.65-.889c0-.55-.078-.951-.232-1.201-.155-.253-.4-.38-.735-.38-.332 0-.575.126-.727.376-.152.251-.23.636-.235 1.156v1.04c0 .553.08.962.239 1.226.161.263.405.394.73.394.321 0 .559-.124.713-.372.158-.249.24-.64.247-1.174V224.5Zm4.762.889c0 .762-.13 1.327-.39 1.697-.26.37-.666.555-1.22.555-.545 0-.95-.18-1.211-.541-.263-.363-.399-.904-.408-1.623v-.868c0-.752.13-1.31.39-1.676.26-.365.668-.548 1.223-.548.55 0 .955.177 1.215.531.26.351.394.895.4 1.63v.843Zm-.65-.889c0-.55-.077-.951-.232-1.201-.154-.253-.4-.38-.734-.38-.333 0-.575.126-.728.376-.152.251-.23.636-.235 1.156v1.04c0 .553.08.962.239 1.226.162.263.405.394.73.394.322 0 .56-.124.714-.372.157-.249.239-.64.246-1.174V224.5Zm4.762.889c0 .762-.13 1.327-.39 1.697-.26.37-.666.555-1.219.555-.546 0-.95-.18-1.212-.541-.262-.363-.398-.904-.407-1.623v-.868c0-.752.13-1.31.39-1.676.26-.365.667-.548 1.222-.548.55 0 .956.177 1.216.531.26.351.393.895.4 1.63v.843Zm-.65-.889c0-.55-.077-.951-.231-1.201-.155-.253-.4-.38-.735-.38-.332 0-.575.126-.727.376-.152.251-.23.636-.236 1.156v1.04c0 .553.08.962.24 1.226.161.263.405.394.73.394.321 0 .559-.124.713-.372.157-.249.24-.64.246-1.174V224.5Zm1.636 2.73c0-.112.033-.206.098-.281.068-.075.169-.112.302-.112.134 0 .235.037.303.112.07.075.105.169.105.281a.375.375 0 0 1-.105.271c-.068.073-.17.109-.303.109-.133 0-.234-.036-.302-.109a.39.39 0 0 1-.098-.271Zm5.096-1.841c0 .762-.13 1.327-.39 1.697-.26.37-.666.555-1.22.555-.545 0-.949-.18-1.211-.541-.263-.363-.398-.904-.408-1.623v-.868c0-.752.13-1.31.39-1.676.26-.365.668-.548 1.223-.548.55 0 .956.177 1.216.531.26.351.393.895.4 1.63v.843Zm-.65-.889c0-.55-.077-.951-.232-1.201-.154-.253-.4-.38-.734-.38-.333 0-.575.126-.727.376-.153.251-.231.636-.236 1.156v1.04c0 .553.08.962.24 1.226.16.263.404.394.73.394.32 0 .559-.124.713-.372.157-.249.24-.64.246-1.174V224.5Zm4.763.889c0 .762-.13 1.327-.39 1.697-.26.37-.667.555-1.22.555-.545 0-.95-.18-1.212-.541-.262-.363-.398-.904-.407-1.623v-.868c0-.752.13-1.31.39-1.676.26-.365.667-.548 1.222-.548.55 0 .956.177 1.216.531.26.351.394.895.4 1.63v.843Zm-.65-.889c0-.55-.078-.951-.232-1.201-.155-.253-.4-.38-.735-.38-.332 0-.575.126-.727.376-.152.251-.23.636-.235 1.156v1.04c0 .553.08.962.239 1.226.161.263.405.394.73.394.321 0 .559-.124.714-.372.157-.249.239-.64.246-1.174V224.5ZM199.038 222.456l1.673 4.174 1.672-4.174h.875v5.115h-.675v-1.992l.063-2.15-1.679 4.142h-.516l-1.676-4.132.066 2.14v1.992h-.674v-5.115h.871Zm7.728 5.115c-.038-.075-.068-.208-.091-.4-.303.314-.663.47-1.083.47-.374 0-.682-.105-.924-.316a1.035 1.035 0 0 1-.358-.808c0-.396.15-.703.45-.92.302-.221.726-.331 1.272-.331h.632v-.298c0-.228-.068-.408-.204-.541-.136-.136-.336-.204-.601-.204a.944.944 0 0 0-.583.176c-.157.117-.235.258-.235.425h-.654a.89.89 0 0 1 .201-.548 1.38 1.38 0 0 1 .548-.422c.232-.103.486-.155.762-.155.438 0 .781.11 1.03.331.248.217.377.518.386.903v1.749c0 .349.045.627.134.833v.056h-.682Zm-1.079-.495c.204 0 .397-.053.58-.158a.961.961 0 0 0 .397-.411v-.78h-.509c-.797 0-1.195.233-1.195.699 0 .204.068.363.204.478.136.114.31.172.523.172Zm4.555-2.723a1.868 1.868 0 0 0-.319-.025c-.427 0-.716.182-.868.545v2.698h-.65v-3.801h.632l.011.439c.213-.34.515-.51.906-.51.127 0 .223.017.288.05v.604Zm.448 1.286c0-.593.137-1.064.411-1.413a1.317 1.317 0 0 1 1.09-.527c.463 0 .825.164 1.085.492l.032-.421h.594v3.71c0 .492-.147.879-.439 1.163-.291.283-.682.425-1.174.425-.274 0-.542-.059-.805-.176a1.38 1.38 0 0 1-.6-.481l.337-.39c.279.344.619.516 1.022.516.317 0 .562-.089.738-.267.178-.178.267-.428.267-.752v-.326c-.26.3-.615.449-1.064.449-.445 0-.806-.179-1.083-.537-.274-.358-.411-.847-.411-1.465Zm.654.074c0 .428.088.766.263 1.011a.858.858 0 0 0 .738.366c.41 0 .711-.186.903-.559v-1.735c-.199-.364-.498-.545-.896-.545a.863.863 0 0 0-.741.369c-.178.246-.267.61-.267 1.093Zm4.32 1.858h-.65v-3.801h.65v3.801Zm-.703-4.81c0-.105.032-.194.095-.267.065-.072.161-.109.288-.109.126 0 .222.037.288.109a.383.383 0 0 1 .098.267.37.37 0 0 1-.098.264c-.066.07-.162.105-.288.105-.127 0-.223-.035-.288-.105a.382.382 0 0 1-.095-.264Zm2.433 1.009.021.477c.291-.365.67-.548 1.138-.548.804 0 1.209.454 1.216 1.36v2.512h-.65v-2.515c-.002-.275-.065-.477-.19-.608-.121-.131-.312-.197-.572-.197a.933.933 0 0 0-.555.169 1.14 1.14 0 0 0-.373.442v2.709h-.65v-3.801h.615Zm5.26 1.725c0-.53.07-1.038.21-1.525.143-.487.355-.93.636-1.328s.573-.68.875-.843l.134.428c-.342.263-.623.663-.844 1.202a5.255 5.255 0 0 0-.358 1.809l-.003.299c0 .904.165 1.689.495 2.354.199.398.436.71.71.935l-.134.397c-.311-.174-.609-.464-.892-.872-.553-.796-.829-1.748-.829-2.856Zm5.841 2.076h-3.352v-.467l1.771-1.968c.262-.297.442-.538.541-.723.1-.188.151-.381.151-.58a.917.917 0 0 0-.243-.657c-.161-.171-.377-.257-.646-.257-.323 0-.575.093-.756.278-.178.183-.267.438-.267.766h-.65c0-.471.151-.852.454-1.142.304-.29.711-.436 1.219-.436.475 0 .851.126 1.128.376.276.249.414.58.414.995 0 .503-.321 1.103-.962 1.798l-1.371 1.487h2.569v.53Zm2.102-2.414.844-1.387h.759l-1.244 1.879 1.282 1.922h-.752l-.878-1.423-.878 1.423h-.756l1.283-1.922-1.244-1.879h.752l.832 1.387Zm3.867.373c0 .522-.069 1.023-.207 1.504a4.406 4.406 0 0 1-.629 1.324c-.281.405-.577.694-.886.865l-.137-.397c.361-.277.65-.706.868-1.286.22-.584.333-1.23.337-1.94v-.112c0-.492-.051-.949-.154-1.371a4.578 4.578 0 0 0-.432-1.138c-.183-.335-.389-.596-.619-.783l.137-.397c.309.171.603.456.882.857.281.4.491.842.629 1.324.141.483.211.999.211 1.55Zm2.909 1.7c0-.112.033-.206.098-.281.068-.075.169-.112.302-.112.134 0 .235.037.303.112.07.075.105.169.105.281a.376.376 0 0 1-.105.271c-.068.073-.169.109-.303.109-.133 0-.234-.036-.302-.109a.392.392 0 0 1-.098-.271Zm.003-3.102a.41.41 0 0 1 .099-.281c.068-.075.168-.113.302-.113.134 0 .234.038.302.113.07.075.106.169.106.281a.377.377 0 0 1-.106.271c-.068.072-.168.108-.302.108-.134 0-.234-.036-.302-.108a.389.389 0 0 1-.099-.271Zm8.462-1.117h-.829c.15.189.245.421.285.695H246l-.162.555h-.534c-.042.417-.207.731-.495.942-.288.211-.689.316-1.202.316l1.733 2.01v.042h-.798l-1.862-2.168-.004-.439h.875c.293-.002.531-.065.713-.19a.824.824 0 0 0 .348-.513h-2.034l.162-.555h1.865c-.112-.445-.457-.677-1.033-.695h-.987l.165-.555H246l-.162.555Zm4.015 2.378c0 .762-.13 1.327-.39 1.697-.26.37-.667.555-1.22.555-.545 0-.949-.18-1.212-.541-.262-.363-.398-.904-.407-1.623v-.868c0-.752.13-1.31.39-1.676.26-.365.667-.548 1.222-.548.551 0 .956.177 1.216.531.26.351.394.895.401 1.63v.843Zm-.65-.889c0-.55-.078-.951-.232-1.201-.155-.253-.4-.38-.735-.38-.332 0-.575.126-.727.376-.152.251-.231.636-.235 1.156v1.04c0 .553.079.962.239 1.226.161.263.405.394.73.394.321 0 .559-.124.714-.372.157-.249.239-.64.246-1.174V224.5Z" fill="#7C7E8C"/><path fill="#DDDEE1" d="M22.766 209.376h227.262v.6H22.766z"/><path fill="#fff" d="M13.169 95.447h246.45v37.177H13.169z"/><rect x="23.063" y="105.341" width="43.792" height="17.197" rx="8.599" fill="#fff"/><path d="M30.652 116.439v-5.968h1.684c.52 0 .979.115 1.378.344.399.23.706.556.922.98.218.424.33.91.332 1.459v.382c0 .562-.11 1.056-.328 1.479a2.276 2.276 0 0 1-.93.976c-.402.227-.87.343-1.407.348h-1.651Zm.787-5.32v4.677h.828c.606 0 1.078-.189 1.414-.566.339-.377.508-.914.508-1.611v-.348c0-.678-.16-1.204-.48-1.578-.317-.378-.767-.569-1.352-.574h-.918Zm6.527 5.402c-.6 0-1.09-.196-1.467-.59-.377-.396-.566-.925-.566-1.586v-.14c0-.44.084-.832.25-1.176a1.97 1.97 0 0 1 .705-.812 1.78 1.78 0 0 1 .984-.295c.577 0 1.025.19 1.345.57.32.38.48.924.48 1.631v.316H36.69c.011.437.139.791.382 1.062.246.267.557.401.934.401.268 0 .495-.054.68-.164.187-.109.35-.254.489-.434l.463.361c-.372.571-.93.856-1.673.856Zm-.094-3.976c-.306 0-.563.112-.77.336-.208.222-.337.533-.386.935h2.222v-.057c-.022-.386-.126-.684-.312-.894-.186-.213-.437-.32-.754-.32Zm3.613 3.894h-.758v-6.296h.758v6.296Zm2.126 0h-.759v-4.435h.759v4.435Zm-.82-5.611a.46.46 0 0 1 .11-.312c.077-.085.189-.127.337-.127.147 0 .26.042.336.127a.45.45 0 0 1 .114.312.432.432 0 0 1-.114.307c-.077.082-.189.123-.336.123-.148 0-.26-.041-.337-.123a.441.441 0 0 1-.11-.307Zm3.584 4.582 1.099-3.406h.775l-1.59 4.435h-.579l-1.607-4.435h.775l1.127 3.406Zm4.47 1.111c-.6 0-1.09-.196-1.467-.59-.377-.396-.566-.925-.566-1.586v-.14c0-.44.084-.832.25-1.176a1.97 1.97 0 0 1 .705-.812 1.78 1.78 0 0 1 .984-.295c.577 0 1.025.19 1.345.57.32.38.48.924.48 1.631v.316H49.57c.01.437.138.791.38 1.062.247.267.558.401.935.401.268 0 .495-.054.68-.164a1.71 1.71 0 0 0 .488-.434l.464.361c-.372.571-.93.856-1.673.856Zm-.094-3.976c-.306 0-.563.112-.77.336-.208.222-.337.533-.386.935h2.222v-.057c-.022-.386-.126-.684-.312-.894-.186-.213-.437-.32-.754-.32Zm4.933.14a2.179 2.179 0 0 0-.373-.029c-.497 0-.835.212-1.012.635v3.148h-.759v-4.435h.738l.013.512c.248-.396.6-.594 1.057-.594.148 0 .26.019.336.058v.705Zm2.31 2.643 1.033-3.324h.812l-1.784 5.12c-.276.738-.714 1.107-1.315 1.107l-.144-.013-.283-.053v-.615l.205.017c.257 0 .457-.052.599-.156.145-.104.263-.294.356-.57l.168-.451-1.582-4.386h.828l1.107 3.324Z" fill="#44475B"/><rect x="23.063" y="105.341" width="43.792" height="17.197" rx="8.599" stroke="#ECEDEF" stroke-width=".6"/><rect x="72.533" y="105.041" width="46.391" height="17.797" rx="8.899" fill="#E5FAF5"/><path d="M81.43 116.439h-1.033v-5.968h1.033v5.968Zm2.186-4.435.03.512c.327-.396.757-.594 1.29-.594.924 0 1.394.529 1.41 1.586v2.931h-.996v-2.873c0-.282-.061-.489-.184-.623-.12-.137-.319-.205-.594-.205-.402 0-.701.182-.898.545v3.156h-.996v-4.435h.939Zm5.081-1.078v1.078h.783v.738h-.783v2.476c0 .169.033.292.099.369.068.073.188.11.36.11.115 0 .231-.013.349-.041v.771a2.446 2.446 0 0 1-.656.094c-.765 0-1.148-.422-1.148-1.266v-2.513h-.73v-.738h.73v-1.078h.996Zm3.954 1.988a2.449 2.449 0 0 0-.406-.033c-.457 0-.764.175-.922.525v3.033h-.996v-4.435h.95l.025.496c.24-.385.574-.578 1-.578.142 0 .26.019.353.058l-.004.934Zm3.24 3.525a1.522 1.522 0 0 1-.115-.414 1.55 1.55 0 0 1-1.164.496c-.445 0-.809-.127-1.09-.381a1.22 1.22 0 0 1-.423-.943c0-.472.175-.835.525-1.086.353-.254.855-.381 1.509-.381h.61v-.291c0-.23-.064-.413-.192-.549-.129-.14-.324-.21-.587-.21a.87.87 0 0 0-.557.173.52.52 0 0 0-.217.43h-.996c0-.243.08-.47.242-.68.16-.214.38-.38.655-.501.28-.12.59-.18.93-.18.52 0 .934.131 1.243.394.309.259.467.625.475 1.098v2.001c0 .399.056.717.168.955v.069h-1.016Zm-1.095-.717c.197 0 .382-.048.554-.144a.952.952 0 0 0 .393-.385v-.836h-.537c-.369 0-.646.064-.832.193a.623.623 0 0 0-.278.545c0 .191.062.344.188.459.128.112.3.168.512.168Zm2.884-1.533c0-.683.158-1.231.475-1.644.317-.415.742-.623 1.275-.623.47 0 .85.164 1.14.492v-2.271h.996v6.296h-.902l-.049-.459c-.298.361-.695.541-1.193.541-.52 0-.94-.209-1.262-.627-.32-.418-.48-.986-.48-1.705Zm.996.086c0 .451.086.803.258 1.058a.852.852 0 0 0 .742.377c.407 0 .705-.182.894-.546v-1.893c-.183-.356-.478-.533-.885-.533a.849.849 0 0 0-.746.385c-.175.254-.263.638-.263 1.152Zm6.663 2.164a1.517 1.517 0 0 1-.115-.414 1.55 1.55 0 0 1-1.164.496c-.445 0-.809-.127-1.09-.381a1.217 1.217 0 0 1-.422-.943c0-.472.175-.835.524-1.086.353-.254.856-.381 1.509-.381h.611v-.291c0-.23-.065-.413-.193-.549-.129-.14-.324-.21-.586-.21a.87.87 0 0 0-.558.173.52.52 0 0 0-.217.43h-.996c0-.243.081-.47.242-.68.161-.214.38-.38.656-.501.278-.12.588-.18.93-.18.519 0 .933.131 1.242.394.309.259.467.625.476 1.098v2.001c0 .399.056.717.168.955v.069h-1.017Zm-1.094-.717c.196 0 .381-.048.553-.144a.956.956 0 0 0 .394-.385v-.836h-.537c-.369 0-.647.064-.833.193a.625.625 0 0 0-.278.545c0 .191.063.344.188.459.129.112.299.168.513.168Zm4.556-.709.901-3.009h1.062l-1.762 5.108c-.271.746-.73 1.119-1.378 1.119-.145 0-.304-.025-.479-.074v-.771l.188.012c.252 0 .44-.046.566-.139.128-.09.229-.243.303-.459l.144-.381-1.558-4.415h1.074l.939 3.009Z" fill="#00D09C"/><g clip-path="url(#g)"><rect x="22.763" y="342.797" width="227.262" height="28.782" rx="4.797" fill="#00D09C"/><path d="M130.382 357.695h-1.753l-.009-.965h1.471c.259 0 .472-.033.637-.099a.764.764 0 0 0 .37-.295.859.859 0 0 0 .127-.478.97.97 0 0 0-.122-.515.672.672 0 0 0-.37-.286 1.949 1.949 0 0 0-.642-.089h-.974v5.72h-1.406v-6.821h2.38c.397 0 .751.038 1.063.113.316.075.583.189.802.342.218.153.385.347.501.581.115.231.173.506.173.824 0 .281-.064.541-.192.778a1.426 1.426 0 0 1-.595.581c-.268.15-.62.233-1.054.248l-.407.361Zm-.061 2.993h-2.076l.548-1.096h1.528c.246 0 .448-.039.604-.117a.8.8 0 0 0 .347-.328.97.97 0 0 0 .112-.473c0-.2-.034-.373-.103-.52a.695.695 0 0 0-.319-.337c-.146-.082-.34-.122-.58-.122h-1.354l.009-.965h1.686l.324.379c.415-.006.749.067 1.002.22.256.15.442.346.558.586.118.241.178.498.178.773 0 .437-.096.806-.286 1.106a1.74 1.74 0 0 1-.839.669c-.365.15-.812.225-1.339.225Zm7.38-6.821h1.401v4.507c0 .525-.113.967-.337 1.326-.222.359-.53.629-.923.81-.391.181-.84.272-1.349.272a3.24 3.24 0 0 1-1.359-.272 2.108 2.108 0 0 1-.928-.81c-.221-.359-.332-.801-.332-1.326v-4.507h1.405v4.507c0 .306.049.556.145.75a.926.926 0 0 0 .417.426c.185.091.402.136.652.136.256 0 .473-.045.651-.136a.902.902 0 0 0 .412-.426c.097-.194.145-.444.145-.75v-4.507Zm3.591 0 1.424 3.111 1.424-3.111h1.532l-2.244 4.338v2.483h-1.424v-2.483l-2.249-4.338h1.537Z" fill="#fff"/></g><path fill="#fff" d="M13.17 376.377h245.85v153.507H13.17z"/><path d="M138.368 410.167h-8.38v-1.168l4.427-4.919c.656-.744 1.107-1.347 1.353-1.809.252-.469.378-.952.378-1.45 0-.667-.202-1.215-.606-1.642-.404-.428-.943-.641-1.617-.641-.808 0-1.437.231-1.888.693-.445.457-.668 1.095-.668 1.915h-1.625c0-1.177.378-2.128 1.133-2.854.762-.727 1.778-1.09 3.048-1.09 1.189 0 2.129.314 2.82.94.691.621 1.036 1.45 1.036 2.486 0 1.259-.802 2.758-2.406 4.497l-3.426 3.716h6.421v1.326ZM130.735 439.146l.65-6.377h6.553v1.502h-5.174l-.387 3.487c.627-.368 1.338-.553 2.135-.553 1.165 0 2.09.387 2.776 1.16.685.767 1.027 1.806 1.027 3.118 0 1.317-.357 2.357-1.071 3.118-.709.755-1.702 1.133-2.978 1.133-1.13 0-2.053-.313-2.767-.94-.714-.626-1.121-1.493-1.221-2.6h1.537c.1.732.36 1.286.782 1.66.422.369.978.554 1.669.554.755 0 1.347-.258 1.774-.773.434-.516.65-1.227.65-2.135 0-.855-.234-1.54-.702-2.055-.463-.521-1.081-.782-1.854-.782-.708 0-1.265.155-1.669.466l-.43.351-1.3-.334ZM137.744 471.498c0 .639-.17 1.207-.509 1.704a3.405 3.405 0 0 1-1.362 1.169c.668.287 1.195.705 1.581 1.256a3.14 3.14 0 0 1 .589 1.871c0 1.106-.375 1.988-1.124 2.644-.744.655-1.725.983-2.943.983-1.23 0-2.216-.328-2.96-.983-.738-.662-1.107-1.543-1.107-2.644 0-.691.188-1.315.562-1.871.381-.557.905-.978 1.573-1.265a3.357 3.357 0 0 1-1.344-1.168 3.013 3.013 0 0 1-.492-1.696c0-1.077.345-1.932 1.036-2.564.691-.633 1.602-.949 2.732-.949 1.124 0 2.032.316 2.723.949.697.632 1.045 1.487 1.045 2.564Zm-1.326 5.965c0-.715-.228-1.298-.685-1.748-.451-.451-1.043-.677-1.774-.677-.732 0-1.321.223-1.766.668-.439.445-.659 1.03-.659 1.757 0 .726.214 1.297.641 1.712.434.416 1.034.624 1.801.624.761 0 1.359-.208 1.792-.624.433-.421.65-.992.65-1.712Zm-2.442-8.143c-.638 0-1.156.199-1.555.597-.392.393-.588.928-.588 1.608 0 .65.193 1.177.58 1.581.392.398.913.597 1.563.597.65 0 1.168-.199 1.555-.597.392-.404.588-.931.588-1.581 0-.65-.202-1.18-.606-1.59-.404-.41-.916-.615-1.537-.615ZM138.008 510.886c0 1.903-.325 3.318-.975 4.243-.65.925-1.666 1.388-3.048 1.388-1.365 0-2.375-.451-3.031-1.353-.655-.908-.995-2.26-1.018-4.058v-2.17c0-1.879.325-3.276.975-4.19.65-.913 1.668-1.37 3.056-1.37 1.376 0 2.389.442 3.039 1.327.65.878.984 2.236 1.002 4.075v2.108Zm-1.625-2.222c0-1.376-.193-2.377-.58-3.004-.386-.632-.998-.949-1.836-.949-.831 0-1.437.314-1.818.94-.381.627-.577 1.59-.588 2.89v2.6c0 1.382.199 2.404.597 3.065.404.656 1.013.984 1.827.984.802 0 1.396-.31 1.783-.931.392-.621.597-1.598.615-2.934v-2.661ZM47.91 410.167h-1.634v-10.83l-3.277 1.203v-1.475l4.656-1.748h.254v12.85ZM49.429 441.263h1.774v1.327H49.43v2.968h-1.634v-2.968h-5.823v-.958l5.727-8.863h1.73v8.494Zm-5.613 0h3.98v-6.271l-.194.351-3.786 5.92ZM50.826 469.074l-5.297 11.876h-1.704l5.279-11.454h-6.922v-1.335h8.644v.913ZM42.718 515.489c0-.281.082-.515.246-.703.17-.187.422-.281.756-.281.333 0 .585.094.755.281a.99.99 0 0 1 .264.703.933.933 0 0 1-.264.676c-.17.182-.422.273-.755.273-.334 0-.586-.091-.756-.273a.97.97 0 0 1-.246-.676ZM221.096 402.982h1.221c.767-.012 1.37-.214 1.809-.606.439-.393.659-.923.659-1.59 0-1.499-.747-2.249-2.24-2.249-.703 0-1.265.202-1.686.606-.416.398-.624.928-.624 1.59h-1.625c0-1.013.369-1.853 1.107-2.521.743-.673 1.686-1.01 2.828-1.01 1.206 0 2.152.319 2.837.957.685.639 1.028 1.526 1.028 2.662 0 .556-.182 1.095-.545 1.616a3.228 3.228 0 0 1-1.467 1.168c.703.223 1.245.592 1.625 1.107.387.515.58 1.145.58 1.889 0 1.147-.375 2.058-1.124 2.731-.75.674-1.725 1.01-2.925 1.01-1.201 0-2.179-.325-2.934-.975-.749-.65-1.124-1.507-1.124-2.573h1.634c0 .673.219 1.212.658 1.616.439.404 1.028.606 1.766.606.784 0 1.385-.205 1.8-.615.416-.41.624-.998.624-1.765 0-.744-.228-1.315-.685-1.713-.457-.398-1.116-.603-1.976-.615h-1.221v-1.326ZM225.11 432.747v1.379h-.299c-1.265.024-2.272.399-3.021 1.125-.75.726-1.183 1.748-1.3 3.065.673-.773 1.592-1.159 2.758-1.159 1.112 0 1.999.392 2.661 1.177.668.784 1.002 1.798 1.002 3.039 0 1.318-.361 2.372-1.081 3.162-.714.791-1.675 1.186-2.881 1.186-1.224 0-2.216-.469-2.978-1.405-.761-.943-1.141-2.155-1.141-3.637v-.624c0-2.354.5-4.151 1.502-5.393 1.007-1.247 2.503-1.885 4.488-1.915h.29Zm-2.135 5.762c-.556 0-1.068.167-1.537.501a2.618 2.618 0 0 0-.975 1.256v.598c0 1.054.237 1.903.712 2.547.474.644 1.066.966 1.774.966.732 0 1.306-.269 1.722-.808.421-.539.632-1.244.632-2.117 0-.878-.214-1.587-.641-2.126-.422-.544-.984-.817-1.687-.817ZM224.961 475.302c-.34.404-.747.729-1.221.975a3.276 3.276 0 0 1-1.546.369c-.738 0-1.382-.181-1.933-.545-.544-.363-.966-.872-1.265-1.528a5.267 5.267 0 0 1-.448-2.187c0-.855.161-1.625.484-2.31.327-.685.79-1.209 1.387-1.572.598-.364 1.294-.545 2.091-.545 1.265 0 2.26.474 2.986 1.423.732.943 1.098 2.231 1.098 3.865v.474c0 2.489-.492 4.307-1.475 5.455-.984 1.142-2.469 1.727-4.454 1.756h-.316v-1.37h.343c1.341-.023 2.371-.372 3.092-1.045.72-.679 1.112-1.751 1.177-3.215Zm-2.504 0c.545 0 1.045-.167 1.502-.501.463-.333.8-.746 1.01-1.238v-.65c0-1.066-.231-1.932-.694-2.6-.462-.668-1.048-1.001-1.756-1.001-.715 0-1.289.275-1.722.825-.433.545-.65 1.265-.65 2.161 0 .873.208 1.593.624 2.161.421.562.983.843 1.686.843Z" fill="#44475B"/><path fill="#fff" d="M215.314 505.322h9.561v8.187h-9.561z"/><path d="m218.206 504.115.498.333-.498-.333Zm-3.688 5.526-.499-.333-.222.333.222.333.499-.333Zm3.688 5.526-.499.333.014.022.017.02.468-.375Zm11.336-12.266h-10.175v1.199h10.175v-1.199Zm-10.175 0c-.669 0-1.27.297-1.66.881l.997.666a.745.745 0 0 1 .663-.348v-1.199Zm-1.66.881-3.688 5.526.998.666 3.687-5.526-.997-.666Zm-3.688 6.192 3.688 5.526.997-.666-3.687-5.526-.998.666Zm3.719 5.568c.347.434.914.839 1.629.839v-1.199c-.242 0-.495-.141-.693-.389l-.936.749Zm1.629.839h10.175v-1.199h-10.175v1.199Zm10.175 0a1.97 1.97 0 0 0 1.966-1.964h-1.2a.77.77 0 0 1-.766.765v1.199Zm1.966-1.964v-9.552h-1.2v9.552h1.2Zm0-9.552a1.97 1.97 0 0 0-1.966-1.964v1.199a.77.77 0 0 1 .766.765h1.2Z" fill="#44475B"/><path d="m226.661 507.394-4.829 4.824M221.83 507.394l4.829 4.824" stroke="#44475B" stroke-width=".899" stroke-linecap="round" stroke-linejoin="round"/><path fill="#fff" d="M13.169 132.624h246.45v33.58H13.169z"/><path d="M28.764 149.428c0 .659-.104 1.227-.314 1.705-.209.475-.502.847-.88 1.115l1.218.956-.614.567-1.438-1.143a2.937 2.937 0 0 1-.712.084 2.614 2.614 0 0 1-1.43-.394 2.642 2.642 0 0 1-.969-1.129c-.228-.49-.345-1.057-.351-1.7v-.492c0-.656.114-1.235.342-1.738.228-.503.55-.887.965-1.152a2.593 2.593 0 0 1 1.433-.403c.55 0 1.033.132 1.448.398.418.265.74.648.965 1.148.225.496.337 1.077.337 1.742v.436Zm-.9-.44c0-.803-.16-1.421-.482-1.856-.318-.437-.774-.655-1.368-.655-.565 0-1.011.217-1.34.651-.324.431-.491 1.03-.5 1.799v.501c0 .781.162 1.396.486 1.846.328.449.783.674 1.364.674.58 0 1.03-.21 1.349-.632.319-.425.482-1.032.492-1.822v-.506Zm3.423-2.666v1.227h.946v.67h-.946v3.144c0 .203.042.356.126.459.085.1.228.15.431.15.1 0 .238-.019.413-.056v.702c-.228.063-.45.094-.666.094-.387 0-.679-.117-.876-.351-.196-.235-.295-.567-.295-.998v-3.144h-.923v-.67h.923v-1.227h.867Zm3.717 5.027 1.18-3.8h.928l-2.038 5.852c-.315.843-.816 1.264-1.503 1.264l-.164-.014-.324-.061v-.702l.235.019c.293 0 .521-.06.684-.179.165-.118.3-.335.407-.651l.192-.515-1.808-5.013h.946l1.265 3.8Zm10.906 1.269h-1.185l-3.04-4.839v4.839h-1.186v-6.821h1.185l3.05 4.858v-4.858h1.176v6.821Zm5.061-1.757c0-.299-.106-.53-.318-.693-.21-.162-.589-.326-1.139-.492-.55-.165-.986-.35-1.311-.553-.622-.39-.933-.899-.933-1.527 0-.549.224-1.002.67-1.358.45-.356 1.033-.534 1.748-.534.474 0 .898.087 1.27.262.371.175.663.425.875.75.213.321.319.679.319 1.072h-1.18c0-.356-.113-.634-.338-.834-.222-.203-.54-.304-.956-.304-.387 0-.688.083-.904.248-.212.166-.318.397-.318.694 0 .249.115.459.346.627.231.166.612.328 1.144.488.53.156.957.335 1.278.538.322.2.558.431.708.694.15.259.225.563.225.913 0 .569-.219 1.021-.656 1.359-.434.334-1.025.501-1.771.501-.493 0-.948-.091-1.363-.272a2.318 2.318 0 0 1-.965-.759 1.892 1.892 0 0 1-.342-1.124h1.185c0 .387.128.687.384.899.256.213.623.319 1.101.319.412 0 .721-.083.928-.248a.814.814 0 0 0 .313-.666Zm6.308-1.288h-2.801v2.099h3.274v.946h-4.46v-6.821h4.428v.956h-3.242v1.883h2.801v.937Z" fill="#44475B"/><rect x="173.273" y="137.421" width="76.753" height="23.985" rx="2.399" fill="#E5FAF5"/><path d="M231.443 153.82h-1.417v-6.846l-2.09.715v-1.201l3.326-1.223h.181v8.555Zm8.641-3.59c0 1.226-.231 2.151-.691 2.776-.457.621-1.154.931-2.091.931-.921 0-1.616-.303-2.085-.908-.464-.609-.702-1.508-.714-2.699v-1.476c0-1.226.228-2.145.685-2.758.461-.613 1.162-.919 2.102-.919.933 0 1.628.298 2.085.896.461.597.697 1.491.709 2.682v1.475Zm-1.423-1.592c0-.801-.11-1.386-.328-1.757-.219-.375-.566-.562-1.043-.562-.464 0-.806.177-1.024.532-.219.352-.334.902-.346 1.652v1.932c0 .797.111 1.39.334 1.78.222.391.572.586 1.048.586.457 0 .795-.18 1.013-.539.219-.363.334-.929.346-1.698v-1.926Zm8.359 1.592c0 1.226-.231 2.151-.691 2.776-.457.621-1.154.931-2.091.931-.921 0-1.616-.303-2.084-.908-.465-.609-.703-1.508-.715-2.699v-1.476c0-1.226.229-2.145.685-2.758.461-.613 1.162-.919 2.103-.919.933 0 1.627.298 2.084.896.461.597.697 1.491.709 2.682v1.475Zm-1.423-1.592c0-.801-.11-1.386-.328-1.757-.219-.375-.566-.562-1.042-.562-.465 0-.807.177-1.025.532-.219.352-.334.902-.346 1.652v1.932c0 .797.112 1.39.334 1.78.223.391.572.586 1.048.586.457 0 .795-.18 1.013-.539.219-.363.334-.929.346-1.698v-1.926ZM65.441 147.71l2.294 2.288 2.294-2.288.704.704-2.998 2.999-2.998-2.999.704-.704Z" fill="#00D09C"/></g></g><circle cx="31.669" cy="31.041" fill="#000" r="9.093"/></g><defs><clipPath id="a"><path fill="#fff" d="M0 0h272.788v560H0z"/></clipPath><clipPath id="b"><rect x="13.169" y="13.169" width="246.45" height="533.662" rx="21.948" fill="#fff"/></clipPath><clipPath id="d"><path fill="#fff" transform="translate(13.17 25.084)" d="M0 0h246.45v521.683H0z"/></clipPath><clipPath id="e"><path fill="#fff" transform="translate(230.836 64.265)" d="M0 0h14.391v14.391H0z"/></clipPath><clipPath id="f"><path fill="#fff" transform="translate(22.763 59.468)" d="M0 0h14.391v14.391H0z"/></clipPath><clipPath id="g"><path fill="#fff" transform="translate(13.17 338)" d="M0 0h246.45v38.377H0z"/></clipPath></defs></svg>