<svg xmlns="http://www.w3.org/2000/svg" width="169" height="53" viewBox="0 0 169 53"><g fill="none" fill-rule="evenodd"><path fill="#343A40" fill-rule="nonzero" d="M86.255 26.003c5.348 0 8.708 4.105 8.708 10.035 0 7.438-4.663 10.315-8.914 10.315-5.143 0-8.846-3.72-8.846-10.07 0-6.56 3.874-10.28 9.052-10.28zm-60.185.006c4.629 0 7.646 3.369 7.646 9.684 0 .772-.034 1.509-.137 2.07H22.16c.137 3.333 2.469 4.666 5.212 4.666 1.886 0 3.36-.35 4.663-.806l.72 3.578c-1.577.702-3.806 1.123-6.172 1.123-5.897 0-9.257-3.79-9.257-9.859 0-5.614 3.154-10.456 8.743-10.456zm36.066-.006c1.955 0 3.635.492 4.732 1.088l-.96 3.649c-.823-.456-2.16-1.018-3.6-1.018-1.543 0-2.366.807-2.366 1.86 0 1.088.72 1.649 2.914 2.596 3.223 1.369 4.732 3.263 4.732 5.965 0 3.719-2.743 6.175-7.509 6.175-2.091 0-4.114-.526-5.383-1.298l.96-3.754c.994.596 2.88 1.298 4.457 1.298 1.783 0 2.64-.772 2.64-1.965s-.651-1.824-2.743-2.737c-3.565-1.473-4.868-3.543-4.868-5.684 0-3.508 2.743-6.175 6.994-6.175zM6.87 18.782c3.325 0 5.828.667 7.508 2.14 1.577 1.368 2.538 3.544 2.538 6.035 0 7.403-6.035 9.052-9.978 9.052-.72 0-1.337-.035-1.851-.14v10.104H.046v-26.63c1.645-.316 3.908-.561 6.823-.561zm100.486 7.257c3.497 0 6.206 2.49 6.206 7.964v11.964h-5.074V34.564c0-2.386-.755-4.28-2.915-4.28-1.371 0-3.257 1.088-3.257 4.07v11.613h-5.074V32.32c0-2.28-.069-4.14-.137-5.86h4.388l.24 2.632h.103a6.4 6.4 0 015.52-3.052zm-32.422.385v19.543h-5.075V26.424h5.075zm-28.61-.385c3.497 0 6.206 2.49 6.206 7.964v11.964h-5.075V34.564c0-2.386-.754-4.28-2.914-4.28-1.372 0-3.257 1.088-3.257 4.07v11.613h-5.075V32.32c0-2.28-.068-4.14-.137-5.86h4.389l.24 2.632h.103a6.4 6.4 0 015.52-3.052zm39.829 3.789c-2.812 0-3.806 3.368-3.806 6.35 0 3.474 1.303 6.35 3.771 6.35 2.4 0 3.703-2.911 3.703-6.385 0-3.052-1.062-6.315-3.668-6.315zm-60.39-.205c-2.435 0-3.464 2.597-3.6 4.526h6.857c.034-2.035-.755-4.526-3.258-4.526zM7.28 22.817c-1.029 0-1.749.105-2.194.21V31.8c.48.105 1.028.14 1.783.14 3.154 0 5.005-1.825 5.005-4.737 0-2.877-1.783-4.385-4.594-4.385zm65.081-4.497c1.646 0 2.743 1.158 2.743 2.771 0 1.685-1.166 2.772-2.743 2.772-1.611 0-2.709-1.193-2.709-2.772 0-1.613 1.132-2.771 2.71-2.771z"/><path fill="#F9C000" d="M138.03 1.574c3.835-1.907 7.43-2.056 10.346-.586 5.535 3.203 3.991 11.515 1.948 14.866-2.141 3.51-6.126 6.281-11.408 7.382-1.997.401-4.796.426-7.628.203 2.062 1.844 3.841 4.14 5.019 6.73 1.664-3.453 4.635-5.917 8.369-7.293 4.146-1.528 10.019-1.28 10.607 1.205.323 1.366-.12 4.554-1.299 7.441.323-.203.659-.397 1.005-.584 1.749-.944 6.804-1.968 8.387.19 1.207 1.925.355 6.003-1.642 8.642-1.325 1.75-4.286 3.078-5.84 3.347-.44.095-.843-.207-1.045-.811-.203-.604-.113-1.27.134-1.379 1.276-.553 3.023-.788 4.837-2.868 1.83-2.1 2.479-4.586 2.05-4.909-.655-.38-2.75.356-4.567 1.47-1.778 1.09-3.745 2.92-4.207 5.894-.43 2.768.697 4.203 2.897 4.94 2.617.734 5.192.116 6.83-.486 2.296-.852 3.392-1.753 3.849-2.663.442-.88-.517-2.009-.982-2.637-.767-1.034.85-1.901 1.282-1.553.668.567 1.368 1.512 1.675 2.06.585 1.09.585 2.442-.348 3.806-1.042 1.474-2.456 2.475-5.26 3.452-2.192.764-5.306 1.094-7.888.438-1.816-.462-3.424-1.433-4.557-2.804-4.193 1.297-7.845 1.644-10.309.617a8.422 8.422 0 01-3.815-3.137c-.957 2.34-2.373 4.344-3.898 5.743-3.58 3.284-8.578 4.42-11.789 4-3.154-.41-5.758-2.114-7.36-4.793-1.592-2.664-2.099-6.122-1.432-9.918.7-3.985 2.076-7.864 5.253-12.08.513-.68 1.023-1.183 1.653-1.02.602.163 5.236 1.908 4.733 2.602-2.762 3.808-5.08 8.828-5.69 12.295-.54 3.083-.913 6.043.268 8.019 2.38 3.98 7.437 1.342 9.931-.928 4.436-3.825 6.34-9.637 5.146-13.529-1.193-3.892-5.949-9.559-11.179-10.818-.402-.098-.78-.2-1.295-.332-1.036-.247.375-2.407.73-2.873.356-.467.98-.267 1.485-.148 6.677 1.23 11.391 1.79 14.79 1.202 3.932-.681 6.414-2.84 8.704-5.831 1.35-1.762 4.068-6.585 1.122-10.306-1.551-1.958-7.831 2.945-9.114 3.894-2.79 2.065-5.367 4.773-8.284 8.838-.378.464-4.982-.79-5.303-1.016-.334-.278-.498-1.138 0-1.83 4.536-6.302 8.877-10.05 13.089-12.144zm14.826 24.794c.241-1.055-2.771-.43-5.826 1.124-3.322 1.69-5.898 4.768-6.911 7.56-1.014 2.79-.995 6.242 1.823 7.731 1.72.751 4.13.512 7.234-.407a8.06 8.06 0 01-.249-3.036c.08-.78.226-1.501.433-2.168-2.285 1.38-5.132 2.26-6.753 2.26-1.063 0-1.343-2.59-.442-2.793 2.697-.593 5.054-1.796 6.419-2.99 2.383-2.086 3.515-4.117 4.272-7.28z"/></g></svg>