<svg xmlns="http://www.w3.org/2000/svg" width="384" height="354" fill="none" xmlns:v="https://vecta.io/nano"><g filter="url(#A)"><rect x="32" y="16" width="320" height="290" rx="16" fill="#fff"/><path d="M59.68 57l-3.44-11.568h1.632l2.112 7.072.24.944.24 1.152.272-1.168.272-.928 2.192-7.072h1.696l2.176 7.072.272.96.256 1.136.272-1.216.24-.864 2.128-7.088h1.6L68.352 57h-1.504l-2.8-9.152L61.216 57H59.68zm11.958-3.92c0-.8.176-1.509.528-2.128a3.85 3.85 0 0 1 1.44-1.456c.619-.352 1.323-.528 2.112-.528s1.488.176 2.096.528a3.85 3.85 0 0 1 1.44 1.456c.352.619.528 1.328.528 2.128s-.176 1.509-.528 2.128a3.85 3.85 0 0 1-1.44 1.456c-.608.352-1.307.528-2.096.528s-1.493-.176-2.112-.528a3.85 3.85 0 0 1-1.44-1.456c-.352-.619-.528-1.328-.528-2.128zm1.52 0c0 .544.107 1.024.32 1.44.224.416.528.741.912.976s.827.352 1.328.352.944-.117 1.328-.352.683-.56.896-.976c.224-.416.336-.896.336-1.44 0-.555-.112-1.035-.336-1.44-.213-.416-.512-.741-.896-.976s-.827-.352-1.328-.352-.944.117-1.328.352-.688.56-.912.976c-.213.405-.32.885-.32 1.44zm12.769-3.968v1.376h-.672c-.715 0-1.28.208-1.696.624-.405.405-.608.987-.608 1.744V57h-1.504v-7.808h1.408l.128 1.568h-.144a2.08 2.08 0 0 1 .768-1.248c.405-.331.912-.496 1.52-.496.139 0 .267.011.384.032.128.011.267.032.416.064zm4.265 8.08c-.757 0-1.408-.171-1.952-.512-.544-.352-.965-.837-1.264-1.456-.288-.619-.432-1.323-.432-2.112 0-.8.149-1.509.448-2.128.299-.629.725-1.125 1.28-1.488s1.216-.544 1.984-.544c.608 0 1.147.128 1.616.384a2.6 2.6 0 0 1 1.12 1.104v-5.216h1.488V57h-1.344l-.128-1.424a2.69 2.69 0 0 1-1.136 1.2c-.491.277-1.051.416-1.68.416zm.304-1.36c.512 0 .949-.117 1.312-.352a2.33 2.33 0 0 0 .864-.976c.203-.416.304-.896.304-1.44s-.101-1.019-.304-1.424a2.33 2.33 0 0 0-.864-.976c-.363-.235-.8-.352-1.312-.352s-.949.123-1.312.368a2.26 2.26 0 0 0-.832.976c-.192.405-.288.875-.288 1.408 0 .544.096 1.024.288 1.44a2.26 2.26 0 0 0 .832.976c.363.235.8.352 1.312.352zm10.016-2.752c0-.8.176-1.509.528-2.128a3.85 3.85 0 0 1 1.44-1.456c.619-.352 1.323-.528 2.112-.528s1.488.176 2.096.528a3.85 3.85 0 0 1 1.44 1.456c.352.619.528 1.328.528 2.128s-.176 1.509-.528 2.128a3.85 3.85 0 0 1-1.44 1.456c-.608.352-1.306.528-2.096.528s-1.493-.176-2.112-.528a3.85 3.85 0 0 1-1.44-1.456c-.352-.619-.528-1.328-.528-2.128zm1.52 0c0 .544.107 1.024.32 1.44.224.416.528.741.912.976s.827.352 1.328.352.944-.117 1.328-.352a2.4 2.4 0 0 0 .896-.976c.224-.416.336-.896.336-1.44 0-.555-.112-1.035-.336-1.44a2.4 2.4 0 0 0-.896-.976c-.384-.235-.826-.352-1.328-.352s-.944.117-1.328.352-.688.56-.912.976c-.213.405-.32.885-.32 1.44zm7.41-3.904h4.512v1.264h-4.512v-1.264zm4.56-3.888v1.296h-.32-.352c-.49 0-.821.117-.992.352-.16.235-.24.565-.24.992V57h-1.504v-9.072c0-.64.107-1.157.32-1.552.224-.405.518-.699.88-.88.374-.181.8-.272 1.28-.272l.464.016.464.048zm4.894 3.888h4.576v1.264h-4.576v-1.264zm3.04 7.824h-1.504V46.728h1.504V57zm4.389-.016h-1.504v-11.76h1.504v5.152a2.72 2.72 0 0 1 1.056-1.024c.459-.267.992-.4 1.6-.4.992 0 1.734.293 2.224.88s.736 1.381.736 2.384V57h-1.504v-4.448c0-.533-.08-.96-.24-1.28-.149-.331-.368-.571-.656-.72-.277-.149-.602-.224-.976-.224-.48 0-.89.107-1.232.32-.33.213-.581.501-.752.864a2.83 2.83 0 0 0-.256 1.216v4.256zm11.075.208c-.757 0-1.429-.171-2.016-.512a3.73 3.73 0 0 1-1.376-1.44c-.33-.619-.496-1.333-.496-2.144 0-.821.16-1.541.48-2.16.331-.619.779-1.104 1.344-1.456.576-.352 1.243-.528 2-.528.747 0 1.392.16 1.936.48.555.32.982.768 1.28 1.344.31.576.464 1.253.464 2.032v.56l-6.704.016.032-1.008h5.168c0-.651-.197-1.173-.592-1.568s-.922-.592-1.584-.592c-.501 0-.933.112-1.296.336-.352.213-.624.533-.816.96-.181.416-.272.917-.272 1.504 0 .939.214 1.664.64 2.176.427.501 1.04.752 1.84.752.587 0 1.067-.117 1.44-.352s.624-.576.752-1.024h1.408c-.192.832-.602 1.477-1.232 1.936s-1.429.688-2.4.688zm12.807 0c-.757 0-1.408-.171-1.952-.512a3.51 3.51 0 0 1-1.264-1.456c-.288-.619-.432-1.323-.432-2.112 0-.8.15-1.509.448-2.128.299-.629.726-1.125 1.28-1.488s1.216-.544 1.984-.544c.608 0 1.147.128 1.616.384.48.245.854.613 1.12 1.104v-5.216h1.488V57h-1.344l-.128-1.424c-.256.523-.634.923-1.136 1.2-.49.277-1.05.416-1.68.416zm.304-1.36c.512 0 .95-.117 1.312-.352a2.32 2.32 0 0 0 .864-.976c.203-.416.304-.896.304-1.44s-.101-1.019-.304-1.424a2.32 2.32 0 0 0-.864-.976c-.362-.235-.8-.352-1.312-.352s-.949.123-1.312.368c-.362.235-.64.56-.832.976-.192.405-.288.875-.288 1.408 0 .544.096 1.024.288 1.44s.47.741.832.976.8.352 1.312.352zm8.442 1.36c-.832 0-1.488-.219-1.968-.656-.469-.437-.704-1.008-.704-1.712 0-.715.256-1.285.768-1.712.512-.437 1.227-.693 2.144-.768l2.464-.192v-.224c0-.437-.08-.784-.24-1.04a1.29 1.29 0 0 0-.656-.56c-.277-.117-.592-.176-.944-.176-.629 0-1.12.133-1.472.4-.341.256-.512.624-.512 1.104h-1.312c0-.544.139-1.019.416-1.424s.667-.72 1.168-.944c.512-.224 1.104-.336 1.776-.336.651 0 1.216.117 1.696.352a2.44 2.44 0 0 1 1.136 1.04c.277.459.416 1.04.416 1.744V57h-1.28l-.16-1.264c-.203.448-.555.805-1.056 1.072-.491.256-1.051.384-1.68.384zm.432-1.168c.715 0 1.275-.213 1.68-.64.405-.437.608-1.024.608-1.76v-.416l-2 .16c-.661.064-1.141.219-1.44.464-.288.245-.432.56-.432.944 0 .416.139.731.416.944.288.203.677.304 1.168.304zm6.263-6.848l2.752 7.616-.928 1.28-3.408-8.896h1.584zm-1.376 11.328v-1.232h1.008c.246 0 .47-.027.672-.08a1.16 1.16 0 0 0 .56-.304c.171-.149.315-.389.432-.72l3.296-8.992h1.552l-3.696 9.584c-.266.672-.602 1.157-1.008 1.456s-.906.448-1.504.448c-.245 0-.474-.016-.688-.048-.213-.021-.421-.059-.624-.112z" fill="#7c7e8c"/><path d="M58.736 102h-2.448l6.336-17.352h2.616L71.6 102h-2.472l-1.56-4.32h-7.296L58.736 102zm4.896-13.608l-2.64 7.248h5.88l-2.664-7.248-.168-.528c-.064-.192-.104-.352-.12-.48l-.12.48-.168.528zm14.126 13.896c-1.136 0-2.112-.256-2.928-.768-.816-.528-1.448-1.256-1.896-2.184-.432-.928-.648-1.984-.648-3.168 0-1.2.224-2.264.672-3.192.448-.944 1.088-1.688 1.92-2.232s1.824-.816 2.976-.816c.912 0 1.72.192 2.424.576a3.9 3.9 0 0 1 1.68 1.656v-7.824h2.232V102h-2.016l-.192-2.136c-.384.784-.952 1.384-1.704 1.8-.736.416-1.576.624-2.52.624zm.456-2.04c.768 0 1.424-.176 1.968-.528.56-.352.992-.84 1.296-1.464s.456-1.344.456-2.16-.152-1.528-.456-2.136c-.304-.624-.736-1.112-1.296-1.464-.544-.352-1.2-.528-1.968-.528s-1.424.184-1.968.552a3.39 3.39 0 0 0-1.248 1.464c-.288.608-.432 1.312-.432 2.112 0 .816.144 1.536.432 2.16a3.39 3.39 0 0 0 1.248 1.464c.544.352 1.2.528 1.968.528zm13.935 2.04c-1.136 0-2.112-.256-2.928-.768-.816-.528-1.448-1.256-1.896-2.184-.432-.928-.648-1.984-.648-3.168 0-1.2.224-2.264.672-3.192.448-.944 1.088-1.688 1.92-2.232s1.824-.816 2.976-.816c.912 0 1.72.192 2.424.576a3.9 3.9 0 0 1 1.68 1.656v-7.824h2.232V102h-2.016l-.192-2.136c-.384.784-.952 1.384-1.704 1.8-.736.416-1.576.624-2.52.624zm.456-2.04c.768 0 1.424-.176 1.968-.528.56-.352.992-.84 1.296-1.464s.456-1.344.456-2.16-.152-1.528-.456-2.136c-.304-.624-.736-1.112-1.296-1.464-.544-.352-1.2-.528-1.968-.528s-1.424.184-1.968.552a3.39 3.39 0 0 0-1.248 1.464c-.288.608-.432 1.312-.432 2.112 0 .816.144 1.536.432 2.16a3.39 3.39 0 0 0 1.248 1.464c.544.352 1.2.528 1.968.528zm9.23 1.752V90.264h2.256V102h-2.256zm1.104-14.52c-.4 0-.752-.144-1.056-.432-.288-.304-.432-.656-.432-1.056 0-.416.144-.768.432-1.056.304-.288.656-.432 1.056-.432.416 0 .768.144 1.056.432s.432.64.432 1.056c0 .4-.144.752-.432 1.056-.288.288-.64.432-1.056.432zm3.179 2.784h6.864v1.896h-6.864v-1.896zm4.56 11.736h-2.256V86.592h2.256V102zm4.329 0V90.264h2.256V102h-2.256zm1.104-14.52c-.4 0-.752-.144-1.056-.432-.288-.304-.432-.656-.432-1.056 0-.416.144-.768.432-1.056.304-.288.656-.432 1.056-.432.416 0 .768.144 1.056.432s.432.64.432 1.056c0 .4-.144.752-.432 1.056-.288.288-.64.432-1.056.432zm3.659 8.64c0-1.2.264-2.264.792-3.192s1.248-1.656 2.16-2.184c.928-.528 1.984-.792 3.168-.792s2.232.264 3.144.792 1.632 1.256 2.16 2.184.792 1.992.792 3.192-.264 2.264-.792 3.192-1.248 1.656-2.16 2.184-1.96.792-3.144.792-2.24-.264-3.168-.792c-.912-.528-1.632-1.256-2.16-2.184s-.792-1.992-.792-3.192zm2.28 0c0 .816.16 1.536.48 2.16.336.624.792 1.112 1.368 1.464s1.24.528 1.992.528 1.416-.176 1.992-.528 1.024-.84 1.344-1.464c.336-.624.504-1.344.504-2.16 0-.832-.168-1.552-.504-2.16-.32-.624-.768-1.112-1.344-1.464s-1.24-.528-1.992-.528-1.416.176-1.992.528-1.032.84-1.368 1.464c-.32.608-.48 1.328-.48 2.16zm14.69 5.88h-2.256V90.264h2.04l.24 1.8c.368-.672.896-1.192 1.584-1.56.704-.384 1.472-.576 2.304-.576 1.536 0 2.672.44 3.408 1.32s1.104 2.072 1.104 3.576V102h-2.256v-6.672c0-1.184-.256-2.032-.768-2.544-.512-.528-1.2-.792-2.064-.792-1.056 0-1.88.344-2.472 1.032-.576.688-.864 1.608-.864 2.76V102zm14.98.288c-1.248 0-2.232-.328-2.952-.984-.704-.656-1.056-1.512-1.056-2.568 0-1.072.384-1.928 1.152-2.568.768-.656 1.84-1.04 3.216-1.152l3.696-.288v-.336c0-.656-.12-1.176-.36-1.56-.24-.4-.568-.68-.984-.84-.416-.176-.888-.264-1.416-.264-.944 0-1.68.2-2.208.6-.512.384-.768.936-.768 1.656h-1.968c0-.816.208-1.528.624-2.136s1-1.08 1.752-1.416c.768-.336 1.656-.504 2.664-.504.976 0 1.824.176 2.544.528.736.336 1.304.856 1.704 1.56.416.688.624 1.56.624 2.616V102h-1.92l-.24-1.896c-.304.672-.832 1.208-1.584 1.608-.736.384-1.576.576-2.52.576zm.648-1.752c1.072 0 1.912-.32 2.52-.96.608-.656.912-1.536.912-2.64v-.624l-3 .24c-.992.096-1.712.328-2.16.696-.432.368-.648.84-.648 1.416 0 .624.208 1.096.624 1.416.432.304 1.016.456 1.752.456zM163.413 102h-2.256V84.336h2.256V102zm9.259-12.672c0-.992.248-1.864.744-2.616s1.192-1.336 2.088-1.752c.912-.416 1.96-.624 3.144-.624 1.104 0 2.064.2 2.88.6.832.384 1.48.936 1.944 1.656.48.72.752 1.584.816 2.592h-2.376c-.064-.864-.384-1.536-.96-2.016s-1.352-.72-2.328-.72c-1.088 0-1.96.256-2.616.768-.656.496-.984 1.176-.984 2.04 0 .704.2 1.272.6 1.704.4.416 1.008.72 1.824.912l2.856.672c1.424.32 2.488.872 3.192 1.656.72.768 1.08 1.76 1.08 2.976 0 1.04-.256 1.944-.768 2.712-.496.768-1.208 1.36-2.136 1.776-.912.416-1.984.624-3.216.624-1.168 0-2.2-.192-3.096-.576-.88-.4-1.576-.96-2.088-1.68-.496-.736-.776-1.592-.84-2.568h2.4a2.43 2.43 0 0 0 1.008 1.992c.656.48 1.528.72 2.616.72 1.152 0 2.064-.256 2.736-.768.688-.512 1.032-1.192 1.032-2.04 0-.688-.192-1.248-.576-1.68s-.992-.744-1.824-.936l-2.856-.648c-1.408-.32-2.48-.88-3.216-1.68-.72-.816-1.08-1.848-1.08-3.096zm22.588.936h2.232V102h-2.016l-.24-1.776c-.336.608-.864 1.104-1.584 1.488s-1.512.576-2.376.576c-1.36 0-2.416-.424-3.168-1.272-.736-.864-1.104-2.016-1.104-3.456v-7.296h2.256v6.552c0 1.248.248 2.144.744 2.688.512.528 1.2.792 2.064.792 1.04 0 1.832-.32 2.376-.96.544-.656.816-1.616.816-2.88v-6.192zm12.225-.096v2.064h-1.008c-1.072 0-1.92.312-2.544.936-.608.608-.912 1.48-.912 2.616V102h-2.256V90.288h2.112l.192 2.352h-.216c.16-.768.544-1.392 1.152-1.872.608-.496 1.368-.744 2.28-.744.208 0 .4.016.576.048a4.96 4.96 0 0 1 .624.096zM213.24 102l-4.728-11.736h2.4l2.568 6.552.552 1.56.384 1.248.408-1.32.576-1.488 2.616-6.552h2.352L215.472 102h-2.232zm13.448.288c-1.136 0-2.144-.256-3.024-.768a5.58 5.58 0 0 1-2.064-2.16c-.496-.928-.744-2-.744-3.216 0-1.232.24-2.312.72-3.24.496-.928 1.168-1.656 2.016-2.184.864-.528 1.864-.792 3-.792 1.12 0 2.088.24 2.904.72a4.86 4.86 0 0 1 1.92 2.016c.464.864.696 1.88.696 3.048v.84l-10.056.024.048-1.512h7.752c0-.976-.296-1.76-.888-2.352s-1.384-.888-2.376-.888c-.752 0-1.4.168-1.944.504-.528.32-.936.8-1.224 1.44-.272.624-.408 1.376-.408 2.256 0 1.408.32 2.496.96 3.264.64.752 1.56 1.128 2.76 1.128.88 0 1.6-.176 2.16-.528a2.58 2.58 0 0 0 1.128-1.536h2.112c-.288 1.248-.904 2.216-1.848 2.904s-2.144 1.032-3.6 1.032zm7.944-.288V90.264h2.256V102h-2.256zm1.104-14.52c-.4 0-.752-.144-1.056-.432-.288-.304-.432-.656-.432-1.056 0-.416.144-.768.432-1.056.304-.288.656-.432 1.056-.432.416 0 .768.144 1.056.432s.432.64.432 1.056c0 .4-.144.752-.432 1.056-.288.288-.64.432-1.056.432zm6.731 14.52h-2.256V84.336h2.256V102zm5.625 0h-2.256V84.336h2.256V102zm6.753.288c-1.248 0-2.232-.328-2.952-.984-.704-.656-1.056-1.512-1.056-2.568 0-1.072.384-1.928 1.152-2.568.768-.656 1.84-1.04 3.216-1.152l3.696-.288v-.336c0-.656-.12-1.176-.36-1.56-.24-.4-.568-.68-.984-.84-.416-.176-.888-.264-1.416-.264-.944 0-1.68.2-2.208.6-.512.384-.768.936-.768 1.656h-1.968c0-.816.208-1.528.624-2.136s1-1.08 1.752-1.416c.768-.336 1.656-.504 2.664-.504.976 0 1.824.176 2.544.528.736.336 1.304.856 1.704 1.56.416.688.624 1.56.624 2.616V102h-1.92l-.24-1.896c-.304.672-.832 1.208-1.584 1.608-.736.384-1.576.576-2.52.576zm.648-1.752c1.072 0 1.912-.32 2.52-.96.608-.656.912-1.536.912-2.64v-.624l-3 .24c-.992.096-1.712.328-2.16.696-.432.368-.648.84-.648 1.416 0 .624.208 1.096.624 1.416.432.304 1.016.456 1.752.456zM266.49 102h-2.256V90.264h2.04l.24 1.8c.368-.672.896-1.192 1.584-1.56.704-.384 1.472-.576 2.304-.576 1.536 0 2.672.44 3.408 1.32s1.104 2.072 1.104 3.576V102h-2.256v-6.672c0-1.184-.256-2.032-.768-2.544-.512-.528-1.2-.792-2.064-.792-1.056 0-1.88.344-2.472 1.032-.576.688-.864 1.608-.864 2.76V102zm10.78-5.856c0-1.232.24-2.312.72-3.24.496-.928 1.176-1.656 2.04-2.184s1.864-.792 3-.792c1.472 0 2.696.392 3.672 1.176s1.56 1.824 1.752 3.12h-2.256c-.192-.752-.568-1.32-1.128-1.704s-1.216-.576-1.968-.576c-.704 0-1.328.176-1.872.528-.544.336-.968.816-1.272 1.44s-.456 1.36-.456 2.208.144 1.584.432 2.208c.288.608.696 1.088 1.224 1.44.528.336 1.144.504 1.848.504.8 0 1.488-.2 2.064-.6a2.86 2.86 0 0 0 1.152-1.632h2.256c-.144.848-.472 1.592-.984 2.232-.496.624-1.136 1.12-1.92 1.488-.768.352-1.624.528-2.568.528-1.152 0-2.16-.256-3.024-.768-.848-.512-1.512-1.224-1.992-2.136-.48-.928-.72-2.008-.72-3.24zm18.653 6.144c-1.136 0-2.144-.256-3.024-.768a5.58 5.58 0 0 1-2.064-2.16c-.496-.928-.744-2-.744-3.216 0-1.232.24-2.312.72-3.24.496-.928 1.168-1.656 2.016-2.184.864-.528 1.864-.792 3-.792 1.12 0 2.088.24 2.904.72a4.86 4.86 0 0 1 1.92 2.016c.464.864.696 1.88.696 3.048v.84l-10.056.024.048-1.512h7.752c0-.976-.296-1.76-.888-2.352s-1.384-.888-2.376-.888c-.752 0-1.4.168-1.944.504-.528.32-.936.8-1.224 1.44-.272.624-.408 1.376-.408 2.256 0 1.408.32 2.496.96 3.264.64.752 1.56 1.128 2.76 1.128.88 0 1.6-.176 2.16-.528a2.58 2.58 0 0 0 1.128-1.536h2.112c-.288 1.248-.904 2.216-1.848 2.904s-2.144 1.032-3.6 1.032zM60.32 131h-2.304v-17.352h2.304l5.976 14.592 5.976-14.592h2.352V131H72.32v-6.864-2.088l.024-1.488.048-1.104.072-.96L67.4 131h-2.208l-5.04-12.456c.064.416.104 1.056.12 1.92l.048 3.12V131zm23.024.288c-1.136 0-2.144-.256-3.024-.768a5.58 5.58 0 0 1-2.064-2.16c-.496-.928-.744-2-.744-3.216 0-1.232.24-2.312.72-3.24.496-.928 1.168-1.656 2.016-2.184.864-.528 1.864-.792 3-.792 1.12 0 2.088.24 2.904.72a4.86 4.86 0 0 1 1.92 2.016c.464.864.696 1.88.696 3.048v.84l-10.056.024.048-1.512h7.752c0-.976-.296-1.76-.888-2.352s-1.384-.888-2.376-.888c-.752 0-1.4.168-1.944.504-.528.32-.936.8-1.224 1.44-.272.624-.408 1.376-.408 2.256 0 1.408.32 2.496.96 3.264.64.752 1.56 1.128 2.76 1.128.88 0 1.6-.176 2.16-.528a2.58 2.58 0 0 0 1.128-1.536h2.112c-.288 1.248-.904 2.216-1.848 2.904s-2.144 1.032-3.6 1.032zm11.259 0c-1.248 0-2.232-.328-2.952-.984-.704-.656-1.056-1.512-1.056-2.568 0-1.072.384-1.928 1.152-2.568.768-.656 1.84-1.04 3.216-1.152l3.696-.288v-.336c0-.656-.12-1.176-.36-1.56-.24-.4-.568-.68-.984-.84-.416-.176-.888-.264-1.416-.264-.944 0-1.68.2-2.208.6-.512.384-.768.936-.768 1.656h-1.968c0-.816.208-1.528.624-2.136s1-1.08 1.752-1.416c.768-.336 1.656-.504 2.664-.504.976 0 1.824.176 2.544.528a3.66 3.66 0 0 1 1.704 1.56c.416.688.624 1.56.624 2.616V131h-1.92l-.24-1.896c-.304.672-.832 1.208-1.584 1.608-.736.384-1.576.576-2.52.576zm.648-1.752c1.072 0 1.912-.32 2.52-.96.608-.656.912-1.536.912-2.64v-.624l-3 .24c-.992.096-1.712.328-2.16.696-.432.368-.648.84-.648 1.416 0 .624.208 1.096.624 1.416.432.304 1.016.456 1.752.456zm7.78-1.944h2.16c0 .592.216 1.064.648 1.416.432.336 1.016.504 1.752.504.8 0 1.416-.152 1.848-.456.432-.32.648-.744.648-1.272 0-.384-.12-.704-.36-.96-.224-.256-.64-.464-1.248-.624l-2.064-.48c-1.04-.256-1.816-.648-2.328-1.176-.496-.528-.744-1.224-.744-2.088 0-.72.184-1.344.552-1.872.384-.528.904-.936 1.56-1.224.672-.288 1.44-.432 2.304-.432s1.608.152 2.232.456c.64.304 1.136.728 1.488 1.272.368.544.56 1.192.576 1.944h-2.16c-.016-.608-.216-1.08-.6-1.416s-.92-.504-1.608-.504c-.704 0-1.248.152-1.632.456s-.576.72-.576 1.248c0 .784.576 1.32 1.728 1.608l2.064.504c.992.224 1.736.592 2.232 1.104.496.496.744 1.176.744 2.04 0 .736-.2 1.384-.6 1.944-.4.544-.952.968-1.656 1.272-.688.288-1.504.432-2.448.432-1.376 0-2.472-.336-3.288-1.008s-1.224-1.568-1.224-2.688zm19.83-8.328h2.232V131h-2.016l-.24-1.776c-.336.608-.864 1.104-1.584 1.488s-1.512.576-2.376.576c-1.36 0-2.416-.424-3.168-1.272-.736-.864-1.104-2.016-1.104-3.456v-7.296h2.256v6.552c0 1.248.248 2.144.744 2.688.512.528 1.2.792 2.064.792 1.04 0 1.832-.32 2.376-.96.544-.656.816-1.616.816-2.88v-6.192zm12.225-.096v2.064h-1.008c-1.072 0-1.92.312-2.544.936-.608.608-.912 1.48-.912 2.616V131h-2.256v-11.712h2.112l.192 2.352h-.216c.16-.768.544-1.392 1.152-1.872.608-.496 1.368-.744 2.28-.744.208 0 .4.016.576.048a4.96 4.96 0 0 1 .624.096zm6.758 12.12c-1.136 0-2.144-.256-3.024-.768a5.58 5.58 0 0 1-2.064-2.16c-.496-.928-.744-2-.744-3.216 0-1.232.24-2.312.72-3.24.496-.928 1.168-1.656 2.016-2.184.864-.528 1.864-.792 3-.792 1.12 0 2.088.24 2.904.72a4.86 4.86 0 0 1 1.92 2.016c.464.864.696 1.88.696 3.048v.84l-10.056.024.048-1.512h7.752c0-.976-.296-1.76-.888-2.352s-1.384-.888-2.376-.888c-.752 0-1.4.168-1.944.504-.528.32-.936.8-1.224 1.44-.272.624-.408 1.376-.408 2.256 0 1.408.32 2.496.96 3.264.64.752 1.56 1.128 2.76 1.128.88 0 1.6-.176 2.16-.528a2.58 2.58 0 0 0 1.128-1.536h2.112c-.288 1.248-.904 2.216-1.848 2.904s-2.144 1.032-3.6 1.032z" fill="#000"/><path d="M61.28 158.152V169h-1.568v-10.848h1.568zm-5.056.72v-1.44h8.528v1.44h-8.528zm11.352 10.112h-1.504v-11.76h1.504v5.152c.245-.427.597-.768 1.056-1.024.459-.267.992-.4 1.6-.4.992 0 1.733.293 2.224.88s.736 1.381.736 2.384V169h-1.504v-4.448c0-.533-.08-.96-.24-1.28-.149-.331-.368-.571-.656-.72-.277-.149-.603-.224-.976-.224-.48 0-.891.107-1.232.32-.331.213-.581.501-.752.864s-.256.768-.256 1.216v4.256zm11.075.208c-.757 0-1.429-.171-2.016-.512a3.72 3.72 0 0 1-1.376-1.44c-.331-.619-.496-1.333-.496-2.144 0-.821.16-1.541.48-2.16.331-.619.779-1.104 1.344-1.456.576-.352 1.243-.528 2-.528.747 0 1.392.16 1.936.48a3.24 3.24 0 0 1 1.28 1.344c.309.576.464 1.253.464 2.032v.56l-6.704.016.032-1.008h5.168c0-.651-.197-1.173-.592-1.568s-.923-.592-1.584-.592c-.501 0-.933.112-1.296.336-.352.213-.624.533-.816.96-.181.416-.272.917-.272 1.504 0 .939.213 1.664.64 2.176.427.501 1.04.752 1.84.752.587 0 1.067-.117 1.44-.352s.624-.576.752-1.024h1.408c-.192.832-.603 1.477-1.232 1.936s-1.429.688-2.4.688zM89.058 169h-1.632l4.224-11.568h1.744L97.634 169h-1.648l-1.04-2.88h-4.864L89.058 169zm3.264-9.072l-1.76 4.832h3.92l-1.776-4.832-.112-.352c-.043-.128-.069-.235-.08-.32l-.08.32-.112.352zm9.418 9.264c-.758 0-1.408-.171-1.952-.512-.544-.352-.965-.837-1.264-1.456-.288-.619-.432-1.323-.432-2.112 0-.8.149-1.509.448-2.128.299-.629.725-1.125 1.28-1.488s1.216-.544 1.984-.544c.608 0 1.146.128 1.616.384a2.6 2.6 0 0 1 1.12 1.104v-5.216h1.488V169h-1.344l-.128-1.424c-.256.523-.635.923-1.136 1.2-.491.277-1.051.416-1.68.416zm.304-1.36c.512 0 .949-.117 1.312-.352.373-.235.661-.56.864-.976s.304-.896.304-1.44-.102-1.019-.304-1.424c-.203-.416-.491-.741-.864-.976-.363-.235-.8-.352-1.312-.352s-.95.123-1.312.368c-.363.235-.64.56-.832.976-.192.405-.288.875-.288 1.408 0 .544.096 1.024.288 1.44s.469.741.832.976.8.352 1.312.352zm9.289 1.36c-.757 0-1.408-.171-1.952-.512-.544-.352-.965-.837-1.264-1.456-.288-.619-.432-1.323-.432-2.112 0-.8.15-1.509.448-2.128a3.57 3.57 0 0 1 1.28-1.488c.555-.363 1.216-.544 1.984-.544.608 0 1.147.128 1.616.384.48.245.854.613 1.12 1.104v-5.216h1.488V169h-1.344l-.128-1.424a2.68 2.68 0 0 1-1.136 1.2c-.49.277-1.05.416-1.68.416zm.304-1.36c.512 0 .95-.117 1.312-.352.374-.235.662-.56.864-.976s.304-.896.304-1.44-.101-1.019-.304-1.424c-.202-.416-.49-.741-.864-.976-.362-.235-.8-.352-1.312-.352s-.949.123-1.312.368c-.362.235-.64.56-.832.976-.192.405-.288.875-.288 1.408 0 .544.096 1.024.288 1.44s.47.741.832.976.8.352 1.312.352zm6.154 1.168v-7.824h1.504V169h-1.504zm.736-9.68c-.267 0-.501-.096-.704-.288-.192-.203-.288-.437-.288-.704 0-.277.096-.512.288-.704.203-.192.437-.288.704-.288.277 0 .512.096.704.288s.288.427.288.704c0 .267-.096.501-.288.704-.192.192-.427.288-.704.288zm2.12 1.856h4.576v1.264h-4.576v-1.264zm3.04 7.824h-1.504v-10.272h1.504V169zm2.885 0v-7.824h1.504V169h-1.504zm.736-9.68c-.266 0-.501-.096-.704-.288-.192-.203-.288-.437-.288-.704 0-.277.096-.512.288-.704.203-.192.438-.288.704-.288.278 0 .512.096.704.288s.288.427.288.704c0 .267-.096.501-.288.704-.192.192-.426.288-.704.288zm2.44 5.76c0-.8.176-1.509.528-2.128a3.85 3.85 0 0 1 1.44-1.456c.619-.352 1.323-.528 2.112-.528s1.488.176 2.096.528a3.85 3.85 0 0 1 1.44 1.456c.352.619.528 1.328.528 2.128s-.176 1.509-.528 2.128a3.85 3.85 0 0 1-1.44 1.456c-.608.352-1.307.528-2.096.528s-1.493-.176-2.112-.528a3.85 3.85 0 0 1-1.44-1.456c-.352-.619-.528-1.328-.528-2.128zm1.52 0c0 .544.107 1.024.32 1.44.224.416.528.741.912.976s.827.352 1.328.352.944-.117 1.328-.352a2.4 2.4 0 0 0 .896-.976c.224-.416.336-.896.336-1.44 0-.555-.112-1.035-.336-1.44a2.4 2.4 0 0 0-.896-.976c-.384-.235-.827-.352-1.328-.352s-.944.117-1.328.352-.688.56-.912.976c-.213.405-.32.885-.32 1.44zm9.793 3.92h-1.504v-7.824h1.36l.16 1.2a2.54 2.54 0 0 1 1.056-1.04c.469-.256.981-.384 1.536-.384 1.024 0 1.781.293 2.272.88s.736 1.381.736 2.384V169h-1.504v-4.448c0-.789-.171-1.355-.512-1.696-.342-.352-.8-.528-1.376-.528-.704 0-1.254.229-1.648.688-.384.459-.576 1.072-.576 1.84V169zm9.987.192c-.832 0-1.488-.219-1.968-.656-.469-.437-.704-1.008-.704-1.712 0-.715.256-1.285.768-1.712.512-.437 1.227-.693 2.144-.768l2.464-.192v-.224c0-.437-.08-.784-.24-1.04a1.29 1.29 0 0 0-.656-.56c-.277-.117-.592-.176-.944-.176-.629 0-1.12.133-1.472.4-.341.256-.512.624-.512 1.104h-1.312c0-.544.139-1.019.416-1.424a2.72 2.72 0 0 1 1.168-.944c.512-.224 1.104-.336 1.776-.336.651 0 1.216.117 1.696.352.491.224.869.571 1.136 1.04.277.459.416 1.04.416 1.744V169h-1.28l-.16-1.264c-.203.448-.555.805-1.056 1.072-.491.256-1.051.384-1.68.384zm.432-1.168c.715 0 1.275-.213 1.68-.64.405-.437.608-1.024.608-1.76v-.416l-2 .16c-.661.064-1.141.219-1.44.464-.288.245-.432.56-.432.944 0 .416.139.731.416.944.288.203.677.304 1.168.304zm7.363.976h-1.504v-11.776h1.504V169zm6.173-8.448c0-.661.165-1.243.496-1.744s.794-.891 1.392-1.168c.608-.277 1.306-.416 2.096-.416.736 0 1.376.133 1.92.4a3 3 0 0 1 1.296 1.104c.32.48.501 1.056.544 1.728h-1.584c-.043-.576-.256-1.024-.64-1.344s-.902-.48-1.552-.48c-.726 0-1.307.171-1.744.512-.438.331-.656.784-.656 1.36 0 .469.133.848.4 1.136.266.277.672.48 1.216.608l1.904.448c.949.213 1.658.581 2.128 1.104.48.512.72 1.173.72 1.984 0 .693-.171 1.296-.512 1.808-.331.512-.806.907-1.424 1.184-.608.277-1.323.416-2.144.416-.779 0-1.467-.128-2.064-.384-.587-.267-1.051-.64-1.392-1.12-.331-.491-.518-1.061-.56-1.712h1.6c.01.555.234.997.672 1.328.437.32 1.018.48 1.744.48.768 0 1.376-.171 1.824-.512.458-.341.688-.795.688-1.36 0-.459-.128-.832-.384-1.12s-.662-.496-1.216-.624l-1.904-.432c-.939-.213-1.654-.587-2.144-1.12-.48-.544-.72-1.232-.72-2.064zm15.058.624h1.488V169h-1.344l-.16-1.184c-.224.405-.576.736-1.056.992s-1.008.384-1.584.384c-.907 0-1.611-.283-2.112-.848-.491-.576-.736-1.344-.736-2.304v-4.864h1.504v4.368c0 .832.165 1.429.496 1.792.341.352.8.528 1.376.528.693 0 1.221-.213 1.584-.64.363-.437.544-1.077.544-1.92v-4.128zm8.15-.064v1.376h-.672c-.714 0-1.28.208-1.696.624-.405.405-.608.987-.608 1.744V169h-1.504v-7.808h1.408l.128 1.568h-.144c.107-.512.363-.928.768-1.248.406-.331.912-.496 1.52-.496.139 0 .267.011.384.032a3.36 3.36 0 0 1 .416.064zm3.837 7.888l-3.152-7.824h1.6l1.712 4.368.368 1.04.256.832.272-.88.384-.992 1.744-4.368h1.568L193.549 169h-1.488zm8.965.192c-.757 0-1.429-.171-2.016-.512a3.73 3.73 0 0 1-1.376-1.44c-.33-.619-.496-1.333-.496-2.144 0-.821.16-1.541.48-2.16.331-.619.779-1.104 1.344-1.456.576-.352 1.243-.528 2-.528.747 0 1.392.16 1.936.48.555.32.982.768 1.28 1.344.31.576.464 1.253.464 2.032v.56l-6.704.016.032-1.008h5.168c0-.651-.197-1.173-.592-1.568s-.922-.592-1.584-.592c-.501 0-.933.112-1.296.336-.352.213-.624.533-.816.96-.181.416-.272.917-.272 1.504 0 .939.214 1.664.64 2.176.427.501 1.04.752 1.84.752.587 0 1.067-.117 1.44-.352s.624-.576.752-1.024h1.408c-.192.832-.602 1.477-1.232 1.936s-1.429.688-2.4.688zm5.296-.192v-7.824h1.504V169h-1.504zm.736-9.68c-.266 0-.501-.096-.704-.288-.192-.203-.288-.437-.288-.704 0-.277.096-.512.288-.704.203-.192.438-.288.704-.288.278 0 .512.096.704.288s.288.427.288.704c0 .267-.096.501-.288.704-.192.192-.426.288-.704.288zm4.488 9.68h-1.504v-11.776h1.504V169zm3.75 0h-1.504v-11.776h1.504V169zm4.502.192c-.832 0-1.488-.219-1.968-.656-.469-.437-.704-1.008-.704-1.712 0-.715.256-1.285.768-1.712.512-.437 1.227-.693 2.144-.768l2.464-.192v-.224c0-.437-.08-.784-.24-1.04a1.29 1.29 0 0 0-.656-.56c-.277-.117-.592-.176-.944-.176-.629 0-1.12.133-1.472.4-.341.256-.512.624-.512 1.104h-1.312c0-.544.139-1.019.416-1.424a2.72 2.72 0 0 1 1.168-.944c.512-.224 1.104-.336 1.776-.336.651 0 1.216.117 1.696.352.491.224.869.571 1.136 1.04.277.459.416 1.04.416 1.744V169h-1.28l-.16-1.264c-.203.448-.555.805-1.056 1.072-.491.256-1.051.384-1.68.384zm.432-1.168c.715 0 1.275-.213 1.68-.64.405-.437.608-1.024.608-1.76v-.416l-2 .16c-.661.064-1.141.219-1.44.464-.288.245-.432.56-.432.944 0 .416.139.731.416.944.288.203.677.304 1.168.304zm7.331.976h-1.504v-7.824h1.36l.16 1.2a2.54 2.54 0 0 1 1.056-1.04c.469-.256.981-.384 1.536-.384 1.024 0 1.781.293 2.272.88s.736 1.381.736 2.384V169h-1.504v-4.448c0-.789-.171-1.355-.512-1.696-.342-.352-.8-.528-1.376-.528-.704 0-1.254.229-1.648.688-.384.459-.576 1.072-.576 1.84V169zm7.187-3.904c0-.821.16-1.541.48-2.16a3.73 3.73 0 0 1 1.36-1.456c.576-.352 1.243-.528 2-.528.981 0 1.797.261 2.448.784s1.04 1.216 1.168 2.08H240.7c-.128-.501-.379-.88-.752-1.136s-.811-.384-1.312-.384c-.469 0-.885.117-1.248.352-.363.224-.645.544-.848.96s-.304.907-.304 1.472.096 1.056.288 1.472c.192.405.464.725.816.96.352.224.763.336 1.232.336.533 0 .992-.133 1.376-.4s.64-.629.768-1.088h1.504a3.2 3.2 0 0 1-.656 1.488c-.331.416-.757.747-1.28.992-.512.235-1.083.352-1.712.352-.768 0-1.44-.171-2.016-.512-.565-.341-1.008-.816-1.328-1.424-.32-.619-.48-1.339-.48-2.16zm12.435 4.096c-.758 0-1.43-.171-2.016-.512-.587-.352-1.046-.832-1.376-1.44-.331-.619-.496-1.333-.496-2.144 0-.821.16-1.541.48-2.16.33-.619.778-1.104 1.344-1.456.576-.352 1.242-.528 2-.528.746 0 1.392.16 1.936.48.554.32.981.768 1.28 1.344.309.576.464 1.253.464 2.032v.56l-6.704.016.032-1.008h5.168c0-.651-.198-1.173-.592-1.568s-.923-.592-1.584-.592c-.502 0-.934.112-1.296.336-.352.213-.624.533-.816.96-.182.416-.272.917-.272 1.504 0 .939.213 1.664.64 2.176.426.501 1.04.752 1.84.752.586 0 1.066-.117 1.44-.352s.624-.576.752-1.024h1.408c-.192.832-.603 1.477-1.232 1.936s-1.43.688-2.4.688zm11.463-.192h-1.536v-11.568h1.536l3.984 9.728 3.984-9.728h1.568V169h-1.536v-4.576-1.392l.016-.992.032-.736.048-.64-3.376 8.336h-1.472l-3.36-8.304c.042.277.069.704.08 1.28l.032 2.08V169zm15.349.192c-.757 0-1.429-.171-2.016-.512a3.73 3.73 0 0 1-1.376-1.44c-.33-.619-.496-1.333-.496-2.144 0-.821.16-1.541.48-2.16.331-.619.779-1.104 1.344-1.456.576-.352 1.243-.528 2-.528.747 0 1.392.16 1.936.48.555.32.982.768 1.28 1.344.31.576.464 1.253.464 2.032v.56l-6.704.016.032-1.008h5.168c0-.651-.197-1.173-.592-1.568s-.922-.592-1.584-.592c-.501 0-.933.112-1.296.336-.352.213-.624.533-.816.96-.181.416-.272.917-.272 1.504 0 .939.214 1.664.64 2.176.427.501 1.04.752 1.84.752.587 0 1.067-.117 1.44-.352s.624-.576.752-1.024h1.408c-.192.832-.602 1.477-1.232 1.936s-1.429.688-2.4.688zm7.506 0c-.832 0-1.488-.219-1.968-.656-.469-.437-.704-1.008-.704-1.712 0-.715.256-1.285.768-1.712.512-.437 1.227-.693 2.144-.768l2.464-.192v-.224c0-.437-.08-.784-.24-1.04a1.29 1.29 0 0 0-.656-.56c-.277-.117-.592-.176-.944-.176-.629 0-1.12.133-1.472.4-.341.256-.512.624-.512 1.104h-1.312c0-.544.139-1.019.416-1.424a2.72 2.72 0 0 1 1.168-.944c.512-.224 1.104-.336 1.776-.336.651 0 1.216.117 1.696.352.491.224.869.571 1.136 1.04.277.459.416 1.04.416 1.744V169h-1.28l-.16-1.264c-.203.448-.555.805-1.056 1.072-.491.256-1.051.384-1.68.384zm.432-1.168c.715 0 1.275-.213 1.68-.64.405-.437.608-1.024.608-1.76v-.416l-2 .16c-.661.064-1.141.219-1.44.464-.288.245-.432.56-.432.944 0 .416.139.731.416.944.288.203.677.304 1.168.304zm5.187-1.296h1.44c0 .395.144.709.432.944.288.224.677.336 1.168.336.533 0 .944-.101 1.232-.304.288-.213.432-.496.432-.848a.9.9 0 0 0-.24-.64c-.149-.171-.427-.309-.832-.416l-1.376-.32c-.693-.171-1.211-.432-1.552-.784-.331-.352-.496-.816-.496-1.392 0-.48.123-.896.368-1.248.256-.352.603-.624 1.04-.816.448-.192.96-.288 1.536-.288s1.072.101 1.488.304c.427.203.757.485.992.848.245.363.373.795.384 1.296h-1.44c-.011-.405-.144-.72-.4-.944s-.613-.336-1.072-.336c-.469 0-.832.101-1.088.304s-.384.48-.384.832c0 .523.384.88 1.152 1.072l1.376.336c.661.149 1.157.395 1.488.736.331.331.496.784.496 1.36 0 .491-.133.923-.4 1.296-.267.363-.635.645-1.104.848-.459.192-1.003.288-1.632.288-.917 0-1.648-.224-2.192-.672s-.816-1.045-.816-1.792zm13.22-5.552h1.488V169h-1.344l-.16-1.184c-.224.405-.576.736-1.056.992s-1.008.384-1.584.384c-.907 0-1.611-.283-2.112-.848-.491-.576-.736-1.344-.736-2.304v-4.864h1.504v4.368c0 .832.165 1.429.496 1.792.341.352.8.528 1.376.528.693 0 1.221-.213 1.584-.64.362-.437.544-1.077.544-1.92v-4.128zm8.15-.064v1.376h-.672c-.715 0-1.28.208-1.696.624-.405.405-.608.987-.608 1.744V169h-1.504v-7.808h1.408l.128 1.568h-.144c.107-.512.363-.928.768-1.248.405-.331.912-.496 1.52-.496.139 0 .267.011.384.032a3.36 3.36 0 0 1 .416.064zm4.505 8.08c-.757 0-1.429-.171-2.016-.512a3.73 3.73 0 0 1-1.376-1.44c-.33-.619-.496-1.333-.496-2.144 0-.821.16-1.541.48-2.16.331-.619.779-1.104 1.344-1.456.576-.352 1.243-.528 2-.528.747 0 1.392.16 1.936.48.555.32.982.768 1.28 1.344.31.576.464 1.253.464 2.032v.56l-6.704.016.032-1.008h5.168c0-.651-.197-1.173-.592-1.568s-.922-.592-1.584-.592c-.501 0-.933.112-1.296.336-.352.213-.624.533-.816.96-.181.416-.272.917-.272 1.504 0 .939.214 1.664.64 2.176.427.501 1.04.752 1.84.752.587 0 1.067-.117 1.44-.352s.624-.576.752-1.024h1.408c-.192.832-.602 1.477-1.232 1.936s-1.429.688-2.4.688zM60.464 193.768h-1.248c-.491-.608-.917-1.312-1.28-2.112s-.651-1.659-.864-2.576a13.23 13.23 0 0 1-.304-2.832c0-.907.096-1.813.288-2.72s.469-1.771.832-2.592.805-1.552 1.328-2.192h1.248c-.416.576-.789 1.264-1.12 2.064-.331.789-.587 1.648-.768 2.576a14.74 14.74 0 0 0-.272 2.864 15.18 15.18 0 0 0 .256 2.784c.171.917.416 1.776.736 2.576.331.811.72 1.531 1.168 2.16zM62.293 191h-1.632l4.224-11.568h1.744L70.869 191h-1.648l-1.04-2.88h-4.864L62.293 191zm3.264-9.072l-1.76 4.832h3.92l-1.776-4.832-.112-.352a1.75 1.75 0 0 1-.08-.32l-.08.32-.112.352zm6.178.624c0-.661.165-1.243.496-1.744s.795-.891 1.392-1.168c.608-.277 1.307-.416 2.096-.416.736 0 1.376.133 1.92.4.555.256.987.624 1.296 1.104.32.48.501 1.056.544 1.728h-1.584c-.043-.576-.256-1.024-.64-1.344s-.901-.48-1.552-.48c-.725 0-1.307.171-1.744.512a1.61 1.61 0 0 0-.656 1.36c0 .469.133.848.4 1.136.267.277.672.48 1.216.608l1.904.448c.949.213 1.659.581 2.128 1.104.48.512.72 1.173.72 1.984 0 .693-.171 1.296-.512 1.808-.331.512-.805.907-1.424 1.184-.608.277-1.323.416-2.144.416-.779 0-1.467-.128-2.064-.384-.587-.267-1.051-.64-1.392-1.12-.331-.491-.517-1.061-.56-1.712h1.6a1.62 1.62 0 0 0 .672 1.328c.437.32 1.019.48 1.744.48.768 0 1.376-.171 1.824-.512a1.61 1.61 0 0 0 .688-1.36c0-.459-.128-.832-.384-1.12s-.661-.496-1.216-.624l-1.904-.432c-.939-.213-1.653-.587-2.144-1.12-.48-.544-.72-1.232-.72-2.064zM83.177 191h-1.536v-11.568h1.536l3.984 9.728 3.984-9.728h1.568V191h-1.536v-4.576-1.392l.016-.992.032-.736.048-.64L87.897 191h-1.472l-3.36-8.304c.043.277.069.704.08 1.28l.032 2.08V191zm12.15 2.768h-1.264c.459-.629.848-1.349 1.168-2.16.32-.8.565-1.659.736-2.576a15.18 15.18 0 0 0 .256-2.784 14.74 14.74 0 0 0-.272-2.864c-.181-.928-.437-1.787-.768-2.576-.32-.8-.693-1.488-1.12-2.064h1.264c.523.64.96 1.371 1.312 2.192.363.821.64 1.685.832 2.592s.288 1.813.288 2.72a13.23 13.23 0 0 1-.304 2.832c-.203.917-.485 1.776-.848 2.576s-.789 1.504-1.28 2.112zm7.836-10.592h4.512v1.264h-4.512v-1.264zm4.56-3.888v1.296h-.32-.352c-.49 0-.821.117-.992.352-.16.235-.24.565-.24.992V191h-1.504v-9.072c0-.64.107-1.157.32-1.552.224-.405.518-.699.88-.88a2.9 2.9 0 0 1 1.28-.272l.464.016.464.048zm5.83 3.824v1.376h-.672c-.714 0-1.28.208-1.696.624-.405.405-.608.987-.608 1.744V191h-1.504v-7.808h1.408l.128 1.568h-.144c.107-.512.363-.928.768-1.248.406-.331.912-.496 1.52-.496.139 0 .267.011.384.032a3.36 3.36 0 0 1 .416.064zm3.386 8.08c-.832 0-1.488-.219-1.968-.656-.469-.437-.704-1.008-.704-1.712 0-.715.256-1.285.768-1.712.512-.437 1.227-.693 2.144-.768l2.464-.192v-.224c0-.437-.08-.784-.24-1.04-.16-.267-.378-.453-.656-.56-.277-.117-.592-.176-.944-.176-.629 0-1.12.133-1.472.4-.341.256-.512.624-.512 1.104h-1.312c0-.544.139-1.019.416-1.424s.667-.72 1.168-.944c.512-.224 1.104-.336 1.776-.336.651 0 1.216.117 1.696.352a2.44 2.44 0 0 1 1.136 1.04c.278.459.416 1.04.416 1.744V191h-1.28l-.16-1.264c-.202.448-.554.805-1.056 1.072-.49.256-1.05.384-1.68.384zm.432-1.168c.715 0 1.275-.213 1.68-.64.406-.437.608-1.024.608-1.76v-.416l-2 .16c-.661.064-1.141.219-1.44.464-.288.245-.432.56-.432.944 0 .416.139.731.416.944.288.203.678.304 1.168.304zm7.331.976h-1.504v-7.824h1.344l.208 1.44-.192-.128c.16-.437.454-.8.88-1.088.438-.299.966-.448 1.584-.448.694 0 1.27.187 1.728.56s.758.869.896 1.488h-.272c.107-.619.4-1.115.88-1.488s1.072-.56 1.776-.56c.896 0 1.6.261 2.112.784s.768 1.237.768 2.144V191h-1.472v-4.752c0-.619-.16-1.093-.48-1.424-.309-.341-.73-.512-1.264-.512-.373 0-.704.085-.992.256-.277.16-.496.395-.656.704s-.24.672-.24 1.088V191h-1.488v-4.768c0-.619-.154-1.088-.464-1.408-.309-.331-.73-.496-1.264-.496-.373 0-.704.085-.992.256-.277.16-.496.395-.656.704-.16.299-.24.656-.24 1.072V191zm15.669.192c-.757 0-1.429-.171-2.016-.512a3.73 3.73 0 0 1-1.376-1.44c-.33-.619-.496-1.333-.496-2.144 0-.821.16-1.541.48-2.16.331-.619.779-1.104 1.344-1.456.576-.352 1.243-.528 2-.528.747 0 1.392.16 1.936.48.555.32.982.768 1.28 1.344.31.576.464 1.253.464 2.032v.56l-6.704.016.032-1.008h5.168c0-.651-.197-1.173-.592-1.568s-.922-.592-1.584-.592c-.501 0-.933.112-1.296.336-.352.213-.624.533-.816.96-.181.416-.272.917-.272 1.504 0 .939.214 1.664.64 2.176.427.501 1.04.752 1.84.752.587 0 1.067-.117 1.44-.352s.624-.576.752-1.024h1.408c-.192.832-.602 1.477-1.232 1.936s-1.429.688-2.4.688zm6.71-.192l-2.56-7.824h1.552l1.296 4.064.256.896.224.96.144-.672.192-.624.176-.56 1.312-4.064h1.536l1.296 4.064c.043.096.08.224.112.384l.144.48.144.512.112.48.128-.608.16-.592.208-.656 1.312-4.064h1.568L153.72 191h-1.424l-1.36-4.192-.32-1.04-.176-.784-.192.72-.32 1.12-1.36 4.176h-1.488zm9.73-3.92c0-.8.176-1.509.528-2.128a3.85 3.85 0 0 1 1.44-1.456c.619-.352 1.323-.528 2.112-.528s1.488.176 2.096.528a3.85 3.85 0 0 1 1.44 1.456c.352.619.528 1.328.528 2.128s-.176 1.509-.528 2.128a3.85 3.85 0 0 1-1.44 1.456c-.608.352-1.306.528-2.096.528s-1.493-.176-2.112-.528a3.85 3.85 0 0 1-1.44-1.456c-.352-.619-.528-1.328-.528-2.128zm1.52 0c0 .544.107 1.024.32 1.44.224.416.528.741.912.976s.827.352 1.328.352a2.49 2.49 0 0 0 1.328-.352 2.4 2.4 0 0 0 .896-.976c.224-.416.336-.896.336-1.44 0-.555-.112-1.035-.336-1.44a2.4 2.4 0 0 0-.896-.976 2.49 2.49 0 0 0-1.328-.352c-.501 0-.944.117-1.328.352s-.688.56-.912.976c-.213.405-.32.885-.32 1.44zm12.769-3.968v1.376h-.672c-.714 0-1.28.208-1.696.624-.405.405-.608.987-.608 1.744V191h-1.504v-7.808h1.408l.128 1.568h-.144c.107-.512.363-.928.768-1.248.406-.331.912-.496 1.52-.496.139 0 .267.011.384.032a3.36 3.36 0 0 1 .416.064zm2.947 7.888h-1.504v-11.776h1.504v7.632l3.472-3.68h1.888l-2.992 3.12L179.39 191h-1.728l-2.288-3.616-1.328 1.392V191zm12.644 0l-2.56-7.824h1.552l1.296 4.064.256.896.224.96.144-.672.192-.624.176-.56 1.312-4.064h1.536l1.296 4.064c.043.096.08.224.112.384l.144.48.144.512.112.48.128-.608.16-.592.208-.656 1.312-4.064h1.568L193.33 191h-1.424l-1.36-4.192-.32-1.04-.176-.784-.192.72-.32 1.12-1.36 4.176h-1.488zm12.53.192c-.832 0-1.488-.219-1.968-.656-.47-.437-.704-1.008-.704-1.712 0-.715.256-1.285.768-1.712.512-.437 1.226-.693 2.144-.768l2.464-.192v-.224c0-.437-.08-.784-.24-1.04a1.29 1.29 0 0 0-.656-.56 2.41 2.41 0 0 0-.944-.176c-.63 0-1.12.133-1.472.4-.342.256-.512.624-.512 1.104h-1.312c0-.544.138-1.019.416-1.424s.666-.72 1.168-.944c.512-.224 1.104-.336 1.776-.336.65 0 1.216.117 1.696.352a2.45 2.45 0 0 1 1.136 1.04c.277.459.416 1.04.416 1.744V191h-1.28l-.16-1.264c-.203.448-.555.805-1.056 1.072-.491.256-1.051.384-1.68.384zm.432-1.168c.714 0 1.274-.213 1.68-.64.405-.437.608-1.024.608-1.76v-.416l-2 .16c-.662.064-1.142.219-1.44.464-.288.245-.432.56-.432.944 0 .416.138.731.416.944.288.203.677.304 1.168.304zm5.187-1.296h1.44c0 .395.144.709.432.944.288.224.677.336 1.168.336.533 0 .944-.101 1.232-.304.288-.213.432-.496.432-.848a.9.9 0 0 0-.24-.64c-.15-.171-.427-.309-.832-.416l-1.376-.32c-.694-.171-1.211-.432-1.552-.784-.331-.352-.496-.816-.496-1.392 0-.48.122-.896.368-1.248.256-.352.602-.624 1.04-.816.448-.192.96-.288 1.536-.288s1.072.101 1.488.304c.426.203.757.485.992.848.245.363.373.795.384 1.296h-1.44c-.011-.405-.144-.72-.4-.944s-.614-.336-1.072-.336c-.47 0-.832.101-1.088.304s-.384.48-.384.832c0 .523.384.88 1.152 1.072l1.376.336c.661.149 1.157.395 1.488.736.33.331.496.784.496 1.36 0 .491-.134.923-.4 1.296-.267.363-.635.645-1.104.848-.459.192-1.003.288-1.632.288-.918 0-1.648-.224-2.192-.672s-.816-1.045-.816-1.792zM217.025 191v-7.824h1.504V191h-1.504zm.736-9.68c-.266 0-.501-.096-.704-.288-.192-.203-.288-.437-.288-.704 0-.277.096-.512.288-.704.203-.192.438-.288.704-.288.278 0 .512.096.704.288s.288.427.288.704c0 .267-.096.501-.288.704-.192.192-.426.288-.704.288zm4.456 9.68h-1.504v-7.824h1.36l.16 1.2a2.54 2.54 0 0 1 1.056-1.04c.469-.256.981-.384 1.536-.384 1.024 0 1.781.293 2.272.88s.736 1.381.736 2.384V191h-1.504v-4.448c0-.789-.171-1.355-.512-1.696-.341-.352-.8-.528-1.376-.528-.704 0-1.253.229-1.648.688-.384.459-.576 1.072-.576 1.84V191zm6.867-7.824h4.576v1.264h-4.576v-1.264zm3.04 7.824h-1.504v-10.272h1.504V191zm7.366-7.888v1.376h-.672c-.715 0-1.28.208-1.696.624-.405.405-.608.987-.608 1.744V191h-1.504v-7.808h1.408l.128 1.568h-.144c.107-.512.363-.928.768-1.248.405-.331.912-.496 1.52-.496.139 0 .267.011.384.032a3.36 3.36 0 0 1 .416.064zm.617 3.968c0-.8.176-1.509.528-2.128a3.85 3.85 0 0 1 1.44-1.456c.619-.352 1.323-.528 2.112-.528s1.488.176 2.096.528a3.85 3.85 0 0 1 1.44 1.456c.352.619.528 1.328.528 2.128s-.176 1.509-.528 2.128a3.85 3.85 0 0 1-1.44 1.456c-.608.352-1.306.528-2.096.528s-1.493-.176-2.112-.528a3.85 3.85 0 0 1-1.44-1.456c-.352-.619-.528-1.328-.528-2.128zm1.52 0c0 .544.107 1.024.32 1.44.224.416.528.741.912.976s.827.352 1.328.352a2.49 2.49 0 0 0 1.328-.352 2.4 2.4 0 0 0 .896-.976c.224-.416.336-.896.336-1.44 0-.555-.112-1.035-.336-1.44a2.4 2.4 0 0 0-.896-.976 2.49 2.49 0 0 0-1.328-.352c-.501 0-.944.117-1.328.352s-.688.56-.912.976c-.213.405-.32.885-.32 1.44zm11.425 4.112c-.757 0-1.408-.171-1.952-.512-.544-.352-.965-.837-1.264-1.456-.288-.619-.432-1.323-.432-2.112 0-.8.149-1.509.448-2.128.299-.629.725-1.125 1.28-1.488s1.216-.544 1.984-.544c.608 0 1.147.128 1.616.384a2.6 2.6 0 0 1 1.12 1.104v-5.216h1.488V191h-1.344l-.128-1.424c-.256.523-.635.923-1.136 1.2-.491.277-1.051.416-1.68.416zm.304-1.36c.512 0 .949-.117 1.312-.352.373-.235.661-.56.864-.976s.304-.896.304-1.44-.101-1.019-.304-1.424c-.203-.416-.491-.741-.864-.976-.363-.235-.8-.352-1.312-.352s-.949.123-1.312.368a2.26 2.26 0 0 0-.832.976c-.192.405-.288.875-.288 1.408 0 .544.096 1.024.288 1.44a2.26 2.26 0 0 0 .832.976c.363.235.8.352 1.312.352zm11.562-6.656h1.488V191h-1.344l-.16-1.184c-.224.405-.576.736-1.056.992s-1.008.384-1.584.384c-.907 0-1.611-.283-2.112-.848-.491-.576-.736-1.344-.736-2.304v-4.864h1.504v4.368c0 .832.165 1.429.496 1.792.341.352.8.528 1.376.528.693 0 1.221-.213 1.584-.64.363-.437.544-1.077.544-1.92v-4.128zm3.002 3.92c0-.821.16-1.541.48-2.16.33-.619.784-1.104 1.36-1.456s1.242-.528 2-.528c.981 0 1.797.261 2.448.784s1.04 1.216 1.168 2.08h-1.504c-.128-.501-.379-.88-.752-1.136s-.811-.384-1.312-.384a2.24 2.24 0 0 0-1.248.352c-.363.224-.646.544-.848.96s-.304.907-.304 1.472.096 1.056.288 1.472c.192.405.464.725.816.96.352.224.762.336 1.232.336.533 0 .992-.133 1.376-.4s.64-.629.768-1.088h1.504a3.2 3.2 0 0 1-.656 1.488c-.331.416-.758.747-1.28.992-.512.235-1.083.352-1.712.352-.768 0-1.44-.171-2.016-.512-.566-.341-1.008-.816-1.328-1.424-.32-.619-.48-1.339-.48-2.16zm12.435 4.096c-.758 0-1.43-.171-2.016-.512-.587-.352-1.046-.832-1.376-1.44-.331-.619-.496-1.333-.496-2.144 0-.821.16-1.541.48-2.16.33-.619.778-1.104 1.344-1.456.576-.352 1.242-.528 2-.528.746 0 1.392.16 1.936.48.554.32.981.768 1.28 1.344.309.576.464 1.253.464 2.032v.56l-6.704.016.032-1.008h5.168c0-.651-.198-1.173-.592-1.568s-.923-.592-1.584-.592c-.502 0-.934.112-1.296.336-.352.213-.624.533-.816.96-.182.416-.272.917-.272 1.504 0 .939.213 1.664.64 2.176.426.501 1.04.752 1.84.752.586 0 1.066-.117 1.44-.352s.624-.576.752-1.024h1.408c-.192.832-.603 1.477-1.232 1.936s-1.43.688-2.4.688zm8.431 0c-.757 0-1.408-.171-1.952-.512-.544-.352-.965-.837-1.264-1.456-.288-.619-.432-1.323-.432-2.112 0-.8.15-1.509.448-2.128a3.57 3.57 0 0 1 1.28-1.488c.555-.363 1.216-.544 1.984-.544.608 0 1.147.128 1.616.384.48.245.854.613 1.12 1.104v-5.216h1.488V191h-1.344l-.128-1.424a2.68 2.68 0 0 1-1.136 1.2c-.49.277-1.05.416-1.68.416zm.304-1.36c.512 0 .95-.117 1.312-.352.374-.235.662-.56.864-.976s.304-.896.304-1.44-.101-1.019-.304-1.424c-.202-.416-.49-.741-.864-.976-.362-.235-.8-.352-1.312-.352s-.949.123-1.312.368c-.362.235-.64.56-.832.976-.192.405-.288.875-.288 1.408 0 .544.096 1.024.288 1.44s.47.741.832.976.8.352 1.312.352zm9.697-6.656h4.576v1.264h-4.576v-1.264zm3.04 7.824h-1.504v-10.272h1.504V191zm2.296-3.92c0-.8.176-1.509.528-2.128a3.85 3.85 0 0 1 1.44-1.456c.619-.352 1.323-.528 2.112-.528s1.488.176 2.096.528a3.85 3.85 0 0 1 1.44 1.456c.352.619.528 1.328.528 2.128s-.176 1.509-.528 2.128a3.85 3.85 0 0 1-1.44 1.456c-.608.352-1.307.528-2.096.528s-1.493-.176-2.112-.528a3.85 3.85 0 0 1-1.44-1.456c-.352-.619-.528-1.328-.528-2.128zm1.52 0c0 .544.107 1.024.32 1.44.224.416.528.741.912.976s.827.352 1.328.352.944-.117 1.328-.352a2.4 2.4 0 0 0 .896-.976c.224-.416.336-.896.336-1.44 0-.555-.112-1.035-.336-1.44a2.4 2.4 0 0 0-.896-.976c-.384-.235-.827-.352-1.328-.352s-.944.117-1.328.352-.688.56-.912.976c-.213.405-.32.885-.32 1.44zM57.088 216.504v-11.328h1.36l.112 1.408c.256-.544.635-.949 1.136-1.216.512-.277 1.077-.416 1.696-.416.747 0 1.392.176 1.936.528.544.341.96.821 1.248 1.44.299.608.448 1.312.448 2.112s-.144 1.515-.432 2.144c-.277.629-.688 1.125-1.232 1.488-.533.363-1.189.544-1.968.544-.629 0-1.189-.128-1.68-.384s-.864-.624-1.12-1.104v4.784h-1.504zm1.52-7.408c0 .523.096.997.288 1.424a2.37 2.37 0 0 0 .848.976c.373.235.816.352 1.328.352s.949-.117 1.312-.352c.363-.245.64-.576.832-.992.203-.416.304-.885.304-1.408 0-.544-.101-1.024-.304-1.44-.192-.416-.469-.741-.832-.976s-.8-.352-1.312-.352-.955.117-1.328.352a2.37 2.37 0 0 0-.848.976c-.192.416-.288.896-.288 1.44zm12.554-3.984v1.376h-.672c-.715 0-1.28.208-1.696.624-.405.405-.608.987-.608 1.744V213h-1.504v-7.808h1.408l.128 1.568h-.144c.107-.512.363-.928.768-1.248.405-.331.912-.496 1.52-.496a2.18 2.18 0 0 1 .384.032 3.37 3.37 0 0 1 .416.064zm.617 3.968c0-.8.176-1.509.528-2.128a3.85 3.85 0 0 1 1.44-1.456c.619-.352 1.323-.528 2.112-.528s1.488.176 2.096.528a3.85 3.85 0 0 1 1.44 1.456c.352.619.528 1.328.528 2.128s-.176 1.509-.528 2.128a3.85 3.85 0 0 1-1.44 1.456c-.608.352-1.307.528-2.096.528s-1.493-.176-2.112-.528a3.85 3.85 0 0 1-1.44-1.456c-.352-.619-.528-1.328-.528-2.128zm1.52 0c0 .544.107 1.024.32 1.44.224.416.528.741.912.976s.827.352 1.328.352.944-.117 1.328-.352.683-.56.896-.976c.224-.416.336-.896.336-1.44 0-.555-.112-1.035-.336-1.44-.213-.416-.512-.741-.896-.976s-.827-.352-1.328-.352-.944.117-1.328.352-.688.56-.912.976c-.213.405-.32.885-.32 1.44zm7.379-3.904h4.576v1.264h-4.576v-1.264zm3.04 7.824h-1.504v-10.272h1.504V213zm6.184.192c-.757 0-1.429-.171-2.016-.512a3.72 3.72 0 0 1-1.376-1.44c-.331-.619-.496-1.333-.496-2.144 0-.821.16-1.541.48-2.16.331-.619.779-1.104 1.344-1.456.576-.352 1.243-.528 2-.528.747 0 1.392.16 1.936.48a3.24 3.24 0 0 1 1.28 1.344c.309.576.464 1.253.464 2.032v.56l-6.704.016.032-1.008h5.168c0-.651-.197-1.173-.592-1.568s-.923-.592-1.584-.592c-.501 0-.933.112-1.296.336-.352.213-.624.533-.816.96-.181.416-.272.917-.272 1.504 0 .939.213 1.664.64 2.176.427.501 1.04.752 1.84.752.587 0 1.067-.117 1.44-.352s.624-.576.752-1.024h1.408c-.192.832-.603 1.477-1.232 1.936s-1.429.688-2.4.688zm4.784-4.096c0-.821.16-1.541.48-2.16.331-.619.784-1.104 1.36-1.456s1.243-.528 2-.528c.981 0 1.798.261 2.448.784s1.04 1.216 1.168 2.08h-1.504c-.128-.501-.378-.88-.752-1.136s-.811-.384-1.312-.384c-.469 0-.885.117-1.248.352-.363.224-.645.544-.848.96s-.304.907-.304 1.472.096 1.056.288 1.472c.192.405.464.725.816.96.352.224.763.336 1.232.336.533 0 .992-.133 1.376-.4a1.91 1.91 0 0 0 .768-1.088h1.504c-.096.565-.314 1.061-.656 1.488-.33.416-.757.747-1.28.992-.512.235-1.082.352-1.712.352-.768 0-1.44-.171-2.016-.512-.565-.341-1.008-.816-1.328-1.424-.32-.619-.48-1.339-.48-2.16zm8.227-3.92h4.576v1.264h-4.576v-1.264zm3.04 7.824h-1.504v-10.272h1.504V213zm7.261 0v-7.824h1.504V213h-1.504zm.736-9.68c-.267 0-.501-.096-.704-.288-.192-.203-.288-.437-.288-.704 0-.277.096-.512.288-.704.203-.192.437-.288.704-.288.277 0 .512.096.704.288s.288.427.288.704c0 .267-.096.501-.288.704-.192.192-.427.288-.704.288zm4.455 9.68H116.9v-7.824h1.36l.16 1.2a2.55 2.55 0 0 1 1.056-1.04 3.16 3.16 0 0 1 1.536-.384c1.024 0 1.782.293 2.272.88s.736 1.381.736 2.384V213h-1.504v-4.448c0-.789-.17-1.355-.512-1.696-.341-.352-.8-.528-1.376-.528-.704 0-1.253.229-1.648.688-.384.459-.576 1.072-.576 1.84V213zm9.735 0l-3.152-7.824h1.6l1.712 4.368.368 1.04.256.832.272-.88.384-.992 1.744-4.368h1.568L129.627 213h-1.488zm8.966.192c-.758 0-1.43-.171-2.016-.512-.587-.352-1.046-.832-1.376-1.44-.331-.619-.496-1.333-.496-2.144 0-.821.16-1.541.48-2.16.33-.619.778-1.104 1.344-1.456.576-.352 1.242-.528 2-.528.746 0 1.392.16 1.936.48.554.32.981.768 1.28 1.344.309.576.464 1.253.464 2.032v.56l-6.704.016.032-1.008h5.168c0-.651-.198-1.173-.592-1.568s-.923-.592-1.584-.592c-.502 0-.934.112-1.296.336-.352.213-.624.533-.816.96-.182.416-.272.917-.272 1.504 0 .939.213 1.664.64 2.176.426.501 1.04.752 1.84.752.586 0 1.066-.117 1.44-.352s.624-.576.752-1.024h1.408c-.192.832-.603 1.477-1.232 1.936s-1.43.688-2.4.688zm4.655-2.464h1.44c0 .395.144.709.432.944.288.224.678.336 1.168.336.534 0 .944-.101 1.232-.304.288-.213.432-.496.432-.848a.9.9 0 0 0-.24-.64c-.149-.171-.426-.309-.832-.416l-1.376-.32c-.693-.171-1.21-.432-1.552-.784-.33-.352-.496-.816-.496-1.392 0-.48.123-.896.368-1.248.256-.352.603-.624 1.04-.816.448-.192.96-.288 1.536-.288s1.072.101 1.488.304c.427.203.758.485.992.848.246.363.374.795.384 1.296h-1.44c-.01-.405-.144-.72-.4-.944s-.613-.336-1.072-.336c-.469 0-.832.101-1.088.304s-.384.48-.384.832c0 .523.384.88 1.152 1.072l1.376.336c.662.149 1.158.395 1.488.736.331.331.496.784.496 1.36 0 .491-.133.923-.4 1.296-.266.363-.634.645-1.104.848-.458.192-1.002.288-1.632.288-.917 0-1.648-.224-2.192-.672s-.816-1.045-.816-1.792zm6.98-5.552h4.576v1.264h-4.576v-1.264zm3.04 7.824h-1.504v-10.272h1.504V213zm2.296-3.92c0-.8.176-1.509.528-2.128a3.85 3.85 0 0 1 1.44-1.456c.619-.352 1.323-.528 2.112-.528s1.488.176 2.096.528a3.85 3.85 0 0 1 1.44 1.456c.352.619.528 1.328.528 2.128s-.176 1.509-.528 2.128a3.85 3.85 0 0 1-1.44 1.456c-.608.352-1.307.528-2.096.528s-1.493-.176-2.112-.528a3.85 3.85 0 0 1-1.44-1.456c-.352-.619-.528-1.328-.528-2.128zm1.52 0c0 .544.107 1.024.32 1.44.224.416.528.741.912.976s.827.352 1.328.352.944-.117 1.328-.352a2.4 2.4 0 0 0 .896-.976c.224-.416.336-.896.336-1.44 0-.555-.112-1.035-.336-1.44a2.4 2.4 0 0 0-.896-.976c-.384-.235-.827-.352-1.328-.352s-.944.117-1.328.352-.688.56-.912.976c-.213.405-.32.885-.32 1.44zm12.769-3.968v1.376h-.672c-.715 0-1.28.208-1.696.624-.405.405-.608.987-.608 1.744V213h-1.504v-7.808h1.408l.128 1.568h-.144c.107-.512.363-.928.768-1.248.405-.331.912-.496 1.52-.496.139 0 .267.011.384.032a3.36 3.36 0 0 1 .416.064zm.77 5.616h1.44c0 .395.144.709.432.944.288.224.678.336 1.168.336.534 0 .944-.101 1.232-.304.288-.213.432-.496.432-.848a.9.9 0 0 0-.24-.64c-.149-.171-.426-.309-.832-.416l-1.376-.32c-.693-.171-1.21-.432-1.552-.784-.33-.352-.496-.816-.496-1.392 0-.48.123-.896.368-1.248.256-.352.603-.624 1.04-.816.448-.192.96-.288 1.536-.288s1.072.101 1.488.304c.427.203.758.485.992.848.246.363.374.795.384 1.296h-1.44c-.01-.405-.144-.72-.4-.944s-.613-.336-1.072-.336c-.469 0-.832.101-1.088.304s-.384.48-.384.832c0 .523.384.88 1.152 1.072l1.376.336c.662.149 1.158.395 1.488.736.331.331.496.784.496 1.36 0 .491-.133.923-.4 1.296-.266.363-.634.645-1.104.848-.458.192-1.002.288-1.632.288-.917 0-1.648-.224-2.192-.672s-.816-1.045-.816-1.792zm8.839 2.464c-.31 0-.582-.107-.816-.32-.224-.224-.336-.491-.336-.8 0-.32.112-.587.336-.8.234-.224.506-.336.816-.336s.576.112.8.336c.224.213.336.48.336.8 0 .309-.112.576-.336.8a1.12 1.12 0 0 1-.8.32z" fill="#7c7e8c"/><rect x="56.5" y="250.5" width="147" height="31" rx="15.5" fill="#fff"/><path d="M71.873 268.143l2.168-6.674h1.629L72.6 270h-1.435l-3.059-8.531h1.623l2.145 6.674zM78.014 270H76.59v-6.34h1.424V270zm-1.512-7.986a.76.76 0 0 1 .205-.545c.141-.145.34-.217.598-.217s.457.072.598.217.211.326.211.545-.07.394-.211.539-.34.211-.598.211-.457-.071-.598-.211-.205-.324-.205-.539zm5.859 8.103c-.902 0-1.635-.283-2.197-.849s-.838-1.329-.838-2.274v-.176c0-.632.121-1.197.363-1.693a2.8 2.8 0 0 1 1.031-1.166 2.72 2.72 0 0 1 1.477-.416c.863 0 1.529.275 1.998.826s.709 1.33.709 2.338v.574h-4.143c.043.524.217.938.521 1.242s.695.457 1.16.457c.652 0 1.184-.263 1.594-.791l.768.733a2.58 2.58 0 0 1-1.019.885c-.422.207-.897.31-1.424.31zm-.17-5.431c-.391 0-.707.136-.949.41s-.391.654-.457 1.142h2.713v-.105c-.031-.477-.158-.836-.381-1.078s-.531-.369-.926-.369zm9.393 3.351l1.008-4.377h1.389L92.252 270H91.08l-1.359-4.354L88.385 270h-1.172l-1.734-6.34h1.389l1.025 4.33 1.301-4.33h1.072l1.318 4.377zm13.014.856c-.309.402-.737.707-1.284.914s-1.168.31-1.863.31c-.715 0-1.347-.162-1.898-.486s-.977-.787-1.277-1.389-.451-1.31-.463-2.115v-.668c0-1.289.309-2.295.926-3.018s1.479-1.089 2.584-1.089c.949 0 1.703.234 2.262.703s.895 1.144 1.008 2.027h-1.453c-.164-1.027-.76-1.541-1.787-1.541-.665 0-1.17.24-1.518.721s-.522 1.177-.533 2.103v.656c0 .922.193 1.639.58 2.151s.931.762 1.623.762c.758 0 1.297-.172 1.617-.516v-1.67h-1.758v-1.125h3.235v3.27zm4.81-3.932c-.187-.031-.381-.047-.58-.047-.652 0-1.092.25-1.318.75V270h-1.424v-6.34h1.359l.035.709c.344-.551.821-.826 1.43-.826.203 0 .371.027.504.082l-.006 1.336zm.422 1.81c0-.621.123-1.179.369-1.675s.592-.883 1.037-1.149.957-.404 1.535-.404c.856 0 1.549.275 2.081.826s.824 1.281.867 2.192l.006.334c0 .625-.121 1.183-.364 1.675s-.582.873-1.031 1.143-.961.404-1.547.404c-.894 0-1.611-.297-2.15-.89s-.803-1.393-.803-2.385v-.071zm1.424.124c0 .652.135 1.164.404 1.535s.645.55 1.125.55.854-.187 1.119-.562.405-.924.405-1.647c0-.64-.139-1.148-.416-1.523a1.31 1.31 0 0 0-1.12-.562c-.464 0-.834.185-1.107.556s-.41.918-.41 1.653zm11.244 1.142l1.008-4.377h1.389l-1.729 6.34h-1.172l-1.359-4.354-1.336 4.354h-1.172l-1.734-6.34h1.388l1.026 4.33 1.3-4.33h1.073l1.318 4.377zm8.918 0l1.008-4.377h1.388l-1.728 6.34h-1.172l-1.359-4.354-1.336 4.354h-1.172l-1.734-6.34h1.388l1.026 4.33 1.3-4.33h1.073l1.318 4.377zm6.475 1.963v-8.531h2.519c.754 0 1.422.168 2.004.504s1.039.812 1.359 1.429.481 1.325.481 2.121v.428c0 .809-.162 1.52-.486 2.133a3.38 3.38 0 0 1-1.377 1.418c-.594.332-1.276.498-2.045.498h-2.455zm1.482-7.336v6.152h.967c.777 0 1.373-.242 1.787-.726s.631-1.188.639-2.098v-.474c0-.926-.202-1.633-.604-2.122s-.986-.732-1.752-.732h-1.037zm7.734 7.336h-1.423v-6.34h1.423V270zm-1.511-7.986a.76.76 0 0 1 .205-.545c.14-.145.34-.217.597-.217s.457.072.598.217.211.326.211.545a.74.74 0 0 1-.211.539c-.141.14-.34.211-.598.211s-.457-.071-.597-.211-.205-.324-.205-.539zm2.818 4.769c0-.984.231-1.769.691-2.355.465-.59 1.081-.885 1.846-.885.723 0 1.291.252 1.705.756l.065-.639h1.283v6.147c0 .832-.26 1.488-.779 1.968s-1.213.721-2.092.721a3.37 3.37 0 0 1-1.365-.293c-.442-.191-.778-.443-1.008-.756l.674-.855c.437.519.976.779 1.617.779.472 0 .845-.129 1.119-.387s.41-.629.41-1.125v-.427c-.41.457-.957.685-1.641.685a2.23 2.23 0 0 1-1.822-.885c-.469-.589-.703-1.406-.703-2.449zm1.418.123c0 .637.129 1.139.387 1.506a1.26 1.26 0 0 0 1.084.545c.574 0 1-.246 1.277-.738v-2.789c-.269-.481-.691-.721-1.266-.721-.468 0-.834.186-1.095.557s-.387.918-.387 1.64zm8.432 3.211c-.903 0-1.635-.283-2.198-.849s-.837-1.329-.837-2.274v-.176c0-.632.121-1.197.363-1.693s.59-.889 1.031-1.166a2.72 2.72 0 0 1 1.477-.416c.863 0 1.529.275 1.998.826s.709 1.33.709 2.338v.574h-4.143c.043.524.217.938.522 1.242a1.58 1.58 0 0 0 1.16.457c.652 0 1.183-.263 1.593-.791l.768.733a2.58 2.58 0 0 1-1.02.885c-.421.207-.896.31-1.423.31zm-.17-5.431c-.391 0-.707.136-.949.41s-.391.654-.458 1.142h2.713v-.105c-.031-.477-.158-.836-.38-1.078s-.532-.369-.926-.369zm7.377 3.591c0-.254-.106-.447-.317-.58s-.552-.25-1.037-.351-.888-.231-1.213-.387c-.711-.344-1.066-.842-1.066-1.494 0-.547.23-1.004.691-1.371s1.047-.551 1.758-.551c.758 0 1.369.187 1.834.562a1.78 1.78 0 0 1 .703 1.459H165.4c0-.273-.101-.5-.304-.679s-.473-.276-.809-.276c-.312 0-.568.073-.767.217s-.293.338-.293.58c0 .219.091.389.275.51s.555.244 1.113.369.996.268 1.313.44.556.371.709.609.234.527.234.867c0 .57-.236 1.033-.709 1.389s-1.092.527-1.857.527c-.52 0-.983-.094-1.389-.281s-.723-.445-.949-.774-.34-.681-.34-1.06h1.383c.019.336.146.596.381.779s.545.27.931.27c.375 0 .66-.071.856-.211a.67.67 0 0 0 .293-.563zm4.429-6.158v1.541h1.12v1.055h-1.12v3.539c0 .242.047.418.141.527s.27.158.516.158c.164 0 .33-.019.498-.058v1.101c-.325.09-.637.135-.938.135-1.094 0-1.64-.603-1.64-1.81v-3.592h-1.043v-1.055h1.043v-1.541h1.423z" fill="#44475b"/><g clip-path="url(#B)"><path d="M182.667 262l-.94.94 3.053 3.06-3.053 3.06.94.94 4-4-4-4z" fill="#44475b"/></g><rect x="56.5" y="250.5" width="147" height="31" rx="15.5" stroke="#e9e9eb"/></g><defs><filter id="A" x="0" y="0" width="384" height="354" filterUnits="userSpaceOnUse" color-interpolation-filters="sRGB"><feFlood flood-opacity="0" result="A"/><feColorMatrix in="SourceAlpha" values="0 0 0 0 0 0 0 0 0 0 0 0 0 0 0 0 0 0 127 0" result="B"/><feOffset dy="16"/><feGaussianBlur stdDeviation="16"/><feComposite in2="B" operator="out"/><feColorMatrix values="0 0 0 0 0 0 0 0 0 0 0 0 0 0 0 0 0 0 0.12 0"/><feBlend in2="A"/><feBlend in="SourceGraphic"/></filter><clipPath id="B"><path fill="#fff" transform="translate(176 258)" d="M0 0h16v16H0z"/></clipPath></defs></svg>