<svg width="40" height="36" viewBox="0 0 40 36" fill="none" xmlns="http://www.w3.org/2000/svg">
<path d="M38.6681 17.3968C39.0186 17.195 38.997 16.6822 38.6308 16.5107L32.7021 13.7335C32.5543 13.6643 32.382 13.6715 32.2406 13.753L1.21986 31.61C0.893277 31.798 0.884129 32.266 1.20311 32.4666L6.08924 35.5396C6.40276 35.7368 6.79959 35.7445 7.12057 35.5597L38.6681 17.3968Z" fill="#0ABB92"/>
<path d="M6.74316 35.2429L38.583 16.8452V13.1511L6.79762 31.5126L6.74316 35.2429Z" fill="white"/>
<path d="M38.5832 13.1512L32.0028 10.4283L1.15234 28.2633L6.79783 31.5127L38.5832 13.1512Z" fill="#66E3C4"/>
<path d="M6.79783 31.4765L1.15234 28.2634V31.8123L6.74337 35.2159L6.79783 31.4765Z" fill="#0ABB92"/>
<path d="M9.60453 29.9156L36.1528 14.5857C36.1528 14.2589 36.1347 13.9412 36.1165 13.6236C36.1165 13.5328 36.1074 13.442 36.0984 13.3603C36.0802 13.1062 36.053 12.8611 36.0258 12.6252C36.0258 12.5616 36.0076 12.4981 35.9985 12.4346C35.9531 12.1441 35.9078 11.8628 35.8533 11.5905C35.8351 11.5179 35.8261 11.4543 35.8079 11.3908C35.7625 11.1729 35.7081 10.9642 35.6445 10.7554C35.6264 10.6828 35.6082 10.6102 35.581 10.5467C35.4993 10.2925 35.4176 10.0384 35.3178 9.80242C35.3087 9.77519 35.2996 9.75704 35.2906 9.72981C35.1998 9.51198 35.109 9.30322 35.0092 9.10354C34.982 9.04909 34.9547 8.98555 34.9184 8.93109C34.8186 8.73141 34.7097 8.54081 34.5917 8.35928C34.5826 8.34113 34.5645 8.3139 34.5554 8.29575C34.4192 8.08699 34.2831 7.89639 34.1379 7.71486C34.1106 7.67856 34.0834 7.64225 34.0562 7.61503C33.9291 7.46073 33.793 7.30643 33.6568 7.17028C33.6296 7.14306 33.6024 7.11583 33.5751 7.0886C33.4118 6.92522 33.2302 6.77093 33.0487 6.6257C33.0487 6.6257 33.0306 6.61663 33.0215 6.60755C32.849 6.47141 32.6675 6.34434 32.486 6.22635C32.4588 6.20819 32.4224 6.19004 32.3952 6.17189C31.9959 5.92683 31.5783 5.73622 31.1336 5.58193C31.1064 5.58193 31.0882 5.56377 31.061 5.5547C30.8432 5.48209 30.6253 5.41855 30.3984 5.37317H30.3803C30.1352 5.31871 29.8811 5.28241 29.6269 5.25518C29.6269 5.25518 29.6179 5.25518 29.6088 5.25518C29.3637 5.22795 29.1187 5.21887 28.8645 5.21887C28.8373 5.21887 28.8101 5.21887 28.7828 5.21887C28.5832 5.21887 28.3835 5.21887 28.1747 5.23703C28.1566 5.23703 28.1384 5.23703 28.1203 5.23703C27.6664 5.27333 27.2036 5.34594 26.7225 5.45486C26.6862 5.45486 26.6408 5.47301 26.6045 5.48209C26.4139 5.52747 26.2324 5.57285 26.0418 5.62731C25.9601 5.65454 25.8693 5.68177 25.7876 5.70899C25.6424 5.75438 25.4972 5.79976 25.3429 5.85422C25.2431 5.89052 25.1341 5.92683 25.0343 5.97221C24.9072 6.01759 24.7711 6.07205 24.644 6.12651C24.526 6.17189 24.408 6.22635 24.29 6.2808C24.1721 6.33526 24.045 6.3988 23.927 6.45325C23.7999 6.51679 23.6819 6.57125 23.5549 6.63478C23.4369 6.69832 23.3189 6.76185 23.2009 6.82538C23.0829 6.88892 22.9649 6.95245 22.8378 7.02506C15.5042 11.2546 9.58638 21.52 9.60453 29.9428V29.9156Z" fill="#66E3C4"/>
<path d="M35.2895 14.05C35.2623 5.62718 29.3082 2.22355 21.9746 6.4622C14.6409 10.6918 8.7231 20.9571 8.74125 29.38L35.2895 14.05Z" fill="white"/>
<path d="M14.0263 18.4162L13.2275 17.9896C14.6525 15.303 16.4678 12.8433 18.4918 10.8556L19.1272 11.5C17.1667 13.4242 15.4059 15.8113 14.0263 18.4071V18.4162Z" fill="#66E3C4"/>
<path d="M21.2868 9.62986L20.7422 8.90375C21.3685 8.43178 22.0129 8.00519 22.6482 7.63306C25.0171 6.27161 27.3225 5.72703 29.1832 6.11731L28.9926 7.00679C27.3588 6.66189 25.2622 7.17017 23.102 8.41363C22.4939 8.7676 21.8767 9.17604 21.2868 9.62078V9.62986Z" fill="#0ABB92"/>
<path d="M33.8116 12.1711C33.5575 10.2832 32.9221 8.74023 31.9419 7.68738L31.2793 8.30457C32.196 9.29389 32.7678 10.8006 32.9584 12.6703L33.8207 12.1711H33.8116Z" fill="#0ABB92"/>
<path d="M11.5206 25.0415C11.8201 23.7164 12.2467 22.364 12.8004 21.0207L11.9563 20.6758C11.2756 22.3458 10.7764 24.0159 10.4678 25.6496L11.5206 25.0415Z" fill="#66E3C4"/>
<path d="M22.8096 22.2276C22.8096 22.2276 22.8096 22.2821 22.8186 22.3093C22.8186 22.3456 22.8277 22.391 22.8368 22.4273C22.8368 22.4636 22.855 22.4999 22.864 22.5362C22.864 22.5635 22.8731 22.5907 22.8822 22.6179C22.8913 22.6542 22.9094 22.6905 22.9276 22.7268L22.9457 22.7722C22.9457 22.7722 22.982 22.8539 23.0002 22.8902L23.0183 22.9174C23.0183 22.9174 23.0637 22.9901 23.0909 23.0264C23.1363 23.0717 23.1635 23.108 23.1999 23.1443C23.2362 23.1807 23.2815 23.2079 23.3178 23.2442C23.572 23.4257 23.8987 23.4711 24.2709 23.3803C24.3525 23.3622 24.4342 23.335 24.5159 23.2986L24.5522 23.2805C24.643 23.2442 24.7247 23.2079 24.8154 23.1534C25.9228 22.509 26.8213 20.966 26.8122 19.6863C26.8122 18.4156 25.9046 17.8982 24.7973 18.5426C24.7247 18.588 24.643 18.6334 24.5704 18.6879C24.5522 18.706 24.525 18.7242 24.5068 18.7332C24.4524 18.7696 24.3979 18.8149 24.3525 18.8603C24.3253 18.8785 24.3072 18.8966 24.2799 18.9239C24.2255 18.9692 24.1801 19.0146 24.1256 19.06L24.0712 19.1145C24.0167 19.1689 23.9532 19.2324 23.8987 19.296C23.5992 19.6409 22.8096 20.6574 22.8096 22.2095V22.2276Z" fill="#0ABB92"/>
<path d="M24.3525 21.1837C24.3525 20.8388 24.5976 20.4122 24.8971 20.2398C25.0333 20.1581 25.1513 20.149 25.2511 20.1853H25.2692C25.2783 20.1853 25.2965 20.1944 25.3056 20.2035L26.1315 20.6936C26.0317 20.6392 25.8955 20.6482 25.7503 20.739C25.4508 20.9114 25.2057 21.338 25.2057 21.6829C25.2057 21.8463 25.2602 21.9643 25.36 22.0278L24.525 21.5286C24.525 21.5286 24.525 21.5286 24.5159 21.5286H24.5068C24.4161 21.4651 24.3616 21.3562 24.3616 21.1928L24.3525 21.1837Z" fill="#66E3C4"/>
<path d="M25.2051 21.6919C25.2051 21.347 25.4501 20.9204 25.7497 20.748C25.8949 20.6663 26.031 20.6572 26.1309 20.7026C26.2307 20.757 26.3033 20.8841 26.3033 21.0566C26.3033 21.4015 26.0583 21.8281 25.7587 22.0005C25.6044 22.0913 25.4592 22.0913 25.3594 22.0277C25.2686 21.9642 25.2051 21.8553 25.2051 21.6828V21.6919Z" fill="white"/>
<path d="M37.5323 13.7866C37.378 9.61148 35.8078 6.43477 33.2301 4.8101C33.2301 4.8101 33.2211 4.8101 33.212 4.80103L33.0849 4.72841C31.8596 3.99323 30.4074 3.59387 28.7918 3.59387C26.677 3.59387 24.4442 4.2746 22.1298 5.59974C18.3722 7.76899 14.8596 11.4631 12.2366 16.0012C9.6135 20.5394 8.17944 25.4225 8.18852 29.7428C8.18852 30.0695 8.21575 30.3872 8.2339 30.7049L9.60443 29.9153C9.60443 29.8608 9.60443 29.7973 9.60443 29.7428C9.5772 21.32 15.504 11.0546 22.8377 6.82505C24.9888 5.58159 27.0219 5.0007 28.819 5.00978C33.1575 5.02793 36.1346 8.45879 36.1527 14.4129C36.1527 14.4673 36.1527 14.5309 36.1527 14.5944L37.5414 13.7957L37.5323 13.7866Z" fill="white"/>
<path d="M8.24251 30.6962C8.22435 30.3785 8.19712 30.0608 8.19712 29.7341C8.18805 25.4137 9.62211 20.5307 12.2452 15.9925C14.8682 11.4543 18.3808 7.76027 22.1384 5.59102C24.4528 4.2568 26.6856 3.58515 28.8004 3.58515C30.4251 3.58515 31.8682 3.98451 33.0935 4.7197L27.2937 1.23438C27.2211 1.189 27.1485 1.14362 27.0759 1.09824L26.9761 1.0347C25.7871 0.363053 24.3984 0 22.8554 0C20.7406 0 18.5078 0.680725 16.1934 2.00587C12.4358 4.17512 8.92323 7.86918 6.30017 12.4074C3.67711 16.9637 2.23397 21.8377 2.25212 26.158C2.25212 26.6481 2.27935 27.1292 2.32473 27.5921C2.48811 27.6737 8.03375 30.8232 8.03375 30.8232L8.25158 30.6962H8.24251Z" fill="#0ABB92"/>
<path d="M27.2938 1.23438C27.2212 1.189 27.1486 1.14362 27.076 1.09824L26.9761 1.0347C25.7871 0.363054 24.3985 0 22.8555 0C20.7407 0 18.5079 0.680725 16.1935 2.00587C13.3072 3.67592 10.5661 6.24452 8.26074 9.40309C8.57841 12.3257 9.8128 14.976 11.6734 17.0544C11.864 16.6914 12.0456 16.3374 12.2543 15.9744C14.8774 11.4362 18.3899 7.74212 22.1475 5.57287C24.462 4.23865 26.6948 3.567 28.8096 3.567C30.4342 3.567 31.8774 3.96636 33.1027 4.70154L27.3029 1.21623L27.2938 1.23438Z" fill="#66E3C4"/>
<path d="M24.8066 19.9588L31.0875 9.08533L26.3042 19.5594" fill="#0ABB92"/>
</svg>
