<svg width="31" height="41" viewBox="0 0 31 41" fill="none" xmlns="http://www.w3.org/2000/svg">
<path d="M30.4184 28.9954L20.3721 34.786V28.6466L30.4184 22.856V28.9954Z" fill="#66E3C4"/>
<path d="M30.4184 28.9954L20.3721 34.786V28.6466L30.4184 22.856V28.9954Z" fill="#66E3C4"/>
<path d="M10.2559 28.9954L20.372 34.786V28.6466L10.2559 22.856V28.9954Z" fill="#66E3C4"/>
<path d="M10.2559 28.9954L20.372 34.786V28.6466L10.2559 22.856V28.9954Z" fill="#0ABB92"/>
<path d="M30.4184 22.8614L20.372 17.0708L10.2559 22.8614L20.372 28.652L30.4184 22.8614Z" fill="white"/>
<path d="M22.8137 19.374C22.8137 19.0252 22.5346 18.6066 22.0462 18.3275C21.0695 17.7694 19.4649 17.7694 18.4881 18.3275C17.9998 18.6066 17.7207 18.9554 17.7207 19.374V20.3508C17.7207 20.6996 17.9998 21.1182 18.4881 21.3973C19.4649 21.9554 21.0695 21.9554 22.0462 21.3973C22.5346 21.1182 22.8137 20.7694 22.8137 20.3508V19.374Z" fill="#66E3C4"/>
<path d="M22.1162 18.3275C22.6046 18.6066 22.8837 18.9554 22.8837 19.374V20.3508C22.8837 20.6996 22.6046 21.1182 22.1162 21.3973C21.6279 21.6763 21 21.8159 20.3721 21.8159V17.9089C21 17.9089 21.6279 18.0485 22.1162 18.3275Z" fill="#66E3C4"/>
<path d="M18.5585 18.3275C18.0701 18.6066 17.791 18.9554 17.791 19.374V20.3508C17.791 20.6996 18.0701 21.1182 18.5585 21.3973C19.0468 21.6763 19.6747 21.8159 20.3026 21.8159V17.9089C19.6747 17.9089 19.0468 18.0485 18.5585 18.3275Z" fill="#0ABB92"/>
<path d="M18.5577 18.3275C17.581 18.8857 17.581 19.7926 18.5577 20.3508C19.5345 20.9089 21.1391 20.9089 22.1158 20.3508C23.0926 19.7926 23.0926 18.8857 22.1158 18.3275C21.1391 17.7694 19.5345 17.7694 18.5577 18.3275Z" fill="white"/>
<path d="M22.8137 25.0277C22.8137 24.6789 22.5346 24.2603 22.0462 23.9812C21.0695 23.4231 19.4649 23.4231 18.4881 23.9812C17.9998 24.2603 17.7207 24.6091 17.7207 25.0277V26.0044C17.7207 26.3533 17.9998 26.7719 18.4881 27.0509C19.4649 27.6091 21.0695 27.6091 22.0462 27.0509C22.5346 26.7719 22.8137 26.423 22.8137 26.0044V25.0277Z" fill="#66E3C4"/>
<path d="M22.1162 23.9812C22.6046 24.2603 22.8837 24.6091 22.8837 25.0277V26.0044C22.8837 26.3533 22.6046 26.7719 22.1162 27.0509C21.6279 27.33 21 27.4695 20.3721 27.4695V23.5626C21 23.5626 21.6279 23.7022 22.1162 23.9812Z" fill="#66E3C4"/>
<path d="M18.5585 23.9812C18.0701 24.2603 17.791 24.6091 17.791 25.0277V26.0044C17.791 26.3533 18.0701 26.7719 18.5585 27.0509C19.0468 27.33 19.6747 27.4695 20.3026 27.4695V23.5626C19.6747 23.5626 19.0468 23.7022 18.5585 23.9812Z" fill="#0ABB92"/>
<path d="M18.5577 23.9812C17.581 24.5394 17.581 25.4463 18.5577 26.0044C19.5345 26.5626 21.1391 26.5626 22.1158 26.0044C23.0926 25.4463 23.0926 24.5394 22.1158 23.9812C21.1391 23.4231 19.5345 23.4231 18.5577 23.9812Z" fill="white"/>
<path d="M17.9299 22.2383C17.9299 21.8895 17.6508 21.4709 17.1624 21.1918C16.1857 20.6337 14.5811 20.6337 13.6043 21.1918C13.116 21.4709 12.8369 21.8197 12.8369 22.2383V23.215C12.8369 23.5639 13.116 23.9825 13.6043 24.2615C14.5811 24.8196 16.1857 24.8196 17.1624 24.2615C17.6508 23.9825 17.9299 23.6336 17.9299 23.215V22.2383Z" fill="#66E3C4"/>
<path d="M17.2324 21.1918C17.7208 21.4709 17.9999 21.8197 17.9999 22.2383V23.215C17.9999 23.5639 17.7208 23.9825 17.2324 24.2615C16.7441 24.5406 16.1162 24.6801 15.4883 24.6801V20.7732C16.0464 20.7732 16.7441 20.9127 17.2324 21.1918Z" fill="#66E3C4"/>
<path d="M13.6747 21.1918C13.1863 21.4709 12.9072 21.8197 12.9072 22.2383V23.215C12.9072 23.5639 13.1863 23.9825 13.6747 24.2615C14.163 24.5406 14.7909 24.6801 15.4188 24.6801V20.7732C14.7909 20.7732 14.163 20.9127 13.6747 21.1918Z" fill="#0ABB92"/>
<path d="M13.674 21.1918C12.6972 21.7499 12.6972 22.6569 13.674 23.215C14.6507 23.7732 16.2553 23.7732 17.232 23.215C18.2088 22.6569 18.2088 21.7499 17.232 21.1918C16.2553 20.6337 14.6507 20.6337 13.674 21.1918Z" fill="white"/>
<path d="M27.7668 22.2383C27.7668 21.8895 27.4877 21.4709 26.9993 21.1918C26.0226 20.6337 24.418 20.6337 23.4413 21.1918C22.9529 21.4709 22.6738 21.8197 22.6738 22.2383V23.215C22.6738 23.5639 22.9529 23.9825 23.4413 24.2615C24.418 24.8196 26.0226 24.8196 26.9993 24.2615C27.4877 23.9825 27.7668 23.6336 27.7668 23.215V22.2383Z" fill="#66E3C4"/>
<path d="M27 21.1918C27.4884 21.4709 27.7675 21.8197 27.7675 22.2383V23.215C27.7675 23.5639 27.4884 23.9825 27 24.2615C26.5117 24.5406 25.8838 24.6801 25.2559 24.6801V20.7732C25.8838 20.7732 26.5117 20.9127 27 21.1918Z" fill="#66E3C4"/>
<path d="M23.4413 21.1918C22.9529 21.4709 22.6738 21.8197 22.6738 22.2383V23.215C22.6738 23.5639 22.9529 23.9825 23.4413 24.2615C23.9296 24.5406 24.5575 24.6801 25.1854 24.6801V20.7732C24.6273 20.7732 23.9296 20.9127 23.4413 21.1918Z" fill="#0ABB92"/>
<path d="M23.4415 21.1918C22.4648 21.7499 22.4648 22.6569 23.4415 23.215C24.4183 23.7732 26.0229 23.7732 26.9996 23.215C27.9763 22.6569 27.9763 21.7499 26.9996 21.1918C26.0229 20.6337 24.4183 20.6337 23.4415 21.1918Z" fill="white"/>
<path d="M20.0923 34.8586L10.0459 40.6492V34.5796L20.0923 28.7889V34.8586Z" fill="#66E3C4"/>
<path d="M20.0923 34.8586L10.0459 40.6492V34.5796L20.0923 28.7889V34.8586Z" fill="#66E3C4"/>
<path d="M0 34.8586L10.0464 40.6492V34.5796L0 28.7889V34.8586Z" fill="#66E3C4"/>
<path d="M0 34.8586L10.0464 40.6492V34.5796L0 28.7889V34.8586Z" fill="#0ABB92"/>
<path d="M20.0927 28.7951L10.0464 22.9347L0 28.7951L10.0464 34.5857L20.0927 28.7951Z" fill="white"/>
<path d="M12.5578 25.2391C12.5578 24.8903 12.2787 24.4717 11.7904 24.1926C10.8136 23.6345 9.20901 23.6345 8.23228 24.1926C7.74391 24.4717 7.46484 24.8205 7.46484 25.2391V26.2159C7.46484 26.5647 7.74391 26.9833 8.23228 27.2624C9.20901 27.8205 10.8136 27.8205 11.7904 27.2624C12.2787 26.9833 12.5578 26.6345 12.5578 26.2159V25.2391Z" fill="#66E3C4"/>
<path d="M11.8604 24.2616C12.3487 24.5407 12.6278 24.8895 12.6278 25.3081V26.2848C12.6278 26.6337 12.3487 27.0523 11.8604 27.3313C11.372 27.6104 10.7441 27.7499 10.1162 27.7499V23.843C10.6743 23.843 11.372 23.9826 11.8604 24.2616Z" fill="#66E3C4"/>
<path d="M8.30258 24.2616C7.81422 24.5407 7.53516 24.8895 7.53516 25.3081V26.2848C7.53516 26.6337 7.81422 27.0523 8.30258 27.3313C8.79095 27.6104 9.41884 27.7499 10.0467 27.7499V23.843C9.41884 23.843 8.79095 23.9826 8.30258 24.2616Z" fill="#0ABB92"/>
<path d="M8.30188 24.2616C7.32515 24.8197 7.32515 25.7267 8.30188 26.2848C9.27861 26.843 10.8832 26.843 11.86 26.2848C12.8367 25.7267 12.8367 24.8197 11.86 24.2616C10.8832 23.7035 9.27861 23.7035 8.30188 24.2616Z" fill="white"/>
<path d="M12.5578 30.8901C12.5578 30.5413 12.2787 30.1227 11.7904 29.8436C10.8136 29.2855 9.20901 29.2855 8.23228 29.8436C7.74391 30.1227 7.46484 30.4715 7.46484 30.8901V31.8669C7.46484 32.2157 7.74391 32.6343 8.23228 32.9134C9.20901 33.4715 10.8136 33.4715 11.7904 32.9134C12.2787 32.6343 12.5578 32.2855 12.5578 31.8669V30.8901Z" fill="#66E3C4"/>
<path d="M11.8604 29.9098C12.3487 30.1889 12.6278 30.5377 12.6278 30.9563V31.933C12.6278 32.2819 12.3487 32.7005 11.8604 32.9795C11.372 33.2586 10.7441 33.3981 10.1162 33.3981V29.4912C10.6743 29.4912 11.372 29.6307 11.8604 29.9098Z" fill="#66E3C4"/>
<path d="M8.30258 29.9098C7.81422 30.1889 7.53516 30.5377 7.53516 30.9563V31.933C7.53516 32.2819 7.81422 32.7005 8.30258 32.9795C8.79095 33.2586 9.41884 33.3981 10.0467 33.3981V29.4912C9.41884 29.4912 8.79095 29.6307 8.30258 29.9098Z" fill="#0ABB92"/>
<path d="M8.30188 29.9098C7.32515 30.4679 7.32515 31.3749 8.30188 31.933C9.27861 32.4912 10.8832 32.4912 11.86 31.933C12.8367 31.3749 12.8367 30.4679 11.86 29.9098C10.8832 29.3517 9.27861 29.3517 8.30188 29.9098Z" fill="white"/>
<path d="M7.67401 28.0978C7.67401 27.749 7.39494 27.3304 6.90657 27.0513C5.92984 26.4932 4.32522 26.4932 3.34849 27.0513C2.86012 27.3304 2.58105 27.6792 2.58105 28.0978V29.0745C2.58105 29.4233 2.86012 29.8419 3.34849 30.121C4.32522 30.6791 5.92984 30.6791 6.90657 30.121C7.39494 29.8419 7.67401 29.4931 7.67401 29.0745V28.0978Z" fill="#66E3C4"/>
<path d="M6.90725 27.0513C7.39561 27.3304 7.67468 27.6792 7.67468 28.0978V29.0745C7.67468 29.4233 7.39561 29.8419 6.90725 30.121C6.41888 30.4001 5.79098 30.5396 5.16309 30.5396V26.6327C5.79098 26.6327 6.41888 26.7722 6.90725 27.0513Z" fill="#66E3C4"/>
<path d="M3.41879 27.0513C2.93043 27.3304 2.65137 27.6792 2.65137 28.0978V29.0745C2.65137 29.4233 2.93043 29.8419 3.41879 30.121C3.90716 30.4001 4.53505 30.5396 5.16295 30.5396V26.6327C4.53505 26.6327 3.90716 26.7722 3.41879 27.0513Z" fill="#0ABB92"/>
<path d="M3.41809 27.0513C2.44136 27.6094 2.44136 28.5164 3.41809 29.0745C4.39482 29.6326 5.99946 29.6326 6.97619 29.0745C7.95292 28.5164 7.95292 27.6094 6.97619 27.0513C5.92969 26.4932 4.39482 26.4932 3.41809 27.0513Z" fill="white"/>
<path d="M17.4416 28.0978C17.4416 27.749 17.1625 27.3304 16.6741 27.0513C15.6974 26.4932 14.0928 26.4932 13.1161 27.0513C12.6277 27.3304 12.3486 27.6792 12.3486 28.0978V29.0745C12.3486 29.4233 12.6277 29.8419 13.1161 30.121C14.0928 30.6791 15.6974 30.6791 16.6741 30.121C17.1625 29.8419 17.4416 29.4931 17.4416 29.0745V28.0978Z" fill="#66E3C4"/>
<path d="M16.7442 27.0513C17.2325 27.3304 17.5116 27.6792 17.5116 28.0978V29.0745C17.5116 29.4233 17.2325 29.8419 16.7442 30.121C16.2558 30.4001 15.6279 30.5396 15 30.5396V26.6327C15.6279 26.6327 16.2558 26.7722 16.7442 27.0513Z" fill="#66E3C4"/>
<path d="M13.1854 27.0513C12.697 27.3304 12.418 27.6792 12.418 28.0978V29.0745C12.418 29.4233 12.697 29.8419 13.1854 30.121C13.6738 30.4001 14.3017 30.5396 14.9296 30.5396V26.6327C14.3017 26.6327 13.6738 26.7722 13.1854 27.0513Z" fill="#0ABB92"/>
<path d="M13.1857 27.0513C12.2089 27.6094 12.2089 28.5164 13.1857 29.0745C14.1624 29.6326 15.767 29.6326 16.7438 29.0745C17.7205 28.5164 17.7205 27.6094 16.7438 27.0513C15.767 26.4932 14.1624 26.4932 13.1857 27.0513Z" fill="white"/>
<path d="M30.0698 12.6814L20.0234 18.4721V12.3326L30.0698 6.54199V12.6814Z" fill="#66E3C4"/>
<path d="M30.0698 12.6814L20.0234 18.4721V12.3326L30.0698 6.54199V12.6814Z" fill="#66E3C4"/>
<path d="M9.97656 12.6814L20.0229 18.4721V12.3326L9.97656 6.54199V12.6814Z" fill="#66E3C4"/>
<path d="M9.97656 12.6814L20.0229 18.4721V12.3326L9.97656 6.54199V12.6814Z" fill="#0ABB92"/>
<path d="M30.0693 6.54062L20.0229 0.75L9.97656 6.54062L20.0229 12.3312L30.0693 6.54062Z" fill="white"/>
<path d="M22.5344 3.05482C22.5344 2.70598 22.2553 2.28739 21.7669 2.00832C20.7902 1.45019 19.1856 1.45019 18.2088 2.00832C17.7205 2.28739 17.4414 2.63622 17.4414 3.05482V4.03155C17.4414 4.38038 17.7205 4.79898 18.2088 5.07804C19.1856 5.63618 20.7902 5.63618 21.7669 5.07804C22.2553 4.79898 22.5344 4.45015 22.5344 4.03155V3.05482Z" fill="#66E3C4"/>
<path d="M21.7676 2.00832C22.256 2.28739 22.535 2.63622 22.535 3.05482V4.03155C22.535 4.38038 22.256 4.79898 21.7676 5.07805C21.2792 5.35711 20.6513 5.49664 20.0234 5.49664V1.58972C20.6513 1.58972 21.2792 1.72925 21.7676 2.00832Z" fill="#66E3C4"/>
<path d="M18.2791 2.00832C17.7908 2.28739 17.5117 2.63622 17.5117 3.05482V4.03155C17.5117 4.38038 17.7908 4.79898 18.2791 5.07805C18.7675 5.35711 19.3954 5.49664 20.0233 5.49664V1.58972C19.3954 1.58972 18.7675 1.72925 18.2791 2.00832Z" fill="#0ABB92"/>
<path d="M18.2784 2.00832C17.3017 2.56645 17.3017 3.47342 18.2784 4.03155C19.2552 4.58968 20.8598 4.58968 21.8365 4.03155C22.8133 3.47342 22.8133 2.56645 21.8365 2.00832C20.79 1.45019 19.2552 1.45019 18.2784 2.00832Z" fill="white"/>
<path d="M22.5344 8.70289C22.5344 8.35406 22.2553 7.93546 21.7669 7.65639C20.7902 7.09826 19.1856 7.09826 18.2088 7.65639C17.7205 7.93546 17.4414 8.28429 17.4414 8.70289V9.67962C17.4414 10.0285 17.7205 10.4471 18.2088 10.7261C19.1856 11.2842 20.7902 11.2842 21.7669 10.7261C22.2553 10.4471 22.5344 10.0982 22.5344 9.67962V8.70289Z" fill="#66E3C4"/>
<path d="M21.7676 7.65639C22.256 7.93546 22.535 8.28429 22.535 8.70289V9.67962C22.535 10.0285 22.256 10.4471 21.7676 10.7261C21.2792 11.0052 20.6513 11.1447 20.0234 11.1447V7.23779C20.6513 7.23779 21.2792 7.37733 21.7676 7.65639Z" fill="#66E3C4"/>
<path d="M18.2791 7.65639C17.7908 7.93546 17.5117 8.28429 17.5117 8.70289V9.67962C17.5117 10.0285 17.7908 10.4471 18.2791 10.7261C18.7675 11.0052 19.3954 11.1447 20.0233 11.1447V7.23779C19.3954 7.23779 18.7675 7.37733 18.2791 7.65639Z" fill="#0ABB92"/>
<path d="M18.2784 7.65639C17.3017 8.21452 17.3017 9.12149 18.2784 9.67962C19.2552 10.2378 20.8598 10.2378 21.8365 9.67962C22.8133 9.12149 22.8133 8.21452 21.8365 7.65639C20.79 7.09826 19.2552 7.09826 18.2784 7.65639Z" fill="white"/>
<path d="M17.6506 5.84449C17.6506 5.49566 17.3715 5.07706 16.8831 4.79799C15.9064 4.23986 14.3018 4.23986 13.3251 4.79799C12.8367 5.07706 12.5576 5.42589 12.5576 5.84449V6.82122C12.5576 7.17005 12.8367 7.58865 13.3251 7.86772C14.3018 8.42585 15.9064 8.42585 16.8831 7.86772C17.3715 7.58865 17.6506 7.23982 17.6506 6.82122V5.84449Z" fill="#66E3C4"/>
<path d="M16.8838 4.86403C17.3722 5.1431 17.6512 5.49193 17.6512 5.91053V6.88726C17.6512 7.23609 17.3722 7.65469 16.8838 7.93376C16.3954 8.21282 15.7675 8.35236 15.1396 8.35236V4.44543C15.7675 4.44543 16.3954 4.58497 16.8838 4.86403Z" fill="#66E3C4"/>
<path d="M13.3251 4.86403C12.8367 5.1431 12.5576 5.49193 12.5576 5.91053V6.88726C12.5576 7.23609 12.8367 7.65469 13.3251 7.93376C13.8134 8.21282 14.4413 8.35236 15.0692 8.35236V4.44543C14.5111 4.44543 13.8134 4.58497 13.3251 4.86403Z" fill="#0ABB92"/>
<path d="M13.3253 4.86403C12.3486 5.42217 12.3486 6.32913 13.3253 6.88726C14.3021 7.44539 15.9067 7.44539 16.8834 6.88726C17.8601 6.32913 17.8601 5.42217 16.8834 4.86403C15.9067 4.3059 14.3021 4.3059 13.3253 4.86403Z" fill="white"/>
<path d="M27.4181 5.84449C27.4181 5.49566 27.1391 5.07706 26.6507 4.79799C25.674 4.23986 24.0694 4.23986 23.0926 4.79799C22.6043 5.07706 22.3252 5.42589 22.3252 5.84449V6.82122C22.3252 7.17005 22.6043 7.58865 23.0926 7.86772C24.0694 8.42585 25.674 8.42585 26.6507 7.86772C27.1391 7.58865 27.4181 7.23982 27.4181 6.82122V5.84449Z" fill="#66E3C4"/>
<path d="M26.7207 4.86403C27.2091 5.1431 27.4881 5.49193 27.4881 5.91053V6.88726C27.4881 7.23609 27.2091 7.65469 26.7207 7.93376C26.2324 8.21282 25.6045 8.35236 24.9766 8.35236V4.44543C25.5347 4.44543 26.2324 4.58497 26.7207 4.86403Z" fill="#66E3C4"/>
<path d="M23.1629 4.86403C22.6746 5.1431 22.3955 5.49193 22.3955 5.91053V6.88726C22.3955 7.23609 22.6746 7.65469 23.1629 7.93376C23.6513 8.21282 24.2792 8.35236 24.9071 8.35236V4.44543C24.2792 4.44543 23.6513 4.58497 23.1629 4.86403Z" fill="#0ABB92"/>
<path d="M23.1622 4.86403C22.1855 5.42217 22.1855 6.32913 23.1622 6.88726C24.139 7.44539 25.7436 7.44539 26.7203 6.88726C27.6971 6.32913 27.6971 5.42217 26.7203 4.86403C25.7436 4.3059 24.139 4.3059 23.1622 4.86403Z" fill="white"/>
<path d="M20.0923 28.167L10.0459 33.9576V27.8182L20.0923 22.0276V28.167Z" fill="#66E3C4"/>
<path d="M20.0923 28.167L10.0459 33.9576V27.8182L20.0923 22.0276V28.167Z" fill="#66E3C4"/>
<path d="M0 28.167L10.0464 33.9576V27.8182L0 22.0276V28.167Z" fill="#66E3C4"/>
<path d="M0 28.167L10.0464 33.9576V27.8182L0 22.0276V28.167Z" fill="#0ABB92"/>
<path d="M20.0927 22.0267L10.0464 16.2361L0 22.0267L10.0464 27.8173L20.0927 22.0267Z" fill="white"/>
<path d="M12.5578 18.5409C12.5578 18.1921 12.2787 17.7735 11.7904 17.4944C10.8136 16.9363 9.20901 16.9363 8.23228 17.4944C7.74391 17.7735 7.46484 18.1223 7.46484 18.5409V19.5176C7.46484 19.8665 7.74391 20.2851 8.23228 20.5641C9.20901 21.1223 10.8136 21.1223 11.7904 20.5641C12.2787 20.2851 12.5578 19.9362 12.5578 19.5176V18.5409Z" fill="#66E3C4"/>
<path d="M11.8604 17.4944C12.3487 17.7735 12.6278 18.1223 12.6278 18.5409V19.5176C12.6278 19.8665 12.3487 20.2851 11.8604 20.5641C11.372 20.8432 10.7441 20.9827 10.1162 20.9827V17.0758C10.6743 17.0758 11.372 17.2153 11.8604 17.4944Z" fill="#66E3C4"/>
<path d="M8.30258 17.4944C7.81422 17.7735 7.53516 18.1223 7.53516 18.5409V19.5176C7.53516 19.8665 7.81422 20.2851 8.30258 20.5641C8.79095 20.8432 9.41884 20.9827 10.0467 20.9827V17.0758C9.41884 17.0758 8.79095 17.2153 8.30258 17.4944Z" fill="#0ABB92"/>
<path d="M8.30188 17.4944C7.32515 18.0525 7.32515 18.9595 8.30188 19.5176C9.27861 20.0758 10.8832 20.0758 11.86 19.5176C12.8367 18.9595 12.8367 18.0525 11.86 17.4944C10.8832 16.9363 9.27861 16.9363 8.30188 17.4944Z" fill="white"/>
<path d="M12.5578 24.1917C12.5578 23.8428 12.2787 23.4242 11.7904 23.1452C10.8136 22.587 9.20901 22.587 8.23228 23.1452C7.74391 23.4242 7.46484 23.7731 7.46484 24.1917V25.1684C7.46484 25.5172 7.74391 25.9358 8.23228 26.2149C9.20901 26.773 10.8136 26.773 11.7904 26.2149C12.2787 25.9358 12.5578 25.587 12.5578 25.1684V24.1917Z" fill="#66E3C4"/>
<path d="M11.8604 23.1452C12.3487 23.4242 12.6278 23.7731 12.6278 24.1917V25.1684C12.6278 25.5172 12.3487 25.9358 11.8604 26.2149C11.372 26.494 10.7441 26.6335 10.1162 26.6335V22.7266C10.6743 22.7266 11.372 22.8661 11.8604 23.1452Z" fill="#66E3C4"/>
<path d="M8.30258 23.1452C7.81422 23.4242 7.53516 23.7731 7.53516 24.1917V25.1684C7.53516 25.5172 7.81422 25.9358 8.30258 26.2149C8.79095 26.494 9.41884 26.6335 10.0467 26.6335V22.7266C9.41884 22.7266 8.79095 22.8661 8.30258 23.1452Z" fill="#0ABB92"/>
<path d="M8.30188 23.1452C7.32515 23.7033 7.32515 24.6103 8.30188 25.1684C9.27861 25.7265 10.8832 25.7265 11.86 25.1684C12.8367 24.6103 12.8367 23.7033 11.86 23.1452C10.8832 22.587 9.27861 22.587 8.30188 23.1452Z" fill="white"/>
<path d="M7.67401 21.3994C7.67401 21.0506 7.39494 20.632 6.90657 20.3529C5.92984 19.7948 4.32522 19.7948 3.34849 20.3529C2.86012 20.632 2.58105 20.9808 2.58105 21.3994V22.3762C2.58105 22.725 2.86012 23.1436 3.34849 23.4226C4.32522 23.9808 5.92984 23.9808 6.90657 23.4226C7.39494 23.1436 7.67401 22.7948 7.67401 22.3762V21.3994Z" fill="#66E3C4"/>
<path d="M6.90725 20.3529C7.39561 20.632 7.67468 20.9808 7.67468 21.3994V22.3762C7.67468 22.725 7.39561 23.1436 6.90725 23.4226C6.41888 23.7017 5.79098 23.8412 5.16309 23.8412V19.9343C5.79098 19.9343 6.41888 20.0739 6.90725 20.3529Z" fill="#66E3C4"/>
<path d="M3.41879 20.3529C2.93043 20.632 2.65137 20.9808 2.65137 21.3994V22.3762C2.65137 22.725 2.93043 23.1436 3.41879 23.4226C3.90716 23.7017 4.53505 23.8412 5.16295 23.8412V19.9343C4.53505 19.9343 3.90716 20.0739 3.41879 20.3529Z" fill="#0ABB92"/>
<path d="M3.41809 20.3529C2.44136 20.9111 2.44136 21.818 3.41809 22.3762C4.39482 22.9343 5.99946 22.9343 6.97619 22.3762C7.95292 21.818 7.95292 20.9111 6.97619 20.3529C5.92969 19.7948 4.39482 19.7948 3.41809 20.3529Z" fill="white"/>
<path d="M17.4416 21.3994C17.4416 21.0506 17.1625 20.632 16.6741 20.3529C15.6974 19.7948 14.0928 19.7948 13.1161 20.3529C12.6277 20.632 12.3486 20.9808 12.3486 21.3994V22.3762C12.3486 22.725 12.6277 23.1436 13.1161 23.4226C14.0928 23.9808 15.6974 23.9808 16.6741 23.4226C17.1625 23.1436 17.4416 22.7948 17.4416 22.3762V21.3994Z" fill="#66E3C4"/>
<path d="M16.7442 20.3529C17.2325 20.632 17.5116 20.9808 17.5116 21.3994V22.3762C17.5116 22.725 17.2325 23.1436 16.7442 23.4226C16.2558 23.7017 15.6279 23.8412 15 23.8412V19.9343C15.6279 19.9343 16.2558 20.0739 16.7442 20.3529Z" fill="#66E3C4"/>
<path d="M13.1854 20.3529C12.697 20.632 12.418 20.9808 12.418 21.3994V22.3762C12.418 22.725 12.697 23.1436 13.1854 23.4226C13.6738 23.7017 14.3017 23.8412 14.9296 23.8412V19.9343C14.3017 19.9343 13.6738 20.0739 13.1854 20.3529Z" fill="#0ABB92"/>
<path d="M13.1857 20.3529C12.2089 20.9111 12.2089 21.818 13.1857 22.3762C14.1624 22.9343 15.767 22.9343 16.7438 22.3762C17.7205 21.818 17.7205 20.9111 16.7438 20.3529C15.767 19.7948 14.1624 19.7948 13.1857 20.3529Z" fill="white"/>
</svg>
