<svg width="38" height="42" viewBox="0 0 38 42" fill="none" xmlns="http://www.w3.org/2000/svg">
<g clip-path="url(#clip0_7406_21335)">
<path d="M22.2881 5.44463L29.5896 9.69244L37.7443 4.9978L30.4138 0.75L22.2881 5.44463Z" fill="white"/>
<path d="M29.5781 28.5697L37.7328 23.8576V5.02686L29.5781 9.72149V28.5697Z" fill="#66E3C4"/>
<path d="M29.6246 9.70399L22.3057 5.44458V24.2811L29.5607 28.5115" fill="#0ABB92"/>
<path d="M11.3125 18.7336L18.614 22.9814L26.7687 18.2867L19.4382 14.0389L11.3125 18.7336Z" fill="white"/>
<path d="M18.6025 34.8949L26.7572 30.1829V18.3099L18.6025 23.0046V34.8891V34.8949Z" fill="#66E3C4"/>
<path d="M18.649 22.9929L11.3301 18.7335V30.6065L18.5851 34.8369" fill="#0ABB92"/>
<path d="M0.25 32.5737L7.5515 36.8215L15.7062 32.1268L8.37568 27.879L0.25 32.5737Z" fill="white"/>
<path d="M7.54004 41.1911L15.6947 36.4791V32.15L7.54004 36.8447V41.1853V41.1911Z" fill="#66E3C4"/>
<path d="M7.58649 36.833L0.267578 32.5736V36.9027L7.52265 41.133" fill="#0ABB92"/>
</g>
<defs>
<clipPath id="clip0_7406_21335">
<rect width="37.5" height="40.4412" fill="white" transform="translate(0.25 0.75)"/>
</clipPath>
</defs>
</svg>
