<svg xmlns="http://www.w3.org/2000/svg" fill="none" viewBox="0 0 16 16" height="16" width="16">
<g clip-path="url(#clip0_876_19406)">
<path fill="white" d="M15.1939 13.1133C15.1525 12.9849 15.0918 12.8635 15.0139 12.7533C14.8806 12.5533 14.6939 12.3667 14.5606 12.2C14.2606 11.82 13.9539 11.4467 13.6272 11.0867C13.4174 10.8524 13.1948 10.6298 12.9606 10.42C12.7733 10.232 12.5704 10.0602 12.3539 9.90667C12.1677 9.78004 11.9517 9.7042 11.7272 9.68667C11.5008 9.68811 11.2809 9.76297 11.1006 9.9C10.7006 10.16 10.1872 10.6867 9.72057 10.96C9.5539 11.0533 9.40057 11.16 9.28723 11.0267C8.62057 10.2867 8.10057 9.6 7.50057 8.9C7.24057 8.6 6.98057 8.30667 6.70057 8C6.42057 7.69333 5.84723 7.15333 5.44723 6.66667C5.19667 6.38363 5.00212 6.0556 4.8739 5.7C4.8739 5.58 4.90723 5.46 5.00723 5.32C5.38775 4.85238 5.79982 4.41135 6.24057 4C6.46895 3.79153 6.6351 3.52385 6.72057 3.22667C6.74238 3.1084 6.72359 2.98624 6.66723 2.88C6.5739 2.72 6.40057 2.56 6.32723 2.44667C6.14057 2.18667 5.9539 1.93334 5.76057 1.68667C5.44723 1.33334 5.14723 0.953335 4.8539 0.586669C4.81991 0.544816 4.77091 0.517905 4.71735 0.511677C4.66379 0.50545 4.60992 0.520399 4.56723 0.553335C4.53059 0.590721 4.51006 0.640985 4.51006 0.693335C4.51006 0.745686 4.53059 0.79595 4.56723 0.833335C4.86057 1.20667 5.14723 1.56667 5.42723 1.94C5.6139 2.18667 5.7939 2.44 5.96723 2.69334C6.02723 2.79333 6.16057 2.92 6.24723 3.05333C6.3339 3.18667 6.3139 3.12667 6.30057 3.16667C6.18459 3.43583 5.99513 3.66688 5.7539 3.83333C5.32506 4.17953 4.92793 4.56327 4.56723 4.98C4.46815 5.09215 4.39666 5.2259 4.35846 5.37059C4.32026 5.51528 4.31642 5.6669 4.34723 5.81333C4.49685 6.23743 4.72279 6.63057 5.0139 6.97333C5.40723 7.48 5.90723 7.96 6.2539 8.36C6.60057 8.76 6.78057 8.96 7.02057 9.26C7.6139 9.97334 8.14723 10.6733 8.76723 11.4267C8.87412 11.5627 9.02189 11.6607 9.18874 11.7063C9.3556 11.7519 9.53269 11.7427 9.6939 11.68C10.1843 11.4544 10.6346 11.1505 11.0272 10.78C11.1695 10.6624 11.3187 10.5533 11.4739 10.4533C11.5406 10.4133 11.5872 10.3733 11.6339 10.38C11.7358 10.3917 11.8325 10.4309 11.9139 10.4933C12.0923 10.6261 12.2596 10.7732 12.4139 10.9333C12.6484 11.143 12.8709 11.3655 13.0806 11.6C13.3939 11.9533 13.6872 12.32 13.9739 12.6867C14.0806 12.82 14.2272 12.9733 14.3472 13.1333C14.4063 13.1993 14.4516 13.2763 14.4806 13.36C14.5739 13.6533 14.3939 13.9067 14.1539 14.1333C13.7088 14.5286 13.18 14.818 12.6072 14.98C10.9673 15.4471 9.21326 15.3002 7.6739 14.5667C6.12795 13.794 4.76435 12.7009 3.6739 11.36C2.26092 9.82046 1.43284 7.83399 1.3339 5.74667C1.2539 3.17334 2.44723 1.08 3.74057 0.413335C3.76771 0.398014 3.79156 0.377498 3.81077 0.352957C3.82999 0.328417 3.84417 0.300333 3.85253 0.270308C3.86089 0.240284 3.86325 0.208908 3.85948 0.177971C3.85571 0.147034 3.84589 0.117142 3.83057 0.090002C3.81525 0.0628621 3.79473 0.0390057 3.77019 0.0197948C3.74565 0.000583898 3.71756 -0.0136053 3.68754 -0.0219625C3.6269 -0.0388408 3.56205 -0.0309399 3.50723 1.99303e-06C2.0939 0.666669 0.700567 2.95334 0.747234 5.76C0.821906 7.9777 1.66838 10.0998 3.14057 11.76C4.27421 13.2023 5.70419 14.3844 7.3339 15.2267C9.02876 16.0498 10.9666 16.223 12.7806 15.7133C13.4799 15.5102 14.1247 15.1525 14.6672 14.6667C14.8977 14.488 15.0705 14.2454 15.1642 13.9692C15.2578 13.693 15.2682 13.3954 15.1939 13.1133Z" clip-rule="evenodd" fill-rule="evenodd"></path>
<path fill="#FF3D6B" d="M9.00775 3.04C9.0772 2.85548 9.13291 2.66607 9.17442 2.47333C9.19528 2.39726 9.20648 2.31887 9.20775 2.24C9.2178 2.16255 9.2178 2.08412 9.20775 2.00667C9.20775 1.81333 9.25442 1.34 9.20775 1.11333C9.21746 1.05941 9.20536 1.00383 9.17411 0.958829C9.14285 0.913824 9.09501 0.883072 9.04109 0.873334C9.0139 0.867543 8.98583 0.867293 8.95855 0.872601C8.93127 0.877908 8.90534 0.888663 8.88232 0.904222C8.85929 0.919782 8.83964 0.939826 8.82453 0.963155C8.80943 0.986485 8.79919 1.01262 8.79442 1.04C8.64781 1.33491 8.52303 1.64017 8.42109 1.95333C8.40343 2.03679 8.39229 2.12149 8.38775 2.20667C8.38117 2.28653 8.38117 2.3668 8.38775 2.44667C8.38775 2.64 8.46775 2.81333 8.50109 3.00667C8.49834 3.03733 8.5017 3.06823 8.51095 3.0976C8.52021 3.12696 8.53518 3.1542 8.55501 3.17775C8.57484 3.2013 8.59914 3.22069 8.6265 3.2348C8.65385 3.24892 8.68374 3.25748 8.71442 3.26C8.74853 3.26909 8.78426 3.27032 8.81891 3.2636C8.85357 3.25687 8.88624 3.24238 8.91448 3.2212C8.94272 3.20002 8.96579 3.17271 8.98195 3.14132C8.9981 3.10993 9.00693 3.07529 9.00775 3.04Z"></path>
<path fill="#FF3D6B" d="M12.0001 3.22C11.8401 3.33334 11.6667 3.38 11.5001 3.48C11.4292 3.52046 11.3623 3.56732 11.3001 3.62C11.2351 3.67489 11.1749 3.7351 11.1201 3.8C10.9807 3.96297 10.8578 4.13939 10.7534 4.32667C10.7101 4.37352 10.6871 4.43567 10.6896 4.49943C10.6921 4.56319 10.7199 4.62335 10.7667 4.66667C10.8136 4.70999 10.8757 4.73292 10.9395 4.73042C11.0032 4.72792 11.0634 4.70019 11.1067 4.65334C11.2734 4.54 11.4534 4.48 11.6201 4.37334C11.7365 4.30462 11.844 4.22177 11.9401 4.12667C12.1109 3.93162 12.2423 3.70519 12.3267 3.46C12.3407 3.4173 12.3408 3.37127 12.3271 3.32849C12.3134 3.2857 12.2865 3.24834 12.2503 3.22174C12.2141 3.19514 12.1704 3.18065 12.1254 3.18033C12.0805 3.18002 12.0366 3.1939 12.0001 3.22Z"></path>
<path fill="#FF3D6B" d="M13.8012 7.20667C13.562 7.18003 13.3205 7.18003 13.0812 7.20667C12.7956 7.24931 12.5129 7.30943 12.2346 7.38667C12.203 7.38919 12.1723 7.39793 12.1441 7.41238C12.1159 7.42683 12.0909 7.44672 12.0705 7.47088C12.05 7.49505 12.0345 7.52302 12.025 7.55319C12.0154 7.58336 12.0118 7.61513 12.0146 7.64667C12.0171 7.67735 12.0257 7.70724 12.0398 7.73459C12.0539 7.76195 12.0733 7.78625 12.0968 7.80608C12.1204 7.82591 12.1476 7.84088 12.177 7.85014C12.2063 7.85939 12.2372 7.86275 12.2679 7.86C12.5546 7.86 12.8279 7.94667 13.1146 7.96667C13.3053 7.98314 13.4971 7.98314 13.6879 7.96667C14.0186 7.92797 14.3461 7.86559 14.6679 7.78C14.7233 7.77656 14.7752 7.75166 14.8125 7.71058C14.8499 7.66951 14.8697 7.61549 14.8679 7.56C14.8662 7.53197 14.859 7.50455 14.8467 7.47931C14.8343 7.45407 14.8172 7.43151 14.7961 7.41293C14.775 7.39435 14.7505 7.38011 14.724 7.37102C14.6974 7.36194 14.6693 7.3582 14.6412 7.36C14.3479 7.33334 14.0879 7.24 13.8012 7.20667Z"></path>
</g>
<defs>
<clipPath id="clip0_876_19406">
<rect fill="white" height="16" width="16"></rect>
</clipPath>
</defs>
</svg>
