<svg xmlns="http://www.w3.org/2000/svg" fill="none" viewBox="0 0 26 28" height="28" width="26">
<path fill="#E12A54" d="M22.0439 13.9944C21.9451 14.0185 21.8594 14.08 21.8049 14.1659C21.7505 14.2518 21.7314 14.3555 21.7517 14.4552C22.0749 16.0189 21.9061 17.6444 21.2684 19.1083C20.6386 20.5776 19.6538 21.8675 18.4024 22.8622C16.3409 24.5118 13.8305 25.5027 11.198 25.7058C8.61359 25.9801 6.02516 25.2249 3.99363 23.604C3.08447 22.8256 2.36488 21.85 1.88965 20.7516C1.41442 19.6531 1.19608 18.4606 1.25125 17.265C1.29084 14.7779 2.13907 12.3714 3.66769 10.4091C5.02288 8.56588 7.03494 7.31437 9.28734 6.91365C10.0244 6.82099 10.773 6.90745 11.4695 7.16572C12.1661 7.42399 12.79 7.84644 13.2885 8.39724C13.319 8.42921 13.3556 8.45465 13.3962 8.47204C13.4367 8.48943 13.4804 8.4984 13.5246 8.4984C13.5687 8.4984 13.6124 8.48943 13.653 8.47204C13.6935 8.45465 13.7301 8.42921 13.7606 8.39724C13.8224 8.33421 13.857 8.24947 13.857 8.16122C13.857 8.07296 13.8224 7.98822 13.7606 7.92519C13.203 7.2825 12.5003 6.78206 11.7106 6.4654C10.9209 6.14873 10.067 6.02499 9.21991 6.10443C6.71572 6.46255 4.44357 7.76552 2.8697 9.74596C1.12735 11.8456 0.124178 14.4601 0.0149224 17.1864C-0.0652306 18.5759 0.178306 19.9651 0.726352 21.2445C1.2744 22.524 2.11199 23.6587 3.17317 24.5594C5.4545 26.41 8.37729 27.2792 11.2992 26.9758C14.1506 26.697 16.8505 25.5606 19.0431 23.7164C20.4016 22.5718 21.4493 21.1028 22.0889 19.4455C22.7584 17.8104 22.9037 16.0078 22.5048 14.2866C22.4941 14.2369 22.4737 14.1899 22.4447 14.1482C22.4157 14.1065 22.3786 14.071 22.3357 14.0438C22.2928 14.0166 22.2449 13.9982 22.1948 13.9897C22.1447 13.9812 22.0934 13.9828 22.0439 13.9944Z" clip-rule="evenodd" fill-rule="evenodd"></path>
<path fill="#E12A54" d="M25.5722 0.00145823C25.3025 0.00145823 25.3474 0.102612 24.6056 1.12539C23.4255 2.81128 20.773 6.32918 18.2779 9.74593C16.4796 12.1849 14.76 14.5788 13.5911 16.1186C13.1995 16.6812 12.7675 17.2146 12.2986 17.7146C12.2199 17.782 12.1188 17.7146 12.0064 17.7146C11.6821 17.6042 11.3782 17.4409 11.1073 17.2313C9.92427 16.2555 8.85368 15.151 7.91529 13.9382C7.52192 13.4549 7.40953 13.1627 7.15102 13.365C6.89252 13.5673 6.75765 13.5448 6.92624 13.7921L7.16226 14.1293C7.94892 15.2479 8.81668 16.3072 9.75854 17.2987C10.2741 17.8708 10.8964 18.3365 11.5905 18.6699C11.8056 18.7878 12.0484 18.8457 12.2935 18.8378C12.5386 18.8299 12.7772 18.7564 12.9842 18.625C13.8733 17.7767 14.6857 16.8515 15.4119 15.8601C16.3335 14.6687 17.4462 13.1852 18.5701 11.6117C21.2114 7.91392 23.9762 3.74414 25.2463 1.73231C25.5424 1.30945 25.7947 0.857547 25.9993 0.383594C25.998 0.329924 25.9857 0.277094 25.9632 0.228359C25.9406 0.179624 25.9084 0.136014 25.8684 0.100216C25.8284 0.0644174 25.7814 0.0371877 25.7305 0.0202035C25.6796 0.00321921 25.6257 -0.00316014 25.5722 0.00145823Z" clip-rule="evenodd" fill-rule="evenodd"></path>
</svg>
