<svg xmlns="http://www.w3.org/2000/svg" fill="none" viewBox="0 0 16 16" height="16" width="16">
<g clip-path="url(#clip0_876_19417)">
<path fill="white" d="M3.53394 7.17333C3.79141 7.66016 4.08326 8.12801 4.40727 8.57333C4.57338 8.80464 4.7514 9.02717 4.94061 9.24C5.36727 9.69333 5.83394 10.1133 6.27394 10.5733C6.51394 10.8267 6.73394 11.1067 6.98061 11.36C7.08787 11.4794 7.20373 11.5908 7.32727 11.6933C7.368 11.7313 7.4216 11.7524 7.47727 11.7524C7.53295 11.7524 7.58655 11.7313 7.62727 11.6933C7.66676 11.6534 7.68891 11.5995 7.68891 11.5433C7.68891 11.4872 7.66676 11.4333 7.62727 11.3933C7.52061 11.2933 7.42061 11.1933 7.32727 11.0867C7.09394 10.82 6.88061 10.5333 6.66061 10.2733C6.20061 9.75333 5.74727 9.33333 5.33394 8.85333C5.16739 8.65982 5.0116 8.45729 4.86727 8.24667C4.57498 7.82316 4.31641 7.37734 4.09394 6.91333C3.8704 6.45565 3.70469 5.97194 3.60061 5.47333C3.54473 5.19228 3.51572 4.90655 3.51394 4.62C3.50533 4.34929 3.54137 4.079 3.62061 3.82C3.87916 3.09761 4.36095 2.47627 4.9962 2.04598C5.63145 1.61569 6.38718 1.39878 7.15394 1.42667C7.9183 1.36645 8.68128 1.55889 9.32564 1.97441C9.97001 2.38994 10.4601 3.00556 10.7206 3.72667C10.8154 4.022 10.8823 4.32554 10.9206 4.63333C10.9539 4.9391 10.9539 5.24757 10.9206 5.55333C10.8597 6.0246 10.7387 6.48613 10.5606 6.92667C10.3686 7.38559 10.1459 7.83105 9.89394 8.26C9.56727 8.85333 9.22727 9.46 8.83394 10.0467C8.46533 10.6291 8.05773 11.1859 7.61394 11.7133C7.57593 11.7646 7.55984 11.8289 7.56921 11.892C7.57859 11.9552 7.61267 12.012 7.66394 12.05C7.71522 12.088 7.77949 12.1041 7.84263 12.0947C7.90577 12.0854 7.96259 12.0513 8.00061 12C8.48132 11.4698 8.92672 10.9086 9.33394 10.32C9.73394 9.73333 10.1139 9.12667 10.4606 8.53333C10.7833 7.99907 11.062 7.43944 11.2939 6.86C11.4478 6.45984 11.5574 6.04403 11.6206 5.62C11.6719 5.26237 11.6831 4.90012 11.6539 4.54C11.6192 4.18305 11.55 3.83029 11.4473 3.48667C11.1512 2.59737 10.5684 1.83147 9.79021 1.30905C9.01202 0.78664 8.08245 0.537254 7.14727 0.6C6.21455 0.577571 5.29937 0.855852 4.53701 1.3937C3.77465 1.93156 3.20559 2.70043 2.91394 3.58667C2.82236 3.92306 2.78411 4.27175 2.80061 4.62C2.81419 4.95233 2.85883 5.28265 2.93394 5.60667C3.07174 6.15063 3.27313 6.67648 3.53394 7.17333Z" clip-rule="evenodd" fill-rule="evenodd"></path>
<path fill="#FF3D6B" d="M8.60801 3.95333C8.00801 3.01999 7.60134 2.91333 6.52801 3.28666C6.2131 3.37731 5.92785 3.54984 5.70134 3.78666C5.53255 3.98706 5.41178 4.22336 5.34823 4.47755C5.28468 4.73174 5.28005 4.99708 5.33468 5.25333C5.38654 5.52238 5.50027 5.77567 5.66689 5.99319C5.8335 6.21072 6.04843 6.38651 6.29468 6.50666C6.57769 6.62255 6.88351 6.672 7.18862 6.65119C7.49373 6.63039 7.79001 6.53989 8.05468 6.38666C8.32942 6.23788 8.55505 6.01253 8.70416 5.73796C8.85328 5.4634 8.91946 5.15145 8.89468 4.83999C8.87365 4.52533 8.77518 4.22074 8.60801 3.95333ZM7.68134 5.70666C7.52159 5.79567 7.34352 5.84676 7.16089 5.85601C6.97825 5.86526 6.79593 5.83241 6.62801 5.75999C6.49622 5.694 6.38031 5.60023 6.28824 5.48515C6.19617 5.37006 6.13013 5.23638 6.09468 5.09333C6.04223 4.94326 6.024 4.78337 6.0413 4.62534C6.0586 4.46732 6.111 4.31516 6.19468 4.17999C6.36753 3.96519 6.59917 3.80535 6.86134 3.71999C7.05366 3.65534 7.25272 3.61284 7.45468 3.59333C7.66238 3.74556 7.84658 3.9275 8.00134 4.13333C8.15394 4.35667 8.23104 4.623 8.22134 4.89333C8.21444 5.06535 8.16044 5.23217 8.06521 5.3756C7.96999 5.51902 7.8372 5.63354 7.68134 5.70666Z" clip-rule="evenodd" fill-rule="evenodd"></path>
<path fill="white" d="M15.8738 13.7533C15.7741 13.5573 15.6581 13.37 15.5272 13.1933C15.3355 12.9427 15.1308 12.7024 14.9138 12.4733L13.8072 11.24C13.6805 11.0933 13.5472 10.8667 13.3872 10.6933C13.3018 10.5983 13.2002 10.5193 13.0872 10.46C12.9267 10.3816 12.7521 10.3363 12.5738 10.3267C12.3519 10.31 12.1291 10.31 11.9072 10.3267L10.8472 10.4067C10.8156 10.4065 10.7844 10.413 10.7555 10.4256C10.7267 10.4382 10.7007 10.4567 10.6794 10.48C10.658 10.5032 10.6418 10.5306 10.6317 10.5604C10.6215 10.5903 10.6177 10.6219 10.6205 10.6533C10.6204 10.6851 10.6269 10.7166 10.6394 10.7458C10.652 10.775 10.6704 10.8014 10.6935 10.8232C10.7166 10.8451 10.7439 10.862 10.7738 10.8729C10.8036 10.8838 10.8354 10.8885 10.8672 10.8867L11.9272 10.8333C12.1292 10.82 12.3318 10.82 12.5338 10.8333C12.6404 10.8439 12.7442 10.8732 12.8405 10.92C12.92 10.9697 12.9882 11.0355 13.0405 11.1133C13.1605 11.2667 13.2672 11.4533 13.3672 11.58L14.4605 12.8733C14.6552 13.0851 14.8377 13.3076 15.0072 13.54C15.1132 13.6899 15.2068 13.8482 15.2872 14.0133H15.1538C14.9205 14.0133 14.6738 14.0133 14.4872 14.0133L11.3338 14.0667C10.0805 14.1267 8.83383 14.16 7.5805 14.22C6.7405 14.26 5.90717 14.3133 5.06717 14.3867C4.22717 14.46 3.5005 14.58 2.71383 14.6467C2.38717 14.6467 2.04717 14.6933 1.72717 14.7L1.1405 14.6667C1.08717 14.6667 0.927166 14.5467 0.787166 14.5L0.827166 14.3867L1.61383 12.92L2.1205 12L2.4405 11.4533C2.56932 11.2217 2.77081 11.039 3.01383 10.9333C3.45125 10.8359 3.90171 10.8112 4.34717 10.86C4.39929 10.8586 4.44909 10.8381 4.48717 10.8025C4.52525 10.7669 4.54896 10.7186 4.55383 10.6667C4.55383 10.6101 4.53136 10.5558 4.49135 10.5158C4.45134 10.4758 4.39708 10.4533 4.3405 10.4533C3.84534 10.3901 3.34318 10.4081 2.85383 10.5067C2.51416 10.6349 2.22446 10.8685 2.02717 11.1733L1.66717 11.7333L1.12717 12.6667L0.273833 14.08C0.273833 14.1333 0.120499 14.3067 0.0604995 14.4267C0.0171232 14.511 -0.00355434 14.6052 0.000499487 14.7C0.0135228 14.7733 0.0415662 14.8431 0.0828681 14.9051C0.12417 14.967 0.177838 15.0198 0.240499 15.06C0.484309 15.192 0.747618 15.2843 1.0205 15.3333L1.7205 15.4C2.06717 15.4 2.38717 15.4 2.76717 15.4C3.55383 15.3533 4.3405 15.2533 5.13383 15.2L11.3738 14.88C12.2072 14.8267 13.0472 14.88 13.8805 14.88C14.0938 14.88 14.3138 14.88 14.5472 14.8467C14.7805 14.8133 15.0805 14.8467 15.3472 14.7933C15.4804 14.7657 15.6101 14.7233 15.7338 14.6667C15.8014 14.6407 15.861 14.5975 15.9066 14.5414C15.9522 14.4852 15.9823 14.4181 15.9938 14.3467C16.0024 14.1421 15.9612 13.9385 15.8738 13.7533Z" clip-rule="evenodd" fill-rule="evenodd"></path>
</g>
<defs>
<clipPath id="clip0_876_19417">
<rect fill="white" height="16" width="16"></rect>
</clipPath>
</defs>
</svg>
