<svg xmlns="http://www.w3.org/2000/svg" fill="none" viewBox="0 0 16 16" height="16" width="16">
<g clip-path="url(#clip0_876_19388)">
<path fill="white" d="M15.9324 4.40667C15.8659 3.76994 15.6709 3.15334 15.3592 2.59415C15.0475 2.03495 14.6257 1.5448 14.1191 1.15333C13.109 0.378813 11.865 -0.0280292 10.5924 -9.16421e-07C9.41342 0.0119973 8.26988 0.404869 7.33243 1.12C6.83273 1.45625 6.40702 1.89107 6.08144 2.39779C5.75585 2.90451 5.53727 3.47242 5.4391 4.06667C5.36691 4.94929 5.58966 5.83092 6.07243 6.57333C6.57725 7.30241 7.33127 7.82169 8.19243 8.03333C8.44479 8.0916 8.701 8.1317 8.9591 8.15333C9.37243 8.19333 9.76576 8.2 9.96576 8.2C10.1124 8.39333 10.3591 8.81333 10.6324 9.14667C10.7538 9.30255 10.8976 9.43959 11.0591 9.55333C11.6013 9.85188 12.2017 10.0293 12.8191 10.0733C12.8967 10.0815 12.9749 10.0815 13.0524 10.0733C13.0937 10.0678 13.1332 10.0529 13.1679 10.0298C13.2025 10.0067 13.2315 9.976 13.2524 9.94C13.2887 9.89586 13.3086 9.84048 13.3086 9.78333C13.3086 9.72618 13.2887 9.67081 13.2524 9.62667C13.1002 9.4453 12.9928 9.23061 12.9391 9C12.8795 8.78312 12.8614 8.55693 12.8858 8.33333C12.8937 8.26582 12.9189 8.20151 12.9591 8.14667C13.8134 7.95086 14.6101 7.55821 15.2858 7C15.7724 6.5 15.9991 5.74 15.9324 4.40667ZM14.7924 6.58C14.1866 7.08086 13.4756 7.43862 12.7124 7.62667C12.4658 7.71333 12.2458 8.12667 12.2924 8.68C12.3163 8.96719 12.3931 9.24747 12.5191 9.50667C12.1041 9.46386 11.7012 9.34164 11.3324 9.14667C11.1643 9.02095 11.014 8.87292 10.8858 8.70667C10.6124 8.36667 10.3791 7.98667 10.2191 7.85333C10.1736 7.8122 10.1137 7.79065 10.0524 7.79333C10.0524 7.79333 9.52576 7.79333 8.96576 7.71333C8.74113 7.68501 8.51847 7.6427 8.2991 7.58667C7.55663 7.38005 6.91747 6.90483 6.50576 6.25333C6.11438 5.59532 5.94821 4.82763 6.03243 4.06667C6.1381 3.57297 6.34109 3.10528 6.62954 2.69091C6.91799 2.27655 7.28612 1.92382 7.71243 1.65333C8.54583 1.04386 9.55332 0.718942 10.5858 0.726666C11.6859 0.700388 12.7624 1.04825 13.6391 1.71333C14.0685 2.03685 14.4289 2.44296 14.6991 2.90778C14.9693 3.3726 15.1438 3.88675 15.2124 4.42C15.3324 5.52 15.1858 6.14667 14.7924 6.58Z"></path>
<path fill="#FF3D6B" d="M10.2263 10.74C10.1671 10.7304 10.1064 10.7446 10.0577 10.7796C10.009 10.8146 9.97608 10.8675 9.96627 10.9267C9.8617 11.5156 9.58574 12.0605 9.17294 12.4933C8.75707 12.906 8.23592 13.1965 7.66627 13.3333C7.44626 13.38 7.22363 13.4134 6.9996 13.4333C6.4396 13.4867 5.9196 13.48 5.9196 13.48C5.87483 13.4789 5.83033 13.4873 5.78899 13.5045C5.74765 13.5217 5.71038 13.5475 5.6796 13.58C5.54627 13.72 5.31294 14.1 5.01294 14.44C4.8915 14.5977 4.74778 14.737 4.58627 14.8533C4.29322 15.0164 3.97205 15.1227 3.6396 15.1667C3.72183 14.9524 3.77562 14.7283 3.7996 14.5C3.83453 14.1966 3.77641 13.8897 3.63294 13.62C3.56883 13.4928 3.46289 13.3916 3.33294 13.3333C2.57357 13.1633 1.8625 12.8237 1.25294 12.34C0.819602 11.9467 0.666269 11.3333 0.732936 10.2667C0.80963 9.35462 1.20358 8.49832 1.84627 7.84666C2.49627 7.17046 3.33495 6.70582 4.25294 6.51333C4.30387 6.50211 4.34841 6.47144 4.37706 6.42785C4.4057 6.38426 4.41618 6.33121 4.40627 6.28C4.40153 6.25435 4.39165 6.22992 4.37723 6.20818C4.3628 6.18645 4.34412 6.16786 4.32232 6.15354C4.30052 6.13921 4.27605 6.12944 4.25038 6.12483C4.2247 6.12021 4.19836 6.12083 4.17294 6.12666C3.1707 6.29439 2.24179 6.75884 1.50627 7.46C0.721996 8.1863 0.219143 9.16603 0.0862691 10.2267C-0.0337309 11.56 0.192936 12.3333 0.686269 12.8933C1.34925 13.4676 2.14025 13.8745 2.99294 14.08C2.99294 14.1133 2.99294 14.1667 2.99294 14.2133C3.01307 14.4105 2.99497 14.6097 2.9396 14.8C2.88176 15.0144 2.77955 15.2143 2.6396 15.3867C2.5806 15.4424 2.54346 15.5173 2.5349 15.598C2.52634 15.6787 2.54693 15.7598 2.59294 15.8267C2.62254 15.8755 2.66224 15.9174 2.70939 15.9496C2.75653 15.9818 2.81003 16.0035 2.86627 16.0133C2.95261 16.024 3.03993 16.024 3.12627 16.0133C3.76051 15.9713 4.37753 15.7891 4.93294 15.48C5.10169 15.3578 5.25405 15.2144 5.38627 15.0533C5.64627 14.7467 5.87294 14.3867 6.0196 14.16C6.22627 14.16 6.60627 14.1267 6.9996 14.08C7.26 14.0492 7.51827 14.0025 7.77294 13.94C8.44367 13.7481 9.0482 13.3743 9.5196 12.86C9.98083 12.3445 10.28 11.7045 10.3796 11.02C10.3961 10.9625 10.3893 10.9009 10.3606 10.8484C10.3319 10.796 10.2836 10.757 10.2263 10.74Z"></path>
</g>
<defs>
<clipPath id="clip0_876_19388">
<rect fill="white" height="16" width="16"></rect>
</clipPath>
</defs>
</svg>
