<svg xmlns="http://www.w3.org/2000/svg" xmlns:xlink="http://www.w3.org/1999/xlink" width="129" height="140" fill="none"><style>.B{fill:#8bd3ff}.C{fill:#fff}.D{fill:#d6f2ff}.E{fill:#4b64ff}.F{opacity:.14}.G{fill:#00e7ac}</style><path d="M28.332 136.301.421 120.293l10.895-6.298 15.496 9.012 1.521 13.294z" class="D"/><path d="m70.667 65.445 29.537 16.945 27.816-15.855-29.538-16.944-27.815 15.855z" class="C"/><path d="m75.431 65.541 24.63 14.125 23.195-13.217-24.63-14.125-23.195 13.217z" class="D"/><g class="B"><path d="m98.606 54.78 22.488 12.902 2.162-1.233-24.63-14.125-.019 2.456z"/><path d="M98.607 54.78 77.64 66.812l-2.209-1.271 23.195-13.217-.019 2.456z"/></g><path d="M100.749 56.013 79.218 68.36l-2.219-1.271L98.607 54.78l2.142 1.233z" class="E F"/><path d="M.335 93.925h-.01l.077 26.32 27.93 16.056v-24.953L.335 93.925z" class="C"/><path d="M5.347 97.041h-.306v25.966h.306V97.041z" class="D"/><g class="B"><path d="m.421 120.293 10.914-6.222v-12.529h-.096v12.472L.373 120.207l.048.086z"/><path d="m25.701 122.385.048-.086-14.434-8.305-.057.086 14.443 8.305z"/></g><g class="D"><path d="m23.932 117.999.153-.258-23.76-13.657.029.364 23.578 13.551zm3.646 11.88.153-.258L.403 113.909l-.153.258 27.328 15.712z"/><path d="M20.001 110.756h-.306v20.729h.306v-20.729zm50.666-45.311.096 39.461 29.537 16.945-.096-39.461-29.537-16.944z"/></g><path d="m100.204 82.389.096 39.461 27.815-15.845-.095-39.471-27.816 15.855z" class="B"/><path d="m40.527 31.022 31.909 18.302 22.057-12.567-31.909-18.302-22.057 12.567z" class="C"/><path d="m43.789 31.021 28.839 16.467 18.757-10.685-28.839-16.476-18.757 10.694zm-3.262 0 .048 84.14 31.909 18.301-.048-84.139-31.909-18.302z" class="D"/><path d="m43.78 41.983.029 4.081 25.434 14.584-.038-4.081L43.78 41.983z" class="C"/><path d="m44.23 42.25.038 3.603 24.965 14.326.01.468-25.434-14.584-.029-4.081.45.268z" class="B"/><path d="m43.78 51.875.029 4.081 25.434 14.593-.038-4.081L43.78 51.875z" class="C"/><path d="m44.23 52.143.038 3.603 24.965 14.326.01.478-25.434-14.593-.029-4.081.45.268z" class="B"/><path d="m43.78 61.776.029 4.081 25.434 14.584-.038-4.081L43.78 61.776z" class="C"/><path d="m44.23 62.034.038 3.603 24.965 14.326.01.478-25.434-14.584-.029-4.081.45.258z" class="B"/><path d="m43.78 71.666.029 4.081 25.434 14.584-.038-4.081L43.78 71.666z" class="C"/><path d="m44.23 71.924.038 3.612 24.965 14.316.01.478-25.434-14.584-.029-4.081.45.258z" class="B"/><path d="m43.78 81.558.029 4.081 25.434 14.584-.038-4.081L43.78 81.558z" class="C"/><path d="m44.23 81.826.038 3.603 24.965 14.326.01.468-25.434-14.584-.029-4.081.45.268z" class="B"/><path d="m43.78 91.45.029 4.081 25.434 14.584-.038-4.081L43.78 91.45z" class="C"/><path d="m44.23 91.718.038 3.603 24.965 14.326.01.469-25.434-14.584-.029-4.081.45.267z" class="B"/><path d="m43.78 101.341.029 4.081 25.434 14.593-.038-4.081-25.424-14.593z" class="C"/><g class="B"><path d="m44.23 101.608.038 3.603 24.965 14.326.01.478-25.434-14.593-.029-4.081.45.267zm28.207-52.285.048 84.14 22.048-12.568-.038-84.139-22.057 12.567zm18.948-12.52L62.546 20.327v2.456l26.687 15.243 2.152-1.223z"/><path d="m43.799 31.04 18.748-10.713v2.456l-16.586 9.471-2.162-1.214z"/></g><path d="m89.165 48.319.067 71.123 2.774-1.577-.076-71.133-2.764 1.587z" class="C"/><path d="m91.441 47.019.488-.287.077 71.133-2.774 1.577v-.622l2.286-1.299-.076-70.502z" class="D"/><path d="m84.642 50.919.077 71.123 2.774-1.577-.077-71.123-2.774 1.577z" class="C"/><path d="m86.928 49.62.488-.277.076 71.123-2.774 1.577v-.621l2.276-1.3-.067-70.501z" class="D"/><path d="m80.126 53.527.076 71.123 2.764-1.577-.067-71.132-2.774 1.586z" class="C"/><path d="m82.403 52.227.497-.287.067 71.132-2.764 1.577v-.621l2.276-1.3-.077-70.502z" class="D"/><path d="m75.601 56.127.076 71.133 2.774-1.587-.076-71.123-2.774 1.577z" class="C"/><path d="m77.887 54.827.488-.277.076 71.123-2.774 1.587v-.631l2.286-1.3-.077-70.502z" class="D"/><path d="m0 88.076 33.889 19.439 25.128-14.316L25.128 73.76 0 88.076z" class="C"/><path d="m4.046 88.43 29.241 16.773 21.684-12.358L25.73 76.073 4.046 88.43z" class="D"/><g class="B"><path d="m25.731 76.073 29.241 16.773-1.932 1.099-27.308-15.664v-2.208zM4.046 88.43 25.73 76.073v2.208L5.978 89.529 4.046 88.43z"/></g><path d="m5.969 89.529 21.684-12.357v2.217L7.901 90.638l-1.932-1.109z" class="E F"/><path d="m34.005 107.401.096 32.484 25.128-14.316-.096-32.494-25.128 14.326z" class="B"/><path d="M.029 93.945h-.01L0 88.077l33.889 19.439.096 32.484-6.237-3.574c0-18.082-8.408-31.233-27.72-42.481zm37.102 16.495.077 25.861 20.46-11.659-.077-25.861-20.46 11.659z" class="D"/><path d="m57.218 100.328.363-.21.077 25.861-20.46 11.66v-.535l20.096-11.459-.077-25.317z" class="C"/><path d="m35.564 125.292 23.549-13.418 11.593 6.757v13.934l-35.142 6.67v-13.943z" class="B"/><path d="m70.706 118.631-11.555-6.757-23.549 13.418 35.104-6.661z" class="C"/><path d="m67.988 118.2-8.781-5.123-20.402 11.01 29.183-5.887z" class="D"/><g class="B"><path d="m59.209 114.167 7.394 4.31 1.387-.277-8.781-5.123v1.09zM59.207 113.077l-20.402 11.01 2.898-.583 17.504-9.337v-1.09z"/></g><path d="m47.021 122.453 13.717-7.397-1.531-1.979v1.09l-17.504 9.337 5.318-1.051z" class="E F"/><path d="m38.242 127.221 31.001-5.877v2.532l-31.001 5.878v-2.533z" class="D"/><path d="M38.347 127.203v2.428l30.895-5.849v.095l-31.001 5.878v-2.533l.105-.019z" class="C"/><path d="m38.241 131.895 31.001-5.878v2.533l-31.001 5.877v-2.532z" class="D"/><path d="m19.13 78.137 6.571 3.766 6.61-3.766-6.571-3.775-6.61 3.775z" class="C"/><path d="m30.235 78.415-4.486-2.571-4.524 2.58-.469-.268 4.983-2.838 4.945 2.838-.45.258zm-11.105-.278.019 4.645 6.562 3.775-.01-4.654-6.571-3.766z" class="D"/><path d="m25.701 81.902.009 4.654 6.619-3.765-.019-4.654-6.609 3.766z" class="B"/><g class="E"><path d="M25.731 86.557H32.8l3.692-2.103-4.18-2.389.019.726-6.6 3.766zm48.858-45.329H64.66l15.008-8.668 9.565 5.467-5.749 3.202h-5.969l1.167 1.548-3.338 1.902h-4.199l3.463-1.969-.019-1.481z" class="F"/></g><path d="m67.693 40.168 3.434 1.969 3.463-1.969-3.443-1.969-3.453 1.969z" class="C"/><path d="m67.693 40.167.019 2.542 3.434 1.969-.019-2.542-3.434-1.969z" class="D"/><path d="m71.128 42.136.019 2.542 3.463-1.969-.019-2.542-3.463 1.969z" class="B"/><g class="E"><path d="m100.749 56.013-2.123-3.689-.019 2.456 2.143 1.233zm-65.185 54.523v8.046l21.675-11.917v.191l.373-.162-.01.2 1.511-.688v-5.954l-23.549 10.284zM15.249 84.951h3.09c.363 0 .612.115.832.239.545.315.545.822 0 1.137a2.093 2.093 0 0 1-.995.239h-3.09l.163-1.606v-.01z" class="F"/></g><path d="M13.814 83.928v1.825c0 .201.144.411.411.564.545.315 1.435.315 1.98 0 .277-.162.411-.363.411-.573v-1.825c0 .21-.143.411-.421.573-.545.315-1.435.315-1.98 0-.268-.153-.411-.363-.411-.564h.009z" class="B"/><path d="M14.226 83.365c-.545.315-.555.822 0 1.137.545.315 1.435.315 1.98 0s.555-.822 0-1.137-1.435-.315-1.98 0z" class="C"/><path d="M14.598 83.575c.344-.191.89-.191 1.224 0a.604.604 0 0 1 .182.153.21.21 0 0 0-.077-.048 1.38 1.38 0 0 0-1.224 0c-.258.143-.325.363-.191.545-.258-.191-.229-.468.077-.65h.01z" class="B"/><path d="M12.37 86.663h3.089c.363 0 .612.115.832.239.545.315.545.822 0 1.137a2.093 2.093 0 0 1-.995.239h-3.09l.163-1.606v-.01z" class="E F"/><use xlink:href="#C" class="B"/><path d="M11.347 85.076c-.545.315-.555.822 0 1.137s1.435.315 1.98 0 .555-.822 0-1.137-1.435-.315-1.98 0z" class="C"/><path d="M11.719 85.296a1.38 1.38 0 0 1 1.224 0 .59.59 0 0 1 .182.153.215.215 0 0 0-.077-.048 1.38 1.38 0 0 0-1.224 0c-.258.143-.325.363-.191.545-.258-.191-.229-.468.076-.65h.01z" class="B"/><path d="M9.26 88.383h3.09c.364 0 .612.115.832.239.545.315.545.822 0 1.137a2.093 2.093 0 0 1-.995.239h-3.09l.163-1.606v-.01z" class="E F"/><use xlink:href="#C" x="-3.11" y="1.711" class="B"/><path d="M8.237 86.787c-.545.315-.555.822 0 1.137.545.315 1.435.315 1.98 0s.555-.822 0-1.137-1.435-.315-1.98 0z" class="C"/><path d="M8.62 87.006c.344-.191.89-.191 1.224 0a.604.604 0 0 1 .182.153.21.21 0 0 0-.077-.048 1.38 1.38 0 0 0-1.224 0c-.258.143-.325.363-.191.545-.258-.191-.23-.468.077-.65h.01z" class="B"/><path d="M57.277 116.556h3.09c.364 0 .612.115.832.239.545.315.545.822 0 1.137a2.093 2.093 0 0 1-.995.239h-3.09l.163-1.605v-.01z" class="E F"/><path d="M55.841 115.542v1.826c0 .2.143.411.411.564.545.315 1.435.315 1.98 0 .277-.163.411-.364.411-.574v-1.825c0 .21-.144.411-.421.573a2.19 2.19 0 0 1-1.98 0c-.268-.153-.411-.363-.411-.564h.01z" class="B"/><path d="M56.252 114.97c-.545.315-.555.821 0 1.137.545.315 1.435.315 1.98 0s.555-.822 0-1.137a2.19 2.19 0 0 0-1.98 0z" class="C"/><path d="M56.634 115.179c.344-.191.89-.191 1.224 0a.592.592 0 0 1 .182.153.22.22 0 0 0-.076-.048c-.335-.191-.89-.191-1.224 0-.258.144-.325.364-.191.545-.258-.191-.23-.468.077-.65h.01z" class="B"/><path d="M38.347 131.876v2.427l30.895-5.848v.095l-31.001 5.878v-2.533l.105-.019z" class="C"/><path d="M36.491 84.455v-2.227l-4.161-2.37-.019 2.208 4.18 2.389z" class="E F"/><path d="M5.481 107.391v9.252l14.223 8.18v.182l-14.348-8.248v-9.432l.124.066zm0-10.025v9.5l14.214 8.152v.191L5.356 106.98v-9.681l.124.067zm-.125 25.737v-6.002l.124.076v5.993l-.124-.067zm14.636-7.368.124.076v9.251l7.136 4.1c0 .058.019.134.029.201l-7.289-4.186v-9.442zm0 9.786.134.066v5.993l-.134-.067v-5.992zm0-14.556.134.182v4.09l3.635 2.093.115.258-3.883-2.236v-4.387zm-14.951-4.358v.192l-4.716-2.715v-.181l4.716 2.704zm0 9.767v.191l-4.716-2.714v-.191l4.716 2.714z" class="C"/><path d="M35.716 91.661c1.588.918 1.578 2.399-.019 3.316s-4.199.917-5.787 0-1.588-2.399.019-3.316 4.199-.918 5.796 0h-.01zm-.067 3.288c1.569-.898 1.578-2.361.019-3.249-1.559-.898-4.113-.898-5.691 0-1.569.898-1.578 2.351-.019 3.249s4.113.898 5.691 0z" class="B"/><path d="M35.114 91.995c1.272.736 1.272 1.911 0 2.638-1.282.736-3.348.736-4.62 0s-1.263-1.902.029-2.638c1.272-.726 3.338-.726 4.601 0h-.009zm-1.11 1.997c.66-.373.66-.994 0-1.367a2.68 2.68 0 0 0-2.382 0c-.66.373-.679.994-.019 1.367s1.741.373 2.401 0z" fill="#00e6ab"/><path d="m35.64 91.65.048.029 3.348-1.911 1.272.134 4.151-2.37-.048-.029-4.123 2.351-1.272-.134-3.376 1.931zM23.1 99.287l.048.038 4.4-2.513 1.789.134 2.439-1.395-.048-.029-2.42 1.376-1.789-.134-4.419 2.523zm21.588-6.012-.01 1.529 3.444 1.978.057-.029-3.424-1.969v-1.491l3.836-2.189-.048-.029-3.855 2.198z" class="B"/><path d="m14.091 91.899 2.755 1.577 7.977-4.54-2.755-1.586-7.977 4.549z" class="C"/><g class="B"><path d="m14.206 91.966-.115-.067 7.977-4.549 2.755 1.586-.105.057-2.65-1.51-7.863 4.482z"/><path d="m18.356 89.472.115-.067 2.755 1.586-.115.057-2.755-1.577z"/></g><g class="E"><path d="m24.487 89.127-2.439-1.424-3.243 1.892-.23-.124 3.491-1.988 2.65 1.51-.23.134zm-3.596 2.065-2.439-1.424-4.027 2.322-.22-.124 4.266-2.427 2.65 1.52-.23.134z" class="F"/></g><g class="B"><path d="m35.859 94.872 3.807 2.131.67-.382.612.354v.784l2.669 1.529.057-.029-2.65-1.52v-.784l-.679-.392-.679.382-3.759-2.103-.048.029zM15.648 82.658l11.354 6.508v.707l3.09 1.758.057-.029-3.08-1.749.01-.707-11.382-6.527-.048.038zm18.214 36.517.057-.086-13.659-7.827-.048.086 13.65 7.827zm-.001 11.622.057-.086-7.059-4.043-.048.086 7.049 4.043z"/><path d="M23.331 101.361h-.105v14.803h.105v-14.803zm-13.248-7.436h-.105v6.958h.105v-6.958z"/></g><path d="m124.71 74.955.029 32.933-3.625 2.064-.029-32.914 3.625-2.084z" class="C"/><path d="m125.103 74.735.009-.01.029 32.933h-.019l-.019-32.924z" class="D"/><path d="m124.74 107.888-.029-32.933.392-.22.019 32.924-.382.229z" class="C"/><path d="m117.269 79.15.009-.01.029 32.981-.019.009-.019-32.981z" class="D"/><g class="C"><path d="m116.877 79.37.029 32.981-3.625 2.065-.029-32.962 3.625-2.084zM116.907 112.351l-.029-32.981.392-.22.019 32.982-.382.219z"/></g><path d="m109.435 83.566.009-.01.019 33.029-.009.009-.019-33.028z" class="D"/><g class="C"><path d="m105.447 118.879-.029-33.009 3.625-2.083.029 33.029-3.625 2.064zM109.073 116.814l-.029-33.028.392-.22.019 33.029-.382.219zm6.561-55.21-9.345 5.352-6.916-3.947 9.336-5.352 6.925 3.947z"/></g><path d="m115.633 61.604-.029 4.587-9.335 5.352.019-4.587 9.345-5.352z" class="B"/><path d="m106.288 66.956-.019 4.587-6.925-3.947.029-4.587 6.916 3.947z" class="D"/><path d="m115.613 64.5-.01 1.692-9.335 5.352h6.073l7.777-4.463-4.505-2.58z" class="E F"/><path d="m103.391 65.188.105.067 3.003-1.72 1.225.096 1.702-.965-.105-.067-1.645.937-1.225-.086-3.06 1.739zm7.814-3.785v.793l1.741.994.105-.057-1.702-.975.009-.726 1.894-1.08-.105-.057-1.942 1.109z" class="B"/><path d="M107.386 60.505h3.09a1.59 1.59 0 0 1 .832.239c.545.315.545.822 0 1.137a2.093 2.093 0 0 1-.995.239h-3.089l.162-1.605v-.01z" class="E F"/><path d="M105.953 59.492v1.825c0 .201.143.411.411.564.545.315 1.435.315 1.98 0 .278-.163.412-.363.412-.573v-1.825c0 .21-.144.411-.421.573-.546.315-1.435.315-1.98 0-.268-.153-.412-.363-.412-.564h.01z" class="B"/><path d="M106.365 58.919c-.546.315-.555.822 0 1.137.545.315 1.434.315 1.98 0s.554-.822 0-1.137-1.435-.315-1.98 0z" class="C"/><path d="M106.747 59.139a1.38 1.38 0 0 1 1.224 0 .617.617 0 0 1 .182.153.215.215 0 0 0-.077-.048 1.38 1.38 0 0 0-1.224 0c-.258.143-.325.363-.191.545-.259-.191-.23-.468.076-.65h.01z" class="B"/><path d="m59.018 94.661 3.749 7.684-.364-.21 2.124 4.807.411.239.21.593.23.133 5.328 10.723-11.555-6.757-.134-17.212z" class="E F"/><path d="m57.343 98.12-21.78 12.415 4.572 3.402 21.789-12.424-4.582-3.393z" class="D"/><path d="m60.701 102.211-4.572-3.402-1.224.698 4.572 3.402 1.224-.698zm-4.237 2.418-4.582-3.402-1.215.698 4.572 3.402 1.224-.698zm-4.247 2.418-4.572-3.402-1.215.697 4.572 3.403 1.215-.698zm-4.238 2.418-4.572-3.402-1.224.698 4.572 3.402 1.224-.698zm-4.247 2.418-4.572-3.393-1.224.689 4.582 3.402 1.215-.698z" class="C"/><g class="E"><path d="m46.19 123.447 2.076 2.045 1.282-.249 1.846 2.179-1.014.191 1.349 1.893.803-.153 1.569 2.255-1.243.211 2.057 3.746 15.792-3.001V118.63l-24.515 4.817z" class="F"/><path d="m70.706 120.398 1.741 4.253.038 8.811-1.779-1.022M53.038 93.945l-20.727-11.88.019.726-1.549.879 19.962 11.583 2.296-1.309z" class="F"/></g><path d="m124.797 107.888-3.683-.563v2.666l3.683-2.103zm-7.844 4.473-3.682-.564v2.666l3.682-2.102zm-7.824 4.463-3.683-.564v2.666l3.683-2.102z" class="D"/><path d="m49.262 26.1 15.228 8.735L79.813 26.1l-15.228-8.735L49.262 26.1z" class="C"/><path d="m49.262 26.099.038 6.891 15.17 8.735.019-6.891-15.228-8.735z" class="D"/><path d="m79.812 26.099-.144 6.891-15.199 8.735.019-6.891 15.323-8.735zm-25.566-6.135c0 .019-.01.048-.01.067 0-.029 0-.048.01-.076v.009z" class="B"/><path d="M55.624 28.9c3.797 2.16 9.929 2.16 13.697 0s3.75-5.667-.048-7.827c-2.363-1.348-5.624-1.854-8.656-1.529l-7.681 4.406c-.564 1.739.335 3.603 2.697 4.95h-.01z" class="F E"/><path d="M62.052 8.124c0-2.686 2.372-2.131 2.372-3.966h2.506c0 1.845 2.372 1.29 2.372 3.966l.067 1.099s.44.946 4.39 4.167c5.433 4.425 4.343 16.601-8.082 16.601S52.152 17.815 57.595 13.39c3.95-3.221 4.39-4.167 4.39-4.167l.067-1.099z" class="D"/><g class="C"><use xlink:href="#D"/><use xlink:href="#E"/><path d="M61.038 18.024c-1.674 2.647-2.86 5.677-.469 10.752l-.23.105c-2.42-5.161-1.177-8.343.478-10.971M60.818 17.91l.937-1.405c1.224-1.797 2.382-3.488 2.382-5.658h.249c0 2.246-1.177 3.966-2.42 5.792l-.918 1.386"/></g><use xlink:href="#D" y="-.144" class="B"/><path d="M69.292 7.999c-.076-2.542-2.363-2.036-2.363-3.842h-.746l-.335.325v.507l-.124.057c0 2.389 2.592 1.185 2.592 4.052.469-.306.813-.688.976-1.089v-.01z" class="C"/><path d="m69.36 9.222-.067-1.233v.124l.067 1.099v.01z" class="B"/><path d="m69.369 9.222-.067-1.099v-.124c-.172.411-.516.784-.976 1.089l-.469 1.548a3.21 3.21 0 0 0 .536-.296c.478-.315.813-.698.985-1.118h-.01z" class="D"/><path d="M65.668 29.99c8.982 0 12.043-6.365 11-11.564-.813 4.014-4.218 7.636-11 7.636s-10.177-3.622-11-7.636c-1.052 5.199 2.009 11.564 11 11.564z" class="B"/><path d="M66.93 4.158v-.573h-1.033V4.97a1.55 1.55 0 0 0 .67-.229c.249-.162.363-.373.363-.593v.01z" class="D"/><path d="M65.668 7.627a3.958 3.958 0 0 0 2.994-1.357c-.029-.029-.057-.057-.096-.086a3.85 3.85 0 0 1-2.898 1.319 3.816 3.816 0 0 1-2.898-1.319c-.029.029-.057.057-.096.086a3.97 3.97 0 0 0 2.994 1.357z" class="C"/><g class="B"><use xlink:href="#E" x="-.105"/><path d="M65.668 7.531c1.129 0 2.19-.487 2.917-1.319l-.086-.086c-.708.812-1.731 1.281-2.822 1.281s-2.114-.468-2.822-1.281l-.086.086a3.856 3.856 0 0 0 2.917 1.319h-.019z"/></g><g class="C"><path d="M68.5 6.126c-.689-.621-1.569-.851-1.569-1.978h-.746l-.335.325v.507l-.124.057c0 1.367.842 1.558 1.569 2.007.459-.22.871-.526 1.205-.908v-.01zM68.588 6.212a3.74 3.74 0 0 1-1.177.908c.497.334.899.831.899 1.978.469-.306.813-.688.976-1.089-.029-.898-.325-1.414-.708-1.787l.01-.01z"/></g><path d="m68.586 6.211-.086-.086.086.086z" class="B"/><path d="m68.587 6.212-.086-.086a3.62 3.62 0 0 1-1.205.908c.038.029.076.048.124.076.44-.22.842-.526 1.177-.908l-.01.01z" class="D"/><g class="C"><path d="M64.787 4.731c-.249-.162-.373-.373-.373-.593v.124c0 .21.124.43.373.593.258.172.603.248.937.239V4.97c-.335 0-.679-.067-.937-.239zM66.929 4.148c0 .21-.124.421-.363.573a1.55 1.55 0 0 1-.842.239v.124a1.55 1.55 0 0 0 .842-.239c.249-.162.363-.373.363-.593v-.115.01z"/></g><path d="M66.93 4.158c0 .21-.124.43-.364.593a1.75 1.75 0 0 1-1.779 0c-.249-.162-.373-.373-.373-.593v-.573h2.506v.573h.01z" class="B"/><path d="M66.557 3.049c.497.325.497.851 0 1.176a1.75 1.75 0 0 1-1.779 0c-.488-.325-.497-.851 0-1.176a1.75 1.75 0 0 1 1.779 0z" class="C"/><path d="m76.858 20.328-.01-.401v-.038c0-.124-.019-.248-.029-.373v-.076l-.038-.363c0-.038 0-.067-.01-.105l-.057-.344c0-.038-.01-.076-.019-.115a.18.18 0 0 0-.019-.076 9.9 9.9 0 0 1-.488 1.625c.631 1.759.287 3.899-1.406 6.298a8.91 8.91 0 0 0 1.722-3.288 7.59 7.59 0 0 0 .163-.669l.115-.669.048-.43v-.048l.029-.411v-.515z" class="D"/><path d="M73.167 12.902c-.067-.048-.124-.105-.191-.153l.191.153z" class="B"/><g class="C"><path d="M76.075 16.514a2.587 2.587 0 0 0-.105-.229c-.526-1.128-1.272-2.131-2.21-2.896l-.593-.487-.191-.153c-3.109-2.6-3.587-3.46-3.616-3.517-.172.421-.507.803-.985 1.118-.163.115-.344.21-.536.296 0 0-.564 2.485 1.119 4.09a4.4 4.4 0 0 0 1.76.984c1.387.42 2.573 1.013 3.501 1.749l.201.163c.813.688 1.416 1.5 1.75 2.418a9.63 9.63 0 0 0 .488-1.625 9.887 9.887 0 0 0-.593-1.911h.01z"/><path d="M65.667 19.602c4.094 0 7.375-1.682 9.441-4.788l-.096-.124c-1.377 2.016-3.29 3.412-5.615 4.119a12.61 12.61 0 0 1-3.73.545c-1.502 0-2.812-.22-3.931-.593-2.64-.851-4.333-2.494-5.414-4.071-.029.038-.067.076-.096.124 1.511 2.284 4.333 4.788 9.441 4.788zm-2.782-9.796c.746.487 1.722.755 2.774.755s2.018-.268 2.764-.765c.402-.268.727-.602.928-.956v-.248c-.182.401-.536.803-.995 1.099-.717.478-1.674.736-2.688.736s-1.98-.258-2.697-.736c-.45-.296-.775-.803-.928-1.089v.229c.163.296.469.707.861.965l-.019.01z"/></g><path d="M60.158 28.766c-2.87-6.107-.593-9.442 1.416-12.376 1.224-1.797 2.382-3.488 2.382-5.658h.249c0 2.246-1.177 3.966-2.42 5.792-2.066 3.03-4.199 6.155-1.397 12.137l-.23.105z" class="B"/><path d="M56.934 25.421c2.066 1.873 5.079 2.867 8.704 2.867 3.826 0 6.944-1.099 9.03-3.183a8.98 8.98 0 0 0 2.104-3.345 10.87 10.87 0 0 0 .096-1.252 8.81 8.81 0 0 1-2.382 4.425c-2.028 2.036-5.089 3.106-8.848 3.106-3.558 0-6.514-.975-8.532-2.81a8.75 8.75 0 0 1-2.611-4.377 10.47 10.47 0 0 0 .134 1.214 9.082 9.082 0 0 0 2.315 3.345l-.01.009z" class="C"/><path d="M76.459 21.656a8.735 8.735 0 0 1-1.97 3.039c-2.028 2.036-5.089 3.106-8.848 3.106-3.558 0-6.514-.975-8.532-2.81a8.742 8.742 0 0 1-2.621-4.406c0 .363.029.717.076 1.08a8.93 8.93 0 0 0 2.372 3.507c2.066 1.873 5.079 2.867 8.704 2.867 3.826 0 6.944-1.099 9.029-3.183a8.984 8.984 0 0 0 1.77-2.523l.019-.688v.01z" class="B"/><path d="M76.861 20.28a8.2 8.2 0 0 1-.411 1.376l-.019.688.383-.937a8.92 8.92 0 0 0 .048-1.128zm-15.125-1.51c1.129.373 2.43.593 3.931.593 1.339 0 2.592-.181 3.73-.545-1.148.354-2.401.526-3.73.526-1.502 0-2.803-.22-3.931-.583v.01z" class="D"/><path d="M65.667 19.105c-4.945 0-7.7-2.399-9.182-4.606-.029.038-.067.076-.096.115-.019.029-.048.057-.067.086 1.071 1.567 2.774 3.221 5.414 4.071 1.129.363 2.43.583 3.931.583 1.339 0 2.583-.182 3.73-.526a10.405 10.405 0 0 0 3.769-2.055c-.076-.048-.153-.086-.23-.124-1.913 1.615-4.39 2.466-7.269 2.466v-.01zm9.278-4.492s-.057-.076-.096-.114l.134.172c-.019-.019-.029-.038-.048-.057h.01z" class="B"/><path d="m75.012 14.699-.029-.029-.134-.172a10.555 10.555 0 0 1-1.913 2.141l.23.124a10.62 10.62 0 0 0 1.837-2.064h.01z" class="D"/><path d="M59.326 18.904a.343.343 0 0 0-.344-.344.367.367 0 0 0-.287.143.39.39 0 0 1 .144-.029c.191 0 .344.153.344.344a.36.36 0 0 1-.067.201.352.352 0 0 0 .201-.315h.01z" class="C"/><use xlink:href="#F" class="B"/><path d="M63.278 17.7a.343.343 0 0 0-.344-.344.367.367 0 0 0-.287.143.388.388 0 0 1 .143-.029c.191 0 .344.153.344.344a.36.36 0 0 1-.067.201.352.352 0 0 0 .201-.315h.01z" class="C"/><use xlink:href="#F" x="3.951" y="-1.203" class="B"/><path d="M63.706 7.503a.182.182 0 0 0-.182-.182.169.169 0 0 0-.143.076.18.18 0 0 1 .077-.019c.096 0 .182.076.182.182a.143.143 0 0 1-.038.105.183.183 0 0 0 .105-.162z" class="C"/><path d="M63.342 7.503s.01-.076.038-.105c-.057.029-.105.086-.105.162s.077.182.182.182a.172.172 0 0 0 .144-.076.18.18 0 0 1-.077.019.181.181 0 0 1-.182-.182z" class="B"/><path d="M65.284 6.881a.181.181 0 0 0-.182-.182.172.172 0 0 0-.144.076.18.18 0 0 1 .076-.019c.096 0 .182.076.182.182 0 .038-.01.076-.038.105a.183.183 0 0 0 .105-.162z" class="C"/><path d="M64.921 6.881s.01-.076.038-.105c-.057.029-.105.086-.105.162s.077.182.182.182a.169.169 0 0 0 .143-.076.18.18 0 0 1-.077.019.181.181 0 0 1-.182-.182z" class="B"/><path d="M65.649 10.34c-1.023 0-1.98-.258-2.697-.736-.45-.296-.775-.803-.928-1.09v.229c.163.296.469.707.861.965.746.487 1.722.755 2.774.755.89 0 1.731-.201 2.41-.554l.048-.172c-.689.392-1.549.602-2.468.602z" class="E"/><path d="M69.321 8.496c-.172.401-.526.803-.976 1.099l-.23.134-.048.172.344-.201c.402-.268.727-.602.928-.956v-.248h-.019z" class="B"/><path d="M65.907 3.345c.277.162.287.421 0 .583s-.717.153-.995 0-.287-.411 0-.573.727-.162.995 0v-.01z" class="D"/><path d="M65.667 2.418c.296-.87 0-.573 0-2.418 0 2.036-.775 2.485-.775 3.259 0 .717.775.698.775.698s.545 0 .717-.411c-.497.421-1.052-.182-.727-1.128h.01z" class="B"/><path d="M65.668 0c0 1.854.296 1.548 0 2.418-.325.946.23 1.548.727 1.128a.8.8 0 0 0 .057-.287c0-.784-.775-1.233-.775-3.259h-.01zm-1.867 35.79.038.219-.048.029v-.248h.019-.009z" class="D"/><g class="E"><path d="M94.494 43.665 72.437 56.233v-5.151l22.057-12.567v5.151zM72.437 51.082 40.527 32.78v5.123l31.909 18.302v-5.123z"/></g><g class="G"><path d="M93.711 42.088s.067-.076.096-.096c.038-.019.067-.019.096 0s.038.048.038.086c0 .048-.019.096-.048.143s-.057.076-.086.096c-.038.019-.067.029-.096.009s-.038-.048-.038-.086.01-.086.048-.143l-.01-.01zm-.689.64s.067-.019.096 0c.019.009.029.019.029.038 0-.029.019-.057.038-.086a.3.3 0 0 1 .096-.096c.038-.019.067-.019.096 0 .01.01.029.019.029.038 0-.029.019-.057.038-.086a.3.3 0 0 1 .096-.096c.038-.019.067-.019.096 0s.038.048.038.086a.28.28 0 0 1-.048.143.3.3 0 0 1-.096.096c-.038.019-.067.019-.096 0-.019 0-.029-.019-.038-.038 0 .029-.019.057-.038.086a.3.3 0 0 1-.096.096c-.038.019-.067.019-.096 0-.019 0-.029-.019-.038-.038 0 .029-.019.057-.038.086-.029.048-.057.076-.096.096s-.067.029-.096.01-.038-.048-.038-.086.019-.086.048-.143a.3.3 0 0 1 .096-.096l.019-.009zM92.755 41.104s.067-.019.096 0c.01.009.029.019.029.038 0-.029.019-.057.038-.086a.3.3 0 0 1 .096-.096c.038-.019.067-.019.096 0 .009.01.029.019.029.038 0-.029.019-.057.038-.086a.31.31 0 0 1 .096-.096c.038-.019.067-.019.096 0 .019.01.029.019.029.038 0-.029.019-.057.038-.086a.3.3 0 0 1 .096-.096c.038-.019.067-.019.096 0 .01.01.029.019.029.038 0-.029.019-.057.038-.086a.31.31 0 0 1 .096-.096c.038-.019.067-.019.096 0s.038.048.038.086a.277.277 0 0 1-.048.143c-.019.029-.029.048-.048.067.019 0 .038 0 .057.01.029.019.038.048.038.086a.277.277 0 0 1-.048.143c-.019.029-.029.048-.048.067.019 0 .038 0 .057.01.029.019.038.048.038.086a.277.277 0 0 1-.048.143.3.3 0 0 1-.096.096c-.038.019-.067.019-.096 0-.019 0-.029-.019-.038-.038 0 .029-.019.057-.038.086a.3.3 0 0 1-.096.096c-.038.019-.067.019-.096 0-.019 0-.029-.019-.038-.038 0 .029-.019.057-.038.086a.3.3 0 0 1-.096.096c-.038.019-.067.019-.096 0-.019 0-.029-.019-.038-.038 0 .029-.019.057-.038.086-.029.048-.057.077-.096.096s-.067.029-.096.009-.038-.048-.038-.086.019-.086.048-.143a.3.3 0 0 1 .096-.096c.038-.019.067-.019.096 0 .01.01.029.019.029.038 0-.029.019-.057.038-.086a.3.3 0 0 1 .096-.096c.038-.019.067-.019.096 0 .01.009.029.019.029.038 0-.029.019-.057.038-.086a.3.3 0 0 1 .096-.096c.038-.019.067-.019.096 0 .019.01.029.019.029.038 0-.029.019-.057.038-.086s.029-.048.048-.067h-.057c-.029-.019-.038-.048-.038-.086s.01-.086.048-.143c.019-.029.029-.048.048-.067h-.057c-.019 0-.029-.019-.038-.038 0 .029-.019.057-.038.086a.3.3 0 0 1-.096.096c-.038.019-.067.019-.096 0-.019 0-.029-.019-.038-.038 0 .029-.019.057-.038.086a.3.3 0 0 1-.096.096c-.038.019-.067.019-.096 0-.019 0-.029-.019-.038-.038 0 .029-.019.057-.038.086a.3.3 0 0 1-.096.096c-.038.019-.067.019-.096 0-.019 0-.029-.019-.038-.038 0 .029-.019.057-.038.086a.31.31 0 0 1-.096.096c-.038.019-.067.019-.096 0s-.038-.048-.038-.086.019-.086.048-.143a.3.3 0 0 1 .096-.096l.067-.029zm-.135 1.128s.019-.086.048-.143a.3.3 0 0 1 .096-.096c.038-.019.067-.019.096 0s.038.048.038.086a.277.277 0 0 1-.048.143c-.019.029-.029.048-.048.067.019 0 .038 0 .057.009.029.019.038.048.038.086a.277.277 0 0 1-.048.143c-.019.029-.029.048-.048.067.019 0 .038 0 .057.01.029.019.038.048.038.086 0 .048-.019.096-.048.143s-.057.077-.096.096-.067.029-.096.01-.038-.048-.038-.086.019-.086.048-.143c.019-.029.029-.048.048-.067h-.057c-.029-.019-.038-.048-.038-.086s.019-.086.048-.143c.019-.029.029-.048.048-.067h-.057c-.029-.019-.038-.048-.038-.086v-.029zm-1.156 1.385s.067-.019.096 0c.01.01.029.019.029.038 0-.029.019-.057.038-.086a.3.3 0 0 1 .096-.096c.038-.019.067-.019.096 0 .01.01.029.019.029.038 0-.029.019-.057.038-.086a.3.3 0 0 1 .096-.096c.038-.019.067-.019.096 0s.038.048.038.086a.277.277 0 0 1-.048.143.3.3 0 0 1-.096.096c-.038.019-.067.019-.096 0-.019 0-.029-.019-.029-.038 0 .029-.019.057-.038.086a.31.31 0 0 1-.096.096c-.038.019-.067.019-.096 0-.019 0-.029-.019-.029-.038 0 .029-.019.057-.038.086-.029.048-.057.077-.096.096s-.067.029-.096 0c-.029-.019-.038-.048-.038-.086s.019-.086.048-.143a.3.3 0 0 1 .096-.096zM92.152 42.976s.029-.048.048-.067h-.057c-.029-.019-.038-.048-.038-.086s.019-.086.048-.143c.019-.019.029-.048.048-.067h-.057c-.019 0-.029-.019-.029-.038 0 .029-.019.057-.038.086a.3.3 0 0 1-.096.096c-.038.019-.067.019-.096 0-.019 0-.029-.019-.029-.038 0 .029-.019.057-.038.086a.3.3 0 0 1-.096.096c-.038.019-.067.019-.096 0-.019 0-.029-.019-.029-.038 0 .029-.019.057-.038.086a.3.3 0 0 1-.096.096c-.038.019-.067.019-.096 0s-.038-.048-.038-.086.019-.086.048-.143a.3.3 0 0 1 .096-.096c.038-.019.067-.019.096 0 .01.01.029.019.029.038 0-.029.019-.057.038-.086a.3.3 0 0 1 .096-.096c.038-.019.067-.019.096 0 .019.01.029.019.029.038 0-.029.019-.057.038-.086a.3.3 0 0 1 .096-.096c.038-.019.067-.019.096 0 .019.01.029.019.029.038 0-.029.019-.057.038-.086.019-.019.029-.048.048-.067h-.057c-.029-.019-.038-.048-.038-.086s.019-.086.048-.143c.019-.019.029-.048.048-.067h-.057c-.029-.019-.038-.048-.038-.086s.019-.086.048-.143a.3.3 0 0 1 .096-.096c.038-.019.067-.019.096 0s.038.048.038.086a.277.277 0 0 1-.048.143c-.019.029-.029.048-.048.067.019 0 .038 0 .057.009.029.019.038.048.038.086a.277.277 0 0 1-.048.143c-.019.029-.029.048-.048.067.019 0 .038 0 .057.01.029.019.038.048.038.086a.28.28 0 0 1-.048.143c-.019.029-.029.048-.048.067.019 0 .038 0 .057.01.029.019.038.048.038.086a.277.277 0 0 1-.048.143c-.019.029-.029.048-.048.067.019 0 .038 0 .057.01.029.019.038.048.038.086 0 .048-.019.096-.048.143s-.057.076-.096.096-.067.029-.096.01-.038-.048-.038-.086.019-.086.048-.143v-.048zM91.971 41.868s-.067.019-.096 0c-.019 0-.029-.019-.038-.038 0 .029-.019.057-.038.086a.3.3 0 0 1-.096.096c-.038.019-.067.019-.096 0-.019 0-.029-.019-.029-.038 0 .029-.019.057-.038.086a.23.23 0 0 1-.096.096c-.038.019-.067.029-.096 0-.029-.019-.038-.048-.038-.086s.019-.086.048-.143a.3.3 0 0 1 .096-.096c.038-.019.067-.019.096 0 .019.01.029.019.029.038 0-.029.019-.057.038-.086a.3.3 0 0 1 .096-.096c.038-.019.067-.019.096 0 .019.009.029.019.029.038 0-.029.019-.057.038-.086a.3.3 0 0 1 .096-.096c.038-.019.067-.019.096 0s.038.048.038.086a.277.277 0 0 1-.048.143.3.3 0 0 1-.096.096h.01zm-.909 1.548s.01-.086.048-.143a.3.3 0 0 1 .096-.096c.038-.019.067-.019.096 0s.038.048.038.086a.277.277 0 0 1-.048.143c-.019.029-.029.048-.048.067.019 0 .038 0 .057.01.029.019.038.048.038.086 0 .048-.019.096-.048.143s-.057.076-.086.096c-.038.019-.067.029-.096.01s-.038-.048-.038-.086.01-.086.048-.143c.019-.019.029-.048.048-.067h-.057c-.029-.019-.038-.048-.038-.086l-.01-.019z"/><use xlink:href="#G"/><path d="M90.325 44.238s.038.01.057 0c-.019.019-.029.038-.048.067a.314.314 0 0 0-.048.143c0 .038.01.076.038.086.029.019.057.01.096-.01a.45.45 0 0 0 .096-.096.34.34 0 0 0 .038-.086c0 .019.019.029.038.038.029.019.057.01.096 0a.3.3 0 0 0 .096-.096.284.284 0 0 0 .048-.143c0-.038-.01-.067-.038-.086-.019-.01-.038-.019-.057-.01.019-.019.029-.038.048-.067a.284.284 0 0 0 .048-.143c0-.038-.01-.067-.038-.086s-.057-.019-.096 0a.3.3 0 0 0-.096.096.324.324 0 0 0-.038.086c0-.019-.019-.029-.029-.038-.029-.019-.057-.019-.096 0a.3.3 0 0 0-.096.096.314.314 0 0 0-.048.143c0 .038.01.077.038.086l-.01.019zm.143-.038.048-.067a.324.324 0 0 0 .038-.086c0 .019.019.029.038.038.019 0 .038.01.057 0-.019.019-.029.038-.048.067s-.029.057-.038.086c0-.019-.019-.029-.029-.038-.019-.01-.038-.019-.057-.01l-.01.01zm-.832-.411s-.067.029-.096.01-.038-.048-.038-.086.019-.086.048-.143a.3.3 0 0 1 .096-.096c.038-.019.067-.019.096 0s.038.048.038.086a.277.277 0 0 1-.048.143.23.23 0 0 1-.096.096v-.01z"/><path d="M88.862 44.516s.067-.019.096 0c.019.01.029.019.029.038 0-.029.019-.057.038-.086.019-.019.029-.048.048-.067h-.057c-.029-.019-.038-.048-.038-.086s.019-.086.048-.143c.019-.019.029-.048.048-.067h-.057c-.029-.019-.038-.048-.038-.086s.019-.086.048-.143c.019-.019.029-.048.048-.067h-.057c-.029-.019-.038-.048-.038-.086s.019-.086.048-.143c.019-.019.029-.048.048-.067h-.057c-.029-.019-.038-.048-.038-.086s.019-.086.048-.143a.3.3 0 0 1 .096-.095c.038-.019.067-.019.096 0s.038.048.038.086a.277.277 0 0 1-.048.143c-.019.029-.029.048-.048.067.019 0 .038 0 .057.01.01.009.029.019.029.038 0-.029.019-.057.038-.086a.3.3 0 0 1 .096-.096c.038-.019.067-.019.096 0s.038.048.038.086c0 .048-.019.096-.048.143s-.067.076-.096.096c-.038.019-.067.019-.096 0-.019 0-.029-.019-.029-.038 0 .029-.019.057-.038.086s-.029.048-.048.067c.019 0 .038 0 .057.01.029.019.038.048.038.086a.277.277 0 0 1-.048.143c-.019.029-.029.048-.048.067.019 0 .038 0 .057.009.029.019.038.048.038.086a.277.277 0 0 1-.048.143c-.019.029-.029.048-.048.067.019 0 .038 0 .057.01s.029.019.029.038c0-.029.019-.057.038-.086a.3.3 0 0 1 .096-.096c.038-.019.067-.019.096 0 .01.01.029.019.029.038 0-.029.019-.057.038-.086.029-.048.057-.077.096-.096s.067-.019.096 0c.019.01.029.019.029.038 0-.029.019-.057.038-.086.019-.019.029-.048.048-.067h-.057c-.029-.019-.038-.048-.038-.086s.019-.086.048-.143a.3.3 0 0 1 .096-.096c.038-.019.067-.019.096 0s.038.048.038.086a.277.277 0 0 1-.048.143c-.019.029-.029.048-.048.067.019 0 .038 0 .057.009.029.019.038.048.038.086a.277.277 0 0 1-.048.143.3.3 0 0 1-.096.096c-.038.019-.067.019-.096 0-.019 0-.029-.019-.038-.038 0 .029-.019.057-.038.086a.3.3 0 0 1-.096.095c-.038.019-.067.019-.096 0-.019 0-.029-.019-.029-.038 0 .029-.019.057-.038.086a.3.3 0 0 1-.096.096c-.038.019-.067.019-.096 0-.019 0-.029-.019-.029-.038 0 .029-.019.057-.038.086s-.029.048-.048.067c.019 0 .038 0 .057.009.029.019.038.048.038.086a.277.277 0 0 1-.048.143c-.019.029-.029.048-.048.067.019 0 .038 0 .057.009.029.019.038.048.038.086 0 .048-.019.096-.048.143s-.057.076-.096.096-.067.029-.096.01-.038-.048-.038-.086.019-.086.048-.143c.019-.029.029-.048.048-.067h-.057c-.029-.019-.038-.048-.038-.086s.019-.086.048-.143c.019-.019.029-.048.048-.067h-.057c-.019 0-.029-.019-.029-.038 0 .029-.019.057-.038.086a.31.31 0 0 1-.096.096c-.038.019-.067.019-.096 0s-.038-.048-.038-.086.019-.086.048-.143a.3.3 0 0 1 .096-.096l.009-.076zm-1.302 1.328s.067-.019.096 0c.019.01.029.019.029.038 0-.029.019-.057.038-.086a.3.3 0 0 1 .096-.096c.038-.019.067-.019.096 0 .01.01.029.019.029.038 0-.029.019-.057.038-.086a.3.3 0 0 1 .096-.096c.038-.019.067-.019.096 0s.038.048.038.086a.277.277 0 0 1-.048.143.3.3 0 0 1-.096.096c-.038.019-.067.019-.096 0-.019 0-.029-.019-.038-.038 0 .029-.019.057-.038.086a.3.3 0 0 1-.096.096c-.038.019-.067.019-.096 0-.019 0-.029-.019-.038-.038 0 .029-.019.057-.038.086a.23.23 0 0 1-.096.095c-.038.019-.067.029-.096.01s-.038-.048-.038-.086.01-.086.048-.143a.31.31 0 0 1 .096-.096l.019-.01zM88.479 44.296s-.019.096-.048.143-.057.076-.086.095c-.038.019-.067.029-.096.01s-.038-.048-.038-.086.01-.086.048-.143c.019-.029.029-.048.048-.067h-.057c-.029-.019-.038-.048-.038-.086s.01-.086.048-.143a.3.3 0 0 1 .096-.096c.038-.019.067-.019.096 0s.038.048.038.086a.277.277 0 0 1-.048.143c-.019.029-.029.048-.048.067.019 0 .038 0 .057.009.029.019.038.048.038.086l-.009-.019zM88.078 44.086s-.067.019-.096 0c-.019 0-.029-.019-.038-.038 0 .029-.019.057-.038.086a.3.3 0 0 1-.096.096c-.038.019-.067.019-.096 0-.019 0-.029-.019-.038-.038 0 .029-.019.057-.038.086-.029.048-.057.076-.096.096s-.067.029-.096.01-.038-.048-.038-.086.01-.086.048-.143a.3.3 0 0 1 .096-.096c.038-.019.067-.019.096 0 .01.01.029.019.029.038 0-.029.019-.057.038-.086a.3.3 0 0 1 .096-.096c.038-.019.067-.019.096 0 .019.01.029.019.029.038 0-.029.019-.057.038-.086a.3.3 0 0 1 .096-.096c.038-.019.067-.019.096 0s.038.048.038.086c0 .048-.019.096-.048.143s-.067.076-.096.096l.019-.01zm.171 1.108s.067-.076.096-.096c.038-.019.067-.019.096 0s.038.048.038.086c0 .048-.019.096-.048.143s-.057.076-.086.096c-.038.019-.067.029-.096.01s-.038-.048-.038-.086.01-.086.048-.143l-.01-.01zM87.16 44.745s.019-.086.048-.143a.3.3 0 0 1 .096-.096c.038-.019.067-.019.096 0s.038.048.038.086a.277.277 0 0 1-.048.143c-.019.029-.029.048-.048.067.019 0 .038 0 .057.01.029.019.038.048.038.086a.277.277 0 0 1-.048.143c-.019.029-.029.048-.048.067.019 0 .038 0 .057.01s.029.019.029.038c0-.029.019-.057.038-.086a.3.3 0 0 1 .096-.096c.038-.019.067-.019.096 0 .01.01.029.019.029.038 0-.029.019-.057.038-.086a.3.3 0 0 1 .096-.096c.038-.019.067-.019.096 0 .01.01.029.019.029.038 0-.029.019-.057.038-.086a.31.31 0 0 1 .096-.096c.038-.019.067-.019.096 0s.038.048.038.086a.277.277 0 0 1-.048.143.3.3 0 0 1-.096.096c-.038.019-.067.019-.096 0-.019 0-.029-.019-.038-.038 0 .029-.019.057-.038.086a.3.3 0 0 1-.096.096c-.038.019-.067.019-.096 0-.019 0-.029-.019-.038-.038 0 .029-.019.057-.038.086a.3.3 0 0 1-.096.096c-.038.019-.067.019-.096 0-.019 0-.029-.019-.038-.038 0 .029-.019.057-.038.086s-.029.048-.048.067c.019 0 .038 0 .057.01.029.019.038.048.038.086a.277.277 0 0 1-.048.143c-.019.029-.029.048-.048.067.019 0 .038 0 .057.009.029.019.038.048.038.086 0 .048-.019.096-.048.143s-.057.077-.096.096-.067.029-.096.009-.038-.048-.038-.086.019-.086.048-.143c.019-.029.029-.048.048-.067h-.057c-.029-.019-.038-.048-.038-.086s.019-.086.048-.143c.019-.029.029-.048.048-.067h-.057c-.029-.019-.038-.048-.038-.086s.019-.086.048-.143c.019-.029.029-.048.048-.067h-.057c-.029-.019-.038-.048-.038-.086s.019-.086.048-.143c.019-.029.029-.048.048-.067h-.057c-.029-.019-.038-.048-.038-.086l.029-.048zm-5.874 3.344s.019-.086.048-.143a.3.3 0 0 1 .096-.096c.038-.019.067-.019.096 0s.038.048.038.086a.277.277 0 0 1-.048.143c-.019.029-.029.048-.048.067.019 0 .038 0 .057.01.029.019.038.048.038.086a.277.277 0 0 1-.048.143.23.23 0 0 1-.096.096c-.038.019-.067.029-.096.01s-.038-.048-.038-.086.019-.086.048-.143c.019-.019.029-.048.048-.067h-.057c-.029-.019-.038-.048-.038-.086v-.019zm1.1.45s.067-.076.096-.096c.038-.019.067-.019.096 0s.038.048.038.086c0 .048-.019.096-.048.143s-.057.076-.096.096-.067.029-.096.01-.038-.048-.038-.086.019-.086.048-.143v-.01zm-.688.65s.067-.019.096 0c.01.01.029.019.029.038 0-.029.019-.057.038-.086a.3.3 0 0 1 .096-.096c.038-.019.067-.019.096 0 .01.01.029.019.029.038 0-.029.019-.057.038-.086a.3.3 0 0 1 .096-.096c.038-.019.067-.019.096 0s.038.048.038.086a.277.277 0 0 1-.048.143.3.3 0 0 1-.096.096c-.038.019-.067.019-.096 0-.019 0-.029-.019-.038-.038 0 .029-.019.057-.038.086a.3.3 0 0 1-.096.095c-.038.019-.067.019-.096 0-.019 0-.029-.019-.029-.038 0 .029-.019.057-.038.086-.029.048-.057.077-.096.096s-.067.029-.096.01-.038-.048-.038-.086.019-.086.048-.143a.3.3 0 0 1 .096-.096l.01-.01zM81.296 48.979s.019-.086.048-.143c.029-.048.057-.076.096-.096s.067-.019.096 0 .038.048.038.086a.277.277 0 0 1-.048.143c-.019.029-.029.048-.048.067.019 0 .038 0 .057.009.029.019.038.048.038.086 0 .048-.019.096-.048.143s-.057.077-.096.096-.067.029-.096.009-.038-.048-.038-.086.019-.086.048-.143c.019-.019.029-.048.048-.067h-.057c-.029-.019-.038-.048-.038-.086v-.019zm.497-.679s.029.019.029.038c0-.029.019-.057.038-.086a.3.3 0 0 1 .096-.096c.038-.019.067-.019.096 0s.038.048.038.086a.277.277 0 0 1-.048.143.3.3 0 0 1-.096.096c-.038.019-.067.019-.096 0-.019 0-.029-.019-.029-.038 0 .029-.019.057-.038.086-.029.048-.057.076-.096.096s-.067.029-.096.01-.038-.048-.038-.086.019-.086.048-.143a.3.3 0 0 1 .096-.096c.038-.019.067-.019.096 0v-.01zm.412-.87s-.067.019-.096 0c-.019 0-.029-.019-.038-.038 0 .029-.019.057-.038.086a.3.3 0 0 1-.096.096c-.038.019-.067.019-.096 0-.019 0-.029-.019-.038-.038 0 .029-.019.057-.038.086a.23.23 0 0 1-.096.096c-.038.019-.067.029-.096.01s-.038-.048-.038-.086.019-.086.048-.143a.31.31 0 0 1 .096-.096c.038-.019.067-.019.096 0 .019.01.029.019.029.038 0-.029.019-.057.038-.086a.3.3 0 0 1 .096-.096c.038-.019.067-.019.096 0 .019.009.029.019.029.038 0-.029.019-.057.038-.086a.31.31 0 0 1 .096-.096c.038-.019.067-.019.096 0s.038.048.038.086a.277.277 0 0 1-.048.143.3.3 0 0 1-.096.096l.019-.01zM82.472 47.574s-.067.029-.096.009-.038-.048-.038-.086.019-.086.048-.143a.3.3 0 0 1 .096-.096c.038-.019.067-.019.096 0s.038.048.038.086c0 .048-.019.096-.048.143s-.057.077-.096.096v-.009zm-1.693 1.997s.01-.086.048-.143a.3.3 0 0 1 .096-.096c.038-.019.067-.019.096 0s.038.048.038.086a.277.277 0 0 1-.048.143c-.019.029-.029.048-.048.067.019 0 .038 0 .057.009.029.019.038.048.038.086 0 .048-.019.096-.048.143s-.057.076-.086.096c-.038.019-.067.029-.096.009s-.038-.048-.038-.086.01-.086.048-.143c.019-.029.029-.048.048-.067h-.057c-.029-.019-.038-.048-.038-.086l-.01-.019zM80.654 49.189s.067-.019.096 0 .038.048.038.086c0 .048-.019.096-.048.143s-.057.077-.086.096c-.038.019-.067.029-.096.009s-.038-.048-.038-.086.01-.086.048-.143a.3.3 0 0 1 .096-.096l-.01-.01zm-.927-.507s.01-.086.048-.143a.3.3 0 0 1 .096-.096c.038-.019.067-.019.096 0 .01.01.029.019.029.038 0-.029.019-.057.038-.086a.3.3 0 0 1 .096-.096c.038-.019.067-.019.096 0 .01.01.029.019.029.038 0-.029.019-.057.038-.086a.3.3 0 0 1 .096-.096c.038-.019.067-.019.096 0 .019.01.029.019.029.038 0-.029.019-.057.038-.086a.3.3 0 0 1 .096-.096c.038-.019.067-.019.096 0 .019.01.029.019.029.038 0-.029.019-.057.038-.086a.31.31 0 0 1 .096-.096c.038-.019.067-.019.096 0s.038.048.038.086a.277.277 0 0 1-.048.143.3.3 0 0 1-.096.096c-.038.019-.067.019-.096 0-.019 0-.029-.019-.038-.038 0 .029-.019.057-.038.086a.3.3 0 0 1-.096.095c-.038.019-.067.019-.096 0-.019 0-.029-.019-.038-.038 0 .029-.019.057-.038.086a.3.3 0 0 1-.096.096c-.038.019-.067.019-.096 0-.019 0-.029-.019-.038-.038 0 .029-.019.057-.038.086a.3.3 0 0 1-.096.096c-.038.019-.067.019-.096 0-.019 0-.029-.019-.038-.038 0 .029-.019.057-.038.086s-.029.048-.048.067c.019 0 .038 0 .057.01.029.019.038.048.038.086a.277.277 0 0 1-.048.143.23.23 0 0 1-.096.095c-.038.019-.067.029-.096.01s-.038-.048-.038-.086.009-.086.048-.143c.019-.029.029-.048.048-.067h-.057c-.029-.019-.038-.048-.038-.086l.038-.019zM80.129 48.893s.067-.019.096 0 .038.048.038.086c0 .048-.019.095-.048.143s-.057.077-.096.096-.067.029-.096.01-.038-.048-.038-.086.01-.086.048-.143a.3.3 0 0 1 .096-.096v-.01z"/><use xlink:href="#H"/><path d="M79 50.699s.038.01.057 0c-.019.019-.029.038-.048.067a.314.314 0 0 0-.048.143c0 .038.019.076.038.086.029.019.057.01.096-.01a.3.3 0 0 0 .096-.095.34.34 0 0 0 .038-.086c0 .019.019.029.038.038.029.019.057.009.096 0a.3.3 0 0 0 .096-.096.284.284 0 0 0 .048-.143c0-.038-.009-.067-.038-.086-.019-.01-.038-.019-.057-.01.019-.019.029-.038.048-.067a.284.284 0 0 0 .048-.143c0-.038-.009-.067-.038-.086s-.057-.019-.096 0a.3.3 0 0 0-.096.096.324.324 0 0 0-.038.086c0-.019-.019-.029-.029-.038-.029-.019-.057-.019-.096 0a.3.3 0 0 0-.096.096.314.314 0 0 0-.048.143c0 .038.009.076.038.086l-.009.019zm.143-.038.048-.067a.324.324 0 0 0 .038-.086c0 .019.019.029.038.038.019 0 .038.01.057 0-.019.019-.029.038-.048.067s-.029.057-.038.086c0-.019-.019-.029-.029-.038-.019-.01-.038-.019-.057-.009l-.01.009zm-.707.239s.01-.086.048-.143a.3.3 0 0 1 .096-.096c.038-.019.067-.019.096 0s.038.048.038.086a.277.277 0 0 1-.048.143c-.019.029-.029.048-.048.067.019 0 .038 0 .057.01.029.019.038.048.038.086 0 .048-.019.096-.048.143s-.057.076-.086.096c-.038.019-.067.029-.096.01s-.038-.048-.038-.086.01-.086.048-.143c.019-.029.029-.048.048-.067h-.057c-.029-.019-.038-.048-.038-.086l-.01-.019z"/><use xlink:href="#G" x="-12.874" y="8.229"/><use xlink:href="#H" x="-2.344" y="1.33"/><path d="M77.795 50.23s.067-.019.096 0 .038.048.038.086c0 .048-.019.096-.048.143s-.057.077-.086.096c-.038.019-.067.029-.096.01s-.038-.048-.038-.086.01-.086.048-.143a.3.3 0 0 1 .096-.096l-.009-.009zM77.393 50.02s.01-.086.048-.143a.3.3 0 0 1 .096-.096c.038-.019.067-.019.096 0 .01.009.029.019.029.038 0-.029.019-.057.038-.086a.31.31 0 0 1 .096-.096c.038-.019.067-.019.096 0 .01.01.029.019.029.038 0-.029.019-.057.038-.086a.3.3 0 0 1 .096-.096c.038-.019.067-.019.096 0 .019.01.029.019.029.038 0-.029.019-.057.038-.086a.3.3 0 0 1 .096-.096c.038-.019.067-.019.096 0 .01.01.029.029.029.038 0-.029.019-.057.038-.086a.3.3 0 0 1 .096-.096c.038-.019.067-.019.096 0s.038.048.038.086a.277.277 0 0 1-.048.143.3.3 0 0 1-.096.096c-.038.019-.067.019-.096 0-.019 0-.029-.019-.038-.038 0 .029-.019.057-.038.086a.31.31 0 0 1-.096.096c-.038.019-.067.019-.096 0-.019 0-.029-.019-.038-.038 0 .029-.019.057-.038.086a.3.3 0 0 1-.096.096c-.038.019-.067.019-.096 0-.019 0-.029-.019-.038-.038 0 .029-.019.057-.038.086a.3.3 0 0 1-.096.096c-.038.019-.067.019-.096 0-.019 0-.029-.019-.038-.038 0 .029-.019.057-.038.086s-.029.048-.048.067c.019 0 .038 0 .057.01.029.019.038.048.038.086 0 .048-.019.096-.048.143s-.057.076-.096.096-.067.029-.096.01-.038-.048-.038-.086.01-.086.048-.143c.019-.029.029-.048.048-.067h-.057c-.029-.019-.038-.048-.038-.086l.038-.019zm-1.157 2.274s.067-.019.096 0c.01.01.029.019.029.038 0-.029.019-.057.038-.086s.029-.048.048-.067h-.057c-.029-.019-.038-.048-.038-.086s.019-.086.048-.143c.019-.019.029-.048.048-.067h-.057c-.029-.019-.038-.048-.038-.086s.019-.086.048-.143c.019-.019.029-.048.048-.067h-.057c-.029-.019-.038-.048-.038-.086s.019-.086.048-.143c.019-.019.029-.048.048-.067h-.057c-.029-.019-.038-.048-.038-.086s.019-.086.048-.143c.019-.019.029-.048.048-.067h-.057c-.029-.019-.038-.048-.038-.086s.019-.086.048-.143c.019-.019.029-.048.048-.067h-.057c-.029-.019-.038-.048-.038-.086s.019-.086.048-.143a.3.3 0 0 1 .096-.096c.038-.019.067-.019.096 0s.038.048.038.086a.277.277 0 0 1-.048.143c-.019.029-.029.048-.048.067.019 0 .038 0 .057.01.01.01.029.019.029.038 0-.029.019-.057.038-.086a.3.3 0 0 1 .096-.096c.038-.019.067-.019.096 0s.038.048.038.086a.277.277 0 0 1-.048.143.3.3 0 0 1-.096.096c-.038.019-.067.019-.096 0-.019 0-.029-.019-.038-.038 0 .029-.019.057-.038.086s-.029.048-.048.067c.019 0 .038 0 .057.01.029.019.038.048.038.086a.277.277 0 0 1-.048.143c-.019.029-.029.048-.048.067.019 0 .038 0 .057.01.029.019.038.048.038.086a.28.28 0 0 1-.048.143c-.019.029-.029.048-.048.067.019 0 .038 0 .057.01.029.019.038.048.038.086a.277.277 0 0 1-.048.143c-.019.029-.029.048-.048.067.019 0 .038 0 .057.01.029.019.038.048.038.086a.277.277 0 0 1-.048.143c-.019.029-.029.048-.048.067.019 0 .038 0 .057.009.01.01.029.019.029.038 0-.029.019-.057.038-.086a.3.3 0 0 1 .096-.096c.038-.019.067-.019.096 0s.038.048.038.086a.277.277 0 0 1-.048.143.3.3 0 0 1-.096.096c-.038.019-.067.019-.096 0-.019 0-.029-.019-.038-.038 0 .029-.019.057-.038.086a.31.31 0 0 1-.096.096c-.038.019-.067.019-.096 0-.019 0-.029-.019-.029-.038 0 .029-.019.057-.038.086-.029.048-.057.077-.096.096s-.067.029-.096.01-.038-.048-.038-.086.019-.086.048-.143a.3.3 0 0 1 .096-.096l.019-.067zm9.545-5.599s.067-.019.096 0 .038.048.038.086c0 .048-.01.086-.038.134s-.057.077-.096.105c-.038.019-.067.019-.096 0s-.038-.048-.038-.077c0-.048.019-.096.048-.143s.057-.077.096-.096l-.009-.01z"/><use xlink:href="#I"/><path d="M85.428 46.866s-.038-.048-.038-.077a.28.28 0 0 1 .048-.143.3.3 0 0 1 .096-.096c.038-.019.067-.019.096 0s.038.048.038.086a.26.26 0 0 1-.038.134.34.34 0 0 1-.096.105c-.038.019-.067.019-.096 0l-.01-.01zm-.287.383a.29.29 0 0 1-.134.229c-.077.038-.134.01-.134-.076s.057-.182.134-.229c.076-.038.134 0 .134.077zM85.17 46.494s.067-.077.096-.096c.038-.019.067-.019.096 0s.038.048.038.086c0 .048-.01.086-.038.134a.34.34 0 0 1-.096.105c-.038.019-.067.019-.096 0s-.038-.048-.038-.086c0-.048.019-.096.048-.143h-.009zm-.039.392a.288.288 0 0 1-.134.229c-.077.038-.134 0-.134-.077s.057-.182.134-.229c.076-.038.134 0 .134.076zm-.487.133s-.038-.048-.038-.077c0-.048.019-.096.048-.143a.3.3 0 0 1 .096-.096c.038-.019.067-.019.096 0s.038.048.038.086c0 .048-.01.086-.038.134a.34.34 0 0 1-.096.105c-.038.019-.067.019-.096 0l-.01-.009zM84.997 46.571s-.067.019-.096 0-.038-.048-.038-.077c0-.048.019-.096.048-.143a.3.3 0 0 1 .096-.096c.038-.019.067-.019.096 0s.038.048.038.086c0 .048-.01.086-.038.134a.34.34 0 0 1-.096.105l-.01-.009zm-.611.668s.067-.076.096-.096c.038-.019.067-.019.096 0s.038.048.038.086a.27.27 0 0 1-.038.134.326.326 0 0 1-.096.105c-.038.019-.067.019-.096 0s-.038-.048-.038-.077c0-.048.019-.096.048-.143l-.01-.01zm-.163.344s.067-.019.096 0 .038.048.038.086a.27.27 0 0 1-.038.134.326.326 0 0 1-.096.105c-.038.019-.067.019-.096 0s-.038-.048-.038-.076c0-.048.019-.096.048-.143a.3.3 0 0 1 .096-.096l-.01-.01zM84.779 47.45a.288.288 0 0 1-.134.229c-.077.038-.134 0-.134-.076a.29.29 0 0 1 .134-.229c.076-.038.134 0 .134.076zm-10.045 5.543s.067-.019.096 0 .038.048.038.086c0 .048-.01.086-.038.134s-.057.076-.096.105c-.038.019-.067.019-.096 0s-.038-.048-.038-.077c0-.048.019-.096.048-.143s.057-.077.096-.096l-.01-.01zM74.371 53.165s-.038-.048-.038-.076c0-.048.019-.096.048-.143a.3.3 0 0 1 .096-.096c.038-.019.067-.019.096 0s.038.048.038.086-.01.086-.038.134a.34.34 0 0 1-.096.105c-.038.019-.067.019-.096 0l-.009-.01zM73.949 52.869s-.067.019-.096 0-.038-.048-.038-.077a.28.28 0 0 1 .048-.143.3.3 0 0 1 .096-.096c.038-.019.067-.019.096 0s.038.048.038.086c0 .048-.01.086-.038.134a.34.34 0 0 1-.096.105l-.01-.01zm-.879 1.118s.067-.077.096-.096c.038-.019.067-.019.096 0s.038.048.038.086a.26.26 0 0 1-.038.134.337.337 0 0 1-.096.105c-.038.019-.067.019-.096 0s-.038-.048-.038-.076c0-.048.019-.096.048-.143l-.01-.01zm.65-.239a.288.288 0 0 1-.134.229c-.076.038-.134 0-.134-.076 0-.086.058-.182.134-.229.076-.038.134 0 .134.076zM73.338 53.537s.067-.077.096-.096c.038-.019.067-.019.096 0s.038.048.038.086a.26.26 0 0 1-.038.134.34.34 0 0 1-.096.105c-.038.019-.067.019-.096 0s-.038-.048-.038-.076c0-.048.019-.096.048-.143l-.01-.01zm.248-.219s-.038-.048-.038-.076c0-.048.019-.096.048-.143a.3.3 0 0 1 .096-.096c.038-.019.067-.019.096 0s.038.048.038.086a.237.237 0 0 1-.038.134.34.34 0 0 1-.096.105c-.038.019-.067.019-.096 0l-.01-.01zm.497-.134a.288.288 0 0 1-.134.229c-.077.038-.134 0-.134-.077 0-.086.057-.182.134-.229.076-.038.134 0 .134.077zm.03-.382s.067-.076.096-.096c.038-.019.067-.019.096 0s.038.048.038.086c0 .048-.01.086-.038.134a.34.34 0 0 1-.096.105c-.038.019-.067.019-.096 0s-.038-.048-.038-.086c0-.048.019-.096.048-.143h-.01z"/><use xlink:href="#I" x="-11.412" y="6.509"/><path d="M74.438 53.346a.288.288 0 0 1-.134.229c-.076.038-.134 0-.134-.077 0-.086.057-.182.134-.229s.134 0 .134.076z"/></g><path d="m72.447 51.1-.029 5.132 3.482-1.969-.029-5.103-3.424 1.94z" fill="url(#A)"/><g class="G"><path d="M71.644 52.83c0 .048-.019.086-.057.096-.029.019-.067.01-.105-.01a.656.656 0 0 1-.115-.115c-.029-.048-.048-.105-.048-.153s.019-.076.057-.096c.019 0 .038-.01.057 0a.575.575 0 0 1-.067-.076c-.029-.048-.048-.105-.048-.153s.019-.077.057-.096c.038-.01.077 0 .105.01.038.019.077.067.105.124s.048.105.048.143c0 .048-.019.086-.057.096-.019 0-.038.01-.057 0a.52.52 0 0 1 .067.086.351.351 0 0 1 .048.143h.01zm-.46-.764s-.076-.067-.105-.115a.276.276 0 0 1-.038-.096c0 .019-.029.038-.048.048-.038.019-.077 0-.105-.01a.312.312 0 0 1-.105-.115.276.276 0 0 1-.038-.096c0 .019-.029.038-.048.048-.029.019-.067.01-.105-.009a.33.33 0 0 1-.115-.115c-.029-.048-.048-.105-.048-.153s.019-.077.057-.096c.038-.01.077 0 .105.01a.283.283 0 0 1 .105.124.324.324 0 0 1 .038.086c0-.019.019-.038.048-.048a.19.19 0 0 1 .105.01.277.277 0 0 1 .105.124.324.324 0 0 1 .038.086c0-.019.019-.038.048-.048a.19.19 0 0 1 .105.01.368.368 0 0 1 .115.124.351.351 0 0 1 .048.143c0 .048-.019.086-.057.096-.038.019-.076 0-.105-.01zm.2 1.5a.52.52 0 0 0 .105.009.28.28 0 0 1 .105.124.351.351 0 0 1 .048.143c0 .048-.019.086-.057.096a.136.136 0 0 1-.105-.009.65.65 0 0 1-.115-.115c-.029-.048-.048-.105-.048-.153s.019-.077.057-.096h.01zM70.247 52.878s-.048-.048-.057-.077c-.029-.048-.048-.105-.048-.153s.019-.077.057-.096c.019 0 .038-.009.057 0a.227.227 0 0 1-.057-.076c-.029-.048-.048-.105-.048-.153s.019-.077.057-.096c.019 0 .038-.01.057 0a.227.227 0 0 1-.057-.076c-.029-.048-.048-.105-.048-.153s.019-.076.057-.096c.019 0 .038-.01.057 0a.227.227 0 0 1-.057-.076c-.029-.048-.048-.105-.048-.153s.019-.077.057-.096a.19.19 0 0 1 .105.01.368.368 0 0 1 .115.124.351.351 0 0 1 .048.143c0 .048-.019.086-.057.095-.019 0-.038.01-.057 0a.503.503 0 0 1 .067.086.351.351 0 0 1 .048.143c0 .048-.019.086-.057.096-.019 0-.038.01-.057 0a.52.52 0 0 1 .067.086.324.324 0 0 1 .038.086c0-.019.019-.038.048-.048a.19.19 0 0 1 .105.01.277.277 0 0 1 .105.124.324.324 0 0 1 .038.086c0-.019.019-.038.048-.048a.19.19 0 0 1 .105.01.283.283 0 0 1 .105.124.324.324 0 0 1 .038.086c0-.019.019-.038.048-.048a.19.19 0 0 1 .105.01.368.368 0 0 1 .115.124.351.351 0 0 1 .048.143c0 .048-.019.086-.057.096-.038.019-.076 0-.105-.01a.31.31 0 0 1-.105-.115.276.276 0 0 1-.038-.096c0 .019-.029.038-.048.048-.038.019-.076 0-.105-.01a.304.304 0 0 1-.105-.115.276.276 0 0 1-.038-.096c0 .019-.029.038-.048.048-.038.019-.077 0-.105-.01a.312.312 0 0 1-.105-.115.276.276 0 0 1-.038-.096c0 .019-.029.038-.048.048-.019 0-.038.01-.057 0a.503.503 0 0 1 .067.086.351.351 0 0 1 .048.143c0 .048-.019.086-.057.096-.019 0-.038.01-.057 0a.503.503 0 0 1 .067.086.351.351 0 0 1 .048.143c0 .048-.019.086-.057.096a.187.187 0 0 1-.105 0 .33.33 0 0 1-.115-.115c-.029-.048-.048-.105-.048-.153s.019-.077.057-.096c.019 0 .038-.01.057 0l-.048-.01zM70.592 53.404a.54.54 0 0 0 .105.124.324.324 0 0 1 .038.086c0-.019.019-.038.048-.048.038-.01.077 0 .105.01a.368.368 0 0 1 .115.124.324.324 0 0 1 .038.086c0-.019.019-.038.048-.048.038-.01.077 0 .105.01a.379.379 0 0 1 .163.267c0 .048-.019.086-.057.095-.038.019-.076 0-.105-.009a.304.304 0 0 1-.105-.115.276.276 0 0 1-.038-.096c0 .019-.029.038-.048.048a.19.19 0 0 1-.105-.01.31.31 0 0 1-.105-.115.276.276 0 0 1-.038-.096c0 .019-.029.038-.048.048a.207.207 0 0 1-.105 0 .33.33 0 0 1-.115-.115c-.029-.048-.048-.105-.048-.153s.019-.077.057-.096a.19.19 0 0 1 .105.01l-.01-.01zm-1.78-1.013a.54.54 0 0 0 .105.124.324.324 0 0 1 .038.086c0-.019.019-.038.048-.048.038-.01.076 0 .105.01a.368.368 0 0 1 .115.124.34.34 0 0 1 .038.086c0-.019.029-.038.048-.048.038-.01.076 0 .105.01a.379.379 0 0 1 .163.267c0 .048-.019.086-.057.096-.038.019-.076 0-.105-.01a.312.312 0 0 1-.105-.115.276.276 0 0 1-.038-.096c0 .019-.019.038-.048.048a.182.182 0 0 1-.105-.01.304.304 0 0 1-.105-.115.276.276 0 0 1-.038-.096c0 .019-.019.038-.048.048a.138.138 0 0 1-.105-.01c-.048-.029-.076-.067-.115-.115-.029-.048-.048-.105-.048-.153s.019-.076.057-.096a.19.19 0 0 1 .105.01h-.01zm-.353-.535s-.048-.048-.067-.076c-.029-.048-.048-.105-.048-.153s.019-.076.057-.096c.019 0 .038-.01.057 0-.029-.019-.048-.048-.067-.076-.029-.048-.048-.105-.048-.153s.019-.076.057-.096c.019 0 .038-.01.057 0-.029-.019-.048-.048-.067-.076-.029-.048-.048-.105-.048-.153s.019-.077.057-.096c.019 0 .038-.01.057 0-.029-.019-.048-.048-.067-.076-.029-.048-.048-.105-.048-.153s.019-.076.057-.096c.038-.01.077 0 .105.01a.379.379 0 0 1 .163.267c0 .048-.019.086-.057.096-.019 0-.038.01-.057 0 .029.029.048.057.067.086s.029.057.038.086c0-.019.019-.038.048-.048a.19.19 0 0 1 .105.01.368.368 0 0 1 .115.124.351.351 0 0 1 .048.143c0 .048-.019.086-.057.096a.19.19 0 0 1-.105-.01.312.312 0 0 1-.105-.115.276.276 0 0 1-.038-.096c0 .019-.019.038-.048.048-.019 0-.038.01-.057 0 .029.019.048.057.067.086a.351.351 0 0 1 .048.143c0 .048-.019.086-.057.096-.019 0-.038.009-.057 0a.503.503 0 0 1 .067.086.351.351 0 0 1 .048.143c0 .048-.019.086-.057.096-.019 0-.038.01-.057 0 .029.019.048.057.067.086a.351.351 0 0 1 .048.143c0 .048-.019.086-.057.096s-.067.01-.105-.01a.69.69 0 0 1-.115-.115c-.029-.048-.048-.105-.048-.153s.019-.077.057-.096c.019 0 .038-.009.057 0h-.01zM69.405 51.053s-.077-.067-.105-.115a.276.276 0 0 1-.038-.096c0 .019-.019.038-.048.048a.19.19 0 0 1-.105-.01.304.304 0 0 1-.105-.115.276.276 0 0 1-.038-.096c0 .019-.019.038-.048.048a.13.13 0 0 1-.105-.01.65.65 0 0 1-.115-.115c-.029-.048-.048-.105-.048-.153s.019-.076.057-.096a.19.19 0 0 1 .105.01.368.368 0 0 1 .115.124.324.324 0 0 1 .038.086c0-.019.019-.038.048-.048a.19.19 0 0 1 .105.01.379.379 0 0 1 .115.124.34.34 0 0 1 .038.086c0-.019.029-.038.048-.048a.19.19 0 0 1 .105.01c.038.019.086.067.115.124s.048.105.048.143c0 .048-.019.086-.057.096a.19.19 0 0 1-.105-.01h-.019zm-.296.488a.5.5 0 0 0 .115.124.351.351 0 0 1 .048.143c0 .048-.019.086-.057.096s-.067.01-.105-.01c-.048-.029-.077-.067-.115-.115-.029-.048-.048-.105-.048-.153s.019-.076.057-.096a.19.19 0 0 1 .105.01zm.487 1.003s.038-.009.057 0a.227.227 0 0 1-.057-.076.276.276 0 0 1-.038-.096c0 .019-.019.038-.048.048-.038.019-.076 0-.105-.01-.038-.019-.076-.067-.105-.115s-.048-.105-.048-.153.019-.076.057-.096a.19.19 0 0 1 .105.009.368.368 0 0 1 .115.124.324.324 0 0 1 .038.086c0-.019.029-.038.048-.048.019 0 .038-.01.057 0a.227.227 0 0 1-.057-.076c-.029-.048-.048-.105-.048-.153s.019-.076.057-.096c.019 0 .038-.01.057 0a.227.227 0 0 1-.057-.076c-.029-.048-.048-.105-.048-.153s.019-.077.057-.096c.019 0 .038-.01.057 0-.019-.019-.048-.048-.057-.077-.029-.048-.048-.105-.048-.153s.019-.076.057-.095a.19.19 0 0 1 .105.009.379.379 0 0 1 .163.267c0 .048-.019.086-.057.096h-.058c.029.019.048.057.067.086a.351.351 0 0 1 .048.143c0 .048-.019.086-.057.095h-.058c.029.019.048.057.067.086a.351.351 0 0 1 .048.143c0 .048-.019.086-.057.096h-.058c.029.019.048.057.067.086a.351.351 0 0 1 .048.143c0 .048-.019.086-.057.096h-.058c.029.019.048.057.067.086a.351.351 0 0 1 .048.143c0 .048-.019.086-.057.096s-.067.01-.105-.01c-.048-.029-.077-.067-.115-.115-.029-.048-.048-.105-.048-.153s.019-.077.057-.096h-.048zm-2.085-.842s-.057.057-.057.096c0 .048.019.105.048.153a.33.33 0 0 0 .115.115.138.138 0 0 0 .105.01c.019 0 .038-.029.048-.048 0 .029.019.057.038.096a.41.41 0 0 0 .105.115c.038.019.077.029.105.01.038-.019.057-.048.057-.096a.351.351 0 0 0-.048-.143.205.205 0 0 0-.067-.086h.057c.038-.019.057-.048.057-.096a.351.351 0 0 0-.048-.143.29.29 0 0 0-.115-.124c-.038-.019-.076-.029-.105-.01a.123.123 0 0 0-.048.048c0-.029-.019-.057-.038-.086a.29.29 0 0 0-.115-.124c-.038-.019-.077-.029-.105-.009a.105.105 0 0 0-.057.096c0 .048.019.105.048.153a.26.26 0 0 0 .067.077h-.057.01zm.153.048h.057c.019 0 .038-.029.048-.048 0 .029.019.057.038.096a.5.5 0 0 0 .057.076h-.057a.123.123 0 0 0-.048.048c0-.029-.019-.057-.038-.086a.205.205 0 0 0-.067-.086h.01zm-1.875-1.414s-.048-.048-.067-.076c-.029-.048-.048-.105-.048-.153s.019-.077.057-.096c.019 0 .038-.01.057 0-.019-.019-.048-.048-.057-.077-.029-.048-.048-.105-.048-.153s.019-.076.057-.095c.019 0 .038-.01.057 0-.029-.019-.048-.048-.067-.077-.029-.048-.048-.105-.048-.153s.019-.076.057-.096c.019 0 .038-.01.057 0a.23.23 0 0 1-.057-.076c-.029-.048-.048-.105-.048-.153s.019-.076.057-.096a.19.19 0 0 1 .105.009.368.368 0 0 1 .115.124.351.351 0 0 1 .048.143c0 .048-.019.086-.057.096-.019 0-.038.01-.057 0 .029.019.048.057.067.086s.029.057.038.086c0-.019.029-.038.048-.048.038-.01.076 0 .105.01.038.019.086.067.115.124s.048.105.048.143c0 .048-.019.086-.057.096-.038.019-.077 0-.105-.01a.312.312 0 0 1-.105-.115.278.278 0 0 1-.038-.095c0 .019-.019.038-.048.048h-.057c.029.019.048.057.067.086a.351.351 0 0 1 .048.143c0 .048-.019.086-.058.096-.019 0-.038.01-.057 0 .029.019.048.057.067.086a.351.351 0 0 1 .048.143c0 .048-.019.086-.058.096-.019 0-.038.01-.057 0 .029.019.048.057.067.086a.351.351 0 0 1 .048.143c0 .048-.019.086-.058.096s-.067.01-.105-.01a.65.65 0 0 1-.115-.115c-.029-.048-.048-.105-.048-.153s.019-.077.057-.096c.019 0 .038-.01.057 0h-.029zm.345.526s.076.067.115.124a.324.324 0 0 1 .038.086c0-.019.029-.038.048-.048a.19.19 0 0 1 .105.01.379.379 0 0 1 .153.21c0-.019.029-.038.048-.048a.19.19 0 0 1 .105.01.379.379 0 0 1 .163.267c0 .048-.019.086-.057.096-.038.019-.076 0-.105-.01a.304.304 0 0 1-.105-.115.276.276 0 0 1-.038-.096c0 .019-.019.038-.048.048a.181.181 0 0 1-.105-.01.312.312 0 0 1-.105-.115.276.276 0 0 1-.038-.096c0 .019-.019.038-.048.048a.134.134 0 0 1-.105-.009c-.048-.029-.076-.067-.115-.115-.029-.048-.048-.105-.048-.153s.019-.077.057-.096a.19.19 0 0 1 .105.01h-.019zM66.927 51.025s.038-.01.058 0a.23.23 0 0 1-.058-.076.276.276 0 0 1-.038-.096c0 .019-.019.038-.048.048-.038.019-.077 0-.105-.01-.038-.019-.077-.067-.105-.115s-.048-.105-.048-.153.019-.076.057-.096a.19.19 0 0 1 .105.01.49.49 0 0 1 .115.124.324.324 0 0 1 .038.086c0-.019.019-.038.048-.048.019 0 .038-.01.057 0a.227.227 0 0 1-.057-.076c-.029-.048-.048-.105-.048-.153s.019-.077.058-.096c.019 0 .038-.01.057 0a.227.227 0 0 1-.057-.076c-.029-.048-.048-.105-.048-.153s.019-.076.057-.096c.019 0 .038-.01.057 0a.575.575 0 0 1-.067-.076c-.029-.048-.048-.105-.048-.153s.019-.076.057-.096a.19.19 0 0 1 .105.01.368.368 0 0 1 .115.124.351.351 0 0 1 .048.143c0 .048-.019.086-.057.096h-.057c.029.019.048.057.067.086a.351.351 0 0 1 .048.143c0 .048-.019.086-.057.096-.019 0-.038.01-.057 0 .029.019.048.057.067.086a.351.351 0 0 1 .048.143c0 .048-.019.086-.057.096h-.057c.029.019.048.057.067.086a.351.351 0 0 1 .048.143c0 .048-.019.086-.057.096h-.057c.029.019.048.057.067.086a.351.351 0 0 1 .048.143c0 .048-.019.086-.057.096a.137.137 0 0 1-.105-.01c-.048-.029-.077-.067-.115-.115s-.048-.105-.048-.153.019-.076.057-.096h-.038zm-.487-1.004a.5.5 0 0 0 .115.124.351.351 0 0 1 .048.143c0 .048-.019.086-.057.095s-.067.01-.105-.009c-.048-.029-.077-.067-.115-.115-.029-.048-.048-.105-.048-.153s.019-.076.057-.096a.19.19 0 0 1 .105.01zm.286-.497s-.077-.067-.105-.115a.276.276 0 0 1-.038-.096c0 .019-.019.038-.048.048-.038.019-.077 0-.105-.01a.312.312 0 0 1-.105-.115.276.276 0 0 1-.038-.096c0 .019-.019.038-.048.048a.134.134 0 0 1-.105-.009.656.656 0 0 1-.115-.115c-.029-.048-.048-.105-.048-.153s.019-.077.057-.096c.038-.01.077 0 .105.01a.297.297 0 0 1 .115.124.324.324 0 0 1 .038.086c0-.019.029-.038.048-.048a.19.19 0 0 1 .105.01.379.379 0 0 1 .153.21c0-.019.019-.038.048-.048a.19.19 0 0 1 .105.009c.038.029.086.067.115.124s.048.105.048.143c0 .048-.019.086-.057.096a.19.19 0 0 1-.105-.01h-.019zm-2.372.325s.076.067.105.124a.324.324 0 0 1 .038.086c0-.019.019-.038.048-.048.019 0 .038-.009.057 0a.227.227 0 0 1-.057-.076c-.029-.048-.048-.105-.048-.153s.019-.076.057-.096c.019 0 .038-.01.057 0a.227.227 0 0 1-.057-.076c-.029-.048-.048-.105-.048-.153s.019-.076.057-.096c.019 0 .038-.01.057 0a.227.227 0 0 1-.057-.076c-.029-.048-.048-.105-.048-.153s.019-.077.057-.096c.019 0 .038-.009.057 0a.227.227 0 0 1-.057-.076c-.029-.048-.048-.105-.048-.153s.019-.076.057-.096c.019 0 .038-.01.057 0a.55.55 0 0 1-.067-.076c-.029-.048-.048-.105-.048-.153s.019-.076.057-.096c.019 0 .038-.01.057 0a.227.227 0 0 1-.057-.076c-.029-.048-.048-.105-.048-.153s.019-.076.057-.096c.038-.01.077 0 .105.01.038.019.076.067.105.124s.048.105.048.143c0 .048-.019.086-.057.095-.019 0-.038.01-.057 0 .029.029.048.057.067.086s.029.057.038.086c0-.019.019-.038.048-.048.038-.01.067 0 .105.009a.379.379 0 0 1 .163.267c0 .048-.019.086-.057.096-.038.019-.076 0-.105-.01a.312.312 0 0 1-.105-.115.276.276 0 0 1-.038-.096c0 .019-.029.038-.048.048-.019 0-.038.01-.057 0a.503.503 0 0 1 .067.086.351.351 0 0 1 .048.143c0 .048-.019.086-.057.096-.019 0-.038.01-.057 0a.503.503 0 0 1 .067.086.351.351 0 0 1 .048.143c0 .048-.019.086-.057.096-.019 0-.038.01-.057 0a.503.503 0 0 1 .067.086.351.351 0 0 1 .048.143c0 .048-.019.086-.057.096-.019 0-.038.009-.057 0a.503.503 0 0 1 .067.086.351.351 0 0 1 .048.143c0 .048-.019.086-.057.096-.019 0-.038.01-.057 0a.503.503 0 0 1 .067.086.34.34 0 0 1 .038.086c0-.019.019-.038.048-.048a.19.19 0 0 1 .105.01c.038.019.077.067.105.124s.048.105.048.143c0 .048-.019.086-.057.096-.038.019-.076 0-.105-.01a.312.312 0 0 1-.105-.115.276.276 0 0 1-.038-.096c0 .019-.029.038-.048.048-.038.019-.077 0-.105-.01a.304.304 0 0 1-.105-.115.276.276 0 0 1-.038-.096c0 .019-.029.038-.048.048a.132.132 0 0 1-.105-.01.33.33 0 0 1-.115-.115c-.029-.048-.048-.105-.048-.153s.019-.076.057-.096a.19.19 0 0 1 .105.01h-.048z"/></g><g fill="#ff0c4b"><path d="M58.242 45.29s-.067.009-.105 0c-.038-.029-.086-.067-.115-.115s-.048-.105-.048-.153.019-.077.057-.096.077 0 .105.01a.49.49 0 0 1 .115.124.351.351 0 0 1 .048.143c0 .048-.019.086-.057.096v-.009z"/><path d="M57.247 45.089a.8.8 0 0 0 .115.124.324.324 0 0 1 .038.086c0-.019.019-.038.048-.048.019 0 .038-.01.057 0-.019-.019-.048-.048-.057-.077-.029-.048-.048-.105-.048-.153s.019-.077.057-.096c.019 0 .038-.009.057 0a.227.227 0 0 1-.057-.076c-.029-.048-.048-.105-.048-.153s.019-.077.057-.096c.019 0 .038-.01.057 0a.227.227 0 0 1-.057-.076c-.029-.048-.048-.105-.048-.153s.019-.076.057-.096c.019 0 .038-.01.057 0a.227.227 0 0 1-.057-.076c-.029-.048-.048-.105-.048-.153s.019-.077.057-.096a.19.19 0 0 1 .105.01c.038.029.086.067.115.124s.048.105.048.143c0 .048-.019.086-.057.095-.019 0-.038.01-.057 0 .029.019.048.057.067.086s.029.057.038.086c0-.019.019-.038.048-.048a.19.19 0 0 1 .105.009.379.379 0 0 1 .163.267c0 .048-.019.086-.057.096-.038.019-.076 0-.105-.01a.304.304 0 0 1-.105-.115.276.276 0 0 1-.038-.096c0 .019-.019.038-.048.048-.019 0-.038.01-.057 0 .029.019.048.057.067.086a.351.351 0 0 1 .048.143c0 .048-.019.086-.057.096-.019 0-.038.01-.057 0 .029.019.048.057.067.086a.351.351 0 0 1 .048.143c0 .048-.019.086-.057.096-.019 0-.038.01-.057 0 .029.019.048.057.067.086s.029.057.038.086c0-.019.019-.038.048-.048.038-.019.077 0 .105.01a.368.368 0 0 1 .115.124.324.324 0 0 1 .038.086c0-.019.019-.038.048-.048.038-.019.076 0 .105.01a.368.368 0 0 1 .115.124.324.324 0 0 1 .038.086c0-.019.019-.038.048-.048.019 0 .038-.009.057 0a.227.227 0 0 1-.057-.076c-.029-.048-.048-.105-.048-.153s.019-.077.057-.096.077 0 .105.01a.368.368 0 0 1 .115.124.351.351 0 0 1 .048.143c0 .048-.019.086-.057.096-.019 0-.038.01-.057 0 .029.019.048.057.067.086a.351.351 0 0 1 .048.143c0 .048-.019.086-.057.096-.038.019-.077 0-.105-.01a.312.312 0 0 1-.105-.115.276.276 0 0 1-.038-.096c0 .019-.029.038-.048.048-.038.019-.077 0-.105-.01a.312.312 0 0 1-.105-.115.276.276 0 0 1-.038-.096c0 .019-.029.038-.048.048-.038.019-.077 0-.105-.009a.31.31 0 0 1-.105-.115.276.276 0 0 1-.038-.096c0 .019-.019.038-.048.048-.019 0-.038.009-.057 0 .029.019.048.057.067.086a.351.351 0 0 1 .048.143c0 .048-.019.086-.057.096-.019 0-.038.01-.057 0 .029.019.048.057.067.086a.351.351 0 0 1 .048.143c0 .048-.019.086-.057.096s-.067.01-.105-.01c-.048-.029-.077-.067-.115-.115-.029-.048-.048-.105-.048-.153s.019-.076.057-.096c.019 0 .038-.009.057 0a.227.227 0 0 1-.057-.076c-.029-.048-.048-.105-.048-.153s.019-.076.057-.096c.019 0 .038-.01.057 0a.227.227 0 0 1-.057-.076.276.276 0 0 1-.038-.096c0 .019-.019.038-.048.048-.038.019-.077 0-.105-.01-.038-.019-.077-.067-.105-.115s-.048-.105-.048-.153.019-.076.057-.096.077 0 .105.01h-.115zm-1.482-.172s.077.067.105.124a.324.324 0 0 1 .038.086c0-.019.019-.038.048-.048.038-.019.077 0 .105.01a.283.283 0 0 1 .105.124.34.34 0 0 1 .038.086c0-.019.019-.038.048-.048.038-.019.077 0 .105.01.038.019.077.067.105.124s.048.105.048.143c0 .048-.019.086-.057.096-.038.019-.077 0-.105-.01a.312.312 0 0 1-.105-.115.276.276 0 0 1-.038-.096c0 .019-.019.038-.048.048-.038.019-.077 0-.105-.01a.304.304 0 0 1-.105-.115.276.276 0 0 1-.038-.096c0 .019-.019.038-.048.048-.029.019-.067.01-.105-.009a.656.656 0 0 1-.115-.115c-.029-.048-.048-.105-.048-.153s.019-.077.057-.096.077 0 .105.01h.009zm.296-.84s.076.067.115.124a.351.351 0 0 1 .048.143c0 .048-.019.086-.057.096-.029.019-.067.01-.105 0-.048-.029-.077-.067-.115-.115-.029-.048-.048-.105-.048-.153s.019-.076.057-.095.067 0 .105.009v-.009zM56.549 45.079s.038-.01.057 0c-.029-.019-.048-.048-.067-.077s-.029-.057-.038-.096c0 .019-.019.038-.048.048-.038.019-.077 0-.105-.01-.038-.019-.077-.067-.105-.115s-.048-.105-.048-.153.019-.076.057-.096.067-.01.105.01a.39.39 0 0 1 .153.21c0-.019.019-.038.048-.048.019 0 .038-.009.057 0-.029-.019-.048-.048-.067-.076-.029-.048-.048-.105-.048-.153s.019-.077.057-.096c.019 0 .038-.01.057 0-.029-.019-.048-.048-.067-.076-.029-.048-.048-.105-.048-.153s.019-.076.057-.096c.019 0 .038-.01.057 0-.029-.019-.048-.048-.067-.076-.029-.048-.048-.105-.048-.153s.019-.077.057-.096c.038-.01.067 0 .105.01a.379.379 0 0 1 .163.267c0 .048-.019.086-.057.096-.019 0-.038.01-.057 0 .029.019.048.057.067.086a.351.351 0 0 1 .048.143c0 .048-.019.086-.057.096-.019 0-.038.01-.057 0 .029.019.048.057.067.086a.351.351 0 0 1 .048.143c0 .048-.019.086-.057.096-.019 0-.038.01-.057 0 .029.019.048.057.067.086a.351.351 0 0 1 .048.143c0 .048-.019.086-.057.096-.019 0-.038.009-.057 0 .029.019.048.057.067.086a.351.351 0 0 1 .048.143c0 .048-.019.086-.057.096s-.067.01-.105 0a.65.65 0 0 1-.115-.115c-.038-.048-.048-.105-.048-.153s.019-.077.057-.096l-.01-.01zm-.086-1.481s-.077 0-.105-.01a.312.312 0 0 1-.105-.115.276.276 0 0 1-.038-.096c0 .019-.019.038-.048.048a.19.19 0 0 1-.105-.01.304.304 0 0 1-.105-.115.276.276 0 0 1-.038-.096c0 .019-.019.038-.048.048a.134.134 0 0 1-.105-.009.656.656 0 0 1-.115-.115c-.029-.048-.048-.105-.048-.153s.019-.077.057-.096c.038-.01.077 0 .105.01a.277.277 0 0 1 .105.124.34.34 0 0 1 .038.086c0-.019.019-.038.048-.048.038-.01.067 0 .105.009a.379.379 0 0 1 .153.21c0-.019.019-.038.048-.048.038-.01.067 0 .105.01a.379.379 0 0 1 .163.267c0 .048-.019.086-.057.096h-.01zM55.412 44.392s-.048-.048-.067-.077c-.029-.048-.048-.105-.048-.153s.019-.076.057-.096c.019 0 .038-.009.057 0-.029-.019-.048-.048-.067-.076-.029-.048-.048-.105-.048-.153s.019-.077.057-.096c.019 0 .038-.01.057 0a.575.575 0 0 1-.067-.076c-.029-.048-.048-.105-.048-.153s.019-.076.057-.096c.019 0 .038-.01.057 0-.029-.019-.048-.048-.067-.076-.029-.048-.048-.105-.048-.153s.019-.077.057-.096c.038-.01.067 0 .105.01a.368.368 0 0 1 .115.124.351.351 0 0 1 .048.143c0 .048-.019.086-.057.096-.019 0-.038.01-.057 0 .029.019.048.057.067.086s.029.057.038.086c0-.019.019-.038.048-.048.038-.019.077 0 .105.009.038.019.077.067.105.124s.048.105.048.143c0 .048-.019.086-.057.096a.19.19 0 0 1-.105-.009.304.304 0 0 1-.105-.115.324.324 0 0 1-.038-.086c0 .019-.029.038-.048.048-.019 0-.038.01-.057 0 .029.019.048.057.067.086a.351.351 0 0 1 .048.143c0 .048-.019.086-.057.096-.019 0-.038.01-.057 0 .029.019.048.057.067.086a.351.351 0 0 1 .048.143c0 .048-.019.086-.057.096-.019 0-.038.01-.057 0 .029.019.048.057.067.086a.351.351 0 0 1 .048.143c0 .048-.019.086-.057.096-.029.019-.067.009-.105 0a.656.656 0 0 1-.115-.115c-.029-.048-.048-.105-.048-.153s.019-.077.057-.096c.019 0 .038-.01.057 0v-.019zM54.464 44.229s-.057.057-.057.096c0 .048.019.105.048.153a.33.33 0 0 0 .115.115c.038.019.067.029.105 0 .019 0 .038-.029.048-.048 0 .029.019.057.038.096a.31.31 0 0 0 .105.115c.038.019.077.029.105.01.038-.01.057-.048.057-.096a.351.351 0 0 0-.048-.143.205.205 0 0 0-.067-.086h.057c.038-.01.057-.048.057-.096a.351.351 0 0 0-.048-.143.29.29 0 0 0-.115-.124c-.038-.019-.077-.029-.105-.009a.117.117 0 0 0-.048.048c0-.029-.019-.057-.038-.086a.29.29 0 0 0-.115-.124c-.038-.019-.077-.029-.105-.01a.105.105 0 0 0-.057.096c0 .048.019.105.048.153a.245.245 0 0 0 .067.076h-.057l.01.01zm.153.048h.057c.019 0 .038-.029.048-.048 0 .029.019.057.038.086a.57.57 0 0 0 .057.077h-.057a.123.123 0 0 0-.048.048c0-.029-.019-.057-.038-.086a.205.205 0 0 0-.067-.086l.01.01zm-1.721-2.38s-.038.01-.057 0c.029.019.048.057.067.086a.351.351 0 0 1 .048.143c0 .048-.019.086-.057.096s-.067.01-.105 0a.656.656 0 0 1-.115-.115c-.029-.048-.048-.105-.048-.153s.019-.077.057-.096c.019 0 .038-.009.057 0-.029-.019-.048-.048-.067-.076-.029-.048-.048-.105-.048-.153s.019-.077.057-.096c.038-.01.077 0 .105.01a.368.368 0 0 1 .115.124.351.351 0 0 1 .048.143c0 .048-.019.086-.057.096v-.01zM52.743 42.872s-.048-.048-.067-.077c-.029-.048-.048-.105-.048-.153s.019-.076.057-.096.067-.009.105.01.077.067.115.124a.351.351 0 0 1 .048.143c0 .048-.019.086-.057.096-.019 0-.038.009-.057 0 .029.019.048.057.067.086a.351.351 0 0 1 .048.143c0 .048-.019.086-.057.096-.029.019-.067.01-.105 0a.656.656 0 0 1-.115-.115c-.029-.048-.048-.105-.048-.153s.019-.076.057-.096c.019 0 .038-.01.057 0v-.01zm.344.526a.54.54 0 0 0 .105.124.324.324 0 0 1 .038.086c0-.019.019-.038.048-.048.038-.019.077 0 .105.01a.283.283 0 0 1 .105.124.324.324 0 0 1 .038.086c0-.019.019-.038.048-.048.038-.019.077 0 .105.009.038.019.076.067.105.124s.048.105.048.143c0 .048-.019.086-.057.096-.038.019-.077 0-.105-.01a.312.312 0 0 1-.105-.115.276.276 0 0 1-.038-.096c0 .019-.019.038-.048.048-.038.019-.076 0-.105-.01a.304.304 0 0 1-.105-.115.276.276 0 0 1-.038-.096c0 .019-.019.038-.048.048-.029.019-.067.01-.105-.009-.048-.029-.077-.067-.115-.115-.029-.048-.048-.105-.048-.153s.019-.077.057-.096.077 0 .105.01h.01zm.785.162s.038-.009.057 0a.227.227 0 0 1-.057-.076c-.029-.048-.048-.105-.048-.153s.019-.076.057-.096.077 0 .105.01a.368.368 0 0 1 .115.124.351.351 0 0 1 .048.143c0 .048-.019.086-.057.096-.019 0-.038.01-.057 0 .029.019.048.057.067.086a.351.351 0 0 1 .048.143c0 .048-.019.086-.057.096s-.067.01-.105 0c-.048-.029-.077-.067-.115-.115-.029-.048-.048-.105-.048-.153s.019-.077.057-.096l-.01-.01zM53.087 42.385a.8.8 0 0 0 .115.124.324.324 0 0 1 .038.086c0-.019.019-.038.048-.048.038-.019.067 0 .105.01a.368.368 0 0 1 .115.124.324.324 0 0 1 .038.086c0-.019.019-.038.048-.048.038-.019.067-.01.105.01a.378.378 0 0 1 .163.267c0 .048-.019.086-.057.096-.038.019-.077 0-.105-.009a.312.312 0 0 1-.105-.115.276.276 0 0 1-.038-.096c0 .019-.019.038-.048.048-.038.019-.077 0-.105-.01a.304.304 0 0 1-.105-.115.276.276 0 0 1-.038-.096c0 .019-.019.038-.048.048-.029.019-.067.01-.105 0-.048-.029-.077-.067-.115-.115-.029-.048-.048-.105-.048-.153s.019-.077.057-.096.067 0 .105.01l-.019-.01zm.594-.325s-.077-.067-.105-.115a.276.276 0 0 1-.038-.096c0 .019-.019.038-.048.048a.19.19 0 0 1-.105-.009.312.312 0 0 1-.105-.115.276.276 0 0 1-.038-.096c0 .019-.019.038-.048.048a.13.13 0 0 1-.105-.01.65.65 0 0 1-.115-.115c-.029-.048-.048-.105-.048-.153s.019-.076.057-.096a.19.19 0 0 1 .105.01.379.379 0 0 1 .153.21c0-.019.019-.038.048-.048.038-.01.067 0 .105.01a.379.379 0 0 1 .153.21c0-.019.019-.038.048-.048.038-.019.067 0 .105.01a.368.368 0 0 1 .115.124.351.351 0 0 1 .048.143c0 .048-.019.086-.057.096a.19.19 0 0 1-.105-.01h-.019zM54.139 42.824c0 .048-.019.086-.057.096s-.067.01-.105-.01a.65.65 0 0 1-.115-.115c-.029-.048-.048-.105-.048-.153s.019-.076.057-.096c.019 0 .038-.01.057 0-.019-.019-.048-.048-.057-.077-.029-.048-.048-.105-.048-.153s.019-.076.057-.096a.19.19 0 0 1 .105.01c.038.029.086.067.115.124s.048.105.048.143c0 .048-.019.086-.057.096-.019 0-.038.009-.057 0 .029.019.048.057.067.086a.351.351 0 0 1 .048.143h-.01zm-2.841-.439s.076.067.115.124a.324.324 0 0 1 .038.086c0-.019.019-.038.048-.048.038-.019.077 0 .105.01a.379.379 0 0 1 .153.21c0-.019.019-.038.048-.048.038-.019.077 0 .105.01a.368.368 0 0 1 .115.124.351.351 0 0 1 .048.143c0 .048-.019.086-.057.096-.038.019-.077 0-.105-.01a.304.304 0 0 1-.105-.115.276.276 0 0 1-.038-.096c0 .019-.029.038-.048.048-.038.019-.077 0-.105-.009a.31.31 0 0 1-.105-.115.276.276 0 0 1-.038-.096c0 .019-.019.038-.048.048a.134.134 0 0 1-.105-.01c-.048-.029-.076-.067-.115-.115-.029-.048-.048-.105-.048-.153s.019-.076.057-.096.077 0 .105.01h-.019zm-.344-.535s-.048-.048-.057-.076c-.029-.048-.048-.105-.048-.153s.019-.076.057-.096.077 0 .105.01a.368.368 0 0 1 .115.124.351.351 0 0 1 .048.143c0 .048-.019.086-.057.096-.019 0-.038.009-.057 0 .029.019.048.057.067.086a.351.351 0 0 1 .048.143c0 .048-.019.086-.057.096s-.067.009-.105 0a.45.45 0 0 1-.115-.115c-.029-.048-.048-.105-.048-.153s.019-.076.057-.096c.019 0 .038-.01.057 0l-.01-.01zm.153-.965s-.067.01-.105 0c-.048-.029-.077-.067-.115-.115a.24.24 0 0 1-.048-.153c0-.048.019-.077.057-.096a.19.19 0 0 1 .105.01.368.368 0 0 1 .115.124.351.351 0 0 1 .048.143c0 .048-.019.086-.057.096v-.01zm.794.162s-.077-.067-.105-.115a.276.276 0 0 1-.038-.096c0 .019-.029.038-.048.048-.038.019-.067 0-.105-.01a.312.312 0 0 1-.105-.115.276.276 0 0 1-.038-.096c0 .019-.029.038-.048.048a.187.187 0 0 1-.105 0 .45.45 0 0 1-.115-.115c-.029-.048-.048-.105-.048-.153s.019-.076.057-.096c.038-.01.077 0 .105.01a.297.297 0 0 1 .115.124.324.324 0 0 1 .038.086c0-.019.019-.038.048-.048a.19.19 0 0 1 .105.01.297.297 0 0 1 .115.124.34.34 0 0 1 .038.086c0-.019.019-.038.048-.048.038-.01.076 0 .105.01a.368.368 0 0 1 .115.124.351.351 0 0 1 .048.143c0 .048-.019.086-.057.096-.038.019-.077 0-.105-.01l-.019-.01zM52.092 42.538s.038-.01.057 0c-.019-.019-.048-.048-.057-.077-.029-.048-.048-.105-.048-.153s.019-.076.057-.096c.019 0 .038-.009.057 0a.227.227 0 0 1-.057-.076.276.276 0 0 1-.038-.096c0 .019-.029.038-.048.048-.038.019-.077 0-.105-.01a.31.31 0 0 1-.105-.115.276.276 0 0 1-.038-.096c0 .019-.029.038-.048.048-.038.019-.077 0-.105-.01a.312.312 0 0 1-.105-.115.276.276 0 0 1-.038-.096c0 .019-.019.038-.048.048-.038.019-.077 0-.105-.01-.038-.019-.077-.067-.105-.115s-.048-.105-.048-.153.019-.077.057-.096.067 0 .105.01a.297.297 0 0 1 .115.124.324.324 0 0 1 .038.086c0-.019.019-.038.048-.048.038-.019.067 0 .105.01a.297.297 0 0 1 .115.124.324.324 0 0 1 .038.086c0-.019.019-.038.048-.048.038-.019.077 0 .105.009a.368.368 0 0 1 .115.124.34.34 0 0 1 .038.086c0-.019.019-.038.048-.048.019 0 .038-.01.057 0a.227.227 0 0 1-.057-.076c-.029-.048-.048-.105-.048-.153s.019-.076.057-.096c.019 0 .038-.01.057 0-.019-.019-.048-.048-.057-.077-.029-.048-.048-.105-.048-.153s.019-.077.057-.096a.19.19 0 0 1 .105.01.368.368 0 0 1 .115.124.351.351 0 0 1 .048.143c0 .048-.019.086-.057.096-.019 0-.038.01-.057 0 .029.019.048.057.067.086a.351.351 0 0 1 .048.143c0 .048-.019.086-.057.096-.019 0-.038.009-.057 0 .029.019.048.057.067.086a.351.351 0 0 1 .048.143c0 .048-.019.086-.057.096-.019 0-.038.01-.057 0 .029.019.048.057.067.086a.351.351 0 0 1 .048.143c0 .048-.019.086-.057.096-.019 0-.038.01-.057 0 .029.019.048.057.067.086a.351.351 0 0 1 .048.143c0 .048-.019.086-.057.096-.029.019-.067.009-.105 0-.048-.029-.077-.067-.115-.115a.24.24 0 0 1-.048-.153c0-.048.019-.077.057-.096l-.067-.009z"/></g><g class="G"><path d="M44.076 38.266a.54.54 0 0 0 .105.124.324.324 0 0 1 .038.086c0-.019.019-.038.048-.048.019 0 .038-.01.057 0-.029-.019-.048-.048-.067-.076-.029-.048-.048-.105-.048-.153s.019-.076.057-.096c.019 0 .038-.01.057 0-.029-.019-.048-.048-.067-.076-.029-.048-.048-.105-.048-.153s.019-.076.057-.096c.019 0 .038-.01.057 0-.029-.019-.048-.048-.067-.077-.029-.048-.048-.105-.048-.153s.019-.076.057-.096c.019 0 .038-.009.057 0-.029-.019-.048-.048-.067-.076-.029-.048-.048-.105-.048-.153s.019-.076.057-.096c.019 0 .038-.01.057 0-.029-.019-.048-.048-.067-.077-.029-.048-.048-.105-.048-.153s.019-.076.057-.096c.019 0 .038-.01.057 0-.029-.019-.048-.048-.067-.077-.029-.048-.048-.105-.048-.153s.019-.077.057-.096c.038-.009.067 0 .105.01a.368.368 0 0 1 .115.124.351.351 0 0 1 .048.143c0 .048-.019.086-.057.096-.019 0-.038.01-.057 0 .029.019.048.057.067.086s.029.057.038.086c0-.019.019-.038.048-.048a.19.19 0 0 1 .105.01.368.368 0 0 1 .115.124.351.351 0 0 1 .048.143c0 .048-.019.086-.057.096-.038.019-.077 0-.105-.01a.304.304 0 0 1-.105-.115.276.276 0 0 1-.038-.096c0 .019-.019.038-.048.048-.019 0-.038.009-.057 0 .029.019.048.057.067.086a.351.351 0 0 1 .048.143c0 .048-.019.086-.057.096-.019 0-.038.01-.057 0 .029.019.048.057.067.086a.351.351 0 0 1 .048.143c0 .048-.019.086-.057.096-.019 0-.038.01-.057 0 .029.019.048.057.067.086a.351.351 0 0 1 .048.143c0 .048-.019.086-.057.096-.019 0-.038.01-.057 0 .029.019.048.057.067.086a.351.351 0 0 1 .048.143c0 .048-.019.086-.057.096-.019 0-.038.01-.057 0 .029.019.048.057.067.086s.029.057.038.086c0-.019.019-.038.048-.048.038-.019.077 0 .105.009.038.019.077.067.105.124s.048.105.048.143c0 .048-.019.086-.057.096-.038.019-.077 0-.105-.01a.304.304 0 0 1-.105-.115.276.276 0 0 1-.038-.096c0 .019-.019.038-.048.048-.038.019-.077 0-.105-.01a.312.312 0 0 1-.105-.115.276.276 0 0 1-.038-.096c0 .019-.019.038-.048.048-.029.019-.067.01-.105-.009-.048-.029-.077-.067-.115-.115-.029-.048-.048-.105-.048-.153s.019-.077.057-.096.077 0 .105.01h-.01zm-2.133-1.548s-.048-.048-.057-.077c-.029-.048-.048-.105-.048-.153s.019-.076.057-.096c.019 0 .038-.009.057 0a.227.227 0 0 1-.057-.076c-.029-.048-.048-.105-.048-.153s.019-.077.057-.096c.038-.01.077 0 .105.01.038.019.076.067.105.124s.048.105.048.143c0 .048-.019.086-.057.096-.019 0-.038.01-.057 0 .029.019.048.057.067.086a.351.351 0 0 1 .048.143c0 .048-.019.086-.057.096-.019 0-.038.009-.057 0 .029.019.048.057.067.086a.351.351 0 0 1 .048.143c0 .048-.019.086-.057.096-.029.019-.067.01-.105 0a.33.33 0 0 1-.115-.115c-.029-.048-.048-.105-.048-.153s.019-.077.057-.096c.019 0 .038-.01.057 0l-.01-.01zm1.397-.048c0 .048-.019.086-.057.096a.19.19 0 0 1-.105-.01.312.312 0 0 1-.105-.115.324.324 0 0 1-.038-.086c0 .019-.029.038-.048.048-.038.019-.077 0-.105-.01a.304.304 0 0 1-.105-.115.324.324 0 0 1-.038-.086c0 .019-.029.038-.048.048a.19.19 0 0 1-.105-.01.304.304 0 0 1-.105-.115.276.276 0 0 1-.038-.096c0 .019-.029.038-.048.048a.141.141 0 0 1-.105-.01.33.33 0 0 1-.115-.115c-.029-.048-.048-.105-.048-.153s.019-.077.057-.096.077 0 .105.01a.283.283 0 0 1 .105.124.324.324 0 0 1 .038.086c0-.019.019-.038.048-.048.038-.019.077 0 .105.01a.283.283 0 0 1 .105.124.324.324 0 0 1 .038.086c0-.019.019-.038.048-.048.038-.019.077 0 .105.009a.283.283 0 0 1 .105.124.324.324 0 0 1 .038.086c0-.019.019-.038.048-.048.019 0 .038-.01.057 0-.029-.019-.048-.048-.067-.077-.029-.048-.048-.105-.048-.153s.019-.076.057-.096c.019 0 .038-.01.057 0a.54.54 0 0 1-.067-.077.276.276 0 0 1-.038-.096c0 .019-.019.038-.048.048a.19.19 0 0 1-.105-.01.312.312 0 0 1-.105-.115.324.324 0 0 1-.038-.086c0 .019-.029.038-.048.048a.19.19 0 0 1-.105-.01.304.304 0 0 1-.105-.115.276.276 0 0 1-.038-.096c0 .019-.029.038-.048.048-.038.019-.076 0-.105-.009a.304.304 0 0 1-.105-.115.276.276 0 0 1-.038-.096c0 .019-.029.038-.048.048-.038.019-.077 0-.105-.01-.038-.019-.077-.067-.105-.115s-.048-.105-.048-.153.019-.077.057-.096a.19.19 0 0 1 .105.01.283.283 0 0 1 .105.124.324.324 0 0 1 .038.086c0-.019.019-.038.048-.048a.19.19 0 0 1 .105.01.283.283 0 0 1 .105.124.324.324 0 0 1 .038.086c0-.019.019-.038.048-.048a.19.19 0 0 1 .105.01.379.379 0 0 1 .153.21c0-.019.019-.038.048-.048a.19.19 0 0 1 .105.01.368.368 0 0 1 .115.124.324.324 0 0 1 .038.086c0-.019.019-.038.048-.048a.19.19 0 0 1 .105.01c.038.019.077.067.105.124s.048.105.048.143c0 .048-.019.086-.057.096-.019 0-.038.01-.057 0 .029.019.048.057.067.086a.351.351 0 0 1 .048.143c0 .048-.019.086-.057.096-.019 0-.038.009-.057 0 .029.019.048.057.067.086a.351.351 0 0 1 .048.143l-.01-.029zm-.258.736a.52.52 0 0 0 .105.01c.038.019.077.067.105.124s.048.105.048.143c0 .048-.019.086-.057.096-.029.019-.067.009-.105 0a.65.65 0 0 1-.115-.115c-.029-.048-.048-.105-.048-.153s.019-.077.057-.096l.01-.01zM42.288 37.243a.54.54 0 0 0 .105.124.324.324 0 0 1 .038.086c0-.019.019-.038.048-.048.038-.019.076 0 .105.01a.277.277 0 0 1 .105.124.324.324 0 0 1 .038.086c0-.019.019-.038.048-.048.038-.019.076 0 .105.01.038.019.077.067.105.124s.048.105.048.143c0 .048-.019.086-.057.096-.038.019-.077 0-.105-.009a.304.304 0 0 1-.105-.115.34.34 0 0 1-.038-.086c0 .019-.029.038-.048.048-.038.019-.077 0-.105-.01a.312.312 0 0 1-.105-.115.276.276 0 0 1-.038-.096c0 .019-.029.038-.048.048-.029.019-.067.01-.105-.01a.33.33 0 0 1-.115-.115c-.029-.048-.048-.105-.048-.153s.019-.077.057-.096.077 0 .105.01l.01-.01zm-1.349-.593c0 .048.019.105.048.153a.33.33 0 0 0 .115.115c.038.019.067.029.105.009.019 0 .038-.029.048-.048 0 .029.019.057.038.096.029.048.067.096.105.115s.076.029.105.01c.038-.01.057-.048.057-.096a.351.351 0 0 0-.048-.143.205.205 0 0 0-.067-.086h.057c.038-.01.057-.048.057-.096a.351.351 0 0 0-.048-.143.29.29 0 0 0-.115-.124c-.038-.019-.077-.029-.105-.01a.123.123 0 0 0-.048.048c0-.029-.019-.057-.038-.086a.29.29 0 0 0-.115-.124c-.038-.019-.077-.029-.105-.01a.105.105 0 0 0-.057.096c0 .048.019.105.048.153a.245.245 0 0 0 .067.076h-.057a.105.105 0 0 0-.057.096h.01zm.21-.048h.057c.019 0 .038-.029.048-.048 0 .029.019.057.038.086a.52.52 0 0 0 .057.076h-.057a.123.123 0 0 0-.048.048c0-.029-.019-.057-.038-.086a.205.205 0 0 0-.067-.086l.01.01zm20.584 11.497a.351.351 0 0 1-.048-.143c0-.048.019-.086.057-.096a.19.19 0 0 1 .105.009c.038.029.086.067.115.124s.048.105.048.143c0 .048-.019.086-.048.096-.029.019-.067.01-.115-.01a.368.368 0 0 1-.115-.124zm-.899-.85a.351.351 0 0 1-.048-.143c0-.048.019-.086.057-.096.038-.019.077 0 .105.009.038.019.077.067.105.124s.048.105.048.143c0 .048-.019.086-.048.105s-.067.01-.115-.009a.368.368 0 0 1-.115-.124l.01-.009zM61.246 47.201s-.077-.067-.115-.124a.351.351 0 0 1-.048-.143c0-.048.019-.086.057-.096.038-.019.077 0 .105.01a.379.379 0 0 1 .163.267c0 .048-.019.086-.048.096-.029.019-.067.01-.115-.01zm.001.631c-.086-.048-.153-.163-.153-.258s.067-.134.153-.086.153.162.153.258-.067.134-.153.086zm.19-.488a.52.52 0 0 0 .105.01.368.368 0 0 1 .115.124.351.351 0 0 1 .048.143c0 .048-.019.086-.048.105s-.067.01-.115-.009a.379.379 0 0 1-.163-.267c0-.048.019-.086.057-.096v-.01zm.603 1.024a.54.54 0 0 0 .105.009c.038.019.077.067.105.124s.048.105.048.143c0 .048-.019.086-.048.096-.029.019-.067.01-.115-.01a.368.368 0 0 1-.115-.124.351.351 0 0 1-.048-.143c0-.048.019-.086.057-.095h.01zm-1.492-1.195a.57.57 0 0 0 .105.009.368.368 0 0 1 .115.124.351.351 0 0 1 .048.143c0 .048-.019.086-.048.096-.029.019-.067.01-.115-.01a.379.379 0 0 1-.163-.267c0-.048.019-.086.057-.096zM60.252 47.345s.067-.009.105.01a.379.379 0 0 1 .163.267c0 .048-.019.086-.048.096-.029.019-.067.009-.115-.01a.368.368 0 0 1-.115-.124.351.351 0 0 1-.048-.143c0-.048.019-.086.057-.096zm.994.554c.086.048.153.163.153.258s-.067.134-.153.086-.153-.162-.153-.258.067-.134.153-.086z"/><use xlink:href="#J"/><use xlink:href="#J" x=".822" y=".467"/></g><g fill="#ff0c4b"><path d="M48.246 40.196s.067-.009.115.01a.379.379 0 0 1 .163.267c0 .048-.019.086-.057.096a.19.19 0 0 1-.105-.01c-.038-.019-.086-.067-.115-.124s-.048-.105-.048-.143c0-.048.019-.086.048-.096zM48.056 40.368a.8.8 0 0 0 .115.124.351.351 0 0 1 .048.143c0 .048-.019.086-.057.096a.19.19 0 0 1-.105-.01c-.038-.019-.086-.067-.115-.124s-.048-.105-.048-.143c0-.048.019-.086.048-.096.029-.019.067-.01.115.01zm-.001-.688c-.086-.048-.153-.162-.153-.258s.067-.134.153-.086.153.162.153.258-.067.134-.153.086z"/><use xlink:href="#J" x="-12.78" y="-7.914"/><path d="M47.759 39.862s.076.067.115.124a.351.351 0 0 1 .048.143c0 .048-.019.086-.057.096s-.077 0-.105-.01c-.038-.029-.086-.067-.115-.124s-.048-.105-.048-.143c0-.048.019-.086.048-.096.029-.019.067-.01.115.01zm-.592-1.014a.8.8 0 0 0 .115.124.351.351 0 0 1 .048.143c0 .048-.019.086-.057.096a.19.19 0 0 1-.105-.01.379.379 0 0 1-.163-.267c0-.048.019-.086.048-.096.029-.019.067-.01.115.01zm.295.507s.076.067.115.124a.351.351 0 0 1 .048.143c0 .048-.019.086-.057.096a.19.19 0 0 1-.105-.01c-.038-.029-.086-.067-.115-.124s-.048-.105-.048-.143c0-.048.019-.086.048-.096.029-.019.067-.01.115.009zm1.006.554c-.086-.048-.153-.163-.153-.258s.067-.134.153-.086.153.162.153.258-.067.134-.153.086z"/><use xlink:href="#K"/><use xlink:href="#K" x=".298" y="-.172"/><path d="M47.654 39.451c-.086-.048-.153-.163-.153-.258s.067-.134.153-.086.153.163.153.258-.067.134-.153.086z"/></g><path d="M46.085 35.953v5.094l-5.519-3.144-.029-5.123 5.548 3.173z" fill="url(#B)"/><defs><path id="C" d="M10.935 85.649v1.825c0 .201.143.411.411.564.545.315 1.435.315 1.98 0 .277-.162.411-.363.411-.573V85.64c0 .21-.143.411-.421.573-.545.315-1.435.315-1.98 0-.268-.153-.411-.363-.411-.564h.01z"/><path id="D" d="M62.052 8.267c.182.363.497.698.918.975.717.478 1.664.736 2.678.736 1.004 0 1.961-.258 2.669-.736.469-.306.813-.688.985-1.099l.067 1.233c-.172.421-.507.803-.985 1.118-.727.487-1.693.755-2.726.755s-1.999-.268-2.736-.745c-.43-.287-.746-.755-.937-1.128l.067-1.099v-.01z"/><path id="E" d="M64.156 9.71c-.507-1.586.048-2.647.497-3.507.249-.468.459-.879.459-1.281h.124c0 .43-.22.851-.469 1.338-.44.841-.976 1.873-.488 3.412l-.115.038h-.01z"/><path id="F" d="M58.628 18.903a.36.36 0 0 1 .067-.201.352.352 0 0 0-.201.315c0 .191.153.344.344.344.115 0 .22-.057.287-.143a.388.388 0 0 1-.143.029.343.343 0 0 1-.344-.344h-.01z"/><path id="G" d="M91.195 42.288s.067-.019.096 0 .038.048.038.086c0 .048-.019.096-.048.143s-.057.076-.086.096c-.038.019-.067.029-.096.01s-.038-.048-.038-.086.01-.086.048-.143a.3.3 0 0 1 .096-.096l-.01-.01z"/><path id="H" d="M80.397 49.045s.067-.019.096 0 .038.048.038.086c0 .048-.019.095-.048.143s-.057.077-.086.096c-.038.019-.067.029-.096.01s-.038-.048-.038-.086.01-.086.048-.143a.3.3 0 0 1 .096-.096l-.01-.01z"/><path id="I" d="M85.495 47.038a.29.29 0 0 1-.134.229c-.077.038-.134 0-.134-.076 0-.086.057-.182.134-.229.076-.038.134 0 .134.077z"/><path id="J" d="M60.835 47.661c.086.048.153.162.153.258s-.067.134-.153.086-.153-.163-.153-.258.067-.134.153-.086z"/><path id="K" d="M48.543 40.024s.067-.01.115.01a.368.368 0 0 1 .115.124.351.351 0 0 1 .048.143c0 .048-.019.086-.057.096a.19.19 0 0 1-.105-.01.379.379 0 0 1-.163-.267c0-.048.019-.086.048-.096z"/><linearGradient id="A" x1="75.9" y1="52.696" x2="72.418" y2="52.696" gradientUnits="userSpaceOnUse"><stop stop-color="#fff" stop-opacity="0"/><stop offset="1" stop-color="#fff" stop-opacity=".3"/></linearGradient><linearGradient id="B" x1="46.085" y1="36.918" x2="40.537" y2="36.918" gradientUnits="userSpaceOnUse"><stop stop-color="#fff" stop-opacity="0"/><stop offset="1" stop-color="#fff" stop-opacity=".4"/></linearGradient></defs></svg>