<svg width="77" height="140" fill="none" xmlns="http://www.w3.org/2000/svg"><path d="m67.546 81.722-14.748 8.563-18.341-10.576 14.748-8.563 18.341 10.576Z" fill="#B8D1DC"/><path d="m67.546 81.722-.017 19.903-14.748 8.563.017-19.903 14.748-8.563ZM52.798 90.285l-.017 19.902-18.34-10.584.016-19.894 18.341 10.576Z" fill="#8BD3FF"/><path d="m69.544 79.869-16.923 9.82-21.035-12.135L48.5 67.733l21.044 12.136Z" fill="#fff"/><path d="m69.545 79.868-.026 2.978-16.914 9.82.017-2.977 16.923-9.82Z" fill="#8BD3FF"/><path d="m52.621 89.69-.016 2.977L31.569 80.53l.017-2.978L52.621 89.69Z" fill="#8BD3FF"/><path d="m64.281 75.776-4.348 2.516-5.884-3.388 4.34-2.525 5.892 3.397Z" fill="#fff"/><path d="m64.281 75.776-.017 3.388-4.34 2.525.01-3.397 4.347-2.516Z" fill="#D6F2FF"/><path d="m59.933 78.292-.008 3.397-5.893-3.397.017-3.388 5.884 3.388Z" fill="#8BD3FF"/><path d="M60.101 73.948c.915.528.915 1.375.008 1.903-.906.529-2.375.529-3.29 0-.915-.528-.915-1.375 0-1.903.907-.529 2.367-.529 3.282 0Z" fill="#D6F2FF"/><path d="M57.12 74.24c.907-.527 2.367-.527 3.282 0 .076.043.143.093.21.144a1.702 1.702 0 0 0-.512-.445c-.915-.528-2.375-.528-3.282 0-.83.478-.89 1.233-.201 1.761-.353-.486-.185-1.065.503-1.468v.009Z" fill="#8BD3FF"/><path d="M60.017 74.09c.268.16.126.394-.185.579-.176.1-.52.218-.806.302.286.092.647.201.814.302.303.176.462.42.193.579-.268.159-.688.067-.998-.11-.177-.1-.37-.301-.53-.47-.159.169-.352.37-.52.47-.302.177-.721.269-.99.11-.269-.16-.118-.403.185-.58.176-.1.528-.209.814-.301-.286-.092-.638-.201-.806-.302-.31-.184-.462-.42-.193-.579.269-.159.68-.075.999.11.176.1.36.301.52.469.16-.168.344-.369.512-.47.31-.184.722-.268.99-.109Z" fill="#8BD3FF"/><path opacity=".14" d="M59.925 81.69H55.51l-6.019-3.465 4.558-2.633-.017 2.7 5.893 3.397Z" fill="#4B64FF"/><path d="m36.707 68.118-.109 37.062-17.686 10.274.11-37.07 17.685-10.266Z" fill="#8BD3FF"/><path d="m19.021 78.384-.11 37.07-12.515-7.221.11-37.07 12.515 7.221Z" fill="#738189"/><path d="m53.067 63.027-.042 53.886c0 2.282-1.502 4.554-4.508 6.299-6.035 3.506-15.847 3.506-21.925 0-3.055-1.761-4.583-4.076-4.574-6.391l.042-53.886c0 2.315 1.519 4.63 4.574 6.39 6.078 3.507 15.89 3.507 21.925 0 2.997-1.744 4.5-4.016 4.508-6.298Z" fill="#D6F2FF"/><path d="M48.493 56.646c6.077 3.505 6.11 9.183.075 12.69-6.035 3.505-15.847 3.505-21.925 0-6.077-3.507-6.102-9.185-.075-12.69 6.035-3.506 15.848-3.506 21.925 0Z" fill="#fff"/><path d="m52.102 8.462-.042 54.44c0 2.138-1.41 4.277-4.222 5.904-5.657 3.288-14.866 3.288-20.565 0-2.871-1.652-4.298-3.824-4.29-5.988l.042-54.44c0 2.164 1.427 4.336 4.29 5.989 5.7 3.287 14.907 3.287 20.565 0 2.812-1.636 4.222-3.766 4.222-5.905Z" fill="#D6F2FF"/><path d="M47.812 2.466c5.7 3.287 5.733 8.613.067 11.9-5.657 3.288-14.865 3.288-20.565 0-5.7-3.287-5.725-8.613-.067-11.9 5.657-3.288 14.866-3.288 20.565 0Z" fill="#fff"/><path d="M45.882 3.59c4.625 2.666 4.65 6.986.059 9.652-4.592 2.667-12.063 2.667-16.68 0-4.624-2.667-4.641-6.986-.05-9.653 4.592-2.667 12.063-2.667 16.68 0h-.01Z" fill="#D6F2FF"/><path opacity=".14" d="M42.902 5.913c3.408 1.962 3.425 5.15.042 7.112-3.383 1.963-8.89 1.963-12.297 0-3.408-1.963-3.425-5.15-.042-7.112 3.382-1.963 8.889-1.963 12.297 0Z" fill="#4B64FF"/><path d="M29.195 4.36c4.591-2.666 12.062-2.666 16.679 0 2.149 1.242 3.29 2.844 3.45 4.471.184-1.879-.957-3.8-3.45-5.242-4.625-2.667-12.088-2.667-16.68 0-2.45 1.426-3.575 3.321-3.399 5.192.16-1.61 1.284-3.187 3.4-4.412v-.008Z" fill="#8BD3FF"/><path d="M43.691 5.141c3.408 1.963 3.425 5.15.042 7.112-3.383 1.963-8.89 1.963-12.297 0-3.408-1.962-3.425-5.15-.042-7.112 3.383-1.962 8.889-1.962 12.297 0Z" fill="#8BD3FF"/><path d="M43.691 4.57c3.408 1.963 3.425 5.15.042 7.113-3.383 1.962-8.89 1.962-12.297 0-3.408-1.963-3.425-5.15-.042-7.112 3.383-1.963 8.889-1.963 12.297 0Z" fill="#fff"/><path d="M42.624 5.184c2.82 1.627 2.837 4.269.034 5.896-2.804 1.627-7.37 1.627-10.19 0-2.82-1.627-2.838-4.27-.034-5.896 2.804-1.627 7.37-1.627 10.19 0Z" fill="#D6F2FF"/><path d="m32.342 7.918 5.557 3.22 1.36-.78-2.284-1.333L39.091 7.8l2.291 1.334 1.36-.789-5.557-3.22-1.36.78L38 7.17l-2.115 1.225-2.174-1.267-1.368.789Z" fill="#fff"/><path d="M51.362 4.873v2.55c0 .05-.033.091-.1.133a.499.499 0 0 1-.462 0c-.067-.033-.1-.083-.1-.134v-2.55c0 .05.033.101.1.135a.499.499 0 0 0 .462 0c.067-.034.092-.084.092-.134h.008Z" fill="#D6F2FF"/><path d="M51.27 4.739c.127.075.127.192 0 .268a.499.499 0 0 1-.46 0c-.127-.076-.127-.193 0-.268a.499.499 0 0 1 .46 0Z" fill="#738189"/><path d="M51.808 2.86v1.845c0 .117-.084.226-.235.31-.302.176-.79.176-1.092 0-.15-.084-.226-.201-.226-.319V2.851c0 .118.084.227.235.319.302.176.789.176 1.091 0 .151-.084.227-.201.227-.31Z" fill="#8BD3FF"/><path d="M51.581 2.541c.303.176.303.453 0 .63-.302.175-.789.175-1.09 0-.303-.177-.303-.454 0-.63.301-.176.788-.176 1.09 0Z" fill="#fff"/><path d="M51.044 1.584c.302 0 .545.244.545.546v.645c0 .11-.1.227-.302.286a.925.925 0 0 1-.478 0c-.202-.06-.311-.177-.311-.286V2.13c0-.302.244-.546.546-.546Z" fill="#00E6AB"/><path d="m17.938 116.335.05-.076c.101-.134.21-.26.353-.386.093-.083.202-.15.31-.226.093-.067.169-.134.278-.193l.109-37.062s-.034.026-.05.034c-.084.05-.143.109-.219.168-.109.075-.218.15-.31.226-.009 0-.017.017-.025.025a3.01 3.01 0 0 0-.277.294c-.017.025-.034.05-.05.067l-.051.075c-.025.042-.059.084-.084.118-.05.084-.084.168-.118.251 0 .017 0 .025-.008.042a.119.119 0 0 1-.017.05c-.017.051-.033.11-.05.16a1.285 1.285 0 0 0-.025.252v.041l-.11 37.062c0-.151.026-.302.076-.453 0-.016 0-.033.017-.05.05-.142.117-.277.21-.411l-.009-.008ZM6.614 89.237c-4.34-2.508-6.513-5.804-6.505-9.1L0 117.2c-.008 3.296 2.157 6.592 6.505 9.1l9.41 5.426.11-37.062-9.41-5.426Z" fill="#8BD3FF"/><path d="M49.039 90.235c-6.296 3.657-16.578 3.657-22.924 0-1.922-1.107-3.299-2.44-4.054-3.891v.545c.822 1.333 2.132 2.566 3.911 3.598 3.207 1.853 7.42 2.776 11.617 2.776 4.197 0 8.403-.923 11.593-2.776 1.78-1.032 3.08-2.265 3.886-3.606v-.58c-.739 1.468-2.107 2.819-4.03 3.943v-.009Z" fill="#fff"/><path d="M49.039 90.05c-6.296 3.657-16.578 3.657-22.924 0-1.922-1.106-3.299-2.44-4.054-3.89v.544c.822 1.334 2.132 2.567 3.911 3.598 3.207 1.854 7.42 2.776 11.617 2.776 4.197 0 8.403-.922 11.593-2.776 1.78-1.031 3.08-2.264 3.886-3.606v-.579c-.739 1.468-2.107 2.818-4.03 3.942v-.008Z" fill="#8BD3FF"/><path d="M70.308 91.258 70.2 116.26l-33.492 19.449.1-25.001 33.501-19.45Z" fill="#D6F2FF"/><path d="m44.84 131.012-8.276-4.764.034-.058 8.276 4.772-.033.05ZM36.825 116.679l-.034-.058 33.517-19.366.034.06-33.517 19.364Z" fill="#fff"/><path d="m44.933 130.954-8.335-4.806.016-.042 8.344 4.806-.025.042Z" fill="#8BD3FF"/><path d="M44.983 106.061h-.067v24.85h.067v-24.85Z" fill="#fff"/><path d="M45.084 106.061h-.067v24.85h.067v-24.85Z" fill="#8BD3FF"/><path d="M60.085 97.17h-.067v24.851h.067v-24.85Z" fill="#fff"/><path d="M60.185 97.17h-.067v24.851h.067v-24.85Z" fill="#8BD3FF"/><path d="M56.785 99.084h-.067v9.309h.067v-9.31Z" fill="#fff"/><path d="m36.774 120.025-.034-.059 19.995-11.608.017.009 13.514 7.8-.025.058-13.506-7.791-19.961 11.591Z" fill="#fff"/><path d="m36.825 120.016-.025-.042 19.986-11.607.017.008 13.514 7.8-.025.042-13.506-7.792-19.961 11.591Z" fill="#4B64FF"/><path d="M56.837 99.084h-.05v9.309h.05v-9.31Z" fill="#4B64FF"/><path d="m63.305 104.158-4.495 7.914.138.078 4.496-7.913-.139-.079ZM66.354 103.033l.134.101-7.034 12.178-.142-.076 7.042-12.203ZM67.16 106.363l.143.076-4.567 7.9-.142-.101 4.566-7.875Z" fill="#fff"/><path d="m74.941 129.377-.067.956c0 .268-.176.528-.529.738-.705.411-1.855.411-2.56 0-.36-.21-.537-.478-.537-.746l.067-.957c0 .269.177.537.537.747.706.411 1.855.411 2.56 0 .353-.201.53-.47.53-.738Z" fill="#8BD3FF"/><path d="M74.413 128.631c.705.411.713 1.073 0 1.484-.705.411-1.855.411-2.56 0-.714-.411-.714-1.073 0-1.484.705-.411 1.855-.411 2.56 0Z" fill="#fff"/><path d="m74.471 115.505-.05 13.746c0 .201-.135.394-.386.545-.52.302-1.377.302-1.897 0-.269-.151-.395-.352-.395-.553l.05-13.746c0 .201.135.402.395.553.529.302 1.377.302 1.897 0 .26-.151.386-.352.386-.545Z" fill="#D6F2FF"/><path d="M74.069 114.951c.529.302.529.797 0 1.099-.529.302-1.377.302-1.897 0s-.529-.797 0-1.099c.52-.302 1.376-.302 1.897 0Z" fill="#D6F2FF"/><path d="m59.194 137.998-.067.956c0 .268-.176.528-.529.738-.705.411-1.855.411-2.56 0-.36-.21-.537-.478-.537-.747l.067-.956c0 .269.176.537.537.747.705.411 1.855.411 2.56 0 .353-.202.53-.47.53-.738Z" fill="#8BD3FF"/><path d="M58.658 137.252c.705.411.713 1.074 0 1.485-.714.411-1.855.411-2.56 0-.714-.411-.714-1.074 0-1.485.705-.411 1.855-.411 2.56 0Z" fill="#fff"/><path d="m58.716 124.127-.05 13.746c0 .201-.134.394-.386.545-.52.302-1.377.302-1.897 0-.269-.151-.395-.352-.395-.553l.05-13.747c0 .202.135.403.395.554.529.302 1.377.302 1.897 0 .26-.151.386-.352.386-.545Z" fill="#D6F2FF"/><path d="M58.322 123.573c.529.302.529.797 0 1.099-.53.302-1.377.302-1.897 0s-.53-.797 0-1.099c.529-.302 1.376-.302 1.897 0Z" fill="#D6F2FF"/><path d="m49.248 132.941-.067.956c0 .269-.176.529-.529.738-.705.411-1.855.411-2.56 0-.361-.209-.537-.478-.537-.746l.067-.956c0 .268.176.537.537.746.705.411 1.855.411 2.56 0 .353-.201.529-.469.529-.738Z" fill="#8BD3FF"/><path d="m49.248 132.941-.067.956c0 .269-.176.529-.529.738-.705.411-1.855.411-2.56 0-.361-.209-.537-.478-.537-.746l.067-.956c0 .268.176.537.537.746.705.411 1.855.411 2.56 0 .353-.201.529-.469.529-.738Z" fill="#8BD3FF"/><path d="M48.71 132.194c.706.411.714 1.074 0 1.485-.705.411-1.855.411-2.56 0-.713-.411-.713-1.074 0-1.485.705-.411 1.855-.411 2.56 0Z" fill="#D6F2FF"/><path d="m48.77 119.07-.051 13.746c0 .201-.135.394-.386.545-.52.302-1.377.302-1.898 0-.268-.151-.394-.352-.394-.554l.05-13.746c0 .202.135.403.395.554.529.302 1.377.302 1.897 0 .26-.151.386-.352.386-.545Z" fill="#8BD3FF"/><path d="M33.794 71.64h-.269v32.869h.269V71.641Z" fill="#fff"/><path d="M48.376 118.515c.528.302.528.797 0 1.099-.52.302-1.377.302-1.898 0-.52-.302-.528-.797 0-1.099.53-.302 1.377-.302 1.898 0Z" fill="#D6F2FF"/><path d="m66.673 125.258-.067.957c0 .268-.177.528-.53.738-.704.411-1.854.411-2.56 0-.36-.21-.536-.479-.536-.747l.067-.956c0 .268.176.537.537.746.705.411 1.855.411 2.56 0 .353-.201.529-.469.529-.738Z" fill="#8BD3FF"/><path d="m66.673 125.258-.067.957c0 .268-.177.528-.53.738-.704.411-1.854.411-2.56 0-.36-.21-.536-.479-.536-.747l.067-.956c0 .268.176.537.537.746.705.411 1.855.411 2.56 0 .353-.201.529-.469.529-.738Z" fill="#8BD3FF"/><path d="M66.136 124.512c.705.411.714 1.074 0 1.485-.705.411-1.855.411-2.56 0-.713-.411-.713-1.074 0-1.485.714-.411 1.855-.411 2.56 0Z" fill="#D6F2FF"/><path d="m66.204 111.387-.05 13.746c0 .201-.135.394-.387.545-.52.302-1.376.302-1.897 0-.268-.151-.394-.352-.394-.554l.05-13.746c0 .201.134.403.394.554.53.302 1.377.302 1.897 0 .26-.151.387-.353.387-.545Z" fill="#8BD3FF"/><path d="M65.8 110.833c.53.302.53.797 0 1.099-.529.302-1.376.302-1.897 0-.52-.302-.529-.797 0-1.099.52-.302 1.377-.302 1.897 0Z" fill="#D6F2FF"/><path d="m55.56 127.733-.009 2.298-11.777-6.793.009-2.298 11.777 6.793ZM76.26 115.715l-.009 2.298-20.7 12.018.01-2.298 9.862-10.366 10.837-1.652Z" fill="#8BD3FF"/><path opacity=".14" d="m55.56 127.733-.009 2.298-11.777-6.793.009-2.298 11.777 6.793Z" fill="#4B64FF"/><path d="m76.259 115.715-11.777-6.794-10.837 1.652 11.777 6.794 10.837-1.652Z" fill="#fff"/><path d="m43.783 120.939 11.777 6.794 9.863-10.366-11.777-6.794-9.863 10.366Z" fill="#D6F2FF"/><path d="M63.685 122.977a.498.498 0 0 1 .118.344c0 .277-.076.52-.227.755-.151.218-.37.427-.646.587l-.974.562v-2.835l.856-.503c.302-.176.53-.243.697-.202.151.042.235.185.235.437 0 .142-.034.285-.092.427l-.269.394c.126-.05.235-.025.302.042v-.008Zm-.495.965.092-.319c0-.269-.117-.327-.344-.201l-.47.276v.772l.445-.252a.817.817 0 0 0 .285-.276m-.73-1.384v.713l.386-.218c.252-.143.395-.344.395-.571l-.101-.218c-.067-.025-.16 0-.31.084l-.361.21M65.356 120.419l.94 2.298-.546.311-.176-.487-.898.52-.16.679-.545.311.906-3.363.47-.277.009.008Zm-.537 2.089.62-.361-.318-.881-.31 1.242M68.529 118.592l.008 2.835-.504.293-.999-1.3v1.87l-.503.294-.009-2.835.504-.293.999 1.291v-1.862l.504-.293ZM31.52 16.077h-.269v54.44h.269v-54.44ZM70.97 117.182l-.88 1.77.906 1.057-.596.343-.638-.771-.269.486v.805l-.503.294-.009-2.835.504-.293.008 1.283.219-.487.63-1.291.629-.361ZM46.52 14.962h-.269V70.25h.269V14.962Z" fill="#fff"/><path d="M48.324 23.417c-5.91 3.43-15.554 3.43-21.497 0-1.796-1.04-3.09-2.29-3.803-3.649v.512c.764 1.258 1.998 2.407 3.669 3.371 3.013 1.737 6.958 2.609 10.895 2.609 3.937 0 7.882-.872 10.87-2.609 1.67-.964 2.888-2.121 3.643-3.388v-.545c-.697 1.375-1.972 2.65-3.777 3.69v.009Z" fill="#fff"/><path d="M48.324 23.232c-5.91 3.43-15.554 3.43-21.497 0-1.796-1.04-3.09-2.29-3.803-3.648v.511c.764 1.258 1.998 2.407 3.669 3.372 3.013 1.736 6.958 2.608 10.895 2.608 3.937 0 7.882-.872 10.87-2.608 1.67-.965 2.888-2.122 3.643-3.388v-.546c-.697 1.376-1.972 2.65-3.777 3.69v.01Z" fill="#8BD3FF"/><path d="M48.324 38.119c-5.91 3.43-15.554 3.43-21.497 0-1.796-1.04-3.09-2.29-3.803-3.649v.512c.764 1.258 1.998 2.407 3.669 3.371 3.013 1.736 6.958 2.609 10.895 2.609 3.937 0 7.882-.873 10.87-2.609 1.67-.964 2.888-2.122 3.643-3.388v-.545c-.697 1.375-1.972 2.65-3.777 3.69v.009Z" fill="#fff"/><path d="M48.324 37.942c-5.91 3.43-15.554 3.43-21.497 0-1.796-1.04-3.09-2.29-3.803-3.648v.512c.764 1.258 1.998 2.407 3.669 3.371 3.013 1.736 6.958 2.608 10.895 2.608 3.937 0 7.882-.872 10.87-2.608 1.67-.964 2.888-2.122 3.643-3.388v-.545c-.697 1.375-1.972 2.65-3.777 3.69v.008Z" fill="#8BD3FF"/><path d="M48.324 54.532c-5.91 3.43-15.554 3.43-21.497 0-1.796-1.04-3.09-2.29-3.803-3.648v.512c.764 1.258 1.998 2.407 3.669 3.371 3.013 1.736 6.958 2.608 10.895 2.608 3.937 0 7.882-.872 10.87-2.608 1.67-.964 2.888-2.122 3.643-3.388v-.545c-.697 1.375-1.972 2.65-3.777 3.69v.008Z" fill="#fff"/><path d="M48.324 54.356c-5.91 3.43-15.554 3.43-21.497 0-1.796-1.04-3.09-2.29-3.803-3.648v.511c.764 1.258 1.998 2.407 3.669 3.372 3.013 1.736 6.958 2.608 10.895 2.608 3.937 0 7.882-.872 10.87-2.608 1.67-.965 2.888-2.122 3.643-3.388v-.546c-.697 1.376-1.972 2.65-3.777 3.69v.01Z" fill="#8BD3FF"/><path d="M49.039 76.48c-6.296 3.657-16.578 3.657-22.924 0-1.922-1.107-3.299-2.44-4.054-3.891v.545c.822 1.334 2.132 2.566 3.911 3.598 3.207 1.853 7.42 2.776 11.617 2.776 4.197 0 8.403-.922 11.593-2.776 1.78-1.032 3.08-2.264 3.886-3.606v-.58c-.739 1.469-2.107 2.819-4.03 3.943v-.009Z" fill="#fff"/><path d="M49.039 76.287c-6.296 3.657-16.578 3.657-22.924 0-1.922-1.107-3.299-2.44-4.054-3.891v.545c.822 1.334 2.132 2.566 3.911 3.598 3.207 1.854 7.42 2.776 11.617 2.776 4.197 0 8.403-.922 11.593-2.776 1.78-1.032 3.08-2.264 3.886-3.606v-.579c-.739 1.468-2.107 2.818-4.03 3.942v-.009ZM31.738 16.077h-.268v54.44h.268v-54.44Z" fill="#8BD3FF"/><path d="M26.643 69.326c-3.056-1.76-4.583-4.076-4.575-6.39l-.05 53.886c0 2.314 1.519 4.629 4.574 6.39 1.771 1.024 3.87 1.736 6.086 2.164V71.482c-2.208-.428-4.281-1.14-6.044-2.156h.009Z" fill="#4B64FF" opacity=".14"/><path d="M46.73 14.962h-.27v54.524h.27V14.962Z" fill="#8BD3FF"/><path d="m19.029 78.385 3.038-1.762V62.131L6.505 71.163c-8.57 4.99-8.528 13.092.1 18.066l9.41 5.426 12.44-7.221-9.41-5.426c-1.729-.998-1.745-2.626-.016-3.623Z" fill="#fff"/><path d="m18.87 78.611 3.198-1.862V64.244L8.05 72.38c-7.404 4.302-7.362 11.297.092 15.6l8.126 4.688 10.744-6.24-8.125-4.688c-1.495-.864-1.511-2.265-.017-3.129Z" fill="#D6F2FF"/><path d="m8.486 73.637 13.582-7.884v-1.501L8.05 72.387C3.114 75.256 1.51 79.315 3.18 82.98c-.822-3.313.932-6.802 5.305-9.343ZM34.012 71.64h-.269v32.869h.269V71.641Z" fill="#8BD3FF"/><path d="M50.59 67.733h-.268V100.6h.269V67.733Z" fill="#fff"/><path d="M50.809 67.733h-.269V100.6h.269V67.733Z" fill="#8BD3FF"/><path d="m18.417 71.432-4.759 2.767-4.071-2.348 4.76-2.767 4.07 2.348Z" fill="#fff"/><path d="m17.419 71.625.268-.16-3.39-1.954-3.98 2.307.269.159 3.71-2.156 3.123 1.804Z" fill="#8BD3FF"/><path d="m18.417 71.432-.008 2.96-4.76 2.768.009-2.96 4.76-2.768Z" fill="#D6F2FF"/><path d="m13.658 74.199-.009 2.96-.755-.436-.009-.008-3.307-1.904.008-2.96 4.072 2.348Z" fill="#8BD3FF"/><path d="M12.886 75.055v1.66l-2.703-1.56.008-1.652 2.694 1.552Z" fill="#D6F2FF"/><path d="M12.944 75.415v.344l-2.82-1.619.008-.352 2.812 1.627ZM12.944 76.095v.344l-2.82-1.619.008-.352 2.812 1.627ZM16.47 76.79a.433.433 0 0 1-.437-.435v-.705a.134.134 0 0 0-.067-.117l-.57-.327c-.194-.11-.286-.36-.194-.562a.43.43 0 0 1 .613-.193l.848.486a.486.486 0 0 1 .243.42v1.006a.439.439 0 0 1-.436.436v-.008ZM17.922 75.927a.433.433 0 0 1-.437-.436v-.704a.134.134 0 0 0-.067-.118l-.57-.327c-.194-.109-.286-.36-.194-.562a.43.43 0 0 1 .613-.193l.848.487a.486.486 0 0 1 .243.42V75.5a.439.439 0 0 1-.436.436v-.009Z" fill="#8BD3FF"/><path d="m28.464 87.434-.11 37.07-12.439 7.221.11-37.062 12.44-7.23Z" fill="#D6F2FF"/><path d="M16 120.863v.621l12.44-7.221v-.621L16 120.863Z" fill="#fff"/><path d="M16 120.461v.621l12.44-7.222v-.62L16 120.461Z" fill="#8BD3FF"/><path d="m36.808 110.707-.1 25.001-13.523-7.799.109-25.002 13.514 7.8Z" fill="#8BD3FF"/><path d="m70.309 91.259-33.5 19.449-13.515-7.8 33.492-19.45 13.523 7.8Z" fill="#fff"/><path d="m68.16 91.258-31.495 18.124-11.374-6.567 31.494-18.133 11.374 6.576Z" fill="#D6F2FF"/><path d="m67.563 91.602.596-.344-11.374-6.576-31.494 18.133.596.344 30.898-17.78 10.778 6.223Z" fill="#8BD3FF"/><path d="m23.201 128.127-.033-.059 8.36-4.831.017.008 5.053 2.919-.033.059-5.037-2.91-8.326 4.814Z" fill="#D6F2FF"/><path d="m23.226 128.051-.025-.042 8.352-4.831.009.008 5.053 2.919-.017.042-5.045-2.91-8.327 4.814Z" fill="#4B64FF"/><path d="M31.57 107.78h-.067v15.499h.067V107.78Z" fill="#D6F2FF"/><path d="M31.62 107.688h-.05v15.499h.05v-15.499Z" fill="#4B64FF"/><path d="m36.775 116.704-13.498-7.666.034-.059 13.498 7.675-.034.05Z" fill="#D6F2FF"/><path d="m36.783 116.603-13.498-7.674.025-.05 13.506 7.665-.033.059ZM29.799 118.608h-.068V131.7h.068v-13.092Z" fill="#4B64FF"/><path d="M32.056 133.067h-.067l.034-13.075-4.92-2.835-.033 13.033h-.067l.034-13.151.05.034 5.003 2.885v.017l-.034 13.092Z" fill="#D6F2FF"/><path d="M32.116 133.042h-.068l.034-13.084-4.919-2.835-.033 13.034h-.067l.033-13.151.05.033 5.003 2.886v.016l-.033 13.101Z" fill="#4B64FF"/><path d="m27.557 122.877-.059-.059 2.2-2.206.058.059-2.2 2.206ZM29.388 124.713l-.059-.059 2.208-2.205.059.058-2.208 2.206ZM27.81 124.327l-.059-.058 3.408-3.405.059.058-3.408 3.405Z" fill="#fff"/><path d="m36.833 116.595-.033-.059 33.517-19.373.025.058-33.509 19.374Z" fill="#8BD3FF"/><path d="m44.154 109.152-4.496 7.914.139.079 4.496-7.914-.139-.079ZM47.208 108.023l.143.109-7.035 12.178-.142-.084 7.034-12.203ZM48.022 111.353l.135.084-4.558 7.901-.143-.109 4.566-7.876ZM33.383 21.244l-4.496 7.914.138.078 4.496-7.913-.139-.08ZM36.438 20.112l.143.1-7.042 12.179-.135-.076 7.034-12.203ZM37.252 23.442l.134.076-4.566 7.9-.135-.1 4.567-7.876ZM41.093 35.766l-4.496 7.914.138.079 4.496-7.914-.139-.079ZM44.145 34.637l.142.1-7.034 12.178-.143-.075 7.035-12.203ZM44.959 37.967l.134.075-4.558 7.9-.142-.1 4.566-7.875ZM34.267 54.153l-4.496 7.913.14.08 4.495-7.915-.139-.078ZM37.32 53.023l.142.1-7.043 12.178-.134-.076 7.034-12.202ZM38.124 56.352l.143.076-4.566 7.9-.135-.1 4.558-7.876ZM35.685 78.45l-4.496 7.914.14.079 4.495-7.914-.139-.079ZM38.738 77.32l.143.1-7.034 12.178-.143-.076 7.034-12.203ZM39.553 80.64l.134.084-4.558 7.9-.143-.1 4.567-7.884Z" fill="#fff"/><path d="M6.513 98.621C2.551 96.341.301 93.346.066 90.16v2.432c.949 2.45 3.047 4.697 6.17 6.5l9.754 5.628v-.621L6.513 98.63v-.009Z" fill="#D6F2FF"/><path d="M6.513 98.219C2.551 95.938.301 92.943.066 89.756v2.433c.949 2.449 3.047 4.696 6.17 6.5l9.754 5.627v-.621l-9.477-5.468v-.008Z" fill="#4B64FF"/><path d="M6.513 115.363C2.551 113.081.301 110.087.066 106.9v2.432c.949 2.449 3.047 4.697 6.17 6.5l9.754 5.628v-.621l-9.477-5.468v-.008Z" fill="#D6F2FF"/><path d="M6.513 114.952c-3.962-2.282-6.212-5.276-6.447-8.463v2.432c.949 2.449 3.047 4.697 6.17 6.5l9.754 5.628v-.621l-9.477-5.468v-.008Z" fill="#4B64FF"/><path d="M16 104.098v.621l12.44-7.222v-.629L16 104.098Z" fill="#fff"/><path d="M16 103.695v.621l12.44-7.221v-.63L16 103.696Z" fill="#8BD3FF"/><path d="m6.87 97.895-4.496 7.914.139.078 4.496-7.914-.14-.078ZM9.922 96.769l.135.1-7.034 12.179-.143-.076 7.042-12.203ZM10.728 100.099l.143.075-4.566 7.901-.143-.101 4.566-7.875Z" fill="#fff"/><path opacity=".14" d="m23.277 102.907-7.32 15.197-.042 13.621 7.286-4.227.076-24.591ZM27.314 14.366c-2.871-1.652-4.298-3.824-4.29-5.988l-.042 54.44c0 2.163 1.427 4.335 4.29 5.988.503.293 1.04.545 1.595.788V15.13a16.676 16.676 0 0 1-1.553-.763Z" fill="#4B64FF"/></svg>