<svg width="40" height="41" viewBox="0 0 40 41" fill="none" xmlns="http://www.w3.org/2000/svg"><path fill-rule="evenodd" clip-rule="evenodd" d="M36.895 34.111c-.01 0-.01.01 0 0-.351.386-.711.736-1.099 1.12-.585.57-1.178 1.167-1.737 1.838-.909.992-1.98 1.46-3.384 1.46-.135 0-.279 0-.414-.009-2.673-.174-5.157-1.24-7.02-2.15-5.095-2.515-9.568-6.088-13.285-10.616-3.07-3.775-5.122-7.266-6.481-11.013-.837-2.287-1.143-4.069-1.008-5.75.09-1.074.495-1.965 1.242-2.727l3.07-3.132c.44-.423.908-.652 1.368-.652.566 0 1.025.348 1.314.642a45.957 45.957 0 011.647 1.672c.279.295.567.588.855.891l2.457 2.507c.954.974.954 1.874 0 2.847-.261.267-.513.533-.774.79a47.605 47.605 0 01-2.26 2.241c-.017.019-.036.028-.044.046-.774.79-.63 1.562-.468 2.085l.027.083c.639 1.58 1.539 3.068 2.907 4.84l.008.01c2.485 3.122 5.104 5.556 7.993 7.42.37.24.748.433 1.108.616.324.166.63.32.89.488.037.017.073.045.109.064.305.155.594.229.89.229.748 0 1.216-.478 1.369-.634l3.078-3.141c.306-.312.792-.689 1.36-.689.557 0 1.016.359 1.295.67l.018.019 4.96 5.061c.927.936.927 1.901.008 2.875zm-3.223-9.671c-.872-.927-1.926-1.424-3.042-1.424-1.107 0-2.169.487-3.078 1.414l-2.844 2.894c-.234-.13-.468-.249-.693-.368-.325-.165-.63-.321-.891-.487-2.665-1.726-5.086-3.976-7.408-6.888-1.125-1.451-1.881-2.672-2.43-3.912.738-.69 1.422-1.406 2.088-2.094.252-.258.504-.524.756-.78 1.89-1.93 1.89-4.428 0-6.357l-2.457-2.507a37.29 37.29 0 01-.837-.872 43.02 43.02 0 00-1.693-1.709C10.27.469 9.227 0 8.128 0c-1.098 0-2.16.469-3.06 1.35l-.018.018-3.06 3.15C.838 5.695.181 7.128.037 8.79c-.216 2.682.558 5.18 1.152 6.815 1.458 4.014 3.636 7.733 6.886 11.72 3.942 4.802 8.685 8.596 14.104 11.268 2.07 1.002 4.833 2.187 7.92 2.388.19.01.387.019.567.019 2.08 0 3.825-.762 5.193-2.278.01-.018.028-.027.036-.046.468-.578 1.009-1.102 1.575-1.662.388-.377.783-.772 1.17-1.185.892-.946 1.36-2.047 1.36-3.178 0-1.138-.477-2.232-1.386-3.15l-4.941-5.061z" fill="#F9C000"/></svg>